<?xml version="1.0" encoding="UTF-8" standalone="no"?>
<!-- Created with Inkscape (http://www.inkscape.org/) -->

<svg
   xmlns:dc="http://purl.org/dc/elements/1.1/"
   xmlns:cc="http://creativecommons.org/ns#"
   xmlns:rdf="http://www.w3.org/1999/02/22-rdf-syntax-ns#"
   xmlns:svg="http://www.w3.org/2000/svg"
   xmlns="http://www.w3.org/2000/svg"
   xmlns:sodipodi="http://sodipodi.sourceforge.net/DTD/sodipodi-0.dtd"
   xmlns:inkscape="http://www.inkscape.org/namespaces/inkscape"
   id="svg3336"
   version="1.1"
   inkscape:version="0.91 r13725"
   width="3450"
   height="3276.25"
   viewBox="0 0 3450 3276.25"
   sodipodi:docname="omegav_inverted.svg">
  <metadata
     id="metadata3342">
    <rdf:RDF>
      <cc:Work
         rdf:about="">
        <dc:format>image/svg+xml</dc:format>
        <dc:type
           rdf:resource="http://purl.org/dc/dcmitype/StillImage" />
        <dc:title></dc:title>
      </cc:Work>
    </rdf:RDF>
  </metadata>
  <defs
     id="defs3340" />
  <sodipodi:namedview
     pagecolor="#ffffff"
     bordercolor="#666666"
     borderopacity="1"
     objecttolerance="10"
     gridtolerance="10"
     guidetolerance="10"
     inkscape:pageopacity="0"
     inkscape:pageshadow="2"
     inkscape:window-width="1920"
     inkscape:window-height="1138"
     id="namedview3338"
     showgrid="false"
     inkscape:zoom="0.1767767"
     inkscape:cx="1362.2261"
     inkscape:cy="2091.2077"
     inkscape:window-x="-8"
     inkscape:window-y="259"
     inkscape:window-maximized="1"
     inkscape:current-layer="svg3336" />
  <path
     style="fill:#ffffff"
     d="m 312.04099,3065.1342 c -9.3381,-1.3601 -28.5008,-7.4729 -37.1234,-11.8423 -21.6464,-10.9691 -35.2858,-29.7278 -45.3636,-62.3902 -8.8403,-28.6517 -10.6697,-45.6756 -10.6697,-99.2904 0,-55.1196 2.2518,-74.7087 11.903,-103.5511 10.3823,-31.027 23.202,-47.825 44.4362,-58.2259 6.4822,-3.1751 16.8483,-7.282 23.0358,-9.1265 9.9521,-2.9666 13.3412,-3.3535 29.375,-3.3535 16.0339,0 19.423,0.3869 29.375,3.3535 33.3195,9.9324 49.3714,23.7919 62.4397,53.9118 l 3.8103,8.7821 0,-20 c 0,-18.8334 0.1823,-20.3646 3.125,-26.25 2.7181,-5.4361 4.0203,-6.6139 10,-9.0444 6.7872,-2.7587 7.5542,-2.7907 60,-2.5 l 53.125,0.2944 6.25,3.125 c 5.5789,2.7894 6.5675,3.927 9.2065,10.5934 1.6261,4.1076 4.7768,18.1701 7.0015,31.25 2.7556,16.2009 4.3131,22.7855 4.886,20.6566 0.4626,-1.7187 2.4378,-12.4062 4.3895,-23.75 1.9516,-11.3437 4.8912,-24 6.5324,-28.125 2.6637,-6.6945 3.6554,-7.8356 9.2341,-10.625 l 6.25,-3.125 53.125,0.154 c 29.2188,0.085 56.7813,0.1508 61.25,0.1466 4.4688,0 52.5625,-0.074 106.875,-0.154 l 98.75,-0.1466 5.2868,2.8247 c 9.2294,4.9314 12.8052,15.4123 12.8247,37.5898 l 0.014,15.4144 7.0737,-14.1644 c 5.8034,-11.6209 8.6654,-15.7469 15.9375,-22.9759 10.20764,-10.1471 22.81664,-17.2581 39.48881,-22.2702 25.8941,-7.7847 44.0741,-7.6029 68.7339,0.6868 7.0151,2.3583 10.9936,2.7477 28.7661,2.8158 18.9475,0.073 21.0557,0.3091 25.9207,2.9084 5.6517,3.0195 8.7962,7.9101 11.4416,17.7956 1.0822,4.0439 1.4009,18.9766 1.134,53.125 -0.3637,46.5289 -0.4314,47.6489 -3.309,54.782 -1.9751,4.896 -4.1549,8.0222 -6.6529,9.5414 l -3.7151,2.2592 8.5278,0.4847 c 5.7941,0.3292 10.5315,1.4781 14.7779,3.5836 5.536,2.7451 6.6069,3.9559 9.375,10.5991 2.7884,6.6923 3.125,9.25 3.125,23.75 0,14.1863 -0.3755,17.1812 -2.9565,23.5823 -2.6631,6.6046 -3.5594,7.5968 -9.033,10 l -6.0766,2.6677 -0.03,21.5625 c -0.016,11.8594 0.1678,21.5625 0.409,21.5625 2.5057,0 8.3493,-3.1642 8.8497,-4.792 0.3522,-1.1456 11.0761,-53.2705 23.8309,-115.833 12.7548,-62.5625 23.7759,-115.7187 24.4914,-118.125 3.1098,-10.4588 5.0138,-13.31 10.9263,-16.3616 5.6463,-2.9143 6.8771,-3.0263 37.4366,-3.4042 43.0386,-0.5322 48.8375,1.2253 53.3798,16.1785 1.7053,5.6142 49.3968,236.0105 49.3968,238.6349 0,0.4771 3.3594,2.0923 7.4652,3.5894 9.2112,3.3585 10.4276,4.5519 13.7842,13.5233 2.3534,6.29 2.6298,9.2195 2.2701,24.0633 -0.3505,14.4693 -0.8286,17.8303 -3.3221,23.3563 -2.5116,5.5661 -3.8014,6.8568 -9.3675,9.375 -6.3894,2.8905 -6.9874,2.9237 -58.9549,3.279 -50.0206,0.342 -52.8275,0.2398 -59.436,-2.1629 -6.9261,-2.5184 -6.9453,-2.5184 -13.4509,-0.046 -5.9704,2.2686 -9.6217,2.473 -43.689,2.4458 -36.1908,-0.029 -37.3642,-0.1075 -44.3616,-2.9855 l -7.1875,-2.9557 -7.1875,2.9557 c -6.2228,2.5592 -9.2857,2.9598 -22.8207,2.9855 -8.5983,0.016 -17.4719,-0.4976 -19.7191,-1.1421 -3.1366,-0.8996 -5.7484,-0.5984 -11.2418,1.2968 -18.1533,6.2626 -26.7588,7.821 -43.4059,7.8605 -14.2687,0.034 -17.6978,-0.3924 -28.1249,-3.4952 -28.81667,-8.575 -44.60031,-21.1113 -56.10481,-44.562 l -6.1874,-12.6122 -0.4412,15.4045 c -0.3695,12.9015 -0.9449,16.623 -3.5414,22.9044 -2.7459,6.6427 -3.8146,7.8572 -9.3502,10.625 l -6.25,3.125 -96.8405,0.3352 c -82.4167,0.2854 -97.6414,0.062 -102.217,-1.4966 -4.7019,-1.6021 -6.0198,-1.605 -10.5041,-0.023 -7.5562,2.6659 -103.3461,2.657 -110.9063,-0.013 -4.5143,-1.5928 -5.8,-1.5928 -10.3143,0 -3.7919,1.3377 -11.1959,1.8195 -27.9678,1.8195 -16.772,0 -24.176,-0.4818 -27.9679,-1.8195 -4.5143,-1.5928 -5.8,-1.5928 -10.3143,0 -7.8971,2.7862 -76.0646,2.6242 -85.7931,-0.2039 -13.6894,-3.9796 -17.0331,-11.9854 -16.3548,-39.1581 l 0.4301,-17.2325 -2.6154,6.3945 c -12.6357,30.8937 -29.3063,46.0175 -61.2566,55.5725 -16.3859,4.9002 -31.4892,6.1138 -47.3463,3.8045 z m 36.2183,-24.238 c 36.4394,-7.6505 56.2935,-36.5447 63.1265,-91.8695 1.6605,-13.4444 1.6389,-99.1737 -0.029,-114.2786 -3.3144,-30.0203 -10.0865,-50.8609 -21.6166,-66.5234 -14.8182,-20.1291 -36.0733,-28.8956 -66.95,-27.6129 -23.652,0.9825 -36.7828,6.2059 -50.932,20.2605 -14.3283,14.2324 -23.1619,36.5469 -27.2864,68.9283 -4.1014,32.2005 -3.4161,105.72 1.2396,132.9761 2.6492,15.5099 9.1147,34.8686 15.0352,45.0185 9.6764,16.5886 26.7666,28.9854 45.5375,33.0314 10.7608,2.3195 30.9985,2.3531 41.875,0.07 z m -31.5966,-30.1956 c -6.1472,-3.0299 -9.9455,-8.3496 -13.0801,-18.3195 -2.8232,-8.9793 -2.8233,-8.9809 -2.8233,-100.2294 0,-96.2982 0.1065,-98.3166 5.7832,-109.6151 1.2753,-2.5383 4.3895,-6.1945 6.9205,-8.125 4.117,-3.1402 5.6098,-3.5099 14.1713,-3.5099 8.6284,0 10.036,0.3556 14.3109,3.6163 6.2291,4.7512 10.1994,13.7337 11.9377,27.0087 0.9426,7.1979 1.2599,38.4447 0.9836,96.875 -0.3981,84.2201 -0.4705,86.4348 -3.0758,94.1008 -4.927,14.4978 -11.9025,20.2987 -24.3453,20.2457 -3.6773,-0.015 -8.5296,-0.9371 -10.7827,-2.0476 z m 13.7859,-27.3581 c 0.5571,-2.6817 0.855,-45.7843 0.6619,-95.7838 -0.3614,-93.5731 -0.5461,-96.9619 -5.0387,-92.4696 -1.2223,1.2222 -1.5625,22.029 -1.5625,95.5625 0,51.7001 0.4222,95.0312 0.9382,96.2916 1.4502,3.5421 3.8806,1.7922 5.0011,-3.6007 z m 729.06071,56.2712 c 4.125,-1.1356 11.3757,-4.0062 16.1126,-6.3792 l 8.6126,-4.3145 2.7801,2.6117 c 2.4819,2.3316 4.3736,2.6232 17.6374,2.7196 l 14.8573,0.1075 0.625,-55.6882 c 0.3438,-30.6287 0.9063,-55.9398 1.25,-56.247 2.3282,-2.081 6.8974,-3.3973 11.7928,-3.3973 l 5.7072,0 5e-4,-14.6875 4e-4,-14.6875 -48.7504,0.341 -48.7505,0.341 0,14.2055 0,14.2054 8.7271,0.4931 c 4.7999,0.2713 9.4405,1.2052 10.3125,2.0753 1.1238,1.1215 1.7013,7.8313 1.9836,23.0443 0.9444,50.9097 -5.8755,68.4198 -26.6482,68.4198 -15.1666,0 -22.6801,-9.6049 -25.5752,-32.6936 -2.0323,-16.2083 -1.6442,-161.7655 0.4628,-173.5564 2.1551,-12.0601 6.2042,-20.567 12.8833,-27.0667 6.5215,-6.3464 14.3539,-9.1833 25.3541,-9.1833 15.6934,0 27.0464,6.6912 33.6483,19.8319 5.9726,11.8878 6.6108,16.5494 7.581,55.37 0.011,0.4548 1.0051,0.6385 2.2082,0.4081 1.2031,-0.2303 7.1094,-0.4618 13.125,-0.5144 l 10.9375,-0.096 0,-48.75 0,-48.75 -13.125,0 -13.125,0 -0.198,3.4375 c -0.1089,1.8906 -0.1155,4.4219 -0.015,5.625 0.2618,3.1243 -0.721,2.764 -6.3607,-2.331 -10.1897,-9.2059 -26.2299,-14.2427 -45.2516,-14.2097 -16.2196,0.028 -27.6369,2.489 -40.04987,8.6325 -23.6723,11.7162 -36.66924,33.3132 -44.00644,73.1257 -2.5887,14.0471 -3.74,103.8378 -1.6103,125.6021 5.3816,54.9986 22.76994,83.529 56.48001,92.6709 7.6557,2.0763 11.872,2.3864 26.0117,1.9133 10.0933,-0.3377 19.8891,-1.3943 24.375,-2.6293 z m -463.22651,-66.011 c 5.6816,-33.1106 14.7715,-86.076 20.1997,-117.701 5.4283,-31.625 10.0928,-58.3437 10.3657,-59.375 0.2729,-1.0312 0.5614,44.2831 0.6411,100.6986 0.116,82.0704 -0.1779,103.0153 -1.4707,104.7833 -1.455,1.9898 -6.0987,2.859 -17.1343,3.2067 -1.5669,0.05 -1.833,2.3517 -1.6194,14.0138 0.1447,7.9005 0.8118,14.2985 1.5377,14.7471 0.7051,0.4357 2.8401,0.698 4.7444,0.5826 1.9043,-0.115 23.5717,-0.2822 48.1498,-0.371 l 44.6875,-0.1611 0,-14.375 0,-14.375 -5.3125,-0.093 c -7.6558,-0.1339 -11.2936,-0.9776 -13.4318,-3.1154 -1.6386,-1.6383 -1.9274,-15.431 -2.2435,-107.1486 -0.1995,-57.8975 -0.037,-107.0781 0.3617,-109.2905 1.1488,-6.379 3.5115,-7.8526 12.5904,-7.8526 l 8.0357,0 0,-15 0,-15 -49.375,0 c -27.1562,0 -49.375,0.3726 -49.375,0.8281 0,1.561 -31.4412,183.5298 -31.7673,183.8559 -0.1791,0.1791 -7.2584,-41.3015 -15.7319,-92.1792 l -15.4062,-92.5052 -49.7973,0 -49.7973,0 0,15 0,15 7.8861,0 c 14.1442,0 12.6899,-12.4869 13.0716,112.2356 0.3852,125.8582 1.6783,114.1143 -12.6656,115.0277 l -8.2921,0.528 0,14.2293 0,14.2294 37.5,0 37.5,0 0,-14.375 c 0,-7.9062 -0.4218,-14.3996 -0.9375,-14.4297 -0.5156,-0.03 -4.1517,-0.1708 -8.0803,-0.3125 -12.7077,-0.4585 -11.5646,9.5037 -11.9033,-103.7399 -0.1629,-54.4599 0.052,-99.8616 0.4764,-100.8929 0.7744,-1.8794 3.9823,15.7776 22.9366,126.25 15.5381,90.5611 17.4615,101.6514 18.151,104.6541 0.6193,2.6978 1.1784,2.7894 19.0601,3.125 10.1321,0.1903 20.153,0.155 22.2686,-0.078 l 3.8465,-0.4241 10.3304,-60.2009 z m 321.3514,17.0695 10e-5,-43.9795 -12.8125,-0.3955 c -7.0468,-0.2175 -12.9937,-0.308 -13.2153,-0.201 -0.2215,0.1075 -0.5655,7.9819 -0.7644,17.5 -0.2002,9.5769 -1.0284,18.9803 -1.8546,21.0555 -3.0944,7.773 -7.8906,13.0818 -14.9515,16.5493 l -7.0267,3.4507 -30,0 -30,0 0,-53.125 0,-53.125 11.25,-0.2212 c 15.673,-0.3084 20.6034,0.6322 24.6797,4.7086 l 3.4453,3.4454 0,18.8461 c 0,14.1941 0.3857,18.869 1.5625,18.9388 0.8594,0.051 6.9063,0.1279 13.4375,0.1711 l 11.875,0.077 0.3244,-60.7959 0.3244,-60.796 -13.7619,0 -13.7619,0 0,18.1871 c 0,26.3475 -0.4216,26.8606 -22.6353,27.5491 -19.5112,0.606 -17.3647,6.2897 -17.3647,-45.9771 l 0,-44.9504 30.9375,0.4088 c 30.117,0.3977 31.1016,0.4915 37.1237,3.5336 11.8329,5.9775 16.8023,16.8065 16.4842,35.9216 -0.1983,11.9145 -1.2985,11.1781 15.7671,10.5521 l 10.9375,-0.4011 0,-39.9192 0,-39.9192 -94.4936,0.3204 -94.4937,0.3204 -0.1083,14.375 -0.1084,14.375 8.4539,0.625 c 6.451,0.4769 8.8739,1.1999 10.227,3.0514 1.4984,2.0505 1.7704,18.9951 1.756,109.375 -0.01,58.8217 -0.3461,108.1753 -0.7482,109.6746 -0.9357,3.4891 -3.1343,4.3466 -12.3217,4.8061 l -7.462,0.3733 -0.038,14.4348 c -0.035,13.4956 0.1246,14.4584 2.462,14.7973 1.375,0.1994 43.9843,0.3625 94.6873,0.3625 l 92.1874,0 10e-5,-43.9795 z m 303.43761,43.8166 c 2.7078,-0.7256 2.8125,-1.2833 2.8125,-14.9828 0,-7.8262 -0.4219,-14.2525 -0.9375,-14.2808 -13.995,-0.7695 -15.9143,-1.1209 -17.4274,-3.1902 -0.8993,-1.2299 -1.6351,-2.873 -1.6351,-3.6514 0,-4.8041 10.3563,-51.3094 11.6025,-52.1011 1.9391,-1.2323 46.0759,-1.2775 47.8456,-0.049 1.7234,1.1961 10.8379,51.8436 9.8113,54.519 -0.9478,2.4696 -4.7233,3.524 -13.3861,3.7385 l -6.4983,0.1605 -0.3489,15 -0.3489,15 50.3489,-0.3397 50.3489,-0.3399 -0.1345,-13.554 c -0.074,-7.4548 -0.4621,-14.0842 -0.8625,-14.732 -0.4004,-0.6478 -3.7134,-1.2508 -7.3622,-1.3399 -5.3042,-0.1296 -7.1441,-0.7545 -9.1755,-3.1162 -2.6903,-3.1278 -2.1662,-0.7009 -36.7883,-170.3283 -8.9807,-44 -16.5862,-80.7031 -16.9011,-81.5625 -0.4353,-1.188 -7.4483,-1.5625 -29.2581,-1.5625 l -28.6856,0 -1.4228,6.5625 c -1.2089,5.5756 -20.3847,99.0721 -23.7785,115.9375 -1.2159,6.0426 -23.0029,112.563 -25.2377,123.3916 -1.8379,8.9053 -4.3588,10.9073 -13.5954,10.7969 l -7.4228,-0.089 0,14.804 0,14.804 32.1875,0.3558 c 17.7031,0.1955 32.4688,0.4786 32.8125,0.629 0.3438,0.1504 1.8906,-0.066 3.4375,-0.4804 z m 0.7838,-118.7116 c -0.9623,-0.4134 1.6675,-15.76 8.3645,-48.812 5.3724,-26.515 9.9705,-48.4115 10.2179,-48.6589 0.784,-0.784 17.4567,94.4889 16.824,96.1377 -0.4397,1.146 -5.1598,1.6248 -17.3037,1.756 -9.1845,0.099 -17.3306,-0.091 -18.1027,-0.4228 z m -789.50211,70.3156 c 1.8732,-0.9433 4.9527,-2.0861 6.8433,-2.5395 l 3.4375,-0.8242 0,-90.9961 0,-90.9963 -6.7078,-2.7802 c -5.4971,-2.2784 -7.1116,-3.6759 -8.9455,-7.7428 -3.2026,-7.102 -3.3979,-5.4892 -0.4682,3.8666 3.9614,12.6503 7.0654,29.2318 8.673,46.3299 1.7775,18.9058 0.9253,102.2768 -1.1805,115.4915 -1.1549,7.247 -6.1722,29.0964 -8.4424,36.7648 -0.3232,1.0918 0.3061,0.4455 1.3986,-1.4365 1.0924,-1.882 3.5188,-4.1938 5.392,-5.1372 z m 606.27231,-21.5145 c 0.6293,-22.8747 0.3741,-24.2271 -4.5817,-24.2825 -1.4102,-0.016 -1.6239,4.0382 -1.2014,22.7983 0.2826,12.5496 0.9773,23.5674 1.5438,24.484 2.5353,4.1021 3.6619,-2.01 4.2393,-22.9998 z m 204.5305,20.0359 c 4.3692,-1.8256 4.5416,-2.1239 3.7935,-6.5625 -1.5231,-9.0362 -1.5132,-9.025 -7.9508,-9.025 l -5.9669,0 -1.5602,6.972 c -0.8582,3.8346 -1.3696,7.099 -1.1364,7.2544 0.9703,0.6464 6.7345,3.111 7.4587,3.189 0.4316,0.046 2.8446,-0.776 5.3621,-1.8279 z m -521.95851,-0.7097 3.9365,-1.3724 0,-91.0308 0,-91.0307 -4.1363,-1.3651 c -3.0059,-0.992 -5.2264,-0.9852 -8.125,0.025 l -3.9887,1.3905 0,90.9468 0,90.9469 4.0625,1.3033 c 2.2344,0.7167 4.1192,1.3606 4.1885,1.4307 0.069,0.07 1.8974,-0.4899 4.0625,-1.2446 z m 144.1506,-4.4466 c 1.4596,-1.3208 2.2859,-3.8062 2.2859,-6.875 l 0,-4.8062 -10.4384,0 c -11.212,0 -15.7834,-1.0416 -26.1241,-5.9524 -0.5156,-0.2449 -0.9375,4.088 -0.9375,9.6286 l 0,10.0738 16.4641,0 c 13.5659,0 16.8665,-0.3641 18.75,-2.0688 z m 62.5636,-92.7662 0.3473,-38.5851 -4.8446,1.7101 c -2.7036,0.9542 -9.747,1.71 -15.9375,1.71 l -11.0929,0 0,35.625 0,35.625 11.5625,0.088 c 6.3594,0.049 12.6875,0.5712 14.0625,1.1621 5.6613,2.4328 5.5376,3.215 5.9027,-37.335 z m 131.59731,-20.0555 c 19.2442,-0.6651 20.8767,-0.8921 17.2954,-2.404 -2.8993,-1.2239 -4.7187,-3.392 -6.8182,-8.125 -2.4775,-5.585 -2.9691,-9.3209 -3.6457,-27.7055 -0.8555,-23.2491 -1.7154,-26.4256 -8.7575,-32.3511 -2.8054,-2.3607 -5.3128,-3.2739 -8.9884,-3.2739 -4.2955,0 -5.8242,0.7637 -9.7141,4.8529 -5.8642,6.1645 -6.2465,8.8706 -6.2465,44.2173 l 0,27.4714 2.8125,-0.9739 c 1.5469,-0.5356 12.375,-1.3042 24.0625,-1.7082 z m -224.37501,-63.2345 3.125,-1.7864 -4.0625,-0.044 c -2.7974,-0.03 -4.0625,0.5396 -4.0625,1.8307 0,2.3014 0.9742,2.3014 5,0 z M 2060.5281,3065.342 c -9.9029,-1.5622 -23.7329,-6.0769 -33.1638,-10.8263 -7.893,-3.9747 -8.7089,-4.1466 -11.3792,-2.397 -7.9308,5.1964 -13.0965,5.6304 -67.1907,5.6445 -44.2041,0.012 -52.8342,-0.2828 -57.7871,-1.9704 -5.3265,-1.8149 -6.3369,-1.813 -11.8636,0.023 -5.3743,1.785 -16.73,1.9696 -102.8379,1.6714 l -96.7965,-0.335 -6.4549,-2.9201 c -5.563,-2.5166 -6.8583,-3.812 -9.375,-9.375 -2.6435,-5.8434 -2.9201,-8.231 -2.9201,-25.2049 0,-16.9739 0.2766,-19.3615 2.9201,-25.2049 2.5001,-5.5263 3.792,-6.83 8.9818,-9.0625 3.3338,-1.4342 6.6604,-2.6076 7.3924,-2.6076 0.9288,0 1.3307,-27.5506 1.3307,-91.2261 l 0,-91.2263 -3.1332,-0.7864 c -3.385,-0.8496 -10.2123,0.1225 -12.9195,1.8397 -1.0468,0.6638 -11.0135,45.0048 -26.4981,117.8872 -13.651,64.2526 -26.0212,120.0334 -27.4893,123.9573 -4.8043,12.8405 -10.5334,14.5276 -49.3349,14.5276 -38.4316,0 -44.5523,-1.745 -49.141,-14.0096 -2.1615,-5.7772 -12.792,-54.358 -44.4295,-203.0423 -4.4125,-20.7372 -8.4006,-38.3153 -8.8624,-39.0625 -0.4619,-0.7472 -1.6866,-1.3586 -2.7216,-1.3586 -1.0351,0 -4.6098,-1.1734 -7.9436,-2.6076 -5.194,-2.2344 -6.4781,-3.5316 -8.9711,-9.0625 -2.4683,-5.4759 -2.9727,-8.9365 -3.3258,-22.8171 -0.4659,-18.3109 1.582,-28.6884 6.664,-33.7704 6.3293,-6.3293 12.1566,-6.8774 68.9173,-6.4819 50.7945,0.3539 52.4748,0.4434 57.8618,3.0821 l 5.5482,2.7178 5.0768,-2.7178 c 4.9208,-2.634 6.3267,-2.7158 45.7019,-2.6612 22.3438,0.031 42.875,0.1367 45.625,0.2349 2.75,0.098 49.1563,-0.084 103.125,-0.4044 86.2675,-0.5125 98.8425,-0.349 104.0625,1.353 5.3729,1.7519 6.5084,1.7492 11.9408,-0.028 5.2137,-1.7054 14.5425,-1.9098 70.9375,-1.5544 l 64.9342,0.4091 13.125,4.1326 c 37.3164,11.7498 55.2568,28.9215 65.4808,62.6754 6.9985,23.105 7.2241,42.7546 0.7501,65.3053 -4.9544,17.2572 -11.4526,30.0337 -19.6531,38.6414 l -6.7373,7.0716 3.0886,6.0951 c 4.058,8.0081 9.2579,24.05 10.9639,33.8241 l 1.3636,7.8125 11.7333,0 c 8.5095,0 13.4542,0.6539 17.9967,2.3799 l 6.2634,2.38 0,-77.775 0,-77.7749 -6.7502,-2.7977 c -6.0074,-2.49 -7.0723,-3.5127 -9.6769,-9.2925 -2.488,-5.5213 -2.989,-8.9473 -3.3429,-22.857 -0.4659,-18.3109 1.582,-28.6884 6.664,-33.7704 6.3293,-6.3293 12.1566,-6.8774 68.9173,-6.4819 48.1233,0.3353 52.6731,0.5506 56.8006,2.6879 4.3731,2.2644 4.5949,2.2644 8.75,0 3.8739,-2.1113 8.1234,-2.3576 46.5419,-2.6981 54.2083,-0.4804 58.5945,0.518 63.1118,14.3652 l 2.1094,6.4659 7.2094,-5.9448 c 14.6602,-12.0883 40.9517,-22.1118 61.5406,-23.4618 13.8979,-0.9114 25.6458,0.8422 42.7085,6.3751 10.5183,3.4107 13.8341,4.0124 17.0421,3.0924 6.7479,-1.9353 31.3158,-1.3872 37.8915,0.8453 5.3598,1.8198 6.3943,1.8179 12.2418,-0.021 5.7105,-1.7961 17.4446,-1.9548 110.7516,-1.4972 57.4005,0.2814 105.4895,0.5123 106.8645,0.5131 1.375,7e-4 46.6409,-0.2301 100.5909,-0.513 84.9971,-0.4458 98.8281,-0.2633 103.613,1.3671 4.9295,1.6797 6.2284,1.6762 12.1054,-0.032 5.6087,-1.6305 15.8075,-1.8546 68.8871,-1.5139 l 62.3036,0.4 10.625,3.3966 c 28.8943,9.2368 45.4159,22.2928 56.5189,44.6633 10.5036,21.163 17.0585,45.7086 19.8336,74.2704 2.3218,23.8956 0.8696,87.6167 -2.4145,105.9517 -3.4459,19.238 -10.2232,39.9921 -18.0764,55.3549 -11.3833,22.269 -25.6457,33.4575 -55.2366,43.332 l -12.5,4.1712 -61.6389,0.41 c -54.4391,0.362 -62.3577,0.1712 -67.7936,-1.6343 -5.6379,-1.8727 -6.7235,-1.8789 -12.9285,-0.075 -5.8985,1.7146 -18.919,1.9691 -100.764,1.9691 -101.9806,0 -103.9882,-0.125 -110.7372,-6.8736 -4.6623,-4.6623 -6.7628,-14.3689 -6.7628,-31.2514 0,-23.7039 3.7073,-32.5841 14.8563,-35.5863 l 5.1437,-1.3851 0,-61.6589 0,-61.6588 -7.069,2.332 c -12.8082,4.2255 -37.6525,2.833 -47.9697,-2.6887 -1.4707,-0.787 -3.7387,-3.7762 -5.0402,-6.6426 -2.3573,-5.1922 -2.3663,-4.9619 -2.3936,61.8113 l -0.028,67.023 5.0393,0.6758 c 2.7716,0.3718 7.6935,1.9927 10.9375,3.6022 5.1401,2.55 6.2998,3.8901 9.0232,10.4261 2.7885,6.6922 3.125,9.25 3.125,23.75 0,14.5 -0.3365,17.0577 -3.125,23.75 -2.7631,6.6316 -3.8486,7.8619 -9.375,10.625 l -6.25,3.125 -61.875,0 -61.875,0 -6.4549,-2.9201 c -5.563,-2.5167 -6.8583,-3.812 -9.375,-9.375 -2.6435,-5.8434 -2.9201,-8.231 -2.9201,-25.2049 0,-16.9739 0.2766,-19.3615 2.9201,-25.2049 2.5413,-5.6174 3.754,-6.8136 9.3469,-9.2196 3.5348,-1.5205 8.5488,-3.0493 11.1424,-3.3971 l 4.7156,-0.6325 -0.041,-67.648 -0.041,-67.6479 -2.5732,5.8326 c -2.1682,4.9146 -3.588,6.289 -9.0218,8.7324 -5.3626,2.4116 -9.0364,2.9729 -21.816,3.3331 -8.5159,0.24 -17.0052,-0.1379 -19.041,-0.8475 -2.7865,-0.9714 -3.905,-0.8862 -4.6325,0.3525 -1.3475,2.2949 -7.3347,5.1081 -14.9481,7.024 l -6.4891,1.6329 6.0948,6.6687 c 12.4002,13.5678 22.8157,33.9163 28.9949,56.6463 2.4378,8.9671 2.8786,13.5506 2.825,29.375 -0.06,17.8064 -0.2722,19.3791 -4.2139,31.25 -6.6611,20.0609 -12.8878,31.208 -23.0808,41.3191 -14.6289,14.5114 -38.6987,25.0979 -64.3008,28.2809 -15.3631,1.91 -29.8004,0.013 -49.2297,-6.4715 -14.4195,-4.8119 -14.723,-4.8563 -20.2695,-2.9664 -4.4035,1.5004 -9.1142,1.7689 -21.6113,1.2316 -8.7892,-0.3778 -17.3867,-0.5962 -19.1055,-0.4852 -3.2312,0.2085 -104.7367,0.1995 -112.5,-0.012 -2.4062,-0.065 -28.141,0.1459 -57.1884,0.4686 l -52.8133,0.5866 -7.8772,-3.1513 -7.8771,-3.1513 -8.0595,4.2451 c -15.4364,8.1309 -34.8231,11.8658 -49.5407,9.544 z m 31.4812,-25.7819 c 7.8975,-2.7949 20.5836,-15.1469 23.0146,-22.4084 0.9604,-2.8691 1.9303,-13.124 2.2757,-24.0625 l 0.6018,-19.0625 -11.3835,0 -11.3836,0 0,13.1651 c 0,14.3769 -1.5732,20.1684 -6.3961,23.5465 -6.6123,4.6314 -13.3633,1.0033 -15.9771,-8.5866 -0.7723,-2.8331 -1.3739,-16.105 -1.3883,-30.625 -0.019,-18.4171 -0.5569,-27.8794 -1.9146,-33.6397 -3.8268,-16.2344 -13.0243,-30.7129 -23.8865,-37.6017 l -5.2834,-3.3506 6.7094,-2.1149 c 27.1935,-8.572 41.932,-35.3596 40.3257,-73.2931 -1.5768,-37.2392 -19.9171,-60.524 -55.3141,-70.2265 -9.539,-2.6146 -12.8672,-2.7632 -72.1875,-3.2247 l -62.1875,-0.4837 0,15.0924 0,15.0925 7.8125,0.019 c 4.2969,0.013 8.4804,0.4438 9.2968,0.963 3.9393,2.5048 4.1371,8.431 3.8272,114.6771 -0.2787,95.5435 -0.5197,106.9601 -2.2946,108.7347 -2.0479,2.0478 -5.8524,2.871 -13.9544,3.0199 l -4.6875,0.086 0,14.375 c 0,10.6648 0.4033,14.3758 1.5625,14.3782 0.8594,0 24.0625,0.04 51.5625,0.085 l 50,0.081 0.3521,-14.4598 0.3523,-14.4597 -7.5398,-0.1563 c -4.1467,-0.086 -8.1021,-0.2969 -8.7896,-0.4687 -0.6875,-0.1719 -2.0536,-0.3828 -3.0357,-0.4688 -0.9822,-0.086 -2.6697,-1.0401 -3.75,-2.1205 -1.7177,-1.7177 -1.9643,-8.0076 -1.9643,-50.1076 l 0,-48.1433 14.2779,0.42 c 13.0925,0.3853 14.5456,0.6719 17.502,3.4523 1.7731,1.6677 3.7824,5.0427 4.465,7.5 0.6961,2.5056 1.2442,21.2242 1.2481,42.6199 0,33.1213 0.3088,39.2401 2.2951,46.4036 5.4515,19.6599 18.6029,32.3252 38.1978,36.7862 9.9251,2.2597 29.2875,1.5222 37.6391,-1.4335 z m -115.625,-213.6584 0,-48.125 15.6651,0 c 22.093,0 28.2254,2.9239 33.0224,15.7447 6.2641,16.7427 5.9334,53.5146 -0.6054,67.2939 -2.5461,5.3656 -7.6626,10.0221 -12.9561,11.7913 -2.337,0.7811 -11.1964,1.4201 -19.6875,1.4201 l -15.4385,0 0,-48.125 z m 28.9699,18.1086 c 0.4646,-3.0847 0.8449,-11.2336 0.8449,-18.1086 0,-16.7835 -1.0956,-23.603 -3.8773,-24.1377 -2.0234,-0.389 -2.1875,1.422 -2.1875,24.1377 0,22.7157 0.1641,24.5268 2.1875,24.1377 1.5301,-0.2941 2.4414,-2.1059 3.0324,-6.0291 z m 479.2531,194.5605 c 24.7605,-8.0117 42.8683,-27.5345 48.6459,-52.4475 2.8846,-12.4383 2.5983,-35.3342 -0.5968,-47.7216 -4.9688,-19.2639 -14.6817,-35.5159 -30.4384,-50.9306 -4.7397,-4.6368 -23.4938,-19.7824 -41.6758,-33.6569 -18.182,-13.8745 -35.6963,-28.1182 -38.9205,-31.6526 -14.8181,-16.2433 -13.4092,-38.0254 3.0849,-47.6916 4.8831,-2.8617 7.7126,-3.5325 16.7133,-3.9629 17.9093,-0.8563 31.0407,4.2729 41.921,16.3744 11.0098,12.2456 14.2934,22.7057 14.2934,45.5328 l 0,15.3624 13.125,0 13.125,0 0,-50 0,-50 -13.125,0 -13.125,0 0,6.4103 0,6.4101 -4.0625,-3.2975 c -12.9325,-10.4971 -33.6381,-16.9999 -54.175,-17.0141 -23.3334,-0.016 -41.5017,7.057 -56.0407,21.8173 -12.6925,12.8858 -18.2912,27.6709 -18.3068,48.3453 -0.02,27.3565 11.0442,52.7596 30.9984,71.1666 4.0466,3.7329 21.9494,17.7558 39.7839,31.162 36.3061,27.2913 44.817,35.0051 49.7203,45.064 10.8009,22.1568 5.3153,41.946 -14.16,51.0823 -6.0941,2.8588 -8.4578,3.2287 -20.6326,3.2287 -12.9522,0 -14.2536,-0.2385 -22.4291,-4.1099 -11.2235,-5.3147 -18.068,-11.0111 -25.1425,-20.9252 -8.62,-12.0799 -10.7954,-19.4505 -11.518,-39.0274 l -0.6115,-16.5625 -12.9619,0 -12.962,0 0,51.5625 0,51.5625 13.1217,0 13.1218,0 -8e-4,-8.6827 -7e-4,-8.6827 4.0625,3.814 c 9.8259,9.2248 23.8322,16.3634 38.8849,19.8184 12.5625,2.8835 37.7423,1.7076 50.2756,-2.3479 z m -893.223,-5.3635 c 0,-0.4986 6.4112,-30.7266 38.8004,-182.936 7.5347,-35.4092 13.6996,-65.2935 13.6996,-66.4095 0,-3.5218 3.8626,-5.44 12.2546,-6.0851 l 8.1294,-0.625 -0.1538,-13.75 c -0.085,-7.5625 -0.1711,-14.1719 -0.1921,-14.6875 -0.021,-0.5156 -16.3506,-0.9375 -36.2881,-0.9375 l -36.25,0 0,15 0,15 8.5111,0 c 9.9674,0 13.1881,1.7344 13.0015,7.0013 -0.07,1.993 -4.9666,26.405 -10.88,54.2487 -5.9135,27.8438 -13.9186,65.6845 -17.7892,84.0904 -3.8706,18.406 -7.4168,33.031 -7.8804,32.5 -0.4635,-0.5309 -9.1206,-39.6913 -19.2381,-87.0228 -21.1236,-98.821 -20.581,-90.8176 -6.1561,-90.8176 l 7.9312,0 0,-15 0,-15 -49.2395,0 -49.2395,0 -0.6947,2.8125 c -0.3822,1.5469 -0.4487,7.875 -0.1478,14.0625 0.301,6.1875 0.5526,11.6042 0.5594,12.0373 0.012,0.433 3.4041,1.0326 7.55,1.3324 4.7241,0.3418 8.3057,1.3132 9.595,2.6024 1.9942,1.9944 6.6036,22.773 43.4922,196.0618 6.5312,30.6812 11.8749,56.1234 11.8749,56.5381 0,0.8165 52.9601,1.7244 56.5625,0.9698 1.2031,-0.2522 2.1875,-0.6959 2.1875,-0.9862 z m 280.953,-42.7548 -0.328,-44.2764 -12.8129,-0.1373 -12.8128,-0.1371 3e-4,15.7106 c 5e-4,20.0262 -1.9623,27.3221 -9.2341,34.3236 -7.9132,7.6192 -12.1807,8.4593 -45.453,8.9486 l -29.0625,0.4272 0,-53.7424 0,-53.7423 15.527,0.3918 c 23.3417,0.5892 24.4559,1.9638 24.4634,30.1829 l 0,16.25 13.1276,-0.3929 13.1276,-0.393 0,-60.5445 0,-60.5446 -13.125,0 -13.125,0 -0.013,15.9375 c -0.012,27.9339 -1.2825,29.4886 -24.1921,29.6083 l -15.1759,0.079 -0.3282,-45.4089 -0.3282,-45.4087 30.9532,0.4087 c 34.4241,0.4548 35.0355,0.5867 44.4286,9.5873 6.1275,5.8715 8.3996,13.5701 8.3996,28.4597 l 0,11.5595 11.5625,0.4173 c 6.3594,0.2295 12.2656,0.2092 13.125,-0.045 1.2077,-0.3574 1.5625,-9.5155 1.5625,-40.3286 l 0,-39.8663 -94.375,0 -94.375,0 0,15 0,15 7.2219,0 c 4.5132,0 8.2638,0.7298 10,1.9459 l 2.7781,1.9459 0,109.7761 c 0,124.9752 1.2348,113.0606 -11.7532,113.4151 l -7.6218,0.208 -0.3521,14.4714 -0.3521,14.4714 91.6021,0.3206 c 50.3811,0.1764 92.8747,0.338 94.4301,0.3592 l 2.828,0.039 -0.328,-44.2764 z m 358.7729,44.0263 c 2.7871,-0.7467 2.8429,-1.0882 2.5,-15.2953 l -0.3509,-14.5318 -7.8685,-0.1013 c -12.5782,-0.1608 -12.064,1.4143 -12.5294,-38.3794 l -0.398,-34.0198 8.4046,-11.7472 c 7.2289,-10.1042 8.6124,-11.4632 9.8902,-9.7158 2.7769,3.7977 39.3761,88.1473 39.3761,90.7495 0,2.1323 -0.8262,2.6139 -4.6875,2.7325 -2.5781,0.079 -5.5728,0.06 -6.6546,-0.041 -1.0819,-0.1013 -3.2041,0.2723 -4.7161,0.8316 -2.54,0.9396 -2.7794,1.9641 -3.1489,13.4787 -0.22,6.854 0.019,13.3057 0.5297,14.3369 0.807,1.6276 7.3764,1.83 49.8035,1.534 l 48.8739,-0.341 0,-14.3465 c 0,-10.5929 -0.4089,-14.3715 -1.5625,-14.4421 -1.9577,-0.12 -5.559,-0.7884 -9.2863,-1.7239 -1.733,-0.4349 -3.9449,-2.8181 -5.581,-6.013 -4.0062,-7.8232 -63.5702,-142.3901 -63.5702,-143.6176 0,-1.5865 49.2756,-68.7274 52.9699,-72.1746 2.3867,-2.227 5.1974,-3.1929 10.9119,-3.75 l 7.6971,-0.7503 -0.024,-14.375 -0.024,-14.375 -39.5158,-0.33 -39.5157,-0.3301 0,15.0176 0,15.0175 8.5,0 c 8.5967,0 11.5261,1.2609 11.4709,4.9375 -0.025,1.686 -7.3739,12.2139 -32.3266,46.3125 -3.2702,4.4688 -12.5653,17.2656 -20.656,28.4375 -8.0904,11.1719 -15.1901,20.3125 -15.7767,20.3125 -0.5866,0 -0.9586,-21.4247 -0.8266,-47.6105 l 0.24,-47.6105 2.951,-2.3895 c 2.1589,-1.7481 4.9268,-2.3895 10.3125,-2.3895 l 7.3615,0 0,-15 0,-15 -49.375,0 -49.375,0 -0.1025,4.0625 c -0.096,3.8131 -0.06,20.9396 0.051,24.375 0.035,1.0708 2.4112,1.5625 7.5508,1.5625 5.8334,0 8.0555,0.5555 10,2.5 2.4618,2.4619 2.4997,4.1536 2.4808,110.9375 -0.012,59.6406 -0.4323,109.0564 -0.9375,109.8129 -1.7947,2.6879 -6.4661,4.2496 -12.7112,4.2496 l -6.3321,0 0,13.125 c 0,7.2188 -5e-4,13.5469 0,14.0625 -6e-4,0.5156 20.6713,1.2291 45.9375,1.5856 25.2663,0.3565 46.2199,0.7708 46.5637,0.9205 0.3437,0.1498 1.9078,-0.071 3.4758,-0.4915 z m 727.7741,-44.1928 0,-43.5933 -12.8125,-0.4069 c -7.0469,-0.2238 -13.2344,-0.228 -13.75,-0.013 -0.5156,0.2188 -0.9375,7.858 -0.9375,16.9763 0,20.2581 -1.6161,25.9885 -9.3364,33.1047 -2.971,2.7386 -7.5701,5.6765 -10.2202,6.5285 -3.0825,0.991 -15.5139,1.709 -34.5059,1.9929 l -29.6875,0.4439 0,-53.7926 0,-53.7927 15.603,0.4864 c 16.9515,0.5285 20.9403,1.8736 23.2028,7.8245 0.6568,1.7275 1.1942,10.9794 1.1942,20.5596 0,15.7274 0.2124,17.4259 2.1875,17.4935 7.2021,0.2463 23.1534,9e-4 23.5161,-0.3617 0.3288,-0.3289 0.8956,-111.9005 0.6066,-119.4006 -0.044,-1.1471 -3.5507,-1.5625 -13.1852,-1.5625 l -13.125,0 0,17.4186 c 0,26.7 -0.5693,27.3645 -24.222,28.2775 l -15.778,0.609 0,-45.6526 0,-45.6525 27.4385,0 c 30.6291,0 37.6052,0.9923 45.0902,6.4145 8.3043,6.0156 11.1942,13.7613 11.209,30.0438 0.013,7.5629 0.5415,13.5137 1.2352,13.75 0.6726,0.2292 6.8601,0.2387 13.75,0.021 l 12.5271,-0.3955 0,-39.917 0,-39.917 -95,0 -95,0 0,15 0,15 8.0357,0 c 9.4799,0 11.4789,1.4426 12.5785,9.0774 0.4197,2.9137 0.5938,52.1058 0.3869,109.316 -0.4267,118.0181 0.6186,107.8861 -11.1952,108.5061 -3.6745,0.1929 -7.384,0.4069 -8.2434,0.4755 -1.1521,0.092 -1.5625,3.8984 -1.5625,14.4921 l 0,14.367 94.0625,0.3205 c 51.7344,0.1763 94.4844,0.1465 95,-0.066 0.5156,-0.2125 0.9375,-20.0033 0.9375,-43.9795 z m 151.1245,41.7298 c 27.656,-6.188 46.8763,-27.0712 55.6723,-60.4891 5.5322,-21.0186 6.9555,-37.657 6.9288,-81.0015 -0.016,-27.0545 -0.5863,-43.7869 -1.7959,-52.7485 -7.6182,-56.4454 -28.9903,-83.4003 -70.4337,-88.8325 -5.591,-0.7328 -32.0404,-1.1105 -63.1431,-0.9017 l -53.522,0.3592 -0.228,14.6878 -0.2279,14.6877 7.8125,-2e-4 c 6.146,-3e-4 8.3457,0.533 10.3125,2.4997 2.4619,2.4619 2.4997,4.1536 2.4809,110.9375 -0.012,59.6406 -0.4324,109.0564 -0.9375,109.8129 -1.8183,2.723 -6.4994,4.2496 -13.0238,4.2471 l -6.6446,0 0.388,14.3636 0.3879,14.3637 51.4871,0.3263 c 57.9584,0.3673 63.2567,0.203 74.4865,-2.3096 z m -45.812,-27.5391 -2.8125,-0.6239 0,-113.1636 0,-113.1635 15.9375,0.4424 c 14.2039,0.3942 16.5441,0.7817 21.5141,3.563 6.6128,3.7005 10.5785,9.1762 13.519,18.6671 1.9485,6.2891 2.1544,14.9547 2.1544,90.7035 0,82.8994 -0.028,83.8391 -2.7601,92.5216 -3.0565,9.7135 -7.9603,15.7863 -15.2754,18.9168 -4.4704,1.9131 -26.662,3.3821 -32.277,2.1366 z m 25.6671,-28.585 c 1.2563,-3.7729 1.5275,-22.7695 1.25,-87.5256 -0.362,-84.44 -0.497,-86.8394 -4.8826,-86.8394 -0.6191,0 -1.097,39.2495 -1.097,90.1041 0,71.5233 0.3222,89.9985 1.5625,89.5919 0.8594,-0.2818 2.2845,-2.6808 3.1671,-5.331 z m -380.9817,43.4475 0,-14.6875 -12.6003,0 c -11.0308,0 -12.8211,-0.3023 -14.3728,-2.4264 -1.4987,-2.0514 -1.7727,-19.5856 -1.7727,-113.4375 l 0,-111.0111 8.0635,0 c 17.9017,0 27.9075,4.8719 33.6427,16.381 3.1388,6.2989 3.2938,7.5354 3.2938,26.2786 l 0,19.6689 12.1875,0.4097 c 6.7032,0.2254 12.8907,0.2038 13.75,-0.047 1.2135,-0.3555 1.5625,-10.7583 1.5625,-46.574 l 0,-46.1162 -101.25,0 -101.25,0 0,47.0087 c 0,42.3523 0.1959,46.9337 1.9773,46.25 1.0875,-0.4173 6.9347,-0.7587 12.994,-0.7587 l 11.0167,0 0.4887,-19.6875 c 0.4088,-16.4818 0.9051,-20.6035 3.0473,-25.3125 5.3155,-11.6843 17.5257,-17.9689 33.5084,-17.2469 l 8.234,0.3719 0.05,111.1475 c 0.044,98.664 -0.1675,111.3647 -1.8836,113.0809 -1.3996,1.3996 -5.2975,2.0677 -14.1204,2.4202 l -12.187,0.487 0.3881,14.2448 0.3883,14.2446 57.4242,0 57.4244,0 0,-14.6875 z m -244.9979,-32.7169 c 2.2105,-1.5696 3.2419,-3.611 3.5245,-6.9756 0.5855,-6.9724 -0.398,-9.5562 -6.1055,-16.0404 -4.5581,-5.1782 -45.9785,-37.9226 -46.6401,-36.8707 -0.1439,0.2289 0.044,8.8536 0.4172,19.1661 0.6713,18.5381 0.7235,18.8136 4.622,24.375 3.6248,5.1707 7.7043,9.3636 15.1644,15.5856 5.6034,4.6735 22.8695,5.1258 29.0175,0.76 z m -226.6461,-6.58 c -0.399,-0.9971 -0.6953,-0.701 -0.7553,0.7553 -0.054,1.3176 0.2413,2.056 0.6567,1.6406 0.4153,-0.4154 0.4597,-1.4935 0.099,-2.3959 z m -416.8898,-0.5844 c 1.4595,-1.3208 2.2859,-3.8062 2.2859,-6.875 l 0,-4.8062 -10.9375,-0.03 c -8.7304,-0.024 -12.451,-0.6531 -18.4375,-3.1192 -4.125,-1.6993 -7.6406,-3.0922 -7.8125,-3.0954 -0.1719,0 -0.3125,4.4942 -0.3125,9.9942 l 0,10 16.4641,0 c 13.5658,0 16.8664,-0.3641 18.75,-2.0687 z m 1086.0359,-0.4312 c 1.5476,-1.5476 2.5,-4.1666 2.5,-6.875 l 0,-4.375 -11.5625,-0.03 c -9.2502,-0.024 -12.9999,-0.6207 -18.75,-2.9855 l -7.1875,-2.9557 0,9.8603 0,9.8605 16.25,0 c 14.5834,0 16.5064,-0.2563 18.75,-2.5 z m -561.3522,-56.6956 c 2.6688,-6.7804 3.4013,-7.5643 9.9293,-10.625 5.958,-2.7934 9.1178,-3.3697 20.4327,-3.7261 l 13.3847,-0.4217 -9.7511,-9.5783 c -16.1453,-15.8592 -25.102,-31.3646 -32.6174,-56.465 -2.8651,-9.569 -4.1255,-16.7452 -4.6634,-26.5508 -0.6472,-11.7982 -1.0097,-13.4375 -2.9721,-13.4375 -1.4644,0 -8.4349,8.5129 -20.2148,24.6875 -9.8888,13.5781 -19.0003,26.2525 -20.248,28.1654 l -2.2682,3.478 22.3577,50.3867 22.3578,50.3868 0.6957,-14.4898 c 0.5262,-10.957 1.3982,-16.2743 3.577,-21.8102 z m -449.9386,-35.4919 -0.041,-53.4375 -2.5732,5.8326 c -3.6303,8.2288 -10.9384,11.4148 -27.6578,12.0579 l -12.1875,0.4687 0,35.3908 0,35.3908 12.1875,0.4687 c 16.5799,0.6378 24.1969,3.9033 27.4269,11.7582 1.2434,3.0239 2.4012,5.5001 2.5731,5.5027 0.1719,0 0.2941,-24.0423 0.2718,-53.4329 z m 1085.0133,0 -0.027,-52.1875 -2.3662,5.2116 c -3.6234,7.9803 -12.9432,11.6278 -29.7664,11.6499 l -10.3125,0.014 0,35.625 0,35.625 10.3125,0.014 c 10.3645,0.014 20.2624,2.1875 25.4571,5.5914 1.5376,1.0073 3.5128,3.8147 4.3891,6.2384 0.8764,2.4237 1.7618,4.4067 1.9674,4.4067 0.2056,0 0.3615,-23.4844 0.3464,-52.1875 z m -1398.2835,-62.5 c 5.2075,-25.1424 5.2259,-25.3125 2.7284,-25.3125 -1.0079,0 -3.7301,-0.9049 -6.0494,-2.0109 -3.8822,-1.8514 -4.5301,-1.8487 -8.1674,0.033 -2.1728,1.1236 -3.9587,2.7316 -3.9685,3.5734 -0.037,3.1836 9.3524,45.9054 10.0894,45.9054 0.4246,0 2.84,-9.9844 5.3675,-22.1875 z m 890.7121,-13.051 c -0.8041,-1.9416 -4.7078,-6.5351 -8.6748,-10.2079 -7.2993,-6.7578 -11.4798,-8.3036 -22.4571,-8.3036 -4.1423,0 -8.0208,3.9503 -7.0089,7.1386 1.1042,3.4789 12.3332,13.952 26.3647,24.5899 l 12.5,9.4769 0.3692,-9.5819 c 0.2069,-5.3694 -0.2737,-11.1339 -1.0931,-13.112 z m -229.5379,-11.9326 c 0.9157,-1.2145 0.3316,-1.2553 -2.7238,-0.1901 -3.2011,1.1158 -3.8894,2.0276 -3.8894,5.1521 l 0,3.7962 2.7239,-3.606 c 1.4981,-1.9833 3.2484,-4.3018 3.8893,-5.1522 z m -452.8632,4.0461 3.125,-1.7864 -4.0625,-0.044 c -2.7975,-0.03 -4.0625,0.5396 -4.0625,1.8307 0,2.3014 0.9741,2.3014 5,0 z m 1086.25,0 3.125,-1.7864 -4.0625,-0.044 c -2.7975,-0.03 -4.0625,0.5396 -4.0625,1.8307 0,2.3014 0.9741,2.3014 5,0 z m -2551.25001,-539.8306 0,-241.7088 56.5625,-22.8738 c 31.1094,-12.5805 65.8438,-26.3901 77.1875,-30.6877 l 20.625,-7.8137 23.125,6.2101 c 12.7188,3.4156 38.875,10.442 58.125,15.6143 96.4295,25.9092 193.0422,51.7152 193.6125,51.7152 0.3522,0 -1.9444,-4.3594 -5.1037,-9.6875 -18.7753,-31.6646 -43.8807,-80.6302 -59.1224,-115.3125 -78.0872,-177.6862 -108.5617,-369.3494 -89.3384,-561.875 11.5165,-115.3393 42.1214,-230.9206 90.0292,-340 10.4302,-23.74821 37.2609,-76.50734 51.7147,-101.69042 92.1384,-160.53409 220.9835,-294.14994 378.20811,-392.21196 68.3808,-42.64956 150.1275,-81.45222 226.8874,-107.6966 171.6757,-58.69626 356.5885,-74.95887 535.6126,-47.10577 208.2788,32.40464 404.2106,123.68275 561.858,261.75094 17.5332,15.35573 59.1525,54.36867 63.7589,59.76621 1.0269,1.20315 8.2632,8.93755 16.0809,17.18755 28.2373,29.79896 62.2418,70.84369 87.5977,105.7339 171.3041,235.71745 243.7465,527.10115 202.439,814.26615 -14.7831,102.7703 -43.3919,201.6601 -86.0599,297.4766 -11.3893,25.5765 -39.2858,80.1586 -52.239,102.2109 -5.5526,9.4531 -9.7616,17.1875 -9.3532,17.1875 0.7324,0 14.5556,-3.6971 187.1106,-50.043 l 87.4429,-23.4861 19.4321,7.2728 c 10.6876,4.0002 45.273,17.7317 76.8565,30.5147 31.5834,12.7829 57.599,23.2416 57.8125,23.2416 0.2134,0 0.388,108.8438 0.388,241.875 l 0,241.875 -506.5625,-0.094 -506.5625,-0.095 -26.5625,-32.6884 -26.5625,-32.6885 0,-180.9673 c 0,-120.4056 0.4204,-180.9671 1.2561,-180.9671 1.9129,0 31.0607,-16.5361 49.7585,-28.2289 137.5432,-86.0135 242.0144,-220.122 292.5329,-375.521 20.9773,-64.5276 33.9525,-143.4595 33.9525,-206.5411 l 0,-13.4589 -69.2776,0 -69.2776,0 -34.005,67.1875 c -18.7028,36.9531 -40.9007,80.6875 -49.3287,97.1875 -8.428,16.5 -37.1102,73.0313 -63.7383,125.625 -26.6282,52.5938 -53.9006,106.3125 -60.6052,119.375 -6.7046,13.0625 -26.4032,51.875 -43.7746,86.25 -33.0374,65.3751 -45.7839,90.2256 -53.9716,105.2226 l -4.8988,8.9727 23.1888,46.2692 23.1886,46.2693 0,169.4456 0,169.4456 -294.375,0 -294.375,0 0,-169.5069 0,-169.5068 23.1245,-46.0519 23.1244,-46.052 -5.1188,-9.7537 c -12.5887,-23.9875 -31.4234,-60.8413 -73.0201,-142.8785 -102.2558,-201.6696 -130.5004,-257.3333 -146.8334,-289.375 -9.462,-18.5625 -32.51,-63.9844 -51.2177,-100.9375 l -34.014,-67.1875 -69.2724,0 -69.2725,0 0.019,14.0625 c 0.024,17.4616 1.8708,46.0462 4.4619,69.0625 23.1609,205.7326 136.9092,390.9629 309.8938,504.638 17.3632,11.41 46.0158,28.3544 56.6262,33.487 l 6.46,3.125 0.02,180.665 0.019,180.665 -26.6085,32.46 -26.6084,32.46 -506.51661,0.314 -506.5165,0.314 0,-241.7086 z m 987.50001,63.7297 0,-152.9759 -17.8125,-10.4214 c -37.9711,-22.2155 -81.9905,-53.6007 -117.993,-84.127 -20.3535,-17.2578 -70.713,-67.6514 -88.634,-88.6943 -21.1661,-24.8531 -40.3948,-50.3282 -58.6335,-77.6805 -20.8998,-31.3431 -33.53987,-52.9931 -50.04857,-85.7235 -58.78104,-116.5402 -88.05784,-239.9596 -88.11634,-371.464 l -0.012,-27.1875 139.90661,0 139.9066,0 50.8893,100.9375 c 27.9891,55.5156 68.4568,135.5313 89.928,177.8125 21.4714,42.2813 58.024,114.2813 81.2283,160 91.046,179.3863 106.2135,209.2188 137.9792,271.3876 10.4016,20.3569 18.912,37.3725 18.912,37.8125 0,0.4399 -24.4687,0.7999 -54.375,0.7999 l -54.375,0 0,146.25 0,146.25 269.375,0 269.375,0 0,-146.25 0,-146.25 -54.375,0 c -29.9062,0 -54.375,-0.3339 -54.375,-0.7421 0,-0.4082 16.6594,-33.455 37.0209,-73.4375 95.842,-188.1982 229.5806,-451.8185 291.6469,-574.8829 l 50.2765,-99.6875 139.9028,0 139.9029,0 0,26.7364 c 0,129.8249 -28.651,252.366 -85.8104,367.0136 -39.5873,79.4026 -85.3238,143.938 -146.0646,206.101 -53.7742,55.0334 -108.7191,98.1979 -172.8125,135.761 l -16.5625,9.7069 0,152.9655 0,152.9656 481.25,0 481.25,0 0,-212.9461 0,-212.9463 -46.5625,12.803 c -166.9981,45.9184 -460.7269,127.052 -502.1875,138.714 -13.4062,3.7709 -24.8578,6.8605 -25.4477,6.8658 -0.59,0 3.6287,-5.1035 9.375,-11.353 134.2181,-145.9705 226.8151,-324.0388 269.1967,-517.6773 18.9089,-86.3932 28.0064,-181.6527 24.5938,-257.5226 -4.9494,-110.0386 -22.7978,-206.788 -57.0162,-309.0626 C 2681.9566,933.69627 2569.1311,762.81307 2430.3116,643.05111 2251.1242,488.46319 2034.2947,396.30136 1798.8843,374.66747 c -85.2656,-7.8358 -171.9957,-4.11222 -263.243,11.30179 -163.2243,27.57279 -318.112,91.2062 -454.257,186.62505 -56.7202,39.753 -113.34581,88.07234 -156.11121,133.21152 -144.2284,152.23414 -242.7758,342.85377 -283.7446,548.84587 -11.5692,58.1699 -17.5937,109.1274 -20.354,172.1609 -2.6798,61.1942 2.4821,133.564 14.6463,205.3391 36.1082,213.059 132.2289,409.0751 279.1363,569.2348 5.7463,6.2646 9.9417,11.3902 9.3231,11.3902 -1.3605,0 -38.3175,-10.2002 -52.2709,-14.427 -5.5,-1.666 -54.1562,-15.1689 -108.125,-30.0062 -101.3542,-27.865 -235.3018,-64.7662 -285.625,-78.6866 -15.8125,-4.3741 -49.5625,-13.649 -75,-20.611 -25.4375,-6.9618 -47.7968,-13.16 -49.6875,-13.7736 l -3.4375,-1.1156 0,213.06 0,213.06 481.25,0 481.25001,0 0,-152.9759 z m 272.8624,-484.8366 c -68.2053,-136.2969 -142.8573,-285.0781 -165.8934,-330.625 l -41.8838,-82.8125 119.3324,0 119.3324,0 0,-148.125 0,-148.1251 -328.125,0 c -207.025,0 -328.12501,-0.4394 -328.12501,-1.1907 0,-1.8061 16.99254,-37.1995 27.24264,-56.7432 27.68277,-52.7822 65.84627,-108.00869 107.67477,-155.81605 13.8968,-15.88307 49.8627,-52.07314 67.5826,-68.00375 109.8595,-98.76616 245.6623,-166.43718 390,-194.33846 90.3752,-17.47004 184.8575,-19.85069 275,-6.92909 119.8316,17.17742 233.0815,59.96799 333.9179,126.16821 46.6815,30.64699 82.4342,59.66715 124.6325,101.16333 42.9876,42.27221 77.3418,83.9611 109.292,132.62551 19.8697,30.2645 32.0101,51.6334 50.3872,88.6892 l 16.7377,33.75 -328.7337,0.3148 -328.7336,0.3149 0,148.1227 0,148.1227 119.3324,0 119.3324,0 -41.8869,82.8125 c -23.0377,45.5469 -97.6842,194.3281 -165.881,330.625 -68.1968,136.2969 -124.5637,247.8125 -125.2595,247.8125 -0.6959,0 -57.0697,-111.5156 -125.275,-247.8125 z m 241.8262,-129.0625 115.3105,-230.625 -90.6246,0 -90.6245,0 0,-176.5939 0,-176.5938 8.8731,-10.9033 8.8732,-10.9034 266.7452,-0.3153 266.7452,-0.3154 -11.0988,-17.7659 c -75.3899,-120.6765 -186.8946,-216.09593 -317.6379,-271.81646 -207.7932,-88.5579 -443.633,-71.22627 -636.875,46.80334 -77.1434,47.11813 -145.9264,110.60441 -199.0787,183.74832 -11.5998,15.9628 -29.6412,43.2057 -36.9295,55.7645 l -2.2581,3.8912 266.9043,0 266.9044,0 8.7912,10.9241 8.7914,10.924 0,176.5679 0,176.5677 -90.4651,0.3208 -90.4652,0.3206 115.1444,230.3125 c 63.3294,126.6719 115.7113,230.3125 116.4043,230.3125 0.6928,0 53.1495,-103.7812 116.5702,-230.625 z"
     id="path3346"
     inkscape:connector-curvature="0" />
</svg>
