<?xml version="1.0" encoding="UTF-8" standalone="no"?>
<!-- Created with Inkscape (http://www.inkscape.org/) -->

<svg
   xmlns:dc="http://purl.org/dc/elements/1.1/"
   xmlns:cc="http://creativecommons.org/ns#"
   xmlns:rdf="http://www.w3.org/1999/02/22-rdf-syntax-ns#"
   xmlns:svg="http://www.w3.org/2000/svg"
   xmlns="http://www.w3.org/2000/svg"
   xmlns:sodipodi="http://sodipodi.sourceforge.net/DTD/sodipodi-0.dtd"
   xmlns:inkscape="http://www.inkscape.org/namespaces/inkscape"
   id="svg3361"
   version="1.1"
   inkscape:version="0.91 r13725"
   width="2244"
   height="1767"
   viewBox="0 0 2244 1767"
   sodipodi:docname="omegav_inverted_u_text_skinny.svg">
  <metadata
     id="metadata3367">
    <rdf:RDF>
      <cc:Work
         rdf:about="">
        <dc:format>image/svg+xml</dc:format>
        <dc:type
           rdf:resource="http://purl.org/dc/dcmitype/StillImage" />
        <dc:title></dc:title>
      </cc:Work>
    </rdf:RDF>
  </metadata>
  <defs
     id="defs3365" />
  <sodipodi:namedview
     pagecolor="#ffffff"
     bordercolor="#666666"
     borderopacity="1"
     objecttolerance="10"
     gridtolerance="10"
     guidetolerance="10"
     inkscape:pageopacity="0"
     inkscape:pageshadow="2"
     inkscape:window-width="1920"
     inkscape:window-height="1138"
     id="namedview3363"
     showgrid="false"
     inkscape:zoom="0.13355971"
     inkscape:cx="1122"
     inkscape:cy="883.5"
     inkscape:window-x="-8"
     inkscape:window-y="259"
     inkscape:window-maximized="1"
     inkscape:current-layer="svg3361" />
  <g
     id="g3371"
     transform="translate(7.4873288,7.4872861)">
    <path
       style="fill-opacity:1"
       d="m 36,1562 c 0,-93.5 0.260159,-170 0.578131,-170 0.317972,0 44.530472,12.1161 98.249999,26.9247 53.71953,14.8086 115.89687,31.947 138.17187,38.0855 22.275,6.1384 47.475,13.0873 56,15.4419 8.525,2.3546 33.95,9.3452 56.5,15.5346 22.55,6.1894 47.975,13.2397 56.5,15.6674 34.6965,9.8806 54.44786,15.2314 54.82644,14.8528 0.22015,-0.2202 -4.27804,-5.4868 -9.99598,-11.7036 C 377.65623,1388.1037 301.94914,1239.1882 270.01821,1080.3345 247.69387,969.27273 247.23904,867.86404 268.56801,757 299.71596,595.09881 375.441,444.63977 486.98581,323.02293 525.85576,280.64318 576.56352,237.03839 628.5,201.33154 706.45632,147.73579 794.13984,106.17443 884.5,79.989387 1024.9215,39.297298 1159.5596,34.13883 1301,64.03178 c 165.369,34.950181 322.4471,119.57372 439.946,237.0145 46.3617,46.33875 98.0858,113.2977 130.0754,168.38801 13.1001,22.56009 17.7806,31.02781 26.5685,48.06571 63.7486,123.59558 98.6383,264.74887 98.4997,398.5 -0.1572,151.7275 -45.4884,311.9335 -126.3396,446.5 -31.8812,53.0621 -69.1545,102.9379 -108.9222,145.75 -5.4921,5.9125 -9.6126,10.7442 -9.1567,10.7371 0.8771,-0.014 22.9887,-6.1448 55.3289,-15.3417 17.7855,-5.0578 241.1444,-66.6266 316,-87.1052 4.675,-1.279 26.5814,-7.3238 48.6808,-13.4328 22.0995,-6.1091 40.437,-11.1074 40.75,-11.1074 0.3131,0 0.5692,76.5 0.5692,170 l 0,170 -385,0 -385,0 0,-121.9769 0,-121.977 2.25,-1.3731 c 1.2375,-0.7551 8.55,-5.1219 16.25,-9.7038 98.0058,-58.319 179.4063,-142.0205 235.8037,-242.4692 38.7339,-68.9884 65.6048,-148.8421 76.635,-227.7399 4.0798,-29.18282 5.2222,-45.12747 5.7685,-80.5101 l 0.5442,-35.25 -112.4038,0 -112.4039,0 -11.302,22.75 c -16.1768,32.56252 -107.0174,212.3884 -123.6377,244.75 -5.0844,9.9 -21.061,41.4 -35.5036,70 -14.4425,28.6 -29.745,58.75 -34.0054,67 -4.2603,8.25 -16.6364,32.55 -27.5023,54 -10.8659,21.45 -23.4633,46.2 -27.9941,55 -4.5309,8.8 -16.1948,31.6375 -25.9197,50.75 l -17.6816,34.75 44.0555,0 44.0555,0 -0.2542,116.75 -0.2541,116.75 -215.25,0.2523 -215.25,0.2523 0,-117.0023 0,-117.0023 44.06678,0 44.06678,0 -16.19517,-31.75 c -8.90734,-17.4625 -21.02994,-41.2 -26.93911,-52.75 -5.90917,-11.55 -18.28414,-35.85 -27.49994,-54 -9.2158,-18.15 -23.16723,-45.6 -31.00319,-61 C 832.06694,1165.8426 775.028,1053.1776 728,959.65685 L 693.5,891.04948 581.12429,891.02474 468.74859,891 l 0.54421,35.25 c 0.548,35.49471 1.76834,52.58123 5.76728,80.75 24.29363,171.1258 114.96717,325.2873 252.93992,430.0439 20.1947,15.3329 44.14409,31.0646 73.34981,48.1815 l 4.65019,2.7254 0,122.0246 0,122.0246 -385,0 -385,0 0,-170 z m 1173.8535,-309.75 c 46.3868,-92.8125 106.1211,-211.8436 132.743,-264.51357 C 1369.2184,935.06647 1391,891.75397 1391,891.48643 1391,891.21889 1348.025,891 1295.5,891 l -95.5,0 0,-118.5 0,-118.5 263,0 c 144.65,0 263,-0.17993 263,-0.39985 0,-1.54833 -15.5801,-33.87456 -22.6619,-47.01979 C 1647.007,502.01873 1564.8905,415.3234 1465.5,355.4805 1380.5918,304.35737 1292.3412,274.78759 1192,263.83998 c -23.6583,-2.58121 -85.4052,-3.65685 -110.5796,-1.92632 -60.6768,4.17103 -113.71987,14.70039 -169.52041,33.65075 C 831.0967,323.00593 760.02402,363.86269 693,421.40102 c -12.05284,10.34703 -49.59559,47.39416 -58.5,57.7277 -3.3,3.82963 -7.125,8.20675 -8.5,9.72692 C 604.95076,512.12724 569.10046,563.55775 551.31365,596 540.86613,615.05576 523,651.40064 523,653.59817 523,653.81918 641.35,654 786,654 l 263,0 0,118.5 0,118.5 -95.5,0 c -52.525,0 -95.5,0.21889 -95.5,0.48643 0,0.26754 21.7833,43.58004 48.40732,96.25 26.62403,52.66997 86.35093,171.70107 132.72648,264.51357 46.3755,92.8125 84.7828,168.75 85.3496,168.75 0.5668,0 38.9833,-75.9375 85.3701,-168.75 z"
       id="path3375"
       inkscape:connector-curvature="0" />
    <path
       style="fill-opacity:1"
       d="m 36,1562 c 0,-93.5 0.256703,-170 0.570452,-170 0.54819,0 185.882978,51.0084 327.429548,90.1162 17.875,4.9387 39.25,10.8152 47.5,13.059 8.25,2.2437 21.975,6.0625 30.5,8.4862 35.39308,10.0623 54.44961,15.2223 54.82644,14.8455 0.22015,-0.2202 -4.27804,-5.4868 -9.99598,-11.7036 C 377.67796,1388.1274 301.94279,1239.1566 270.01821,1080.3345 247.69387,969.27273 247.23904,867.86404 268.56801,757 299.71252,595.11665 375.45329,444.62636 486.98581,323.02293 508.19436,299.89933 533.36154,275.90743 559.5,253.89508 686.2576,147.14688 841.43103,77.532174 1006,53.583933 c 115.5081,-16.808852 231.7277,-8.985701 348.0427,23.427968 146.2531,40.756579 282.4214,119.604099 386.9033,224.034379 46.3617,46.33875 98.0858,113.2977 130.0754,168.38801 13.1001,22.56009 17.7806,31.02781 26.5685,48.06571 63.6616,123.42698 98.5875,264.7028 98.4871,398.38275 -0.1087,144.87445 -42.1129,299.90025 -116.54,430.11725 -32.9884,57.7162 -75.1988,115.4087 -118.7092,162.25 -5.4921,5.9125 -9.6126,10.7442 -9.1567,10.7371 0.8787,-0.014 23.1037,-6.1767 55.3289,-15.3428 10.725,-3.0507 86.775,-24.0355 169,-46.6331 82.225,-22.5976 153.325,-42.178 158,-43.512 15.0883,-4.3056 77.7914,-21.4992 78.4053,-21.4992 0.3271,0 0.5947,76.5 0.5947,170 l 0,170 -385,0 -385,0 0,-121.9769 0,-121.977 2.25,-1.3731 c 1.2375,-0.7551 8.55,-5.1219 16.25,-9.7038 91.984,-54.7358 169.6907,-132.1935 225.6924,-224.9692 39.1263,-64.819 67.7456,-139.9999 81.7062,-214.6358 7.4905,-40.04551 10.1304,-67.18409 10.8086,-111.1142 l 0.5442,-35.25 -112.4038,0 -112.4039,0 -11.2997,22.75 c -14.8588,29.91551 -100.5709,199.5874 -124.144,245.75 -6.4598,12.65 -21.7606,42.8 -34.0018,67 -12.2412,24.2 -27.3151,53.9 -33.4976,66 -6.1824,12.1 -19.4585,38.2 -29.5024,58 -10.0439,19.8 -22.4209,44.1 -27.5044,54 -5.0835,9.9 -16.9734,33.1875 -26.422,51.75 l -17.1793,33.75 44.0579,0 44.0579,0 -0.2542,116.75 -0.2541,116.75 -215.25,0.2523 -215.25,0.2523 0,-117.0023 0,-117.0023 44.06678,0 44.06678,0 -16.19196,-31.75 c -8.90558,-17.4625 -20.80229,-40.75 -26.43713,-51.75 -5.63484,-11 -18.23659,-35.75 -28.00389,-55 -9.76729,-19.25 -24.39376,-48.05 -32.50327,-64 C 855.3816,1211.5496 847.81162,1196.649 827.69913,1157 787.80839,1078.361 762.68455,1028.6312 728,959.65685 L 693.5,891.04948 581.12429,891.02474 468.74859,891 l 0.54421,35.25 c 0.69865,45.25305 3.40894,72.63878 11.20801,113.25 32.40576,168.7427 131.34032,319.2737 273.40085,415.9849 14.2977,9.7335 28.49682,18.6335 47.44815,29.7405 l 4.65019,2.7254 0,122.0246 0,122.0246 -385,0 -385,0 0,-170 z m 1179.7691,-321.5 c 49.4855,-99 109.1564,-217.9114 132.6022,-264.2476 C 1371.8171,929.91622 1391,891.77872 1391,891.5024 1391,891.22608 1348.025,891 1295.5,891 l -95.5,0 0,-118.5 0,-118.5 263,0 c 144.65,0 263,-0.17993 263,-0.39985 0,-0.21992 -3.1498,-7.27126 -6.9994,-15.66964 C 1697.072,590.09171 1663.5782,537.4387 1628.0973,495.02834 1582.1696,440.13089 1525.9363,391.86912 1465.5,355.4805 1380.5912,304.35703 1292.308,274.77684 1192,263.84159 1168.3448,261.26278 1107.643,260.1979 1081.3312,261.90015 974.86413,268.7881 872.07386,301.20996 782,356.3145 c -28.90518,17.68334 -59.28989,39.69919 -84.5,61.22616 -15.53479,13.26519 -52.49511,49.39716 -63,61.58806 -3.3,3.82963 -7.125,8.20675 -8.5,9.72692 C 604.95076,512.12724 569.10046,563.55775 551.31365,596 540.7719,615.22764 523,651.32693 523,653.51232 523,653.78054 641.35,654 786,654 l 263,0 0,118.5 0,118.5 -95.5,0 c -52.525,0 -95.5,0.21889 -95.5,0.48643 0,0.26754 21.7833,43.58004 48.40732,96.25 26.62403,52.66997 86.35702,171.71327 132.73998,264.54067 47.1735,94.4096 84.8428,168.655 85.4905,168.5 0.6368,-0.1524 41.6459,-81.2771 91.1313,-180.2771 z"
       id="path3373"
       inkscape:connector-curvature="0" />
  </g>
</svg>
