<?xml version="1.0" encoding="UTF-8" standalone="no"?>
<!-- Created with Inkscape (http://www.inkscape.org/) -->

<svg
   width="2200"
   height="2200"
   viewBox="0 0 2200 2200"
   version="1.1"
   id="svg1"
   inkscape:version="1.3 (0e150ed6c4, 2023-07-21)"
   sodipodi:docname="OVLysreklame.svg"
   xml:space="preserve"
   xmlns:inkscape="http://www.inkscape.org/namespaces/inkscape"
   xmlns:sodipodi="http://sodipodi.sourceforge.net/DTD/sodipodi-0.dtd"
   xmlns="http://www.w3.org/2000/svg"
   xmlns:svg="http://www.w3.org/2000/svg"><sodipodi:namedview
     id="namedview1"
     pagecolor="#505050"
     bordercolor="#eeeeee"
     borderopacity="1"
     inkscape:showpageshadow="0"
     inkscape:pageopacity="0"
     inkscape:pagecheckerboard="0"
     inkscape:deskcolor="#505050"
     inkscape:document-units="px"
     inkscape:zoom="0.70710678"
     inkscape:cx="811.75859"
     inkscape:cy="217.08178"
     inkscape:window-width="3840"
     inkscape:window-height="2081"
     inkscape:window-x="-9"
     inkscape:window-y="-9"
     inkscape:window-maximized="1"
     showguides="false"
     inkscape:current-layer="g3371"><sodipodi:guide
       position="1100,0"
       orientation="1,0"
       id="guide8"
       inkscape:locked="false"
       inkscape:label=""
       inkscape:color="rgb(0,134,229)" /><sodipodi:guide
       position="1064.1992,683.01144"
       orientation="0,1"
       id="guide1"
       inkscape:locked="false" /><sodipodi:guide
       position="1100.0372,1207.3848"
       orientation="0,1"
       id="guide2"
       inkscape:locked="false"
       inkscape:label=""
       inkscape:color="rgb(0,134,229)" /><sodipodi:guide
       position="1100.125,1381.375"
       orientation="0,1"
       id="guide3"
       inkscape:locked="false"
       inkscape:label=""
       inkscape:color="rgb(0,134,229)" /></sodipodi:namedview><defs
     id="defs1"><inkscape:path-effect
       effect="mirror_symmetry"
       start_point="4334.2308,-1661.2613"
       end_point="6546.6424,6353.9622"
       center_point="5440.4366,2346.3505"
       id="path-effect1"
       is_visible="true"
       lpeversion="1.2"
       lpesatellites=""
       mode="vertical"
       discard_orig_path="false"
       fuse_paths="false"
       oposite_fuse="false"
       split_items="false"
       split_open="false"
       link_styles="false" /><inkscape:path-effect
       effect="mirror_symmetry"
       start_point="4620.0124,-448.14131"
       end_point="4620.0124,7866.8194"
       center_point="4620.0124,3709.3391"
       id="path-effect1034"
       is_visible="true"
       lpeversion="1.2"
       lpesatellites=""
       mode="vertical"
       discard_orig_path="false"
       fuse_paths="false"
       oposite_fuse="false"
       split_items="false"
       split_open="false"
       link_styles="false" /></defs><g
     inkscape:label="Layer 1"
     inkscape:groupmode="layer"
     id="layer1"
     transform="translate(0,285.0833)"><g
       id="g3371"
       transform="matrix(0.26458333,0,0,0.26458333,-122.37827,-166.51258)"><path
         style="fill:#ffffff;fill-opacity:1;stroke-width:3.0382"
         d="m 1312.9258,7255.836 c 0,-284.0721 0.7904,-516.4948 1.7565,-516.4948 0.9661,0 135.2927,36.8111 298.5038,81.8027 163.2108,44.9915 352.1184,97.0615 419.7944,115.7115 67.6761,18.6497 144.2388,39.7619 170.1396,46.9157 25.9006,7.1538 103.147,28.3927 171.6586,47.1973 68.5115,18.8048 145.7578,40.225 171.6585,47.6008 105.4151,30.0193 165.4239,46.2761 166.5741,45.1258 0.6688,-0.669 -12.9977,-16.6701 -30.3699,-35.5579 -331.6938,-360.6337 -561.7075,-813.0696 -658.7202,-1295.6998 -67.8259,-337.4285 -69.2078,-645.5289 -4.406,-982.3568 94.6339,-491.889 324.7021,-949.0144 663.5982,-1318.5114 118.0949,-128.7584 272.1554,-261.2387 429.9491,-369.7235 236.8473,-162.8348 503.2479,-289.1068 777.7806,-368.6624 426.6294,-123.6308 835.6876,-139.3034 1265.4126,-48.4824 502.425,106.1858 979.6606,363.2894 1336.6463,720.0987 140.8564,140.7866 298.0048,344.2217 395.1959,511.5973 39.8007,68.5423 54.0211,94.2689 80.7205,146.0335 193.6814,375.5088 299.6834,804.3615 299.2623,1210.725 -0.4776,460.9792 -138.2031,947.718 -383.8457,1356.5588 -96.8616,161.2135 -210.1054,312.7464 -330.928,442.8183 -16.686,17.9634 -29.205,32.6432 -27.8199,32.6216 2.6649,-0.043 69.8444,-18.6692 168.1006,-46.6112 54.036,-15.3667 732.6463,-202.4254 960.073,-264.6435 14.2035,-3.8859 80.7596,-22.2512 147.9022,-40.8117 67.1428,-18.5607 122.8559,-33.7464 123.8068,-33.7464 0.9513,0 1.7294,232.4227 1.7294,516.4948 v 516.4949 H 6757.39 5587.6809 V 7401.74 7031.1489 l 6.8359,-4.1718 c 3.7598,-2.2941 25.9767,-15.5613 49.3709,-29.4821 297.7617,-177.1851 545.0732,-431.4875 716.42,-736.6712 117.6816,-209.6009 199.3209,-452.2129 232.8329,-691.9207 12.3954,-88.6634 15.8662,-137.1064 17.526,-244.6062 l 1.6533,-107.0967 h -341.5058 -341.5062 l -34.3378,69.1191 c -49.1484,98.9317 -325.1408,645.2797 -375.6367,743.6008 -15.4474,30.0783 -63.9876,125.7817 -107.8671,212.6744 -43.8794,86.8928 -90.3715,178.4946 -103.3155,203.5597 -12.9436,25.0652 -50.5447,98.8937 -83.5577,164.0631 -33.0128,65.1696 -71.2863,140.3651 -85.0517,167.1013 -13.7658,26.7362 -49.2032,96.1213 -78.7494,154.189 l -53.7203,105.5777 h 133.8496 133.8496 l -0.7723,354.7103 -0.772,354.7106 -653.9737,0.7665 -653.9737,0.7666 v -355.4771 -355.4769 h 133.884 133.8838 l -49.2042,-96.4631 c -27.0624,-53.0547 -63.8933,-125.174 -81.8465,-160.2654 -17.9533,-35.0911 -55.551,-108.9195 -83.5506,-164.0631 -27.9994,-55.1433 -70.3868,-138.5421 -94.194,-185.3305 -192.711,-378.7348 -366.0069,-721.0342 -508.8878,-1005.1695 l -104.818,-208.4432 -341.4205,-0.075 -341.4204,-0.075 1.6534,107.0967 c 1.6649,107.8403 5.3726,159.7526 17.5221,245.3351 73.8091,519.9153 349.2939,988.2897 768.4834,1306.5617 61.3557,46.5845 134.1188,94.3807 222.8519,146.3854 l 14.1282,8.2803 v 370.7356 370.7359 H 2482.6349 1312.9258 Z M 4879.334,6314.7519 c 140.9326,-281.9835 322.4176,-643.6244 403.3005,-803.6466 80.8828,-160.0222 147.0597,-291.6144 147.0597,-292.4272 0,-0.8129 -130.5669,-1.4779 -290.1486,-1.4779 h -290.1487 v -360.0275 -360.0273 h 799.0481 c 439.4764,0 799.048,-0.5466 799.048,-1.2149 0,-4.704 -47.3355,-102.9178 -68.8515,-142.8556 -171.1455,-317.6798 -420.6321,-581.078 -722.601,-762.8931 -257.9685,-155.3225 -526.092,-245.1615 -830.9492,-278.4227 -71.8787,-7.8422 -259.4785,-11.1102 -335.9636,-5.8526 -184.3486,12.6725 -345.5043,44.6628 -515.0378,102.238 -245.4969,83.373 -461.4303,207.5041 -665.0631,382.3174 -36.619,31.4365 -150.6815,143.9932 -177.735,175.3886 -10.0261,11.6352 -21.6473,24.9338 -25.8247,29.5524 -63.952,70.7039 -172.8725,226.9603 -226.9125,325.5266 -31.7418,57.8953 -86.0227,168.3185 -86.0227,174.995 0,0.6715 359.5716,1.2209 799.048,1.2209 h 799.0481 v 360.0273 360.0275 h -290.1487 c -159.5817,0 -290.1486,0.665 -290.1486,1.4779 0,0.8128 66.1821,132.405 147.0713,292.4272 80.8893,160.0222 262.352,521.6631 403.2504,803.6466 140.8984,281.9835 257.5875,512.6971 259.3096,512.6971 1.722,0 118.4393,-230.7136 259.372,-512.6971 z"
         id="path3375"
         inkscape:connector-curvature="0"
         inkscape:label="Logo"
         sodipodi:insensitive="true" /><g
         id="g1013"
         inkscape:label="Plates"
         style="display:none"><rect
           style="fill:none;fill-opacity:0.980392;stroke:#000000;stroke-width:15.0595;stroke-dasharray:none"
           id="rect8-6"
           width="3386.5154"
           height="4520.3735"
           x="-62.658779"
           y="-6880.1987"
           transform="rotate(90)"
           inkscape:label="Plate 3"
           sodipodi:insensitive="true" /><rect
           style="fill:none;fill-opacity:0.980392;stroke:#000000;stroke-width:15.0596;stroke-dasharray:none"
           id="rect8"
           width="3386.5154"
           height="4520.374"
           x="4627.542"
           y="3338.9158"
           inkscape:label="Plate 2"
           sodipodi:insensitive="true" /><rect
           style="fill:none;fill-opacity:0.980392;stroke:#000000;stroke-width:15.0595;stroke-dasharray:none"
           id="rect8-3"
           width="3386.5154"
           height="4520.3735"
           x="1225.9673"
           y="3338.916"
           inkscape:label="Plate 1"
           sodipodi:insensitive="true" /></g><g
         id="g1012"
         inkscape:label="Guides"
         style="display:none"><path
           d="M 2919.22,4710.91 H 4185.37"
           style="fill:none;fill-rule:evenodd;stroke:#000000;stroke-width:3.77953px;stroke-linecap:butt;stroke-linejoin:miter;stroke-opacity:1"
           id="path4"
           inkscape:label="top serif guide 1" /><path
           d="M 2824.74,5013.28 H 4185.37"
           style="fill:none;fill-rule:evenodd;stroke:#000000;stroke-width:3.77953px;stroke-linecap:butt;stroke-linejoin:miter;stroke-opacity:1"
           id="path5"
           inkscape:label="top serif guide 2" /><path
           d="m 3602.13,5325.99 809.92,1595.9"
           style="fill:none;fill-rule:evenodd;stroke:#000000;stroke-width:3.98975px;stroke-linecap:butt;stroke-linejoin:miter;stroke-opacity:1"
           id="path6"
           inkscape:label="v guide" /><path
           d="m 1520.8,7025.87 1198.11,330.71"
           style="fill:none;fill-rule:evenodd;stroke:#000000;stroke-width:3.77953px;stroke-linecap:butt;stroke-linejoin:miter;stroke-opacity:1"
           id="path7"
           inkscape:label="Outer sefif guide 1" /><path
           d="m 1520.8,7545.56 c 24.567,-3.7796 1884.09,0 1884.09,0"
           style="fill:none;fill-rule:evenodd;stroke:#000000;stroke-width:3.77953px;stroke-linecap:butt;stroke-linejoin:miter;stroke-opacity:1"
           id="path8"
           inkscape:label="Outer serif guide 2" /><path
           d="m 4177.81,7243.2 h 888.189"
           style="fill:none;fill-rule:evenodd;stroke:#000000;stroke-width:3.77953px;stroke-linecap:butt;stroke-linejoin:miter;stroke-opacity:1"
           id="path10"
           inkscape:label="bottom serif guide 1" /><path
           d="m 4177.81,7545.56 h 888.189"
           style="fill:none;fill-rule:evenodd;stroke:#000000;stroke-width:3.77953px;stroke-linecap:butt;stroke-linejoin:miter;stroke-opacity:1"
           id="path11"
           inkscape:label="bottom serif guide 2" /><path
           d="M 3406.01,7083.35 A 2171,2171 0 0 1 2543.88,4648.77 2171,2171 0 0 1 4620.01,3112.51 2171,2171 0 0 1 6696.15,4648.77 2171,2171 0 0 1 5834.02,7083.35"
           style="fill:none;fill-opacity:0.980392;stroke:#000000;stroke-width:3.77953;stroke-dasharray:none"
           id="circle11"
           inkscape:label="Inner circle guide" /><path
           d="m 3145.81,7239.84 a 2449.59,2449.59 0 0 1 -848.8,-2733.59 2449.59,2449.59 0 0 1 2323,-1672.33 2449.59,2449.59 0 0 1 2323,1672.33 2449.59,2449.59 0 0 1 -848.8,2733.59"
           style="fill:none;fill-opacity:0.980392;stroke:#000000;stroke-width:3.77953;stroke-dasharray:none"
           id="circle12"
           inkscape:label="Outer circle guide" /><ellipse
           style="fill:none;fill-opacity:0.980392;stroke:#000000;stroke-width:3.77953;stroke-dasharray:none"
           id="path1"
           cx="4620.0127"
           cy="5283.5122"
           rx="2637.6362"
           ry="2637.636"
           inkscape:label="O-circle" /><circle
           style="display:none;fill:none;fill-opacity:0.980392;stroke:#000000;stroke-width:3.77953;stroke-dasharray:none"
           id="path3"
           cx="4620.0127"
           cy="5283.5122"
           r="2449.5879"
           inkscape:label="Outer circle"
           sodipodi:insensitive="true" /><circle
           style="display:none;fill:none;fill-opacity:0.980392;stroke:#000000;stroke-width:3.77953;stroke-dasharray:none"
           id="path3-8"
           cx="4620.0127"
           cy="5283.5122"
           r="2170.9976"
           inkscape:label="Inner circle"
           sodipodi:insensitive="true" /></g><g
         id="g1034"
         inkscape:label="Ring bulbs"><g
           id="g347"
           style="display:inline"
           inkscape:label="Outer"><circle
             style="fill:none;fill-opacity:0.980392;stroke:#000000;stroke-width:1.85928;stroke-dasharray:none"
             cx="1496.0349"
             cy="7199.1753"
             r="56.708153"
             inkscape:label="Bulb"
             transform="matrix(-0.682573,-0.730812,0.730812,-0.682573,-1407.66,12965.8)"
             id="circle319" /><circle
             style="fill:none;fill-opacity:0.980392;stroke:#000000;stroke-width:1.85928;stroke-dasharray:none"
             cx="1496.0349"
             cy="7199.1753"
             r="56.708153"
             inkscape:label="Bulb"
             transform="matrix(-0.552193,-0.833711,0.833711,-0.552193,-2604,11850.2)"
             id="circle320" /><circle
             style="fill:none;fill-opacity:0.980392;stroke:#000000;stroke-width:1.85928;stroke-dasharray:none"
             cx="1496.0349"
             cy="7199.1753"
             r="56.708153"
             inkscape:label="Bulb"
             transform="matrix(-0.39982,-0.91659,0.91659,-0.39982,-3628.44,10506.5)"
             id="circle321" /><circle
             style="fill:none;fill-opacity:0.980392;stroke:#000000;stroke-width:1.85928;stroke-dasharray:none"
             cx="1496.0349"
             cy="7199.1753"
             r="56.708153"
             inkscape:label="Bulb"
             transform="matrix(-0.236519,-0.971623,0.971623,-0.236519,-4402.42,9013.82)"
             id="circle322" /><circle
             style="fill:none;fill-opacity:0.980392;stroke:#000000;stroke-width:1.85928;stroke-dasharray:none"
             cx="1496.0349"
             cy="7199.1753"
             r="56.708153"
             inkscape:label="Bulb"
             transform="matrix(-0.0655432,-0.997846,0.997846,-0.0655432,-4910.21,7405.81)"
             id="circle323" /><circle
             style="fill:none;fill-opacity:0.980392;stroke:#000000;stroke-width:1.85928;stroke-dasharray:none"
             cx="1496.0349"
             cy="7199.1753"
             r="56.708153"
             inkscape:label="Bulb"
             transform="matrix(0.109567,-0.993975,0.993975,0.109567,-5135.23,5718.34)"
             id="circle324" /><circle
             style="fill:none;fill-opacity:0.980392;stroke:#000000;stroke-width:1.85928;stroke-dasharray:none"
             cx="1496.0349"
             cy="7199.1753"
             r="56.708153"
             inkscape:label="Bulb"
             transform="matrix(0.274428,-0.961603,0.961603,0.274428,-5067.58,4069.84)"
             id="circle325" /><circle
             style="fill:none;fill-opacity:0.980392;stroke:#000000;stroke-width:1.85928;stroke-dasharray:none"
             cx="1496.0349"
             cy="7199.1753"
             r="56.708153"
             inkscape:label="Bulb"
             transform="matrix(0.432467,-0.901645,0.901645,0.432467,-4721.76,2449.09)"
             id="circle326" /><circle
             style="fill:none;fill-opacity:0.980392;stroke:#000000;stroke-width:1.85928;stroke-dasharray:none"
             cx="1496.0349"
             cy="7199.1753"
             r="56.708153"
             inkscape:label="Bulb"
             transform="matrix(0.584292,-0.811538,0.811538,0.584292,-4084.43,859.626)"
             id="circle327" /><circle
             style="fill:none;fill-opacity:0.980392;stroke:#000000;stroke-width:1.85928;stroke-dasharray:none"
             cx="1496.0349"
             cy="7199.1753"
             r="56.708153"
             inkscape:label="Bulb"
             transform="matrix(0.716062,-0.698032,0.698032,0.716062,-3189.78,-578.069)"
             id="circle328" /><circle
             style="fill:none;fill-opacity:0.980392;stroke:#000000;stroke-width:1.85928;stroke-dasharray:none"
             cx="1496.0349"
             cy="7199.1753"
             r="56.708153"
             inkscape:label="Bulb"
             transform="matrix(0.825329,-0.564646,0.564646,0.825329,-2067.75,-1831.79)"
             id="circle329" /><circle
             style="fill:none;fill-opacity:0.980392;stroke:#000000;stroke-width:1.85928;stroke-dasharray:none"
             cx="1496.0349"
             cy="7199.1753"
             r="56.708153"
             inkscape:label="Bulb"
             transform="matrix(0.910163,-0.414242,0.414242,0.910163,-745.704,-2875.54)"
             id="circle330" /><circle
             style="fill:none;fill-opacity:0.980392;stroke:#000000;stroke-width:1.85928;stroke-dasharray:none"
             cx="1496.0349"
             cy="7199.1753"
             r="56.708153"
             inkscape:label="Bulb"
             transform="matrix(0.965846,-0.259103,0.259103,0.965846,684.257,-3650.71)"
             id="circle331" /><circle
             style="fill:none;fill-opacity:0.980392;stroke:#000000;stroke-width:1.85928;stroke-dasharray:none"
             cx="1496.0349"
             cy="7199.1753"
             r="56.708153"
             inkscape:label="Bulb"
             transform="matrix(0.996413,-0.0845803,0.0845803,0.996413,2309.87,-4203.86)"
             id="circle332" /><circle
             style="fill:none;fill-opacity:0.980392;stroke:#000000;stroke-width:1.85928;stroke-dasharray:none"
             cx="1496.0349"
             cy="7199.1753"
             r="56.708153"
             inkscape:label="Bulb"
             transform="matrix(0.996413,0.0845803,-0.0845803,0.996413,3948.82,-4456.92)"
             id="circle333" /><circle
             style="fill:none;fill-opacity:0.980392;stroke:#000000;stroke-width:1.85928;stroke-dasharray:none"
             cx="1496.0349"
             cy="7199.1753"
             r="56.708153"
             inkscape:label="Bulb"
             transform="matrix(0.965846,0.259103,-0.259103,0.965846,5665.89,-4425.96)"
             id="circle334" /><circle
             style="fill:none;fill-opacity:0.980392;stroke:#000000;stroke-width:1.85928;stroke-dasharray:none"
             cx="1496.0349"
             cy="7199.1753"
             r="56.708153"
             inkscape:label="Bulb"
             transform="matrix(0.910163,0.414242,-0.414242,0.910163,7262.46,-4114.98)"
             id="circle335" /><circle
             style="fill:none;fill-opacity:0.980392;stroke:#000000;stroke-width:1.85928;stroke-dasharray:none"
             cx="1496.0349"
             cy="7199.1753"
             r="56.708153"
             inkscape:label="Bulb"
             transform="matrix(0.825329,0.564646,-0.564646,0.825329,8838.33,-3521.24)"
             id="circle336" /><circle
             style="fill:none;fill-opacity:0.980392;stroke:#000000;stroke-width:1.85928;stroke-dasharray:none"
             cx="1496.0349"
             cy="7199.1753"
             r="56.708153"
             inkscape:label="Bulb"
             transform="matrix(0.716062,0.698032,-0.698032,0.716062,10287.3,-2666.62)"
             id="circle337" /><circle
             style="fill:none;fill-opacity:0.980392;stroke:#000000;stroke-width:1.85928;stroke-dasharray:none"
             cx="1496.0349"
             cy="7199.1753"
             r="56.708153"
             inkscape:label="Bulb"
             transform="matrix(0.584292,0.811538,-0.811538,0.584292,11576.2,-1568.55)"
             id="circle338" /><circle
             style="fill:none;fill-opacity:0.980392;stroke:#000000;stroke-width:1.85928;stroke-dasharray:none"
             cx="1496.0349"
             cy="7199.1753"
             r="56.708153"
             inkscape:label="Bulb"
             transform="matrix(0.432467,0.901645,-0.901645,0.432467,12667.8,-248.683)"
             id="circle339" /><circle
             style="fill:none;fill-opacity:0.980392;stroke:#000000;stroke-width:1.85928;stroke-dasharray:none"
             cx="1496.0349"
             cy="7199.1753"
             r="56.708153"
             inkscape:label="Bulb"
             transform="matrix(0.274428,0.961603,-0.961603,0.274428,13486.5,1192.66)"
             id="circle340" /><circle
             style="fill:none;fill-opacity:0.980392;stroke:#000000;stroke-width:1.85928;stroke-dasharray:none"
             cx="1496.0349"
             cy="7199.1753"
             r="56.708153"
             inkscape:label="Bulb"
             transform="matrix(0.109567,0.993975,-0.993975,0.109567,14047.4,2744.31)"
             id="circle341" /><circle
             style="fill:none;fill-opacity:0.980392;stroke:#000000;stroke-width:1.85928;stroke-dasharray:none"
             cx="1496.0349"
             cy="7199.1753"
             r="56.708153"
             inkscape:label="Bulb"
             transform="matrix(-0.0655432,0.997846,-0.997846,-0.0655432,14346.3,4420.19)"
             id="circle342" /><circle
             style="fill:none;fill-opacity:0.980392;stroke:#000000;stroke-width:1.85928;stroke-dasharray:none"
             cx="1496.0349"
             cy="7199.1753"
             r="56.708153"
             inkscape:label="Bulb"
             transform="matrix(-0.236519,0.971623,-0.971623,-0.236519,14350.1,6106.66)"
             id="circle343" /><circle
             style="fill:none;fill-opacity:0.980392;stroke:#000000;stroke-width:1.85928;stroke-dasharray:none"
             cx="1496.0349"
             cy="7199.1753"
             r="56.708153"
             inkscape:label="Bulb"
             transform="matrix(-0.39982,0.91659,-0.91659,-0.39982,14064.7,7764.04)"
             id="circle344" /><circle
             style="fill:none;fill-opacity:0.980392;stroke:#000000;stroke-width:1.85928;stroke-dasharray:none"
             cx="1496.0349"
             cy="7199.1753"
             r="56.708153"
             inkscape:label="Bulb"
             transform="matrix(-0.552193,0.833711,-0.833711,-0.552193,13496.2,9355.69)"
             id="circle345" /><circle
             style="fill:none;fill-opacity:0.980392;stroke:#000000;stroke-width:1.85928;stroke-dasharray:none"
             cx="1496.0349"
             cy="7199.1753"
             r="56.708153"
             inkscape:label="Bulb"
             transform="matrix(-0.682573,0.730812,-0.730812,-0.682573,12690,10779.2)"
             id="circle346" /></g><g
           id="g953"
           inkscape:label="Inner"><circle
             style="fill:none;fill-opacity:0.980392;stroke:#000000;stroke-width:1.85928;stroke-dasharray:none"
             cx="1496.0349"
             cy="7199.1753"
             r="56.708153"
             inkscape:label="Bulb"
             transform="matrix(-0.751501 -0.659725 0.659725 -0.751501 -441.712 13308.5)"
             id="circle925" /><circle
             style="fill:none;fill-opacity:0.980392;stroke:#000000;stroke-width:1.85928;stroke-dasharray:none"
             cx="1496.0349"
             cy="7199.1753"
             r="56.708153"
             inkscape:label="Bulb"
             transform="matrix(-0.628581 -0.777739 0.777739 -0.628581 -1733.81 12329)"
             id="circle926" /><circle
             style="fill:none;fill-opacity:0.980392;stroke:#000000;stroke-width:1.85928;stroke-dasharray:none"
             cx="1496.0349"
             cy="7199.1753"
             r="56.708153"
             inkscape:label="Bulb"
             transform="matrix(-0.481052 -0.876688 0.876688 -0.481052 -2874.8 11103.1)"
             id="circle927" /><circle
             style="fill:none;fill-opacity:0.980392;stroke:#000000;stroke-width:1.85928;stroke-dasharray:none"
             cx="1496.0349"
             cy="7199.1753"
             r="56.708153"
             inkscape:label="Bulb"
             transform="matrix(-0.319951 -0.94743 0.94743 -0.319951 -3776.39 9706.31)"
             id="circle928" /><circle
             style="fill:none;fill-opacity:0.980392;stroke:#000000;stroke-width:1.85928;stroke-dasharray:none"
             cx="1496.0349"
             cy="7199.1753"
             r="56.708153"
             inkscape:label="Bulb"
             transform="matrix(-0.1585 -0.987355 0.987355 -0.1585 -4395.55 8240)"
             id="circle929" /><circle
             style="fill:none;fill-opacity:0.980392;stroke:#000000;stroke-width:1.85928;stroke-dasharray:none"
             cx="1496.0349"
             cy="7199.1753"
             r="56.708153"
             inkscape:label="Bulb"
             transform="matrix(0.0189809 -0.999816 0.999816 0.0189809 -4777.09 6607.1)"
             id="circle930" /><circle
             style="fill:none;fill-opacity:0.980392;stroke:#000000;stroke-width:1.85928;stroke-dasharray:none"
             cx="1496.0349"
             cy="7199.1753"
             r="56.708153"
             inkscape:label="Bulb"
             transform="matrix(0.188767 -0.982017 0.982017 0.188767 -4864.41 4985.39)"
             id="circle931" /><circle
             style="fill:none;fill-opacity:0.980392;stroke:#000000;stroke-width:1.85928;stroke-dasharray:none"
             cx="1496.0349"
             cy="7199.1753"
             r="56.708153"
             inkscape:label="Bulb"
             transform="matrix(0.354997 -0.934863 0.934863 0.354997 -4671.61 3357.53)"
             id="circle932" /><circle
             style="fill:none;fill-opacity:0.980392;stroke:#000000;stroke-width:1.85928;stroke-dasharray:none"
             cx="1496.0349"
             cy="7199.1753"
             r="56.708153"
             inkscape:label="Bulb"
             transform="matrix(0.509372 -0.860542 0.860542 0.509372 -4205.16 1797.22)"
             id="circle933" /><circle
             style="fill:none;fill-opacity:0.980392;stroke:#000000;stroke-width:1.85928;stroke-dasharray:none"
             cx="1496.0349"
             cy="7199.1753"
             r="56.708153"
             inkscape:label="Bulb"
             transform="matrix(0.646773 -0.762677 0.762677 0.646773 -3488.03 356.927)"
             id="circle934" /><circle
             style="fill:none;fill-opacity:0.980392;stroke:#000000;stroke-width:1.85928;stroke-dasharray:none"
             cx="1496.0349"
             cy="7199.1753"
             r="56.708153"
             inkscape:label="Bulb"
             transform="matrix(0.770727 -0.637159 0.637159 0.770727 -2502.47 -985.813)"
             id="circle935" /><circle
             style="fill:none;fill-opacity:0.980392;stroke:#000000;stroke-width:1.85928;stroke-dasharray:none"
             cx="1496.0349"
             cy="7199.1753"
             r="56.708153"
             inkscape:label="Bulb"
             transform="matrix(0.870404 -0.492331 0.492331 0.870404 -1300.5 -2132.9)"
             id="circle936" /><circle
             style="fill:none;fill-opacity:0.980392;stroke:#000000;stroke-width:1.85928;stroke-dasharray:none"
             cx="1496.0349"
             cy="7199.1753"
             r="56.708153"
             inkscape:label="Bulb"
             transform="matrix(0.940283 -0.340381 0.340381 0.940283 29.2923 -3019.99)"
             id="circle937" /><circle
             style="fill:none;fill-opacity:0.980392;stroke:#000000;stroke-width:1.85928;stroke-dasharray:none"
             cx="1496.0349"
             cy="7199.1753"
             r="56.708153"
             inkscape:label="Bulb"
             transform="matrix(0.986011 -0.166653 0.166653 0.986011 1573.9 -3704.79)"
             id="circle938" /><circle
             style="fill:none;fill-opacity:0.980392;stroke:#000000;stroke-width:1.85928;stroke-dasharray:none"
             cx="1496.0349"
             cy="7199.1753"
             r="56.708153"
             inkscape:label="Bulb"
             transform="matrix(0.999983 0.00509908 -0.00509908 0.999983 3162.87 -4094.16)"
             id="circle939" /><circle
             style="fill:none;fill-opacity:0.980392;stroke:#000000;stroke-width:1.85928;stroke-dasharray:none"
             cx="1496.0349"
             cy="7199.1753"
             r="56.708153"
             inkscape:label="Bulb"
             transform="matrix(0.984283 0.176574 -0.176574 0.984283 4794.16 -4205.09)"
             id="circle940" /><circle
             style="fill:none;fill-opacity:0.980392;stroke:#000000;stroke-width:1.85928;stroke-dasharray:none"
             cx="1496.0349"
             cy="7199.1753"
             r="56.708153"
             inkscape:label="Bulb"
             transform="matrix(0.940285 0.340377 -0.340377 0.940285 6401.37 -4036.97)"
             id="circle941" /><circle
             style="fill:none;fill-opacity:0.980392;stroke:#000000;stroke-width:1.85928;stroke-dasharray:none"
             cx="1496.0349"
             cy="7199.1753"
             r="56.708153"
             inkscape:label="Bulb"
             transform="matrix(0.865539 0.500833 -0.500833 0.865539 8008.45 -3581.57)"
             id="circle942" /><circle
             style="fill:none;fill-opacity:0.980392;stroke:#000000;stroke-width:1.85928;stroke-dasharray:none"
             cx="1496.0349"
             cy="7199.1753"
             r="56.708153"
             inkscape:label="Bulb"
             transform="matrix(0.770729 0.637157 -0.637157 0.770729 9439.74 -2889.5)"
             id="circle943" /><circle
             style="fill:none;fill-opacity:0.980392;stroke:#000000;stroke-width:1.85928;stroke-dasharray:none"
             cx="1496.0349"
             cy="7199.1753"
             r="56.708153"
             inkscape:label="Bulb"
             transform="matrix(0.646774 0.762676 -0.762676 0.646774 10795.6 -1921.78)"
             id="circle944" /><circle
             style="fill:none;fill-opacity:0.980392;stroke:#000000;stroke-width:1.85928;stroke-dasharray:none"
             cx="1496.0349"
             cy="7199.1753"
             r="56.708153"
             inkscape:label="Bulb"
             transform="matrix(0.509372 0.860541 -0.860541 0.509372 11923.3 -773.88)"
             id="circle945" /><circle
             style="fill:none;fill-opacity:0.980392;stroke:#000000;stroke-width:1.85928;stroke-dasharray:none"
             cx="1496.0349"
             cy="7199.1753"
             r="56.708153"
             inkscape:label="Bulb"
             transform="matrix(0.354997 0.934863 -0.934863 0.354997 12851 564.378)"
             id="circle946" /><circle
             style="fill:none;fill-opacity:0.980392;stroke:#000000;stroke-width:1.85928;stroke-dasharray:none"
             cx="1496.0349"
             cy="7199.1753"
             r="56.708153"
             inkscape:label="Bulb"
             transform="matrix(0.188767 0.982017 -0.982017 0.188767 13540.5 2051.35)"
             id="circle947" /><circle
             style="fill:none;fill-opacity:0.980392;stroke:#000000;stroke-width:1.85928;stroke-dasharray:none"
             cx="1496.0349"
             cy="7199.1753"
             r="56.708153"
             inkscape:label="Bulb"
             transform="matrix(0.0189809 0.999816 -0.999816 0.0189809 13960.4 3619.88)"
             id="circle948" /><circle
             style="fill:none;fill-opacity:0.980392;stroke:#000000;stroke-width:1.85928;stroke-dasharray:none"
             cx="1496.0349"
             cy="7199.1753"
             r="56.708153"
             inkscape:label="Bulb"
             transform="matrix(-0.1585 0.987355 -0.987355 -0.1585 14109.1 5290.01)"
             id="circle949" /><circle
             style="fill:none;fill-opacity:0.980392;stroke:#000000;stroke-width:1.85928;stroke-dasharray:none"
             cx="1496.0349"
             cy="7199.1753"
             r="56.708153"
             inkscape:label="Bulb"
             transform="matrix(-0.329195 0.944258 -0.944258 -0.329195 13963.3 6946.91)"
             id="circle950" /><circle
             style="fill:none;fill-opacity:0.980392;stroke:#000000;stroke-width:1.85928;stroke-dasharray:none"
             cx="1496.0349"
             cy="7199.1753"
             r="56.708153"
             inkscape:label="Bulb"
             transform="matrix(-0.481052 0.876688 -0.876688 -0.481052 13552.1 8483.79)"
             id="circle951" /><circle
             style="fill:none;fill-opacity:0.980392;stroke:#000000;stroke-width:1.85928;stroke-dasharray:none"
             cx="1496.0349"
             cy="7199.1753"
             r="56.708153"
             inkscape:label="Bulb"
             transform="matrix(-0.628581 0.777739 -0.777739 -0.628581 12851.9 10005.3)"
             id="circle952" /><circle
             style="fill:none;fill-opacity:0.980392;stroke:#000000;stroke-width:1.85928;stroke-dasharray:none"
             cx="1496.0349"
             cy="7199.1753"
             r="56.708153"
             inkscape:label="Bulb"
             transform="matrix(-0.751501 0.659725 -0.659725 -0.751501 11927.1 11337.4)"
             id="circle953" /></g></g><g
         id="g1033"
         inkscape:label="Bottom serif bulbs"><g
           id="g986"><circle
             style="fill:none;fill-opacity:0.980392;stroke:#000000;stroke-width:1.85928;stroke-dasharray:none"
             cx="1496.0349"
             cy="7199.1753"
             r="56.708153"
             inkscape:label="Bulb"
             transform="translate(2681.78, 44.02)"
             id="circle983" /><circle
             style="fill:none;fill-opacity:0.980392;stroke:#000000;stroke-width:1.85928;stroke-dasharray:none"
             cx="1496.0349"
             cy="7199.1753"
             r="56.708153"
             inkscape:label="Bulb"
             transform="translate(2977.84, 44.02)"
             id="circle984" /><circle
             style="fill:none;fill-opacity:0.980392;stroke:#000000;stroke-width:1.85928;stroke-dasharray:none"
             cx="1496.0349"
             cy="7199.1753"
             r="56.708153"
             inkscape:label="Bulb"
             transform="translate(3273.91, 44.02)"
             id="circle985" /><circle
             style="fill:none;fill-opacity:0.980392;stroke:#000000;stroke-width:1.85928;stroke-dasharray:none"
             cx="1496.0349"
             cy="7199.1753"
             r="56.708153"
             inkscape:label="Bulb"
             transform="translate(3569.97, 44.02)"
             id="circle986" /></g><g
           id="g990"><circle
             style="fill:none;fill-opacity:0.980392;stroke:#000000;stroke-width:1.85928;stroke-dasharray:none"
             cx="1496.0349"
             cy="7199.1753"
             r="56.708153"
             inkscape:label="Bulb"
             transform="translate(2681.78, 346.38)"
             id="circle987" /><circle
             style="fill:none;fill-opacity:0.980392;stroke:#000000;stroke-width:1.85928;stroke-dasharray:none"
             cx="1496.0349"
             cy="7199.1753"
             r="56.708153"
             inkscape:label="Bulb"
             transform="translate(2977.84, 346.38)"
             id="circle988" /><circle
             style="fill:none;fill-opacity:0.980392;stroke:#000000;stroke-width:1.85928;stroke-dasharray:none"
             cx="1496.0349"
             cy="7199.1753"
             r="56.708153"
             inkscape:label="Bulb"
             transform="translate(3273.91, 346.38)"
             id="circle989" /><circle
             style="fill:none;fill-opacity:0.980392;stroke:#000000;stroke-width:1.85928;stroke-dasharray:none"
             cx="1496.0349"
             cy="7199.1753"
             r="56.708153"
             inkscape:label="Bulb"
             transform="translate(3569.97, 346.38)"
             id="circle990" /></g></g><g
         id="g1032"
         inkscape:label="Left bulbs"
         inkscape:path-effect="#path-effect1034"><circle
           style="fill:none;fill-opacity:0.980392;stroke:#000000;stroke-width:1.85927;stroke-dasharray:none"
           cx="-6797.0977"
           cy="-3928.4321"
           r="56.707905"
           inkscape:label="Bulb"
           transform="rotate(-142.71381)"
           id="circle318"
           d="m -6740.3898,-3928.4321 c 0,31.3189 -25.3889,56.7079 -56.7079,56.7079 -31.3189,0 -56.7079,-25.389 -56.7079,-56.7079 0,-31.3189 25.389,-56.7079 56.7079,-56.7079 31.319,0 56.7079,25.389 56.7079,56.7079 z M -9345.34,-1944.9839 c 30.1904,8.3315 61.4186,-9.3887 69.75,-39.5791 8.3315,-30.1904 -9.3886,-61.4185 -39.579,-69.75 -30.1904,-8.3315 -61.4186,9.3887 -69.7501,39.5791 -8.3315,30.1904 9.3887,61.4185 39.5791,69.75 z" /><circle
           style="fill:none;fill-opacity:0.980392;stroke:#000000;stroke-width:1.85928;stroke-dasharray:none"
           id="path9"
           cx="3404.8943"
           cy="7243.1934"
           r="56.708153"
           inkscape:label="Bulb"
           d="m 3461.6024,7243.1934 c 0,31.319 -25.3891,56.7081 -56.7081,56.7081 -31.3191,0 -56.7082,-25.3891 -56.7082,-56.7081 0,-31.3191 25.3891,-56.7082 56.7082,-56.7082 31.319,0 56.7081,25.3891 56.7081,56.7082 z m 2316.82,0 c 0,31.319 25.3891,56.7081 56.7081,56.7081 31.3191,0 56.7082,-25.3891 56.7082,-56.7081 0,-31.3191 -25.3891,-56.7082 -56.7082,-56.7082 -31.319,0 -56.7081,25.3891 -56.7081,56.7082 z" /><g
           id="g966"><circle
             style="fill:none;fill-opacity:0.980392;stroke:#000000;stroke-width:1.85928;stroke-dasharray:none"
             cx="1496.0349"
             cy="7199.1753"
             r="56.708153"
             inkscape:label="Bulb"
             transform="translate(1423.19, -2488.27)"
             id="circle962"
             d="m 1552.7431,7199.1753 c 0,31.319 -25.3891,56.7081 -56.7082,56.7081 -31.319,0 -56.7081,-25.3891 -56.7081,-56.7081 0,-31.3191 25.3891,-56.7082 56.7081,-56.7082 31.3191,0 56.7082,25.3891 56.7082,56.7082 z m 3288.1587,0 c 0,31.319 25.3891,56.7081 56.7081,56.7081 31.3191,0 56.7082,-25.3891 56.7082,-56.7081 0,-31.3191 -25.3891,-56.7082 -56.7082,-56.7082 -31.319,0 -56.7081,25.3891 -56.7081,56.7082 z" /><circle
             style="fill:none;fill-opacity:0.980392;stroke:#000000;stroke-width:1.85928;stroke-dasharray:none"
             cx="1496.0349"
             cy="7199.1753"
             r="56.708153"
             inkscape:label="Bulb"
             transform="translate(1739.73, -2488.27)"
             id="circle963"
             d="m 1552.7431,7199.1753 c 0,31.319 -25.3891,56.7081 -56.7082,56.7081 -31.319,0 -56.7081,-25.3891 -56.7081,-56.7081 0,-31.3191 25.3891,-56.7082 56.7081,-56.7082 31.3191,0 56.7082,25.3891 56.7082,56.7082 z m 2655.0787,0 c 0,31.319 25.3891,56.7081 56.7081,56.7081 31.3191,0 56.7082,-25.3891 56.7082,-56.7081 0,-31.3191 -25.3891,-56.7082 -56.7082,-56.7082 -31.319,0 -56.7081,25.3891 -56.7081,56.7082 z" /><circle
             style="fill:none;fill-opacity:0.980392;stroke:#000000;stroke-width:1.85928;stroke-dasharray:none"
             cx="1496.0349"
             cy="7199.1753"
             r="56.708153"
             inkscape:label="Bulb"
             transform="translate(2056.27, -2488.27)"
             id="circle964"
             d="m 1552.7431,7199.1753 c 0,31.319 -25.3891,56.7081 -56.7082,56.7081 -31.319,0 -56.7081,-25.3891 -56.7081,-56.7081 0,-31.3191 25.3891,-56.7082 56.7081,-56.7082 31.3191,0 56.7082,25.3891 56.7082,56.7082 z m 2021.9987,0 c 0,31.319 25.3891,56.7081 56.7081,56.7081 31.3191,0 56.7082,-25.3891 56.7082,-56.7081 0,-31.3191 -25.3891,-56.7082 -56.7082,-56.7082 -31.319,0 -56.7081,25.3891 -56.7081,56.7082 z" /><circle
             style="fill:none;fill-opacity:0.980392;stroke:#000000;stroke-width:1.85928;stroke-dasharray:none"
             cx="1496.0349"
             cy="7199.1753"
             r="56.708153"
             inkscape:label="Bulb"
             transform="translate(2372.8, -2488.27)"
             id="circle965"
             d="m 1552.7431,7199.1753 c 0,31.319 -25.3891,56.7081 -56.7082,56.7081 -31.319,0 -56.7081,-25.3891 -56.7081,-56.7081 0,-31.3191 25.3891,-56.7082 56.7081,-56.7082 31.3191,0 56.7082,25.3891 56.7082,56.7082 z m 1388.9387,0 c 0,31.319 25.3891,56.7081 56.7081,56.7081 31.3191,0 56.7082,-25.3891 56.7082,-56.7081 0,-31.3191 -25.3891,-56.7082 -56.7082,-56.7082 -31.319,0 -56.7081,25.3891 -56.7081,56.7082 z" /><circle
             style="fill:none;fill-opacity:0.980392;stroke:#000000;stroke-width:1.85928;stroke-dasharray:none"
             cx="1496.0349"
             cy="7199.1753"
             r="56.708153"
             inkscape:label="Bulb"
             transform="translate(2689.34, -2488.27)"
             id="circle966"
             d="m 1552.7431,7199.1753 c 0,31.319 -25.3891,56.7081 -56.7082,56.7081 -31.319,0 -56.7081,-25.3891 -56.7081,-56.7081 0,-31.3191 25.3891,-56.7082 56.7081,-56.7082 31.3191,0 56.7082,25.3891 56.7082,56.7082 z m 755.8587,0 c 0,31.319 25.3891,56.7081 56.7081,56.7081 31.3191,0 56.7082,-25.3891 56.7082,-56.7081 0,-31.3191 -25.3891,-56.7082 -56.7082,-56.7082 -31.319,0 -56.7081,25.3891 -56.7081,56.7082 z" /></g><g
           id="g971"><circle
             style="fill:none;fill-opacity:0.980392;stroke:#000000;stroke-width:1.85928;stroke-dasharray:none"
             cx="1496.0349"
             cy="7199.1753"
             r="56.708153"
             inkscape:label="Bulb"
             transform="translate(1328.71, -2185.9)"
             id="circle967"
             d="m 1552.7431,7199.1753 c 0,31.319 -25.3891,56.7081 -56.7082,56.7081 -31.319,0 -56.7081,-25.3891 -56.7081,-56.7081 0,-31.3191 25.3891,-56.7082 56.7081,-56.7082 31.3191,0 56.7082,25.3891 56.7082,56.7082 z m 3477.1187,0 c 0,31.319 25.3891,56.7081 56.7081,56.7081 31.3191,0 56.7082,-25.3891 56.7082,-56.7081 0,-31.3191 -25.3891,-56.7082 -56.7082,-56.7082 -31.319,0 -56.7081,25.3891 -56.7081,56.7082 z" /><circle
             style="fill:none;fill-opacity:0.980392;stroke:#000000;stroke-width:1.85928;stroke-dasharray:none"
             cx="1496.0349"
             cy="7199.1753"
             r="56.708153"
             inkscape:label="Bulb"
             transform="translate(1668.87, -2185.9)"
             id="circle968"
             d="m 1552.7431,7199.1753 c 0,31.319 -25.3891,56.7081 -56.7082,56.7081 -31.319,0 -56.7081,-25.3891 -56.7081,-56.7081 0,-31.3191 25.3891,-56.7082 56.7081,-56.7082 31.3191,0 56.7082,25.3891 56.7082,56.7082 z m 2796.7987,0 c 0,31.319 25.3891,56.7081 56.7081,56.7081 31.3191,0 56.7082,-25.3891 56.7082,-56.7081 0,-31.3191 -25.3891,-56.7082 -56.7082,-56.7082 -31.319,0 -56.7081,25.3891 -56.7081,56.7082 z" /><circle
             style="fill:none;fill-opacity:0.980392;stroke:#000000;stroke-width:1.85928;stroke-dasharray:none"
             cx="1496.0349"
             cy="7199.1753"
             r="56.708153"
             inkscape:label="Bulb"
             transform="translate(2009.02, -2185.9)"
             id="circle969"
             d="m 1552.7431,7199.1753 c 0,31.319 -25.3891,56.7081 -56.7082,56.7081 -31.319,0 -56.7081,-25.3891 -56.7081,-56.7081 0,-31.3191 25.3891,-56.7082 56.7081,-56.7082 31.3191,0 56.7082,25.3891 56.7082,56.7082 z m 2116.4987,0 c 0,31.319 25.3891,56.7081 56.7081,56.7081 31.3191,0 56.7082,-25.3891 56.7082,-56.7081 0,-31.3191 -25.3891,-56.7082 -56.7082,-56.7082 -31.319,0 -56.7081,25.3891 -56.7081,56.7082 z" /><circle
             style="fill:none;fill-opacity:0.980392;stroke:#000000;stroke-width:1.85928;stroke-dasharray:none"
             cx="1496.0349"
             cy="7199.1753"
             r="56.708153"
             inkscape:label="Bulb"
             transform="translate(2349.18, -2185.9)"
             id="circle970"
             d="m 1552.7431,7199.1753 c 0,31.319 -25.3891,56.7081 -56.7082,56.7081 -31.319,0 -56.7081,-25.3891 -56.7081,-56.7081 0,-31.3191 25.3891,-56.7082 56.7081,-56.7082 31.3191,0 56.7082,25.3891 56.7082,56.7082 z m 1436.1787,0 c 0,31.319 25.3891,56.7081 56.7081,56.7081 31.3191,0 56.7082,-25.3891 56.7082,-56.7081 0,-31.3191 -25.3891,-56.7082 -56.7082,-56.7082 -31.319,0 -56.7081,25.3891 -56.7081,56.7082 z" /><circle
             style="fill:none;fill-opacity:0.980392;stroke:#000000;stroke-width:1.85928;stroke-dasharray:none"
             cx="1496.0349"
             cy="7199.1753"
             r="56.708153"
             inkscape:label="Bulb"
             transform="translate(2689.34, -2185.9)"
             id="circle971"
             d="m 1552.7431,7199.1753 c 0,31.319 -25.3891,56.7081 -56.7082,56.7081 -31.319,0 -56.7081,-25.3891 -56.7081,-56.7081 0,-31.3191 25.3891,-56.7082 56.7081,-56.7082 31.3191,0 56.7082,25.3891 56.7082,56.7082 z m 755.8587,0 c 0,31.319 25.3891,56.7081 56.7081,56.7081 31.3191,0 56.7082,-25.3891 56.7082,-56.7081 0,-31.3191 -25.3891,-56.7082 -56.7082,-56.7082 -31.319,0 -56.7081,25.3891 -56.7081,56.7082 z" /></g><g
           id="g982"><circle
             style="fill:none;fill-opacity:0.980392;stroke:#000000;stroke-width:1.85928;stroke-dasharray:none"
             cx="1496.0349"
             cy="7199.1753"
             r="56.708153"
             inkscape:label="Bulb"
             transform="matrix(0.452556 0.891736 -0.891736 0.452556 9344.86 733.892)"
             id="circle977"
             d="m 1552.7431,7199.1753 c 0,31.319 -25.3891,56.7081 -56.7082,56.7081 -31.319,0 -56.7081,-25.3891 -56.7081,-56.7081 0,-31.3191 25.3891,-56.7082 56.7081,-56.7082 31.3191,0 56.7082,25.3891 56.7082,56.7082 z m 898.0638,-1769.5841 c 25.2783,-18.4903 30.781,-53.9718 12.2907,-79.25 -18.4904,-25.2783 -53.9718,-30.781 -79.2501,-12.2906 -25.2782,18.4903 -30.7809,53.9717 -12.2906,79.25 18.4903,25.2783 53.9718,30.781 79.25,12.2906 z" /><circle
             style="fill:none;fill-opacity:0.980392;stroke:#000000;stroke-width:1.85928;stroke-dasharray:none"
             cx="1496.0349"
             cy="7199.1753"
             r="56.708153"
             inkscape:label="Bulb"
             transform="matrix(0.452556 0.891736 -0.891736 0.452556 9506.84 1053.07)"
             id="circle978"
             d="m 1552.7431,7199.1753 c 0,31.319 -25.3891,56.7081 -56.7082,56.7081 -31.319,0 -56.7081,-25.3891 -56.7081,-56.7081 0,-31.3191 25.3891,-56.7082 56.7081,-56.7082 31.3191,0 56.7082,25.3891 56.7082,56.7082 z M 2304.1969,5718.478 c 25.2783,-18.4903 30.781,-53.9718 12.2906,-79.25 -18.4903,-25.2783 -53.9718,-30.781 -79.25,-12.2907 -25.2783,18.4904 -30.781,53.9718 -12.2906,79.2501 18.4903,25.2782 53.9717,30.7809 79.25,12.2906 z" /><circle
             style="fill:none;fill-opacity:0.980392;stroke:#000000;stroke-width:1.85928;stroke-dasharray:none"
             cx="1496.0349"
             cy="7199.1753"
             r="56.708153"
             inkscape:label="Bulb"
             transform="matrix(0.452556 0.891736 -0.891736 0.452556 9668.83 1372.25)"
             id="circle979"
             d="m 1552.7431,7199.1753 c 0,31.319 -25.3891,56.7081 -56.7082,56.7081 -31.319,0 -56.7081,-25.3891 -56.7081,-56.7081 0,-31.3191 25.3891,-56.7082 56.7081,-56.7082 31.3191,0 56.7082,25.3891 56.7082,56.7082 z m 604.8347,-1191.7927 c 25.2783,-18.4903 30.781,-53.9718 12.2906,-79.25 -18.4903,-25.2783 -53.9717,-30.781 -79.25,-12.2906 -25.2783,18.4903 -30.781,53.9717 -12.2906,79.25 18.4903,25.2783 53.9718,30.781 79.25,12.2906 z" /><circle
             style="fill:none;fill-opacity:0.980392;stroke:#000000;stroke-width:1.85928;stroke-dasharray:none"
             cx="1496.0349"
             cy="7199.1753"
             r="56.708153"
             inkscape:label="Bulb"
             transform="matrix(0.452556 0.891736 -0.891736 0.452556 9830.81 1691.43)"
             id="circle980"
             d="m 1552.7431,7199.1753 c 0,31.319 -25.3891,56.7081 -56.7082,56.7081 -31.319,0 -56.7081,-25.3891 -56.7081,-56.7081 0,-31.3191 25.3891,-56.7082 56.7081,-56.7082 31.3191,0 56.7082,25.3891 56.7082,56.7082 z m 458.2247,-902.9059 c 25.2782,-18.4903 30.7809,-53.9718 12.2906,-79.25 -18.4903,-25.2783 -53.9718,-30.781 -79.25,-12.2907 -25.2783,18.4904 -30.781,53.9718 -12.2907,79.2501 18.4904,25.2783 53.9718,30.781 79.2501,12.2906 z" /><circle
             style="fill:none;fill-opacity:0.980392;stroke:#000000;stroke-width:1.85928;stroke-dasharray:none"
             cx="1496.0349"
             cy="7199.1753"
             r="56.708153"
             inkscape:label="Bulb"
             transform="matrix(0.452556 0.891736 -0.891736 0.452556 9992.79 2010.61)"
             id="circle981"
             d="m 1552.7431,7199.1753 c 0,31.319 -25.3891,56.7081 -56.7082,56.7081 -31.319,0 -56.7081,-25.3891 -56.7081,-56.7081 0,-31.3191 25.3891,-56.7082 56.7081,-56.7082 31.3191,0 56.7082,25.3891 56.7082,56.7082 z m 311.6146,-614.0191 c 25.2783,-18.4903 30.781,-53.9718 12.2907,-79.25 -18.4904,-25.2783 -53.9718,-30.781 -79.2501,-12.2907 -25.2782,18.4904 -30.7809,53.9718 -12.2906,79.2501 18.4903,25.2782 53.9718,30.7809 79.25,12.2906 z" /><circle
             style="fill:none;fill-opacity:0.980392;stroke:#000000;stroke-width:1.85928;stroke-dasharray:none"
             cx="1496.0349"
             cy="7199.1753"
             r="56.708153"
             inkscape:label="Bulb"
             transform="matrix(0.452556 0.891736 -0.891736 0.452556 10154.8 2329.79)"
             id="circle982"
             d="m 1552.7431,7199.1753 c 0,31.319 -25.3891,56.7081 -56.7082,56.7081 -31.319,0 -56.7081,-25.3891 -56.7081,-56.7081 0,-31.3191 25.3891,-56.7082 56.7081,-56.7082 31.3191,0 56.7082,25.3891 56.7082,56.7082 z m 164.9774,-325.0788 c 25.2783,-18.4903 30.781,-53.9718 12.2907,-79.25 -18.4904,-25.2783 -53.9718,-30.781 -79.2501,-12.2907 -25.2782,18.4904 -30.7809,53.9718 -12.2906,79.2501 18.4903,25.2782 53.9718,30.7809 79.25,12.2906 z" /></g><g
           id="g1000"><circle
             style="fill:none;fill-opacity:0.980392;stroke:#000000;stroke-width:1.85928;stroke-dasharray:none"
             cx="1496.0349"
             cy="7199.1753"
             r="56.708153"
             inkscape:label="Bulb"
             transform="matrix(0.995188 -0.0953674 0.0953674 0.995188 -654.597 523.697)"
             id="circle995"
             d="m 1552.7431,7199.1753 c 0,31.319 -25.3891,56.7081 -56.7082,56.7081 -31.319,0 -56.7081,-25.3891 -56.7081,-56.7081 0,-31.3191 25.3891,-56.7082 56.7081,-56.7082 31.3191,0 56.7082,25.3891 56.7082,56.7082 z m 6059.3248,580.6562 c -5.9479,30.749 14.1574,60.4978 44.9065,66.4457 30.7491,5.9479 60.4978,-14.1574 66.4457,-44.9065 5.9479,-30.7491 -14.1574,-60.4978 -44.9065,-66.4457 -30.749,-5.9479 -60.4978,14.1574 -66.4457,44.9065 z" /><circle
             style="fill:none;fill-opacity:0.980392;stroke:#000000;stroke-width:1.85928;stroke-dasharray:none"
             cx="1496.0349"
             cy="7199.1753"
             r="56.708153"
             inkscape:label="Bulb"
             transform="matrix(1 0.000274041 -0.000274041 1 403.55 344.397)"
             id="circle996"
             d="m 1552.7431,7199.1753 c 0,31.319 -25.3891,56.7081 -56.7082,56.7081 -31.319,0 -56.7081,-25.3891 -56.7081,-56.7081 0,-31.3191 25.3891,-56.7082 56.7081,-56.7082 31.3191,0 56.7082,25.3891 56.7082,56.7082 z m 5331.384,-1.461 c 0.017,31.319 25.4202,56.6942 56.7392,56.677 31.3191,-0.017 56.6943,-25.4201 56.6771,-56.7392 -0.017,-31.319 -25.4202,-56.6942 -56.7392,-56.677 -31.3191,0.017 -56.6943,25.4201 -56.6771,56.7392 z" /><circle
             style="fill:none;fill-opacity:0.980392;stroke:#000000;stroke-width:1.85928;stroke-dasharray:none"
             cx="1496.0349"
             cy="7199.1753"
             r="56.708153"
             inkscape:label="Bulb"
             transform="matrix(1 0.000274041 -0.000274041 1 780.371 344.5)"
             id="circle997"
             d="m 1552.7431,7199.1753 c 0,31.319 -25.3891,56.7081 -56.7082,56.7081 -31.319,0 -56.7081,-25.3891 -56.7081,-56.7081 0,-31.3191 25.3891,-56.7082 56.7081,-56.7082 31.3191,0 56.7082,25.3891 56.7082,56.7082 z m 4577.7421,-1.2545 c 0.017,31.319 25.4201,56.6942 56.7392,56.6771 31.319,-0.017 56.6942,-25.4202 56.6771,-56.7393 -0.017,-31.319 -25.4202,-56.6942 -56.7393,-56.677 -31.319,0.017 -56.6942,25.4202 -56.677,56.7392 z" /><circle
             style="fill:none;fill-opacity:0.980392;stroke:#000000;stroke-width:1.85928;stroke-dasharray:none"
             cx="1496.0349"
             cy="7199.1753"
             r="56.708153"
             inkscape:label="Bulb"
             transform="matrix(0.999999 0.0015194 -0.0015194 0.999999 1166.16 342.971)"
             id="circle998"
             d="m 1552.7431,7199.1753 c 0,31.319 -25.3891,56.7081 -56.7082,56.7081 -31.319,0 -56.7081,-25.3891 -56.7081,-56.7081 0,-31.3191 25.3891,-56.7082 56.7081,-56.7082 31.3191,0 56.7082,25.3891 56.7082,56.7082 z m 3824.0936,-5.8103 c 0.095,31.3189 25.5613,56.6307 56.8802,56.5355 31.3189,-0.095 56.6308,-25.5613 56.5356,-56.8802 -0.095,-31.3189 -25.5613,-56.6307 -56.8802,-56.5356 -31.3189,0.095 -56.6307,25.5614 -56.5356,56.8803 z" /><circle
             style="fill:none;fill-opacity:0.980392;stroke:#000000;stroke-width:1.85928;stroke-dasharray:none"
             cx="1496.0349"
             cy="7199.1753"
             r="56.708153"
             inkscape:label="Bulb"
             transform="matrix(0.999999 0.0015194 -0.0015194 0.999999 1542.98 343.543)"
             id="circle999"
             d="m 1552.7431,7199.1753 c 0,31.319 -25.3891,56.7081 -56.7082,56.7081 -31.319,0 -56.7081,-25.3891 -56.7081,-56.7081 0,-31.3191 25.3891,-56.7082 56.7081,-56.7082 31.3191,0 56.7082,25.3891 56.7082,56.7082 z m 3070.4546,-4.6653 c 0.095,31.3189 25.5613,56.6308 56.8802,56.5356 31.3189,-0.095 56.6308,-25.5613 56.5356,-56.8802 -0.095,-31.3189 -25.5613,-56.6307 -56.8802,-56.5356 -31.3189,0.095 -56.6308,25.5613 -56.5356,56.8802 z" /><circle
             style="fill:none;fill-opacity:0.980392;stroke:#000000;stroke-width:1.85928;stroke-dasharray:none"
             cx="1496.0349"
             cy="7199.1753"
             r="56.708153"
             inkscape:label="Bulb"
             transform="matrix(0.999999 0.0015194 -0.0015194 0.999999 1919.8 344.116)"
             id="circle1000"
             d="m 1552.7431,7199.1753 c 0,31.319 -25.3891,56.7081 -56.7082,56.7081 -31.319,0 -56.7081,-25.3891 -56.7081,-56.7081 0,-31.3191 25.3891,-56.7082 56.7081,-56.7082 31.3191,0 56.7082,25.3891 56.7082,56.7082 z m 2316.8156,-3.5202 c 0.095,31.3189 25.5613,56.6308 56.8802,56.5356 31.3189,-0.095 56.6308,-25.5613 56.5356,-56.8802 -0.095,-31.3189 -25.5613,-56.6308 -56.8802,-56.5356 -31.3189,0.095 -56.6308,25.5613 -56.5356,56.8802 z" /></g><g
           id="g1031"><circle
             style="fill:none;fill-opacity:0.980392;stroke:#000000;stroke-width:1.85928;stroke-dasharray:none"
             cx="1688.0439"
             cy="7293.2759"
             r="56.708153"
             inkscape:label="Bulb"
             transform="matrix(0.963952 0.266076 -0.266076 0.963952 1834.18 -453.649)"
             id="circle1028"
             d="m 1744.7521,7293.2759 c 0,31.319 -25.3891,56.7081 -56.7082,56.7081 -31.319,0 -56.7081,-25.3891 -56.7081,-56.7081 0,-31.3191 25.3891,-56.7082 56.7081,-56.7082 31.3191,0 56.7082,25.3891 56.7082,56.7082 z m 5869.583,-1620.1587 c 16.0657,26.8845 50.8837,35.6549 77.7682,19.5892 26.8845,-16.0657 35.6549,-50.8837 19.5892,-77.7682 -16.0657,-26.8845 -50.8837,-35.6549 -77.7682,-19.5892 -26.8845,16.0657 -35.6549,50.8837 -19.5892,77.7682 z" /><circle
             style="fill:none;fill-opacity:0.980392;stroke:#000000;stroke-width:1.85928;stroke-dasharray:none"
             cx="1688.0439"
             cy="7293.2759"
             r="56.708153"
             inkscape:label="Bulb"
             transform="matrix(0.963952 0.266076 -0.266076 0.963952 2211.49 -349.502)"
             id="circle1029"
             d="m 1744.7521,7293.2759 c 0,31.319 -25.3891,56.7081 -56.7082,56.7081 -31.319,0 -56.7081,-25.3891 -56.7081,-56.7081 0,-31.3191 25.3891,-56.7082 56.7081,-56.7082 31.3191,0 56.7082,25.3891 56.7082,56.7082 z M 6886.9176,5873.9035 c 16.0657,26.8845 50.8837,35.6549 77.7682,19.5892 26.8845,-16.0657 35.6549,-50.8837 19.5892,-77.7682 -16.0657,-26.8845 -50.8838,-35.6549 -77.7683,-19.5892 -26.8844,16.0657 -35.6548,50.8837 -19.5891,77.7682 z" /><circle
             style="fill:none;fill-opacity:0.980392;stroke:#000000;stroke-width:1.85928;stroke-dasharray:none"
             cx="1688.0439"
             cy="7293.2759"
             r="56.708153"
             inkscape:label="Bulb"
             transform="matrix(0.963952 0.266076 -0.266076 0.963952 2588.8 -245.355)"
             id="circle1030"
             d="m 1744.7521,7293.2759 c 0,31.319 -25.3891,56.7081 -56.7082,56.7081 -31.319,0 -56.7081,-25.3891 -56.7081,-56.7081 0,-31.3191 25.3891,-56.7082 56.7081,-56.7082 31.3191,0 56.7082,25.3891 56.7082,56.7082 z m 4414.748,-1218.5861 c 16.0657,26.8845 50.8837,35.6549 77.7682,19.5892 26.8845,-16.0657 35.6548,-50.8837 19.5891,-77.7682 -16.0657,-26.8845 -50.8837,-35.6549 -77.7682,-19.5892 -26.8845,16.0657 -35.6548,50.8837 -19.5891,77.7682 z" /><path
             style="fill:none;fill-opacity:0.980392;stroke:#000000;stroke-width:1.85928;stroke-dasharray:none"
             inkscape:label="Bulb"
             transform="rotate(15.4309)"
             id="circle1031"
             d="m 4545.8258,6293.5605 c 0,31.3191 -25.3891,56.7082 -56.7081,56.7082 -31.3191,0 -56.7082,-25.3891 -56.7082,-56.7082 0,-31.319 25.3891,-56.7081 56.7082,-56.7081 31.319,0 56.7081,25.3891 56.7081,56.7081 z M 8233.1735,5275.756 c 16.0657,26.8845 50.8837,35.6548 77.7682,19.5891 26.8845,-16.0657 35.6548,-50.8837 19.5891,-77.7682 -16.0657,-26.8845 -50.8837,-35.6548 -77.7682,-19.5891 -26.8845,16.0657 -35.6548,50.8837 -19.5891,77.7682 z m 0,0 c 16.0657,26.8845 50.8837,35.6548 77.7682,19.5891 26.8845,-16.0657 35.6548,-50.8837 19.5891,-77.7682 -16.0657,-26.8845 -50.8837,-35.6548 -77.7682,-19.5891 -26.8845,16.0657 -35.6548,50.8837 -19.5891,77.7682 z M 4545.8258,6293.5605 c 0,31.3191 -25.3891,56.7082 -56.7081,56.7082 -31.3191,0 -56.7082,-25.3891 -56.7082,-56.7082 0,-31.319 25.3891,-56.7081 56.7082,-56.7081 31.319,0 56.7081,25.3891 56.7081,56.7081 z"
             sodipodi:type="arc"
             sodipodi:cx="4489.1177"
             sodipodi:cy="6293.5605"
             sodipodi:rx="56.708149"
             sodipodi:ry="56.708149"
             inkscape:path-effect="#path-effect1" /></g></g></g></g></svg>
