  0
SECTION
  2
HEADER
  9
$ACADVER
  1
AC1014
  9
$HANDSEED
  5
FFFF
  9
$INSUNITS
 70
     0
  9
$MEASUREMENT
 70
     1
  0
ENDSEC
  0
SECTION
  2
TABLES
  0
TABLE
  2
VPORT
  5
8
330
0
100
AcDbSymbolTable
 70
     4
  0
VPORT
  5
2E
330
8
100
AcDbSymbolTableRecord
100
AcDbViewportTableRecord
  2
*ACTIVE
 70
     0
 10
0.0
 20
0.0
 11
1.0
 21
1.0
 12
210.0
 22
148.5
 13
0.0
 23
0.0
 14
10.0
 24
10.0
 15
10.0
 25
10.0
 16
0.0
 26
0.0
 36
1.0
 17
0.0
 27
0.0
 37
0.0
 40
341.0
 41
1.24
 42
50.0
 43
0.0
 44
0.0
 50
0.0
 51
0.0
 71
     0
 72
   100
 73
     1
 74
     3
 75
     0
 76
     0
 77
     0
 78
     0
  0
ENDTAB
  0
TABLE
  2
LTYPE
  5
5
330
0
100
AcDbSymbolTable
 70
     1
  0
LTYPE
  5
14
330
5
100
AcDbSymbolTableRecord
100
AcDbLinetypeTableRecord
  2
BYBLOCK
 70
     0
  3

 72
    65
 73
     0
 40
0.0
  0
LTYPE
  5
15
330
5
100
AcDbSymbolTableRecord
100
AcDbLinetypeTableRecord
  2
BYLAYER
 70
     0
  3

 72
    65
 73
     0
 40
0.0
  0
LTYPE
  5
16
330
5
100
AcDbSymbolTableRecord
100
AcDbLinetypeTableRecord
  2
CONTINUOUS
 70
     0
  3
Solid line
 72
    65
 73
     0
 40
0.0
  0
ENDTAB
  0
TABLE
  2
LAYER
  5
2
100
AcDbSymbolTable
 70
2
  0
LAYER
  5
50
100
AcDbSymbolTableRecord
100
AcDbLayerTableRecord
  2
0
 70
0
  6
CONTINUOUS
  0
LAYER
  5
51
100
AcDbSymbolTableRecord
100
AcDbLayerTableRecord
  2
Layer_1
 70
0
  6
CONTINUOUS
  0
ENDTAB
  0
TABLE
  2
STYLE
  5
3
330
0
100
AcDbSymbolTable
 70
     1
  0
STYLE
  5
11
330
3
100
AcDbSymbolTableRecord
100
AcDbTextStyleTableRecord
  2
STANDARD
 70
     0
 40
0.0
 41
1.0
 50
0.0
 71
     0
 42
2.5
  3
txt
  4

  0
ENDTAB
  0
TABLE
  2
VIEW
  5
6
330
0
100
AcDbSymbolTable
 70
     0
  0
ENDTAB
  0
TABLE
  2
UCS
  5
7
330
0
100
AcDbSymbolTable
 70
     0
  0
ENDTAB
  0
TABLE
  2
APPID
  5
9
330
0
100
AcDbSymbolTable
 70
     2
  0
APPID
  5
12
330
9
100
AcDbSymbolTableRecord
100
AcDbRegAppTableRecord
  2
ACAD
 70
     0
  0
ENDTAB
  0
TABLE
  2
DIMSTYLE
  5
A
330
0
100
AcDbSymbolTable
 70
     1
  0
DIMSTYLE
105
27
330
A
100
AcDbSymbolTableRecord
100
AcDbDimStyleTableRecord
  2
ISO-25
 70
     0
  3

  4

  5

  6

  7

 40
1.0
 41
2.5
 42
0.625
 43
3.75
 44
1.25
 45
0.0
 46
0.0
 47
0.0
 48
0.0
140
2.5
141
2.5
142
0.0
143
0.03937007874016
144
1.0
145
0.0
146
1.0
147
0.625
 71
     0
 72
     0
 73
     0
 74
     0
 75
     0
 76
     0
 77
     1
 78
     8
170
     0
171
     3
172
     1
173
     0
174
     0
175
     0
176
     0
177
     0
178
     0
270
     2
271
     2
272
     2
273
     2
274
     3
340
11
275
     0
280
     0
281
     0
282
     0
283
     0
284
     8
285
     0
286
     0
287
     3
288
     0
  0
ENDTAB
  0
TABLE
  2
BLOCK_RECORD
  5
1
330
0
100
AcDbSymbolTable
 70
     1
  0
BLOCK_RECORD
  5
1F
330
1
100
AcDbSymbolTableRecord
100
AcDbBlockTableRecord
  2
*MODEL_SPACE
  0
BLOCK_RECORD
  5
1B
330
1
100
AcDbSymbolTableRecord
100
AcDbBlockTableRecord
  2
*PAPER_SPACE
  0
ENDTAB
  0
ENDSEC
  0
SECTION
  2
BLOCKS
  0
BLOCK
  5
20
330
1F
100
AcDbEntity
  8
0
100
AcDbBlockBegin
  2
*MODEL_SPACE
 70
     0
 10
0.0
 20
0.0
 30
0.0
  3
*MODEL_SPACE
  1

  0
ENDBLK
  5
21
330
1F
100
AcDbEntity
  8
0
100
AcDbBlockEnd
  0
BLOCK
  5
1C
330
1B
100
AcDbEntity
 67
     1
  8
0
100
AcDbBlockBegin
  2
*PAPER_SPACE
  1

  0
ENDBLK
  5
1D
330
1B
100
AcDbEntity
 67
     1
  8
0
100
AcDbBlockEnd
  0
ENDSEC
  0
SECTION
  2
ENTITIES
  0
SPLINE
  5
100
100
AcDbEntity
  8
Layer_1
 62
7
100
AcDbSpline
 70
8
 71
3
 72
8
 73
4
 74
0
 40
0
 40
0
 40
0
 40
0
 40
1
 40
1
 40
1
 40
1
 10
1401.359376
 20
1113.824530
 30
0.0
 10
1469.033336
 20
1066.962456
 30
0.0
 10
1525.286160
 20
1003.960324
 30
0.0
 10
1565.304680
 20
929.678025
 30
0.0
  0
SPLINE
  5
101
100
AcDbEntity
  8
Layer_1
 62
7
100
AcDbSpline
 70
8
 71
3
 72
8
 73
4
 74
0
 40
0
 40
0
 40
0
 40
0
 40
1
 40
1
 40
1
 40
1
 10
1565.304680
 20
929.678025
 30
0.0
 10
1570.997455
 20
919.111175
 30
0.0
 10
1583.521480
 20
893.125758
 30
0.0
 10
1583.521480
 20
891.881158
 30
0.0
  0
SPLINE
  5
102
100
AcDbEntity
  8
Layer_1
 62
7
100
AcDbSpline
 70
8
 71
3
 72
8
 73
4
 74
0
 40
0
 40
0
 40
0
 40
0
 40
1
 40
1
 40
1
 40
1
 10
1583.521480
 20
891.881158
 30
0.0
 10
1583.521480
 20
891.704337
 30
0.0
 10
1488.383479
 20
891.560854
 30
0.0
 10
1372.105456
 20
891.560854
 30
0.0
  0
LWPOLYLINE
  5
103
100
AcDbEntity
  8
Layer_1
 62
7
100
AcDbPolyline
 90
2
 70
0
 10
1576.140637
 20
1193.248344
 30
0.0
 10
1401.359376
 20
1113.824530
 30
0.0
  0
SPLINE
  5
104
100
AcDbEntity
  8
Layer_1
 62
7
100
AcDbSpline
 70
8
 71
3
 72
8
 73
4
 74
0
 40
0
 40
0
 40
0
 40
0
 40
1
 40
1
 40
1
 40
1
 10
1237.458973
 20
701.045219
 30
0.0
 10
1279.681604
 20
701.045219
 30
0.0
 10
1314.228514
 20
700.869668
 30
0.0
 10
1314.228514
 20
700.654588
 30
0.0
  0
SPLINE
  5
105
100
AcDbEntity
  8
Layer_1
 62
7
100
AcDbSpline
 70
8
 71
3
 72
8
 73
4
 74
0
 40
0
 40
0
 40
0
 40
0
 40
1
 40
1
 40
1
 40
1
 10
1314.228514
 20
700.654588
 30
0.0
 10
1314.228514
 20
700.439535
 30
0.0
 10
1296.718574
 20
665.622671
 30
0.0
 10
1275.318360
 20
623.283490
 30
0.0
  0
SPLINE
  5
106
100
AcDbEntity
  8
Layer_1
 62
7
100
AcDbSpline
 70
8
 71
3
 72
8
 73
4
 74
0
 40
0
 40
0
 40
0
 40
0
 40
1
 40
1
 40
1
 40
1
 10
1275.318360
 20
623.283490
 30
0.0
 10
1253.918120
 20
580.944337
 30
0.0
 10
1205.899711
 20
485.258754
 30
0.0
 10
1168.611321
 20
410.650700
 30
0.0
  0
SPLINE
  5
107
100
AcDbEntity
  8
Layer_1
 62
7
100
AcDbSpline
 70
8
 71
3
 72
8
 73
4
 74
0
 40
0
 40
0
 40
0
 40
0
 40
1
 40
1
 40
1
 40
1
 10
1168.611321
 20
410.650700
 30
0.0
 10
1131.330419
 20
336.057648
 30
0.0
 10
1100.467752
 20
275.052194
 30
0.0
 10
1099.999995
 20
275.027640
 30
0.0
  0
LWPOLYLINE
  5
108
100
AcDbEntity
  8
Layer_1
 62
7
100
AcDbPolyline
 90
5
 70
0
 10
1372.105456
 20
891.560854
 30
0.0
 10
1160.691416
 20
891.560854
 30
0.0
 10
1160.691416
 20
796.303023
 30
0.0
 10
1160.691416
 20
701.045219
 30
0.0
 10
1237.458973
 20
701.045219
 30
0.0
  0
SPLINE
  5
109
100
AcDbEntity
  8
Layer_1
 62
7
100
AcDbSpline
 70
8
 71
3
 72
8
 73
4
 74
0
 40
0
 40
0
 40
0
 40
0
 40
1
 40
1
 40
1
 40
1
 10
1216.623036
 20
247.469037
 30
0.0
 10
1224.440468
 20
262.832783
 30
0.0
 10
1233.816798
 20
281.190024
 30
0.0
 10
1237.458973
 20
288.263977
 30
0.0
  0
SPLINE
  5
10a
100
AcDbEntity
  8
Layer_1
 62
7
100
AcDbSpline
 70
8
 71
3
 72
8
 73
4
 74
0
 40
0
 40
0
 40
0
 40
0
 40
1
 40
1
 40
1
 40
1
 10
1237.458973
 20
288.263977
 30
0.0
 10
1241.101068
 20
295.337930
 30
0.0
 10
1251.228260
 20
315.234094
 30
0.0
 10
1259.962896
 20
332.476857
 30
0.0
  0
SPLINE
  5
10b
100
AcDbEntity
  8
Layer_1
 62
7
100
AcDbSpline
 70
8
 71
3
 72
8
 73
4
 74
0
 40
0
 40
0
 40
0
 40
0
 40
1
 40
1
 40
1
 40
1
 10
1259.962896
 20
332.476857
 30
0.0
 10
1268.697559
 20
349.719594
 30
0.0
 10
1278.645654
 20
369.253225
 30
0.0
 10
1282.070315
 20
375.885059
 30
0.0
  0
SPLINE
  5
10c
100
AcDbEntity
  8
Layer_1
 62
7
100
AcDbSpline
 70
8
 71
3
 72
8
 73
4
 74
0
 40
0
 40
0
 40
0
 40
0
 40
1
 40
1
 40
1
 40
1
 10
1282.070315
 20
375.885059
 30
0.0
 10
1285.495082
 20
382.516867
 30
0.0
 10
1297.796513
 20
406.752118
 30
0.0
 10
1309.406245
 20
429.742478
 30
0.0
  0
SPLINE
  5
10d
100
AcDbEntity
  8
Layer_1
 62
7
100
AcDbSpline
 70
8
 71
3
 72
8
 73
4
 74
0
 40
0
 40
0
 40
0
 40
0
 40
1
 40
1
 40
1
 40
1
 10
1309.406245
 20
429.742478
 30
0.0
 10
1321.016029
 20
452.732811
 30
0.0
 10
1333.858189
 20
478.055764
 30
0.0
 10
1337.945314
 20
486.013981
 30
0.0
  0
SPLINE
  5
10e
100
AcDbEntity
  8
Layer_1
 62
7
100
AcDbSpline
 70
8
 71
3
 72
8
 73
4
 74
0
 40
0
 40
0
 40
0
 40
0
 40
1
 40
1
 40
1
 40
1
 10
1337.945314
 20
486.013981
 30
0.0
 10
1351.305661
 20
512.028079
 30
0.0
 10
1424.328199
 20
656.582467
 30
0.0
 10
1437.332020
 20
682.758119
 30
0.0
  0
LWPOLYLINE
  5
10f
100
AcDbEntity
  8
Layer_1
 62
7
100
AcDbPolyline
 90
8
 70
0
 10
1099.999995
 20
275.027640
 30
0.0
 10
1099.999995
 20
31.631164
 30
0.0
 10
1272.830086
 20
31.832327
 30
0.0
 10
1273.033207
 20
125.683897
 30
0.0
 10
1273.238286
 20
219.533509
 30
0.0
 10
1237.824230
 20
219.533509
 30
0.0
 10
1202.410148
 20
219.533509
 30
0.0
 10
1216.623036
 20
247.469037
 30
0.0
  0
SPLINE
  5
110
100
AcDbEntity
  8
Layer_1
 62
7
100
AcDbSpline
 70
8
 71
3
 72
8
 73
4
 74
0
 40
0
 40
0
 40
0
 40
0
 40
1
 40
1
 40
1
 40
1
 10
1626.693357
 20
672.709297
 30
0.0
 10
1626.254202
 20
644.266668
 30
0.0
 10
1625.336256
 20
631.449379
 30
0.0
 10
1622.056640
 20
607.990548
 30
0.0
  0
SPLINE
  5
111
100
AcDbEntity
  8
Layer_1
 62
7
100
AcDbSpline
 70
8
 71
3
 72
8
 73
4
 74
0
 40
0
 40
0
 40
0
 40
0
 40
1
 40
1
 40
1
 40
1
 10
1622.056640
 20
607.990548
 30
0.0
 10
1613.189923
 20
544.567912
 30
0.0
 10
1591.589684
 20
480.377060
 30
0.0
 10
1560.453121
 20
424.920235
 30
0.0
  0
SPLINE
  5
112
100
AcDbEntity
  8
Layer_1
 62
7
100
AcDbSpline
 70
8
 71
3
 72
8
 73
4
 74
0
 40
0
 40
0
 40
0
 40
0
 40
1
 40
1
 40
1
 40
1
 10
1560.453121
 20
424.920235
 30
0.0
 10
1515.117667
 20
344.173795
 30
0.0
 10
1449.683087
 20
276.888296
 30
0.0
 10
1370.900385
 20
230.008125
 30
0.0
  0
SPLINE
  5
113
100
AcDbEntity
  8
Layer_1
 62
7
100
AcDbSpline
 70
8
 71
3
 72
8
 73
4
 74
0
 40
0
 40
0
 40
0
 40
0
 40
1
 40
1
 40
1
 40
1
 10
1370.900385
 20
230.008125
 30
0.0
 10
1364.710669
 20
226.324914
 30
0.0
 10
1358.832660
 20
222.816274
 30
0.0
 10
1357.837879
 20
222.209293
 30
0.0
  0
LWPOLYLINE
  5
114
100
AcDbEntity
  8
Layer_1
 62
7
100
AcDbPolyline
 90
5
 70
0
 10
1437.332020
 20
682.758119
 30
0.0
 10
1446.417970
 20
701.045219
 30
0.0
 10
1536.775400
 20
701.045219
 30
0.0
 10
1627.130872
 20
701.045219
 30
0.0
 10
1626.693357
 20
672.709297
 30
0.0
  0
SPLINE
  5
115
100
AcDbEntity
  8
Layer_1
 62
7
100
AcDbSpline
 70
8
 71
3
 72
8
 73
4
 74
0
 40
0
 40
0
 40
0
 40
0
 40
1
 40
1
 40
1
 40
1
 10
1975.000007
 20
161.656541
 30
0.0
 10
1975.000007
 20
236.817230
 30
0.0
 10
1974.794664
 20
298.312799
 30
0.0
 10
1974.542966
 20
298.312799
 30
0.0
  0
SPLINE
  5
116
100
AcDbEntity
  8
Layer_1
 62
7
100
AcDbSpline
 70
8
 71
3
 72
8
 73
4
 74
0
 40
0
 40
0
 40
0
 40
0
 40
1
 40
1
 40
1
 40
1
 10
1974.542966
 20
298.312799
 30
0.0
 10
1974.291374
 20
298.312799
 30
0.0
 10
1959.550008
 20
294.293963
 30
0.0
 10
1941.785168
 20
289.383112
 30
0.0
  0
SPLINE
  5
117
100
AcDbEntity
  8
Layer_1
 62
7
100
AcDbSpline
 70
8
 71
3
 72
8
 73
4
 74
0
 40
0
 40
0
 40
0
 40
0
 40
1
 40
1
 40
1
 40
1
 10
1941.785168
 20
289.383112
 30
0.0
 10
1924.020356
 20
284.472313
 30
0.0
 10
1906.410351
 20
279.614377
 30
0.0
 10
1902.652341
 20
278.586233
 30
0.0
  0
SPLINE
  5
118
100
AcDbEntity
  8
Layer_1
 62
7
100
AcDbSpline
 70
8
 71
3
 72
8
 73
4
 74
0
 40
0
 40
0
 40
0
 40
0
 40
1
 40
1
 40
1
 40
1
 10
1902.652341
 20
278.586233
 30
0.0
 10
1842.479081
 20
262.124388
 30
0.0
 10
1662.929817
 20
212.630530
 30
0.0
 10
1648.632818
 20
208.564758
 30
0.0
  0
SPLINE
  5
119
100
AcDbEntity
  8
Layer_1
 62
7
100
AcDbSpline
 70
8
 71
3
 72
8
 73
4
 74
0
 40
0
 40
0
 40
0
 40
0
 40
1
 40
1
 40
1
 40
1
 10
1648.632818
 20
208.564758
 30
0.0
 10
1622.635892
 20
201.171770
 30
0.0
 10
1604.861343
 20
196.244091
 30
0.0
 10
1604.156255
 20
196.232714
 30
0.0
  0
SPLINE
  5
11a
100
AcDbEntity
  8
Layer_1
 62
7
100
AcDbSpline
 70
8
 71
3
 72
8
 73
4
 74
0
 40
0
 40
0
 40
0
 40
0
 40
1
 40
1
 40
1
 40
1
 10
1604.156255
 20
196.232714
 30
0.0
 10
1603.789780
 20
196.226999
 30
0.0
 10
1607.102734
 20
200.110765
 30
0.0
 10
1611.517571
 20
204.863581
 30
0.0
  0
SPLINE
  5
11b
100
AcDbEntity
  8
Layer_1
 62
7
100
AcDbSpline
 70
8
 71
3
 72
8
 73
4
 74
0
 40
0
 40
0
 40
0
 40
0
 40
1
 40
1
 40
1
 40
1
 10
1611.517571
 20
204.863581
 30
0.0
 10
1643.485191
 20
239.278411
 30
0.0
 10
1673.448221
 20
279.371331
 30
0.0
 10
1699.076159
 20
322.025683
 30
0.0
  0
SPLINE
  5
11c
100
AcDbEntity
  8
Layer_1
 62
7
100
AcDbSpline
 70
8
 71
3
 72
8
 73
4
 74
0
 40
0
 40
0
 40
0
 40
0
 40
1
 40
1
 40
1
 40
1
 10
1699.076159
 20
322.025683
 30
0.0
 10
1764.069044
 20
430.198037
 30
0.0
 10
1800.508412
 20
558.982227
 30
0.0
 10
1800.634777
 20
680.949507
 30
0.0
  0
SPLINE
  5
11d
100
AcDbEntity
  8
Layer_1
 62
7
100
AcDbSpline
 70
8
 71
3
 72
8
 73
4
 74
0
 40
0
 40
0
 40
0
 40
0
 40
1
 40
1
 40
1
 40
1
 10
1800.634777
 20
680.949507
 30
0.0
 10
1800.746193
 20
788.466409
 30
0.0
 10
1772.699884
 20
901.934134
 30
0.0
 10
1721.455067
 20
1001.287397
 30
0.0
  0
SPLINE
  5
11e
100
AcDbEntity
  8
Layer_1
 62
7
100
AcDbSpline
 70
8
 71
3
 72
8
 73
4
 74
0
 40
0
 40
0
 40
0
 40
0
 40
1
 40
1
 40
1
 40
1
 10
1721.455067
 20
1001.287397
 30
0.0
 10
1714.390877
 20
1014.983447
 30
0.0
 10
1710.628238
 20
1021.789007
 30
0.0
 10
1700.097663
 20
1039.924130
 30
0.0
  0
SPLINE
  5
11f
100
AcDbEntity
  8
Layer_1
 62
7
100
AcDbSpline
 70
8
 71
3
 72
8
 73
4
 74
0
 40
0
 40
0
 40
0
 40
0
 40
1
 40
1
 40
1
 40
1
 10
1700.097663
 20
1039.924130
 30
0.0
 10
1674.382544
 20
1084.208871
 30
0.0
 10
1632.803380
 20
1138.035704
 30
0.0
 10
1595.535151
 20
1175.285465
 30
0.0
  0
SPLINE
  5
120
100
AcDbEntity
  8
Layer_1
 62
7
100
AcDbSpline
 70
8
 71
3
 72
8
 73
4
 74
0
 40
0
 40
0
 40
0
 40
0
 40
1
 40
1
 40
1
 40
1
 10
1595.535151
 20
1175.285465
 30
0.0
 10
1589.323025
 20
1181.494521
 30
0.0
 10
1582.620865
 20
1187.271354
 30
0.0
 10
1576.140637
 20
1193.248344
 30
0.0
  0
LWPOLYLINE
  5
121
100
AcDbEntity
  8
Layer_1
 62
7
100
AcDbPolyline
 90
7
 70
0
 10
1357.837879
 20
222.209293
 30
0.0
 10
1356.029293
 20
221.103811
 30
0.0
 10
1356.029293
 20
123.053039
 30
0.0
 10
1356.029293
 20
25.000309
 30
0.0
 10
1665.513685
 20
25.000309
 30
0.0
 10
1975.000007
 20
25.000309
 30
0.0
 10
1975.000007
 20
161.656541
 30
0.0
  0
LWPOLYLINE
  5
122
100
AcDbEntity
  8
Layer_1
 62
7
100
AcDbPolyline
 90
1
 70
1
 10
1576.140637
 20
1193.248344
 30
0.0
  0
SPLINE
  5
123
100
AcDbEntity
  8
Layer_1
 62
7
100
AcDbSpline
 70
8
 71
3
 72
8
 73
4
 74
0
 40
0
 40
0
 40
0
 40
0
 40
1
 40
1
 40
1
 40
1
 10
623.708991
 20
1193.316713
 30
0.0
 10
610.824973
 20
1181.480524
 30
0.0
 10
598.451866
 20
1169.528264
 30
0.0
 10
587.529284
 20
1157.619447
 30
0.0
  0
SPLINE
  5
124
100
AcDbEntity
  8
Layer_1
 62
7
100
AcDbSpline
 70
8
 71
3
 72
8
 73
4
 74
0
 40
0
 40
0
 40
0
 40
0
 40
1
 40
1
 40
1
 40
1
 10
587.529284
 20
1157.619447
 30
0.0
 10
497.863237
 20
1059.856859
 30
0.0
 10
436.989678
 20
938.907379
 30
0.0
 10
411.951178
 20
808.762014
 30
0.0
  0
SPLINE
  5
125
100
AcDbEntity
  8
Layer_1
 62
7
100
AcDbSpline
 70
8
 71
3
 72
8
 73
4
 74
0
 40
0
 40
0
 40
0
 40
0
 40
1
 40
1
 40
1
 40
1
 10
411.951178
 20
808.762014
 30
0.0
 10
394.805702
 20
719.643178
 30
0.0
 10
395.171594
 20
638.125742
 30
0.0
 10
413.117197
 20
548.847945
 30
0.0
  0
SPLINE
  5
126
100
AcDbEntity
  8
Layer_1
 62
7
100
AcDbSpline
 70
8
 71
3
 72
8
 73
4
 74
0
 40
0
 40
0
 40
0
 40
0
 40
1
 40
1
 40
1
 40
1
 10
413.117197
 20
548.847945
 30
0.0
 10
438.785087
 20
421.152304
 30
0.0
 10
499.643804
 20
301.443190
 30
0.0
 10
587.404295
 20
206.025684
 30
0.0
  0
SPLINE
  5
127
100
AcDbEntity
  8
Layer_1
 62
7
100
AcDbSpline
 70
8
 71
3
 72
8
 73
4
 74
0
 40
0
 40
0
 40
0
 40
0
 40
1
 40
1
 40
1
 40
1
 10
587.404295
 20
206.025684
 30
0.0
 10
592.000690
 20
201.028287
 30
0.0
 10
595.616406
 20
196.796435
 30
0.0
 10
595.439453
 20
196.619429
 30
0.0
  0
SPLINE
  5
128
100
AcDbEntity
  8
Layer_1
 62
7
100
AcDbSpline
 70
8
 71
3
 72
8
 73
4
 74
0
 40
0
 40
0
 40
0
 40
0
 40
1
 40
1
 40
1
 40
1
 10
595.439453
 20
196.619429
 30
0.0
 10
595.135129
 20
196.315079
 30
0.0
 10
579.258224
 20
200.616330
 30
0.0
 10
551.367199
 20
208.558884
 30
0.0
  0
SPLINE
  5
129
100
AcDbEntity
  8
Layer_1
 62
7
100
AcDbSpline
 70
8
 71
3
 72
8
 73
4
 74
0
 40
0
 40
0
 40
0
 40
0
 40
1
 40
1
 40
1
 40
1
 10
551.367199
 20
208.558884
 30
0.0
 10
544.514306
 20
210.510398
 30
0.0
 10
524.076169
 20
216.177217
 30
0.0
 10
505.949221
 20
221.152653
 30
0.0
  0
SPLINE
  5
12a
100
AcDbEntity
  8
Layer_1
 62
7
100
AcDbSpline
 70
8
 71
3
 72
8
 73
4
 74
0
 40
0
 40
0
 40
0
 40
0
 40
1
 40
1
 40
1
 40
1
 10
505.949221
 20
221.152653
 30
0.0
 10
487.822247
 20
226.127984
 30
0.0
 10
467.384111
 20
231.748157
 30
0.0
 10
460.531244
 20
233.640934
 30
0.0
  0
SPLINE
  5
12b
100
AcDbEntity
  8
Layer_1
 62
7
100
AcDbSpline
 70
8
 71
3
 72
8
 73
4
 74
0
 40
0
 40
0
 40
0
 40
0
 40
1
 40
1
 40
1
 40
1
 10
460.531244
 20
233.640934
 30
0.0
 10
453.678324
 20
235.533710
 30
0.0
 10
433.419628
 20
241.118641
 30
0.0
 10
415.513660
 20
246.053040
 30
0.0
  0
SPLINE
  5
12c
100
AcDbEntity
  8
Layer_1
 62
7
100
AcDbSpline
 70
8
 71
3
 72
8
 73
4
 74
0
 40
0
 40
0
 40
0
 40
0
 40
1
 40
1
 40
1
 40
1
 10
415.513660
 20
246.053040
 30
0.0
 10
397.607772
 20
250.987520
 30
0.0
 10
347.626155
 20
264.764268
 30
0.0
 10
304.443351
 20
276.668269
 30
0.0
  0
SPLINE
  5
12d
100
AcDbEntity
  8
Layer_1
 62
7
100
AcDbSpline
 70
8
 71
3
 72
8
 73
4
 74
0
 40
0
 40
0
 40
0
 40
0
 40
1
 40
1
 40
1
 40
1
 10
304.443351
 20
276.668269
 30
0.0
 10
261.260521
 20
288.572296
 30
0.0
 10
225.720471
 20
298.312799
 30
0.0
 10
225.464857
 20
298.312799
 30
0.0
  0
SPLINE
  5
12e
100
AcDbEntity
  8
Layer_1
 62
7
100
AcDbSpline
 70
8
 71
3
 72
8
 73
4
 74
0
 40
0
 40
0
 40
0
 40
0
 40
1
 40
1
 40
1
 40
1
 10
225.464857
 20
298.312799
 30
0.0
 10
225.209243
 20
298.312799
 30
0.0
 10
225.000010
 20
236.817177
 30
0.0
 10
225.000010
 20
161.656541
 30
0.0
  0
LWPOLYLINE
  5
12f
100
AcDbEntity
  8
Layer_1
 62
7
100
AcDbPolyline
 90
2
 70
0
 10
798.712899
 20
1113.791324
 30
0.0
 10
623.708991
 20
1193.316713
 30
0.0
  0
SPLINE
  5
130
100
AcDbEntity
  8
Layer_1
 62
7
100
AcDbSpline
 70
8
 71
3
 72
8
 73
4
 74
0
 40
0
 40
0
 40
0
 40
0
 40
1
 40
1
 40
1
 40
1
 10
840.232426
 20
223.371396
 30
0.0
 10
816.755180
 20
237.130920
 30
0.0
 10
797.503224
 20
249.778374
 30
0.0
 10
781.269528
 20
262.103803
 30
0.0
  0
SPLINE
  5
131
100
AcDbEntity
  8
Layer_1
 62
7
100
AcDbSpline
 70
8
 71
3
 72
8
 73
4
 74
0
 40
0
 40
0
 40
0
 40
0
 40
1
 40
1
 40
1
 40
1
 10
781.269528
 20
262.103803
 30
0.0
 10
670.359186
 20
346.313110
 30
0.0
 10
597.470051
 20
470.236560
 30
0.0
 10
577.941393
 20
607.797164
 30
0.0
  0
SPLINE
  5
132
100
AcDbEntity
  8
Layer_1
 62
7
100
AcDbSpline
 70
8
 71
3
 72
8
 73
4
 74
0
 40
0
 40
0
 40
0
 40
0
 40
1
 40
1
 40
1
 40
1
 10
577.941393
 20
607.797164
 30
0.0
 10
574.726891
 20
630.440866
 30
0.0
 10
573.747139
 20
644.176604
 30
0.0
 10
573.306634
 20
672.709297
 30
0.0
  0
LWPOLYLINE
  5
133
100
AcDbEntity
  8
Layer_1
 62
7
100
AcDbPolyline
 90
7
 70
0
 10
225.000010
 20
161.656541
 30
0.0
 10
225.000010
 20
25.000309
 30
0.0
 10
534.486333
 20
25.000309
 30
0.0
 10
843.970697
 20
25.000309
 30
0.0
 10
843.970697
 20
123.090134
 30
0.0
 10
843.970697
 20
221.181943
 30
0.0
 10
840.232426
 20
223.371396
 30
0.0
  0
SPLINE
  5
134
100
AcDbEntity
  8
Layer_1
 62
7
100
AcDbSpline
 70
8
 71
3
 72
8
 73
4
 74
0
 40
0
 40
0
 40
0
 40
0
 40
1
 40
1
 40
1
 40
1
 10
781.269528
 20
645.855756
 30
0.0
 10
819.073380
 20
570.678451
 30
0.0
 10
864.926041
 20
480.111312
 30
0.0
 10
915.914053
 20
379.904609
 30
0.0
  0
SPLINE
  5
135
100
AcDbEntity
  8
Layer_1
 62
7
100
AcDbSpline
 70
8
 71
3
 72
8
 73
4
 74
0
 40
0
 40
0
 40
0
 40
0
 40
1
 40
1
 40
1
 40
1
 10
915.914053
 20
379.904609
 30
0.0
 10
922.213042
 20
367.525179
 30
0.0
 10
933.427803
 20
345.459432
 30
0.0
 10
940.835925
 20
330.869434
 30
0.0
  0
SPLINE
  5
136
100
AcDbEntity
  8
Layer_1
 62
7
100
AcDbSpline
 70
8
 71
3
 72
8
 73
4
 74
0
 40
0
 40
0
 40
0
 40
0
 40
1
 40
1
 40
1
 40
1
 10
940.835925
 20
330.869434
 30
0.0
 10
948.244152
 20
316.279409
 30
0.0
 10
958.191268
 20
296.743793
 30
0.0
 10
962.941412
 20
287.459273
 30
0.0
  0
SPLINE
  5
137
100
AcDbEntity
  8
Layer_1
 62
7
100
AcDbSpline
 70
8
 71
3
 72
8
 73
4
 74
0
 40
0
 40
0
 40
0
 40
0
 40
1
 40
1
 40
1
 40
1
 10
962.941412
 20
287.459273
 30
0.0
 10
967.691529
 20
278.174727
 30
0.0
 10
977.437403
 20
259.094326
 30
0.0
 10
984.597663
 20
245.056937
 30
0.0
  0
LWPOLYLINE
  5
138
100
AcDbEntity
  8
Layer_1
 62
7
100
AcDbPolyline
 90
5
 70
0
 10
573.306634
 20
672.709297
 30
0.0
 10
572.869145
 20
701.045219
 30
0.0
 10
663.203133
 20
701.025693
 30
0.0
 10
753.537121
 20
701.006167
 30
0.0
 10
781.269528
 20
645.855756
 30
0.0
  0
SPLINE
  5
139
100
AcDbEntity
  8
Layer_1
 62
7
100
AcDbSpline
 70
8
 71
3
 72
8
 73
4
 74
0
 40
0
 40
0
 40
0
 40
0
 40
1
 40
1
 40
1
 40
1
 10
1099.986316
 20
275.000309
 30
0.0
 10
1099.530678
 20
275.000309
 30
0.0
 10
1068.656264
 20
336.042673
 30
0.0
 10
1031.376949
 20
410.650700
 30
0.0
  0
SPLINE
  5
13a
100
AcDbEntity
  8
Layer_1
 62
7
100
AcDbSpline
 70
8
 71
3
 72
8
 73
4
 74
0
 40
0
 40
0
 40
0
 40
0
 40
1
 40
1
 40
1
 40
1
 10
1031.376949
 20
410.650700
 30
0.0
 10
994.097687
 20
485.258675
 30
0.0
 10
946.085496
 20
580.944390
 30
0.0
 10
924.683588
 20
623.283490
 30
0.0
  0
SPLINE
  5
13b
100
AcDbEntity
  8
Layer_1
 62
7
100
AcDbSpline
 70
8
 71
3
 72
8
 73
4
 74
0
 40
0
 40
0
 40
0
 40
0
 40
1
 40
1
 40
1
 40
1
 10
924.683588
 20
623.283490
 30
0.0
 10
903.281707
 20
665.622644
 30
0.0
 10
885.771477
 20
700.439535
 30
0.0
 10
885.771477
 20
700.654588
 30
0.0
  0
SPLINE
  5
13c
100
AcDbEntity
  8
Layer_1
 62
7
100
AcDbSpline
 70
8
 71
3
 72
8
 73
4
 74
0
 40
0
 40
0
 40
0
 40
0
 40
1
 40
1
 40
1
 40
1
 10
885.771477
 20
700.654588
 30
0.0
 10
885.771477
 20
700.869668
 30
0.0
 10
920.318466
 20
701.045219
 30
0.0
 10
962.541018
 20
701.045219
 30
0.0
  0
LWPOLYLINE
  5
13d
100
AcDbEntity
  8
Layer_1
 62
7
100
AcDbPolyline
 90
10
 70
0
 10
984.597663
 20
245.056937
 30
0.0
 10
997.615243
 20
219.533509
 30
0.0
 10
962.191398
 20
219.533509
 30
0.0
 10
926.767579
 20
219.533509
 30
0.0
 10
926.767579
 20
125.480777
 30
0.0
 10
926.767579
 20
31.428044
 30
0.0
 10
1099.798833
 20
31.631164
 30
0.0
 10
1099.999995
 20
31.631164
 30
0.0
 10
1099.999995
 20
275.027640
 30
0.0
 10
1099.986316
 20
275.000309
 30
0.0
  0
SPLINE
  5
13e
100
AcDbEntity
  8
Layer_1
 62
7
100
AcDbSpline
 70
8
 71
3
 72
8
 73
4
 74
0
 40
0
 40
0
 40
0
 40
0
 40
1
 40
1
 40
1
 40
1
 10
827.894535
 20
891.560854
 30
0.0
 10
711.616617
 20
891.560854
 30
0.0
 10
616.478511
 20
891.705448
 30
0.0
 10
616.478511
 20
891.883116
 30
0.0
  0
SPLINE
  5
13f
100
AcDbEntity
  8
Layer_1
 62
7
100
AcDbSpline
 70
8
 71
3
 72
8
 73
4
 74
0
 40
0
 40
0
 40
0
 40
0
 40
1
 40
1
 40
1
 40
1
 10
616.478511
 20
891.883116
 30
0.0
 10
616.478511
 20
893.649607
 30
0.0
 10
630.841893
 20
922.865771
 30
0.0
 10
639.240244
 20
938.183902
 30
0.0
  0
SPLINE
  5
140
100
AcDbEntity
  8
Layer_1
 62
7
100
AcDbSpline
 70
8
 71
3
 72
8
 73
4
 74
0
 40
0
 40
0
 40
0
 40
0
 40
1
 40
1
 40
1
 40
1
 10
639.240244
 20
938.183902
 30
0.0
 10
653.538274
 20
964.262849
 30
0.0
 10
682.356717
 20
1005.605767
 30
0.0
 10
699.277350
 20
1024.312788
 30
0.0
  0
SPLINE
  5
141
100
AcDbEntity
  8
Layer_1
 62
7
100
AcDbSpline
 70
8
 71
3
 72
8
 73
4
 74
0
 40
0
 40
0
 40
0
 40
0
 40
1
 40
1
 40
1
 40
1
 10
699.277350
 20
1024.312788
 30
0.0
 10
700.382621
 20
1025.534792
 30
0.0
 10
703.456629
 20
1029.052692
 30
0.0
 10
706.109368
 20
1032.131172
 30
0.0
  0
SPLINE
  5
142
100
AcDbEntity
  8
Layer_1
 62
7
100
AcDbSpline
 70
8
 71
3
 72
8
 73
4
 74
0
 40
0
 40
0
 40
0
 40
0
 40
1
 40
1
 40
1
 40
1
 10
706.109368
 20
1032.131172
 30
0.0
 10
713.267273
 20
1040.437819
 30
0.0
 10
743.445992
 20
1070.219848
 30
0.0
 10
753.134769
 20
1078.537421
 30
0.0
  0
SPLINE
  5
143
100
AcDbEntity
  8
Layer_1
 62
7
100
AcDbSpline
 70
8
 71
3
 72
8
 73
4
 74
0
 40
0
 40
0
 40
0
 40
0
 40
1
 40
1
 40
1
 40
1
 10
753.134769
 20
1078.537421
 30
0.0
 10
768.034409
 20
1091.328359
 30
0.0
 10
783.218819
 20
1102.995954
 30
0.0
 10
798.712899
 20
1113.791324
 30
0.0
  0
LWPOLYLINE
  5
144
100
AcDbEntity
  8
Layer_1
 62
7
100
AcDbPolyline
 90
5
 70
0
 10
962.541018
 20
701.045219
 30
0.0
 10
1039.308601
 20
701.045219
 30
0.0
 10
1039.308601
 20
796.303023
 30
0.0
 10
1039.308601
 20
891.560854
 30
0.0
 10
827.894535
 20
891.560854
 30
0.0
  0
SPLINE
  5
145
100
AcDbEntity
  8
Layer_1
 62
7
100
AcDbSpline
 70
8
 71
3
 72
8
 73
4
 74
0
 40
0
 40
0
 40
0
 40
0
 40
1
 40
1
 40
1
 40
1
 10
1089.750011
 20
1381.086237
 30
0.0
 10
1029.145506
 20
1380.219329
 30
0.0
 10
968.804817
 20
1370.871336
 30
0.0
 10
907.074218
 20
1352.982725
 30
0.0
  0
SPLINE
  5
146
100
AcDbEntity
  8
Layer_1
 62
7
100
AcDbSpline
 70
8
 71
3
 72
8
 73
4
 74
0
 40
0
 40
0
 40
0
 40
0
 40
1
 40
1
 40
1
 40
1
 10
907.074218
 20
1352.982725
 30
0.0
 10
834.437601
 20
1331.933692
 30
0.0
 10
763.952840
 20
1298.525019
 30
0.0
 10
701.287099
 20
1255.441699
 30
0.0
  0
SPLINE
  5
147
100
AcDbEntity
  8
Layer_1
 62
7
100
AcDbSpline
 70
8
 71
3
 72
8
 73
4
 74
0
 40
0
 40
0
 40
0
 40
0
 40
1
 40
1
 40
1
 40
1
 10
701.287099
 20
1255.441699
 30
0.0
 10
674.131933
 20
1236.772223
 30
0.0
 10
647.681881
 20
1215.339941
 30
0.0
 10
623.708991
 20
1193.316713
 30
0.0
  0
LWPOLYLINE
  5
148
100
AcDbEntity
  8
Layer_1
 62
7
100
AcDbPolyline
 90
1
 70
1
 10
798.712899
 20
1113.791324
 30
0.0
  0
SPLINE
  5
149
100
AcDbEntity
  8
Layer_1
 62
7
100
AcDbSpline
 70
8
 71
3
 72
8
 73
4
 74
0
 40
0
 40
0
 40
0
 40
0
 40
1
 40
1
 40
1
 40
1
 10
798.712899
 20
1113.791324
 30
0.0
 10
839.246059
 20
1142.032446
 30
0.0
 10
882.108135
 20
1163.732989
 30
0.0
 10
929.099617
 20
1179.691703
 30
0.0
  0
SPLINE
  5
14a
100
AcDbEntity
  8
Layer_1
 62
7
100
AcDbSpline
 70
8
 71
3
 72
8
 73
4
 74
0
 40
0
 40
0
 40
0
 40
0
 40
1
 40
1
 40
1
 40
1
 10
929.099617
 20
1179.691703
 30
0.0
 10
973.955249
 20
1194.925141
 30
0.0
 10
1016.593673
 20
1203.389559
 30
0.0
 10
1065.369133
 20
1206.742491
 30
0.0
  0
SPLINE
  5
14b
100
AcDbEntity
  8
Layer_1
 62
7
100
AcDbSpline
 70
8
 71
3
 72
8
 73
4
 74
0
 40
0
 40
0
 40
0
 40
0
 40
1
 40
1
 40
1
 40
1
 10
1065.369133
 20
1206.742491
 30
0.0
 10
1085.605816
 20
1208.133564
 30
0.0
 10
1135.241913
 20
1207.268562
 30
0.0
 10
1154.259766
 20
1205.193647
 30
0.0
  0
SPLINE
  5
14c
100
AcDbEntity
  8
Layer_1
 62
7
100
AcDbSpline
 70
8
 71
3
 72
8
 73
4
 74
0
 40
0
 40
0
 40
0
 40
0
 40
1
 40
1
 40
1
 40
1
 10
1154.259766
 20
1205.193647
 30
0.0
 10
1234.919740
 20
1196.393341
 30
0.0
 10
1305.861225
 20
1172.623333
 30
0.0
 10
1374.115231
 20
1131.527642
 30
0.0
  0
SPLINE
  5
14d
100
AcDbEntity
  8
Layer_1
 62
7
100
AcDbSpline
 70
8
 71
3
 72
8
 73
4
 74
0
 40
0
 40
0
 40
0
 40
0
 40
1
 40
1
 40
1
 40
1
 10
1374.115231
 20
1131.527642
 30
0.0
 10
1383.402450
 20
1125.935832
 30
0.0
 10
1392.458158
 20
1119.988289
 30
0.0
 10
1401.359376
 20
1113.824530
 30
0.0
  0
LWPOLYLINE
  5
14e
100
AcDbEntity
  8
Layer_1
 62
7
100
AcDbPolyline
 90
2
 70
0
 10
623.708991
 20
1193.316713
 30
0.0
 10
798.712899
 20
1113.791324
 30
0.0
  0
SPLINE
  5
14f
100
AcDbEntity
  8
Layer_1
 62
7
100
AcDbSpline
 70
8
 71
3
 72
8
 73
4
 74
0
 40
0
 40
0
 40
0
 40
0
 40
1
 40
1
 40
1
 40
1
 10
1576.140637
 20
1193.248344
 30
0.0
 10
1484.092282
 20
1278.148293
 30
0.0
 10
1366.070892
 20
1339.563720
 30
0.0
 10
1241.880848
 20
1365.810836
 30
0.0
  0
SPLINE
  5
150
100
AcDbEntity
  8
Layer_1
 62
7
100
AcDbSpline
 70
8
 71
3
 72
8
 73
4
 74
0
 40
0
 40
0
 40
0
 40
0
 40
1
 40
1
 40
1
 40
1
 10
1241.880848
 20
1365.810836
 30
0.0
 10
1199.244171
 20
1374.821988
 30
0.0
 10
1157.376478
 20
1379.871720
 30
0.0
 10
1115.744132
 20
1380.937805
 30
0.0
  0
SPLINE
  5
151
100
AcDbEntity
  8
Layer_1
 62
7
100
AcDbSpline
 70
8
 71
3
 72
8
 73
4
 74
0
 40
0
 40
0
 40
0
 40
0
 40
1
 40
1
 40
1
 40
1
 10
1115.744132
 20
1380.937805
 30
0.0
 10
1107.070747
 20
1381.159897
 30
0.0
 10
1098.407786
 20
1381.210088
 30
0.0
 10
1089.750011
 20
1381.086237
 30
0.0
  0
LWPOLYLINE
  5
152
100
AcDbEntity
  8
Layer_1
 62
7
100
AcDbPolyline
 90
2
 70
0
 10
1401.359376
 20
1113.824530
 30
0.0
 10
1576.140637
 20
1193.248344
 30
0.0
  0
LWPOLYLINE
  5
153
100
AcDbEntity
  8
Layer_1
 62
7
100
AcDbPolyline
 90
1
 70
1
 10
1089.750011
 20
1381.086237
 30
0.0
  0
LWPOLYLINE
  5
154
100
AcDbEntity
  8
Layer_1
 62
7
100
AcDbPolyline
 90
4
 70
1
 10
1698.005613
 20
2098.008448
 30
0.0
 10
1698.005613
 20
1201.994044
 30
0.0
 10
501.991631
 20
1201.994044
 30
0.0
 10
501.991631
 20
2098.008448
 30
0.0
  0
LWPOLYLINE
  5
155
100
AcDbEntity
  8
Layer_1
 62
7
100
AcDbPolyline
 90
4
 70
1
 10
1101.990945
 20
1198.009641
 30
0.0
 10
1998.005349
 20
1198.009641
 30
0.0
 10
1998.005349
 20
1.995527
 30
0.0
 10
1101.990945
 20
1.995527
 30
0.0
  0
LWPOLYLINE
  5
156
100
AcDbEntity
  8
Layer_1
 62
7
100
AcDbPolyline
 90
4
 70
1
 10
201.992106
 20
1198.009588
 30
0.0
 10
1098.006510
 20
1198.009588
 30
0.0
 10
1098.006510
 20
1.995606
 30
0.0
 10
201.992106
 20
1.995606
 30
0.0
  0
LWPOLYLINE
  5
157
100
AcDbEntity
  8
Layer_1
 62
7
100
AcDbPolyline
 90
2
 70
0
 10
683.999547
 20
835.003299
 30
0.0
 10
984.999751
 20
835.003299
 30
0.0
  0
LWPOLYLINE
  5
158
100
AcDbEntity
  8
Layer_1
 62
7
100
AcDbPolyline
 90
2
 70
0
 10
625.000183
 20
755.001338
 30
0.0
 10
984.999751
 20
755.001338
 30
0.0
  0
LWPOLYLINE
  5
159
100
AcDbEntity
  8
Layer_1
 62
7
100
AcDbPolyline
 90
2
 70
0
 10
830.684362
 20
672.263588
 30
0.0
 10
1044.975425
 20
250.015578
 30
0.0
  0
SPLINE
  5
15a
100
AcDbEntity
  8
Layer_1
 62
7
100
AcDbSpline
 70
8
 71
3
 72
8
 73
4
 74
0
 40
0
 40
0
 40
0
 40
0
 40
1
 40
1
 40
1
 40
1
 10
279.999826
 20
85.003099
 30
0.0
 10
286.499837
 20
86.003116
 30
0.0
 10
778.498011
 20
85.003099
 30
0.0
 10
778.498011
 20
85.003099
 30
0.0
  0
LWPOLYLINE
  5
15b
100
AcDbEntity
  8
Layer_1
 62
7
100
AcDbPolyline
 90
2
 70
0
 10
279.973368
 20
222.599488
 30
0.0
 10
529.849257
 20
151.879891
 30
0.0
  0
LWPOLYLINE
  5
15c
100
AcDbEntity
  8
Layer_1
 62
7
100
AcDbPolyline
 90
2
 70
0
 10
982.999503
 20
165.002414
 30
0.0
 10
1217.999213
 20
165.002414
 30
0.0
  0
SPLINE
  5
15d
100
AcDbEntity
  8
Layer_1
 62
7
100
AcDbSpline
 70
8
 71
3
 72
8
 73
4
 74
0
 40
0
 40
0
 40
0
 40
0
 40
1
 40
1
 40
1
 40
1
 10
778.794344
 20
207.296007
 30
0.0
 10
569.421487
 20
348.519739
 30
0.0
 10
476.851107
 20
609.930426
 30
0.0
 10
550.689402
 20
851.444487
 30
0.0
  0
SPLINE
  5
15e
100
AcDbEntity
  8
Layer_1
 62
7
100
AcDbSpline
 70
8
 71
3
 72
8
 73
4
 74
0
 40
0
 40
0
 40
0
 40
0
 40
1
 40
1
 40
1
 40
1
 10
550.689402
 20
851.444487
 30
0.0
 10
624.527526
 20
1092.957681
 30
0.0
 10
847.449712
 20
1257.911916
 30
0.0
 10
1099.998106
 20
1257.912767
 30
0.0
  0
SPLINE
  5
15f
100
AcDbEntity
  8
Layer_1
 62
7
100
AcDbSpline
 70
8
 71
3
 72
8
 73
4
 74
0
 40
0
 40
0
 40
0
 40
0
 40
1
 40
1
 40
1
 40
1
 10
1099.998106
 20
1257.912767
 30
0.0
 10
1352.547478
 20
1257.913080
 30
0.0
 10
1575.471045
 20
1092.958616
 30
0.0
 10
1649.309455
 20
851.444487
 30
0.0
  0
SPLINE
  5
160
100
AcDbEntity
  8
Layer_1
 62
7
100
AcDbSpline
 70
8
 71
3
 72
8
 73
4
 74
0
 40
0
 40
0
 40
0
 40
0
 40
1
 40
1
 40
1
 40
1
 10
1649.309455
 20
851.444487
 30
0.0
 10
1723.147750
 20
609.930426
 30
0.0
 10
1630.577370
 20
348.519739
 30
0.0
 10
1421.204514
 20
207.296007
 30
0.0
  0
SPLINE
  5
161
100
AcDbEntity
  8
Layer_1
 62
7
100
AcDbSpline
 70
8
 71
3
 72
8
 73
4
 74
0
 40
0
 40
0
 40
0
 40
0
 40
1
 40
1
 40
1
 40
1
 10
709.949847
 20
165.891413
 30
0.0
 10
487.371453
 20
333.617125
 30
0.0
 10
396.939604
 20
624.856047
 30
0.0
 10
485.371797
 20
889.152856
 30
0.0
  0
SPLINE
  5
162
100
AcDbEntity
  8
Layer_1
 62
7
100
AcDbSpline
 70
8
 71
3
 72
8
 73
4
 74
0
 40
0
 40
0
 40
0
 40
0
 40
1
 40
1
 40
1
 40
1
 10
485.371797
 20
889.152856
 30
0.0
 10
573.803797
 20
1153.450634
 30
0.0
 10
821.298386
 20
1331.622233
 30
0.0
 10
1099.998106
 20
1331.622945
 30
0.0
  0
SPLINE
  5
163
100
AcDbEntity
  8
Layer_1
 62
7
100
AcDbSpline
 70
8
 71
3
 72
8
 73
4
 74
0
 40
0
 40
0
 40
0
 40
0
 40
1
 40
1
 40
1
 40
1
 10
1099.998106
 20
1331.622945
 30
0.0
 10
1378.697826
 20
1331.622233
 30
0.0
 10
1626.192414
 20
1153.450634
 30
0.0
 10
1714.624415
 20
889.152856
 30
0.0
  0
SPLINE
  5
164
100
AcDbEntity
  8
Layer_1
 62
7
100
AcDbSpline
 70
8
 71
3
 72
8
 73
4
 74
0
 40
0
 40
0
 40
0
 40
0
 40
1
 40
1
 40
1
 40
1
 10
1714.624415
 20
889.152856
 30
0.0
 10
1803.056608
 20
624.856047
 30
0.0
 10
1712.624759
 20
333.617125
 30
0.0
 10
1490.046364
 20
165.891413
 30
0.0
  0
SPLINE
  5
165
100
AcDbEntity
  8
Layer_1
 62
7
100
AcDbSpline
 70
8
 71
3
 72
8
 73
4
 74
0
 40
0
 40
0
 40
0
 40
0
 40
1
 40
1
 40
1
 40
1
 10
1099.998820
 20
1381.376137
 30
0.0
 10
817.735257
 20
1381.376137
 30
0.0
 10
563.265183
 20
1211.344682
 30
0.0
 10
455.247594
 20
950.567174
 30
0.0
  0
SPLINE
  5
166
100
AcDbEntity
  8
Layer_1
 62
7
100
AcDbSpline
 70
8
 71
3
 72
8
 73
4
 74
0
 40
0
 40
0
 40
0
 40
0
 40
1
 40
1
 40
1
 40
1
 10
455.247594
 20
950.567174
 30
0.0
 10
347.230005
 20
689.789665
 30
0.0
 10
406.937116
 20
389.621768
 30
0.0
 10
606.527595
 20
190.031304
 30
0.0
  0
SPLINE
  5
167
100
AcDbEntity
  8
Layer_1
 62
7
100
AcDbSpline
 70
8
 71
3
 72
8
 73
4
 74
0
 40
0
 40
0
 40
0
 40
0
 40
1
 40
1
 40
1
 40
1
 10
606.527595
 20
190.031304
 30
0.0
 10
806.118075
 20
-9.559160
 30
0.0
 10
1106.285994
 20
-69.266267
 30
0.0
 10
1367.063523
 20
38.751314
 30
0.0
  0
SPLINE
  5
168
100
AcDbEntity
  8
Layer_1
 62
7
100
AcDbSpline
 70
8
 71
3
 72
8
 73
4
 74
0
 40
0
 40
0
 40
0
 40
0
 40
1
 40
1
 40
1
 40
1
 10
1367.063523
 20
38.751314
 30
0.0
 10
1627.841051
 20
146.768895
 30
0.0
 10
1797.872519
 20
401.238950
 30
0.0
 10
1797.872519
 20
683.502492
 30
0.0
  0
SPLINE
  5
169
100
AcDbEntity
  8
Layer_1
 62
7
100
AcDbSpline
 70
8
 71
3
 72
8
 73
4
 74
0
 40
0
 40
0
 40
0
 40
0
 40
1
 40
1
 40
1
 40
1
 10
1797.872519
 20
683.502492
 30
0.0
 10
1797.872519
 20
868.590090
 30
0.0
 10
1724.346751
 20
1046.096983
 30
0.0
 10
1593.470045
 20
1176.973679
 30
0.0
  0
SPLINE
  5
16a
100
AcDbEntity
  8
Layer_1
 62
7
100
AcDbSpline
 70
8
 71
3
 72
8
 73
4
 74
0
 40
0
 40
0
 40
0
 40
0
 40
1
 40
1
 40
1
 40
1
 10
1593.470045
 20
1176.973679
 30
0.0
 10
1462.593339
 20
1307.850375
 30
0.0
 10
1285.086433
 20
1381.376137
 30
0.0
 10
1099.998820
 20
1381.376137
 30
0.0
  0
LWPOLYLINE
  5
16b
100
AcDbEntity
  8
Layer_1
 62
7
100
AcDbPolyline
 90
2
 70
0
 10
982.999503
 20
85.003099
 30
0.0
 10
1217.999213
 20
85.003099
 30
0.0
  0
SPLINE
  5
16c
100
AcDbEntity
  8
Layer_1
 62
7
100
AcDbSpline
 70
8
 71
3
 72
8
 73
4
 74
0
 40
0
 40
0
 40
0
 40
0
 40
1
 40
1
 40
1
 40
1
 10
1099.998106
 20
1331.622945
 30
0.0
 10
837.858088
 20
1331.622945
 30
0.0
 10
601.530064
 20
1173.713608
 30
0.0
 10
501.213422
 20
931.527810
 30
0.0
  0
SPLINE
  5
16d
100
AcDbEntity
  8
Layer_1
 62
7
100
AcDbSpline
 70
8
 71
3
 72
8
 73
4
 74
0
 40
0
 40
0
 40
0
 40
0
 40
1
 40
1
 40
1
 40
1
 10
501.213422
 20
931.527810
 30
0.0
 10
400.896781
 20
689.342013
 30
0.0
 10
456.347166
 20
410.574102
 30
0.0
 10
641.708150
 20
225.213118
 30
0.0
  0
SPLINE
  5
16e
100
AcDbEntity
  8
Layer_1
 62
7
100
AcDbSpline
 70
8
 71
3
 72
8
 73
4
 74
0
 40
0
 40
0
 40
0
 40
0
 40
1
 40
1
 40
1
 40
1
 10
641.708150
 20
225.213118
 30
0.0
 10
827.069134
 20
39.852134
 30
0.0
 10
1105.837045
 20
-15.598252
 30
0.0
 10
1348.022843
 20
84.718390
 30
0.0
  0
SPLINE
  5
16f
100
AcDbEntity
  8
Layer_1
 62
7
100
AcDbSpline
 70
8
 71
3
 72
8
 73
4
 74
0
 40
0
 40
0
 40
0
 40
0
 40
1
 40
1
 40
1
 40
1
 10
1348.022843
 20
84.718390
 30
0.0
 10
1590.208640
 20
185.035032
 30
0.0
 10
1748.117977
 20
421.363056
 30
0.0
 10
1748.117977
 20
683.503074
 30
0.0
  0
SPLINE
  5
170
100
AcDbEntity
  8
Layer_1
 62
7
100
AcDbSpline
 70
8
 71
3
 72
8
 73
4
 74
0
 40
0
 40
0
 40
0
 40
0
 40
1
 40
1
 40
1
 40
1
 10
1748.117977
 20
683.503074
 30
0.0
 10
1748.117977
 20
855.395151
 30
0.0
 10
1679.834115
 20
1020.246976
 30
0.0
 10
1558.288062
 20
1141.793029
 30
0.0
  0
SPLINE
  5
171
100
AcDbEntity
  8
Layer_1
 62
7
100
AcDbSpline
 70
8
 71
3
 72
8
 73
4
 74
0
 40
0
 40
0
 40
0
 40
0
 40
1
 40
1
 40
1
 40
1
 10
1558.288062
 20
1141.793029
 30
0.0
 10
1436.742008
 20
1263.339083
 30
0.0
 10
1271.890183
 20
1331.622945
 30
0.0
 10
1099.998106
 20
1331.622945
 30
0.0
  0
LWPOLYLINE
  5
172
100
AcDbEntity
  8
Layer_1
 62
7
100
AcDbPolyline
 90
1
 70
1
 10
1099.998820
 20
1381.376137
 30
0.0
  0
SPLINE
  5
173
100
AcDbEntity
  8
Layer_1
 62
7
100
AcDbSpline
 70
8
 71
3
 72
8
 73
4
 74
0
 40
0
 40
0
 40
0
 40
0
 40
1
 40
1
 40
1
 40
1
 10
1099.998820
 20
1257.911550
 30
0.0
 10
867.672043
 20
1257.911550
 30
0.0
 10
658.221657
 20
1117.961276
 30
0.0
 10
569.314048
 20
903.319321
 30
0.0
  0
SPLINE
  5
174
100
AcDbEntity
  8
Layer_1
 62
7
100
AcDbSpline
 70
8
 71
3
 72
8
 73
4
 74
0
 40
0
 40
0
 40
0
 40
0
 40
1
 40
1
 40
1
 40
1
 10
569.314048
 20
903.319321
 30
0.0
 10
480.406440
 20
688.677367
 30
0.0
 10
529.550441
 20
441.613791
 30
0.0
 10
693.830280
 20
277.333952
 30
0.0
  0
SPLINE
  5
175
100
AcDbEntity
  8
Layer_1
 62
7
100
AcDbSpline
 70
8
 71
3
 72
8
 73
4
 74
0
 40
0
 40
0
 40
0
 40
0
 40
1
 40
1
 40
1
 40
1
 10
693.830280
 20
277.333952
 30
0.0
 10
858.110120
 20
113.054112
 30
0.0
 10
1105.173696
 20
63.910111
 30
0.0
 10
1319.815650
 20
152.817720
 30
0.0
  0
SPLINE
  5
176
100
AcDbEntity
  8
Layer_1
 62
7
100
AcDbSpline
 70
8
 71
3
 72
8
 73
4
 74
0
 40
0
 40
0
 40
0
 40
0
 40
1
 40
1
 40
1
 40
1
 10
1319.815650
 20
152.817720
 30
0.0
 10
1534.457604
 20
241.725328
 30
0.0
 10
1674.407878
 20
451.175715
 30
0.0
 10
1674.407878
 20
683.502492
 30
0.0
  0
SPLINE
  5
177
100
AcDbEntity
  8
Layer_1
 62
7
100
AcDbSpline
 70
8
 71
3
 72
8
 73
4
 74
0
 40
0
 40
0
 40
0
 40
0
 40
1
 40
1
 40
1
 40
1
 10
1674.407878
 20
683.502492
 30
0.0
 10
1674.407878
 20
835.845246
 30
0.0
 10
1613.889955
 20
981.948437
 30
0.0
 10
1506.167360
 20
1089.671032
 30
0.0
  0
SPLINE
  5
178
100
AcDbEntity
  8
Layer_1
 62
7
100
AcDbSpline
 70
8
 71
3
 72
8
 73
4
 74
0
 40
0
 40
0
 40
0
 40
0
 40
1
 40
1
 40
1
 40
1
 10
1506.167360
 20
1089.671032
 30
0.0
 10
1398.444766
 20
1197.393626
 30
0.0
 10
1252.341574
 20
1257.911550
 30
0.0
 10
1099.998820
 20
1257.911550
 30
0.0
  0
LWPOLYLINE
  5
179
100
AcDbEntity
  8
Layer_1
 62
7
100
AcDbPolyline
 90
1
 70
1
 10
1099.998106
 20
1331.622945
 30
0.0
  0
SPLINE
  5
17a
100
AcDbEntity
  8
Layer_1
 62
7
100
AcDbSpline
 70
8
 71
3
 72
8
 73
4
 74
0
 40
0
 40
0
 40
0
 40
0
 40
1
 40
1
 40
1
 40
1
 10
944.248878
 20
-92.242533
 30
0.0
 10
935.962390
 20
-92.242533
 30
0.0
 10
929.244865
 20
-98.960058
 30
0.0
 10
929.244865
 20
-107.246546
 30
0.0
  0
SPLINE
  5
17b
100
AcDbEntity
  8
Layer_1
 62
7
100
AcDbSpline
 70
8
 71
3
 72
8
 73
4
 74
0
 40
0
 40
0
 40
0
 40
0
 40
1
 40
1
 40
1
 40
1
 10
929.244865
 20
-107.246546
 30
0.0
 10
929.244865
 20
-115.533034
 30
0.0
 10
935.962390
 20
-122.250559
 30
0.0
 10
944.248878
 20
-122.250559
 30
0.0
  0
SPLINE
  5
17c
100
AcDbEntity
  8
Layer_1
 62
7
100
AcDbSpline
 70
8
 71
3
 72
8
 73
4
 74
0
 40
0
 40
0
 40
0
 40
0
 40
1
 40
1
 40
1
 40
1
 10
944.248878
 20
-122.250559
 30
0.0
 10
952.535366
 20
-122.250559
 30
0.0
 10
959.252891
 20
-115.533034
 30
0.0
 10
959.252891
 20
-107.246546
 30
0.0
  0
SPLINE
  5
17d
100
AcDbEntity
  8
Layer_1
 62
7
100
AcDbSpline
 70
8
 71
3
 72
8
 73
4
 74
0
 40
0
 40
0
 40
0
 40
0
 40
1
 40
1
 40
1
 40
1
 10
959.252891
 20
-107.246546
 30
0.0
 10
959.252891
 20
-103.267234
 30
0.0
 10
957.672116
 20
-99.450905
 30
0.0
 10
954.858318
 20
-96.637106
 30
0.0
  0
SPLINE
  5
17e
100
AcDbEntity
  8
Layer_1
 62
7
100
AcDbSpline
 70
8
 71
3
 72
8
 73
4
 74
0
 40
0
 40
0
 40
0
 40
0
 40
1
 40
1
 40
1
 40
1
 10
954.858318
 20
-96.637106
 30
0.0
 10
952.044519
 20
-93.823308
 30
0.0
 10
948.228190
 20
-92.242533
 30
0.0
 10
944.248878
 20
-92.242533
 30
0.0
  0
LWPOLYLINE
  5
17f
100
AcDbEntity
  8
Layer_1
 62
7
100
AcDbPolyline
 90
1
 70
1
 10
1099.998820
 20
1257.911550
 30
0.0
  0
SPLINE
  5
180
100
AcDbEntity
  8
Layer_1
 62
7
100
AcDbSpline
 70
8
 71
3
 72
8
 73
4
 74
0
 40
0
 40
0
 40
0
 40
0
 40
1
 40
1
 40
1
 40
1
 10
651.861065
 20
173.092731
 30
0.0
 10
656.880968
 20
179.685591
 30
0.0
 10
666.294978
 20
180.960726
 30
0.0
 10
672.887838
 20
175.940823
 30
0.0
  0
SPLINE
  5
181
100
AcDbEntity
  8
Layer_1
 62
7
100
AcDbSpline
 70
8
 71
3
 72
8
 73
4
 74
0
 40
0
 40
0
 40
0
 40
0
 40
1
 40
1
 40
1
 40
1
 10
672.887838
 20
175.940823
 30
0.0
 10
679.480719
 20
170.920904
 30
0.0
 10
680.755854
 20
161.506894
 30
0.0
 10
675.735951
 20
154.914034
 30
0.0
  0
SPLINE
  5
182
100
AcDbEntity
  8
Layer_1
 62
7
100
AcDbSpline
 70
8
 71
3
 72
8
 73
4
 74
0
 40
0
 40
0
 40
0
 40
0
 40
1
 40
1
 40
1
 40
1
 10
675.735951
 20
154.914034
 30
0.0
 10
670.716048
 20
148.321174
 30
0.0
 10
661.302038
 20
147.046039
 30
0.0
 10
654.709178
 20
152.065942
 30
0.0
  0
SPLINE
  5
183
100
AcDbEntity
  8
Layer_1
 62
7
100
AcDbSpline
 70
8
 71
3
 72
8
 73
4
 74
0
 40
0
 40
0
 40
0
 40
0
 40
1
 40
1
 40
1
 40
1
 10
654.709178
 20
152.065942
 30
0.0
 10
648.116297
 20
157.085861
 30
0.0
 10
646.841162
 20
166.499871
 30
0.0
 10
651.861065
 20
173.092731
 30
0.0
  0
LWPOLYLINE
  5
184
100
AcDbEntity
  8
Layer_1
 62
7
100
AcDbPolyline
 90
1
 70
1
 10
944.248878
 20
-92.242533
 30
0.0
  0
SPLINE
  5
185
100
AcDbEntity
  8
Layer_1
 62
7
100
AcDbSpline
 70
8
 71
3
 72
8
 73
4
 74
0
 40
0
 40
0
 40
0
 40
0
 40
1
 40
1
 40
1
 40
1
 10
1548.136420
 20
173.092710
 30
0.0
 10
1543.116498
 20
179.685591
 30
0.0
 10
1533.702512
 20
180.960728
 30
0.0
 10
1527.109647
 20
175.940827
 30
0.0
  0
SPLINE
  5
186
100
AcDbEntity
  8
Layer_1
 62
7
100
AcDbSpline
 70
8
 71
3
 72
8
 73
4
 74
0
 40
0
 40
0
 40
0
 40
0
 40
1
 40
1
 40
1
 40
1
 10
1527.109647
 20
175.940827
 30
0.0
 10
1520.516782
 20
170.920927
 30
0.0
 10
1519.241650
 20
161.506904
 30
0.0
 10
1524.261551
 20
154.914039
 30
0.0
  0
SPLINE
  5
187
100
AcDbEntity
  8
Layer_1
 62
7
100
AcDbSpline
 70
8
 71
3
 72
8
 73
4
 74
0
 40
0
 40
0
 40
0
 40
0
 40
1
 40
1
 40
1
 40
1
 10
1524.261551
 20
154.914039
 30
0.0
 10
1529.281451
 20
148.321173
 30
0.0
 10
1538.695453
 20
147.046058
 30
0.0
 10
1545.288318
 20
152.065958
 30
0.0
  0
SPLINE
  5
188
100
AcDbEntity
  8
Layer_1
 62
7
100
AcDbSpline
 70
8
 71
3
 72
8
 73
4
 74
0
 40
0
 40
0
 40
0
 40
0
 40
1
 40
1
 40
1
 40
1
 10
1545.288318
 20
152.065958
 30
0.0
 10
1551.881183
 20
157.085859
 30
0.0
 10
1553.156336
 20
166.499866
 30
0.0
 10
1548.136420
 20
173.092710
 30
0.0
  0
LWPOLYLINE
  5
189
100
AcDbEntity
  8
Layer_1
 62
7
100
AcDbPolyline
 90
1
 70
1
 10
651.861065
 20
173.092731
 30
0.0
  0
SPLINE
  5
18a
100
AcDbEntity
  8
Layer_1
 62
7
100
AcDbSpline
 70
8
 71
3
 72
8
 73
4
 74
0
 40
0
 40
0
 40
0
 40
0
 40
1
 40
1
 40
1
 40
1
 10
778.499149
 20
180.008174
 30
0.0
 10
772.430592
 20
180.008174
 30
0.0
 10
766.959584
 20
176.352563
 30
0.0
 10
764.637248
 20
170.745948
 30
0.0
  0
SPLINE
  5
18b
100
AcDbEntity
  8
Layer_1
 62
7
100
AcDbSpline
 70
8
 71
3
 72
8
 73
4
 74
0
 40
0
 40
0
 40
0
 40
0
 40
1
 40
1
 40
1
 40
1
 10
764.637248
 20
170.745948
 30
0.0
 10
762.314912
 20
165.139332
 30
0.0
 10
763.598591
 20
158.685839
 30
0.0
 10
767.889709
 20
154.394721
 30
0.0
  0
SPLINE
  5
18c
100
AcDbEntity
  8
Layer_1
 62
7
100
AcDbSpline
 70
8
 71
3
 72
8
 73
4
 74
0
 40
0
 40
0
 40
0
 40
0
 40
1
 40
1
 40
1
 40
1
 10
767.889709
 20
154.394721
 30
0.0
 10
772.180827
 20
150.103603
 30
0.0
 10
778.634320
 20
148.819924
 30
0.0
 10
784.240936
 20
151.142260
 30
0.0
  0
SPLINE
  5
18d
100
AcDbEntity
  8
Layer_1
 62
7
100
AcDbSpline
 70
8
 71
3
 72
8
 73
4
 74
0
 40
0
 40
0
 40
0
 40
0
 40
1
 40
1
 40
1
 40
1
 10
784.240936
 20
151.142260
 30
0.0
 10
789.847551
 20
153.464596
 30
0.0
 10
793.503162
 20
158.935604
 30
0.0
 10
793.503162
 20
165.004161
 30
0.0
  0
SPLINE
  5
18e
100
AcDbEntity
  8
Layer_1
 62
7
100
AcDbSpline
 70
8
 71
3
 72
8
 73
4
 74
0
 40
0
 40
0
 40
0
 40
0
 40
1
 40
1
 40
1
 40
1
 10
793.503162
 20
165.004161
 30
0.0
 10
793.503162
 20
168.983472
 30
0.0
 10
791.922386
 20
172.799802
 30
0.0
 10
789.108588
 20
175.613600
 30
0.0
  0
SPLINE
  5
18f
100
AcDbEntity
  8
Layer_1
 62
7
100
AcDbSpline
 70
8
 71
3
 72
8
 73
4
 74
0
 40
0
 40
0
 40
0
 40
0
 40
1
 40
1
 40
1
 40
1
 10
789.108588
 20
175.613600
 30
0.0
 10
786.294790
 20
178.427398
 30
0.0
 10
782.478460
 20
180.008174
 30
0.0
 10
778.499149
 20
180.008174
 30
0.0
  0
LWPOLYLINE
  5
190
100
AcDbEntity
  8
Layer_1
 62
7
100
AcDbPolyline
 90
1
 70
1
 10
1548.136420
 20
173.092710
 30
0.0
  0
SPLINE
  5
191
100
AcDbEntity
  8
Layer_1
 62
7
100
AcDbSpline
 70
8
 71
3
 72
8
 73
4
 74
0
 40
0
 40
0
 40
0
 40
0
 40
1
 40
1
 40
1
 40
1
 10
844.064770
 20
679.054182
 30
0.0
 10
840.314665
 20
686.443540
 30
0.0
 10
831.284347
 20
689.393738
 30
0.0
 10
823.894989
 20
685.643633
 30
0.0
  0
SPLINE
  5
192
100
AcDbEntity
  8
Layer_1
 62
7
100
AcDbSpline
 70
8
 71
3
 72
8
 73
4
 74
0
 40
0
 40
0
 40
0
 40
0
 40
1
 40
1
 40
1
 40
1
 10
823.894989
 20
685.643633
 30
0.0
 10
816.505632
 20
681.893529
 30
0.0
 10
813.555434
 20
672.863211
 30
0.0
 10
817.305539
 20
665.473853
 30
0.0
  0
SPLINE
  5
193
100
AcDbEntity
  8
Layer_1
 62
7
100
AcDbSpline
 70
8
 71
3
 72
8
 73
4
 74
0
 40
0
 40
0
 40
0
 40
0
 40
1
 40
1
 40
1
 40
1
 10
817.305539
 20
665.473853
 30
0.0
 10
821.055643
 20
658.084496
 30
0.0
 10
830.085961
 20
655.134298
 30
0.0
 10
837.475319
 20
658.884402
 30
0.0
  0
SPLINE
  5
194
100
AcDbEntity
  8
Layer_1
 62
7
100
AcDbSpline
 70
8
 71
3
 72
8
 73
4
 74
0
 40
0
 40
0
 40
0
 40
0
 40
1
 40
1
 40
1
 40
1
 10
837.475319
 20
658.884402
 30
0.0
 10
841.023813
 20
660.685266
 30
0.0
 10
843.711581
 20
663.822005
 30
0.0
 10
844.947342
 20
667.604572
 30
0.0
  0
SPLINE
  5
195
100
AcDbEntity
  8
Layer_1
 62
7
100
AcDbSpline
 70
8
 71
3
 72
8
 73
4
 74
0
 40
0
 40
0
 40
0
 40
0
 40
1
 40
1
 40
1
 40
1
 10
844.947342
 20
667.604572
 30
0.0
 10
846.183104
 20
671.387140
 30
0.0
 10
845.865633
 20
675.505688
 30
0.0
 10
844.064770
 20
679.054182
 30
0.0
  0
LWPOLYLINE
  5
196
100
AcDbEntity
  8
Layer_1
 62
7
100
AcDbPolyline
 90
1
 70
1
 10
778.499149
 20
180.008174
 30
0.0
  0
SPLINE
  5
197
100
AcDbEntity
  8
Layer_1
 62
7
100
AcDbSpline
 70
8
 71
3
 72
8
 73
4
 74
0
 40
0
 40
0
 40
0
 40
0
 40
1
 40
1
 40
1
 40
1
 10
897.637535
 20
573.492180
 30
0.0
 10
893.887431
 20
580.881538
 30
0.0
 10
884.857113
 20
583.831735
 30
0.0
 10
877.467755
 20
580.081631
 30
0.0
  0
SPLINE
  5
198
100
AcDbEntity
  8
Layer_1
 62
7
100
AcDbSpline
 70
8
 71
3
 72
8
 73
4
 74
0
 40
0
 40
0
 40
0
 40
0
 40
1
 40
1
 40
1
 40
1
 10
877.467755
 20
580.081631
 30
0.0
 10
870.078398
 20
576.331527
 30
0.0
 10
867.128200
 20
567.301208
 30
0.0
 10
870.878304
 20
559.911851
 30
0.0
  0
SPLINE
  5
199
100
AcDbEntity
  8
Layer_1
 62
7
100
AcDbSpline
 70
8
 71
3
 72
8
 73
4
 74
0
 40
0
 40
0
 40
0
 40
0
 40
1
 40
1
 40
1
 40
1
 10
870.878304
 20
559.911851
 30
0.0
 10
874.628409
 20
552.522493
 30
0.0
 10
883.658727
 20
549.572296
 30
0.0
 10
891.048084
 20
553.322400
 30
0.0
  0
SPLINE
  5
19a
100
AcDbEntity
  8
Layer_1
 62
7
100
AcDbSpline
 70
8
 71
3
 72
8
 73
4
 74
0
 40
0
 40
0
 40
0
 40
0
 40
1
 40
1
 40
1
 40
1
 10
891.048084
 20
553.322400
 30
0.0
 10
894.596579
 20
555.123264
 30
0.0
 10
897.284346
 20
558.260002
 30
0.0
 10
898.520108
 20
562.042570
 30
0.0
  0
SPLINE
  5
19b
100
AcDbEntity
  8
Layer_1
 62
7
100
AcDbSpline
 70
8
 71
3
 72
8
 73
4
 74
0
 40
0
 40
0
 40
0
 40
0
 40
1
 40
1
 40
1
 40
1
 10
898.520108
 20
562.042570
 30
0.0
 10
899.755870
 20
565.825137
 30
0.0
 10
899.438399
 20
569.943685
 30
0.0
 10
897.637535
 20
573.492180
 30
0.0
  0
LWPOLYLINE
  5
19c
100
AcDbEntity
  8
Layer_1
 62
7
100
AcDbPolyline
 90
1
 70
1
 10
844.064770
 20
679.054182
 30
0.0
  0
SPLINE
  5
19d
100
AcDbEntity
  8
Layer_1
 62
7
100
AcDbSpline
 70
8
 71
3
 72
8
 73
4
 74
0
 40
0
 40
0
 40
0
 40
0
 40
1
 40
1
 40
1
 40
1
 10
951.210301
 20
467.930178
 30
0.0
 10
947.460197
 20
475.319535
 30
0.0
 10
938.429879
 20
478.269733
 30
0.0
 10
931.040521
 20
474.519628
 30
0.0
  0
SPLINE
  5
19e
100
AcDbEntity
  8
Layer_1
 62
7
100
AcDbSpline
 70
8
 71
3
 72
8
 73
4
 74
0
 40
0
 40
0
 40
0
 40
0
 40
1
 40
1
 40
1
 40
1
 10
931.040521
 20
474.519628
 30
0.0
 10
923.651163
 20
470.769524
 30
0.0
 10
920.700966
 20
461.739206
 30
0.0
 10
924.451070
 20
454.349848
 30
0.0
  0
SPLINE
  5
19f
100
AcDbEntity
  8
Layer_1
 62
7
100
AcDbSpline
 70
8
 71
3
 72
8
 73
4
 74
0
 40
0
 40
0
 40
0
 40
0
 40
1
 40
1
 40
1
 40
1
 10
924.451070
 20
454.349848
 30
0.0
 10
928.201175
 20
446.960491
 30
0.0
 10
937.231493
 20
444.010293
 30
0.0
 10
944.620850
 20
447.760397
 30
0.0
  0
SPLINE
  5
1a0
100
AcDbEntity
  8
Layer_1
 62
7
100
AcDbSpline
 70
8
 71
3
 72
8
 73
4
 74
0
 40
0
 40
0
 40
0
 40
0
 40
1
 40
1
 40
1
 40
1
 10
944.620850
 20
447.760397
 30
0.0
 10
948.169345
 20
449.561261
 30
0.0
 10
950.857112
 20
452.698000
 30
0.0
 10
952.092874
 20
456.480568
 30
0.0
  0
SPLINE
  5
1a1
100
AcDbEntity
  8
Layer_1
 62
7
100
AcDbSpline
 70
8
 71
3
 72
8
 73
4
 74
0
 40
0
 40
0
 40
0
 40
0
 40
1
 40
1
 40
1
 40
1
 10
952.092874
 20
456.480568
 30
0.0
 10
953.328636
 20
460.263135
 30
0.0
 10
953.011165
 20
464.381683
 30
0.0
 10
951.210301
 20
467.930178
 30
0.0
  0
LWPOLYLINE
  5
1a2
100
AcDbEntity
  8
Layer_1
 62
7
100
AcDbPolyline
 90
1
 70
1
 10
897.637535
 20
573.492180
 30
0.0
  0
SPLINE
  5
1a3
100
AcDbEntity
  8
Layer_1
 62
7
100
AcDbSpline
 70
8
 71
3
 72
8
 73
4
 74
0
 40
0
 40
0
 40
0
 40
0
 40
1
 40
1
 40
1
 40
1
 10
1004.783067
 20
362.368175
 30
0.0
 10
1001.032963
 20
369.757533
 30
0.0
 10
992.002645
 20
372.707730
 30
0.0
 10
984.613287
 20
368.957626
 30
0.0
  0
SPLINE
  5
1a4
100
AcDbEntity
  8
Layer_1
 62
7
100
AcDbSpline
 70
8
 71
3
 72
8
 73
4
 74
0
 40
0
 40
0
 40
0
 40
0
 40
1
 40
1
 40
1
 40
1
 10
984.613287
 20
368.957626
 30
0.0
 10
977.223929
 20
365.207522
 30
0.0
 10
974.273732
 20
356.177204
 30
0.0
 10
978.023836
 20
348.787846
 30
0.0
  0
SPLINE
  5
1a5
100
AcDbEntity
  8
Layer_1
 62
7
100
AcDbSpline
 70
8
 71
3
 72
8
 73
4
 74
0
 40
0
 40
0
 40
0
 40
0
 40
1
 40
1
 40
1
 40
1
 10
978.023836
 20
348.787846
 30
0.0
 10
981.773940
 20
341.398488
 30
0.0
 10
990.804259
 20
338.448291
 30
0.0
 10
998.193616
 20
342.198395
 30
0.0
  0
SPLINE
  5
1a6
100
AcDbEntity
  8
Layer_1
 62
7
100
AcDbSpline
 70
8
 71
3
 72
8
 73
4
 74
0
 40
0
 40
0
 40
0
 40
0
 40
1
 40
1
 40
1
 40
1
 10
998.193616
 20
342.198395
 30
0.0
 10
1001.742111
 20
343.999259
 30
0.0
 10
1004.429878
 20
347.135998
 30
0.0
 10
1005.665640
 20
350.918565
 30
0.0
  0
SPLINE
  5
1a7
100
AcDbEntity
  8
Layer_1
 62
7
100
AcDbSpline
 70
8
 71
3
 72
8
 73
4
 74
0
 40
0
 40
0
 40
0
 40
0
 40
1
 40
1
 40
1
 40
1
 10
1005.665640
 20
350.918565
 30
0.0
 10
1006.901402
 20
354.701133
 30
0.0
 10
1006.583931
 20
358.819680
 30
0.0
 10
1004.783067
 20
362.368175
 30
0.0
  0
LWPOLYLINE
  5
1a8
100
AcDbEntity
  8
Layer_1
 62
7
100
AcDbPolyline
 90
1
 70
1
 10
951.210301
 20
467.930178
 30
0.0
  0
SPLINE
  5
1a9
100
AcDbEntity
  8
Layer_1
 62
7
100
AcDbSpline
 70
8
 71
3
 72
8
 73
4
 74
0
 40
0
 40
0
 40
0
 40
0
 40
1
 40
1
 40
1
 40
1
 10
1058.355833
 20
256.806173
 30
0.0
 10
1054.605729
 20
264.195530
 30
0.0
 10
1045.575410
 20
267.145728
 30
0.0
 10
1038.186053
 20
263.395624
 30
0.0
  0
SPLINE
  5
1aa
100
AcDbEntity
  8
Layer_1
 62
7
100
AcDbSpline
 70
8
 71
3
 72
8
 73
4
 74
0
 40
0
 40
0
 40
0
 40
0
 40
1
 40
1
 40
1
 40
1
 10
1038.186053
 20
263.395624
 30
0.0
 10
1030.796695
 20
259.645519
 30
0.0
 10
1027.846498
 20
250.615201
 30
0.0
 10
1031.596602
 20
243.225844
 30
0.0
  0
SPLINE
  5
1ab
100
AcDbEntity
  8
Layer_1
 62
7
100
AcDbSpline
 70
8
 71
3
 72
8
 73
4
 74
0
 40
0
 40
0
 40
0
 40
0
 40
1
 40
1
 40
1
 40
1
 10
1031.596602
 20
243.225844
 30
0.0
 10
1035.346706
 20
235.836486
 30
0.0
 10
1044.377024
 20
232.886288
 30
0.0
 10
1051.766382
 20
236.636393
 30
0.0
  0
SPLINE
  5
1ac
100
AcDbEntity
  8
Layer_1
 62
7
100
AcDbSpline
 70
8
 71
3
 72
8
 73
4
 74
0
 40
0
 40
0
 40
0
 40
0
 40
1
 40
1
 40
1
 40
1
 10
1051.766382
 20
236.636393
 30
0.0
 10
1055.314877
 20
238.437256
 30
0.0
 10
1058.002644
 20
241.573995
 30
0.0
 10
1059.238406
 20
245.356563
 30
0.0
  0
SPLINE
  5
1ad
100
AcDbEntity
  8
Layer_1
 62
7
100
AcDbSpline
 70
8
 71
3
 72
8
 73
4
 74
0
 40
0
 40
0
 40
0
 40
0
 40
1
 40
1
 40
1
 40
1
 10
1059.238406
 20
245.356563
 30
0.0
 10
1060.474167
 20
249.139130
 30
0.0
 10
1060.156696
 20
253.257678
 30
0.0
 10
1058.355833
 20
256.806173
 30
0.0
  0
LWPOLYLINE
  5
1ae
100
AcDbEntity
  8
Layer_1
 62
7
100
AcDbPolyline
 90
1
 70
1
 10
1004.783067
 20
362.368175
 30
0.0
  0
SPLINE
  5
1af
100
AcDbEntity
  8
Layer_1
 62
7
100
AcDbSpline
 70
8
 71
3
 72
8
 73
4
 74
0
 40
0
 40
0
 40
0
 40
0
 40
1
 40
1
 40
1
 40
1
 10
625.000442
 20
770.005438
 30
0.0
 10
616.713949
 20
770.005438
 30
0.0
 10
609.996419
 20
763.287908
 30
0.0
 10
609.996419
 20
755.001415
 30
0.0
  0
SPLINE
  5
1b0
100
AcDbEntity
  8
Layer_1
 62
7
100
AcDbSpline
 70
8
 71
3
 72
8
 73
4
 74
0
 40
0
 40
0
 40
0
 40
0
 40
1
 40
1
 40
1
 40
1
 10
609.996419
 20
755.001415
 30
0.0
 10
609.996419
 20
746.714922
 30
0.0
 10
616.713949
 20
739.997392
 30
0.0
 10
625.000442
 20
739.997392
 30
0.0
  0
SPLINE
  5
1b1
100
AcDbEntity
  8
Layer_1
 62
7
100
AcDbSpline
 70
8
 71
3
 72
8
 73
4
 74
0
 40
0
 40
0
 40
0
 40
0
 40
1
 40
1
 40
1
 40
1
 10
625.000442
 20
739.997392
 30
0.0
 10
633.286935
 20
739.997392
 30
0.0
 10
640.004464
 20
746.714922
 30
0.0
 10
640.004464
 20
755.001415
 30
0.0
  0
SPLINE
  5
1b2
100
AcDbEntity
  8
Layer_1
 62
7
100
AcDbSpline
 70
8
 71
3
 72
8
 73
4
 74
0
 40
0
 40
0
 40
0
 40
0
 40
1
 40
1
 40
1
 40
1
 10
640.004464
 20
755.001415
 30
0.0
 10
640.004464
 20
758.980729
 30
0.0
 10
638.423688
 20
762.797061
 30
0.0
 10
635.609888
 20
765.610861
 30
0.0
  0
SPLINE
  5
1b3
100
AcDbEntity
  8
Layer_1
 62
7
100
AcDbSpline
 70
8
 71
3
 72
8
 73
4
 74
0
 40
0
 40
0
 40
0
 40
0
 40
1
 40
1
 40
1
 40
1
 10
635.609888
 20
765.610861
 30
0.0
 10
632.796088
 20
768.424661
 30
0.0
 10
628.979756
 20
770.005438
 30
0.0
 10
625.000442
 20
770.005438
 30
0.0
  0
LWPOLYLINE
  5
1b4
100
AcDbEntity
  8
Layer_1
 62
7
100
AcDbPolyline
 90
1
 70
1
 10
1058.355833
 20
256.806173
 30
0.0
  0
SPLINE
  5
1b5
100
AcDbEntity
  8
Layer_1
 62
7
100
AcDbSpline
 70
8
 71
3
 72
8
 73
4
 74
0
 40
0
 40
0
 40
0
 40
0
 40
1
 40
1
 40
1
 40
1
 10
745.000209
 20
770.005438
 30
0.0
 10
736.713716
 20
770.005438
 30
0.0
 10
729.996186
 20
763.287908
 30
0.0
 10
729.996186
 20
755.001415
 30
0.0
  0
SPLINE
  5
1b6
100
AcDbEntity
  8
Layer_1
 62
7
100
AcDbSpline
 70
8
 71
3
 72
8
 73
4
 74
0
 40
0
 40
0
 40
0
 40
0
 40
1
 40
1
 40
1
 40
1
 10
729.996186
 20
755.001415
 30
0.0
 10
729.996186
 20
746.714922
 30
0.0
 10
736.713716
 20
739.997392
 30
0.0
 10
745.000209
 20
739.997392
 30
0.0
  0
SPLINE
  5
1b7
100
AcDbEntity
  8
Layer_1
 62
7
100
AcDbSpline
 70
8
 71
3
 72
8
 73
4
 74
0
 40
0
 40
0
 40
0
 40
0
 40
1
 40
1
 40
1
 40
1
 10
745.000209
 20
739.997392
 30
0.0
 10
753.286702
 20
739.997392
 30
0.0
 10
760.004232
 20
746.714922
 30
0.0
 10
760.004232
 20
755.001415
 30
0.0
  0
SPLINE
  5
1b8
100
AcDbEntity
  8
Layer_1
 62
7
100
AcDbSpline
 70
8
 71
3
 72
8
 73
4
 74
0
 40
0
 40
0
 40
0
 40
0
 40
1
 40
1
 40
1
 40
1
 10
760.004232
 20
755.001415
 30
0.0
 10
760.004232
 20
758.980729
 30
0.0
 10
758.423456
 20
762.797061
 30
0.0
 10
755.609655
 20
765.610861
 30
0.0
  0
SPLINE
  5
1b9
100
AcDbEntity
  8
Layer_1
 62
7
100
AcDbSpline
 70
8
 71
3
 72
8
 73
4
 74
0
 40
0
 40
0
 40
0
 40
0
 40
1
 40
1
 40
1
 40
1
 10
755.609655
 20
765.610861
 30
0.0
 10
752.795855
 20
768.424661
 30
0.0
 10
748.979523
 20
770.005438
 30
0.0
 10
745.000209
 20
770.005438
 30
0.0
  0
LWPOLYLINE
  5
1ba
100
AcDbEntity
  8
Layer_1
 62
7
100
AcDbPolyline
 90
1
 70
1
 10
625.000442
 20
770.005438
 30
0.0
  0
SPLINE
  5
1bb
100
AcDbEntity
  8
Layer_1
 62
7
100
AcDbSpline
 70
8
 71
3
 72
8
 73
4
 74
0
 40
0
 40
0
 40
0
 40
0
 40
1
 40
1
 40
1
 40
1
 10
865.000241
 20
770.005438
 30
0.0
 10
856.713748
 20
770.005438
 30
0.0
 10
849.996219
 20
763.287908
 30
0.0
 10
849.996219
 20
755.001415
 30
0.0
  0
SPLINE
  5
1bc
100
AcDbEntity
  8
Layer_1
 62
7
100
AcDbSpline
 70
8
 71
3
 72
8
 73
4
 74
0
 40
0
 40
0
 40
0
 40
0
 40
1
 40
1
 40
1
 40
1
 10
849.996219
 20
755.001415
 30
0.0
 10
849.996219
 20
746.714922
 30
0.0
 10
856.713748
 20
739.997392
 30
0.0
 10
865.000241
 20
739.997392
 30
0.0
  0
SPLINE
  5
1bd
100
AcDbEntity
  8
Layer_1
 62
7
100
AcDbSpline
 70
8
 71
3
 72
8
 73
4
 74
0
 40
0
 40
0
 40
0
 40
0
 40
1
 40
1
 40
1
 40
1
 10
865.000241
 20
739.997392
 30
0.0
 10
873.286734
 20
739.997392
 30
0.0
 10
880.004264
 20
746.714922
 30
0.0
 10
880.004264
 20
755.001415
 30
0.0
  0
SPLINE
  5
1be
100
AcDbEntity
  8
Layer_1
 62
7
100
AcDbSpline
 70
8
 71
3
 72
8
 73
4
 74
0
 40
0
 40
0
 40
0
 40
0
 40
1
 40
1
 40
1
 40
1
 10
880.004264
 20
755.001415
 30
0.0
 10
880.004264
 20
758.980729
 30
0.0
 10
878.423488
 20
762.797061
 30
0.0
 10
875.609688
 20
765.610861
 30
0.0
  0
SPLINE
  5
1bf
100
AcDbEntity
  8
Layer_1
 62
7
100
AcDbSpline
 70
8
 71
3
 72
8
 73
4
 74
0
 40
0
 40
0
 40
0
 40
0
 40
1
 40
1
 40
1
 40
1
 10
875.609688
 20
765.610861
 30
0.0
 10
872.795887
 20
768.424661
 30
0.0
 10
868.979556
 20
770.005438
 30
0.0
 10
865.000241
 20
770.005438
 30
0.0
  0
LWPOLYLINE
  5
1c0
100
AcDbEntity
  8
Layer_1
 62
7
100
AcDbPolyline
 90
1
 70
1
 10
745.000209
 20
770.005438
 30
0.0
  0
SPLINE
  5
1c1
100
AcDbEntity
  8
Layer_1
 62
7
100
AcDbSpline
 70
8
 71
3
 72
8
 73
4
 74
0
 40
0
 40
0
 40
0
 40
0
 40
1
 40
1
 40
1
 40
1
 10
985.000009
 20
770.005438
 30
0.0
 10
976.713516
 20
770.005438
 30
0.0
 10
969.995986
 20
763.287908
 30
0.0
 10
969.995986
 20
755.001415
 30
0.0
  0
SPLINE
  5
1c2
100
AcDbEntity
  8
Layer_1
 62
7
100
AcDbSpline
 70
8
 71
3
 72
8
 73
4
 74
0
 40
0
 40
0
 40
0
 40
0
 40
1
 40
1
 40
1
 40
1
 10
969.995986
 20
755.001415
 30
0.0
 10
969.995986
 20
746.714922
 30
0.0
 10
976.713516
 20
739.997392
 30
0.0
 10
985.000009
 20
739.997392
 30
0.0
  0
SPLINE
  5
1c3
100
AcDbEntity
  8
Layer_1
 62
7
100
AcDbSpline
 70
8
 71
3
 72
8
 73
4
 74
0
 40
0
 40
0
 40
0
 40
0
 40
1
 40
1
 40
1
 40
1
 10
985.000009
 20
739.997392
 30
0.0
 10
993.286502
 20
739.997392
 30
0.0
 10
1000.004032
 20
746.714922
 30
0.0
 10
1000.004032
 20
755.001415
 30
0.0
  0
SPLINE
  5
1c4
100
AcDbEntity
  8
Layer_1
 62
7
100
AcDbSpline
 70
8
 71
3
 72
8
 73
4
 74
0
 40
0
 40
0
 40
0
 40
0
 40
1
 40
1
 40
1
 40
1
 10
1000.004032
 20
755.001415
 30
0.0
 10
1000.004032
 20
758.980729
 30
0.0
 10
998.423255
 20
762.797061
 30
0.0
 10
995.609455
 20
765.610861
 30
0.0
  0
SPLINE
  5
1c5
100
AcDbEntity
  8
Layer_1
 62
7
100
AcDbSpline
 70
8
 71
3
 72
8
 73
4
 74
0
 40
0
 40
0
 40
0
 40
0
 40
1
 40
1
 40
1
 40
1
 10
995.609455
 20
765.610861
 30
0.0
 10
992.795655
 20
768.424661
 30
0.0
 10
988.979323
 20
770.005438
 30
0.0
 10
985.000009
 20
770.005438
 30
0.0
  0
LWPOLYLINE
  5
1c6
100
AcDbEntity
  8
Layer_1
 62
7
100
AcDbPolyline
 90
1
 70
1
 10
865.000241
 20
770.005438
 30
0.0
  0
SPLINE
  5
1c7
100
AcDbEntity
  8
Layer_1
 62
7
100
AcDbSpline
 70
8
 71
3
 72
8
 73
4
 74
0
 40
0
 40
0
 40
0
 40
0
 40
1
 40
1
 40
1
 40
1
 10
683.999805
 20
850.007400
 30
0.0
 10
675.713312
 20
850.007400
 30
0.0
 10
668.995782
 20
843.289870
 30
0.0
 10
668.995782
 20
835.003377
 30
0.0
  0
SPLINE
  5
1c8
100
AcDbEntity
  8
Layer_1
 62
7
100
AcDbSpline
 70
8
 71
3
 72
8
 73
4
 74
0
 40
0
 40
0
 40
0
 40
0
 40
1
 40
1
 40
1
 40
1
 10
668.995782
 20
835.003377
 30
0.0
 10
668.995782
 20
826.716884
 30
0.0
 10
675.713312
 20
819.999354
 30
0.0
 10
683.999805
 20
819.999354
 30
0.0
  0
SPLINE
  5
1c9
100
AcDbEntity
  8
Layer_1
 62
7
100
AcDbSpline
 70
8
 71
3
 72
8
 73
4
 74
0
 40
0
 40
0
 40
0
 40
0
 40
1
 40
1
 40
1
 40
1
 10
683.999805
 20
819.999354
 30
0.0
 10
692.286298
 20
819.999354
 30
0.0
 10
699.003828
 20
826.716884
 30
0.0
 10
699.003828
 20
835.003377
 30
0.0
  0
SPLINE
  5
1ca
100
AcDbEntity
  8
Layer_1
 62
7
100
AcDbSpline
 70
8
 71
3
 72
8
 73
4
 74
0
 40
0
 40
0
 40
0
 40
0
 40
1
 40
1
 40
1
 40
1
 10
699.003828
 20
835.003377
 30
0.0
 10
699.003828
 20
838.982691
 30
0.0
 10
697.423051
 20
842.799023
 30
0.0
 10
694.609251
 20
845.612823
 30
0.0
  0
SPLINE
  5
1cb
100
AcDbEntity
  8
Layer_1
 62
7
100
AcDbSpline
 70
8
 71
3
 72
8
 73
4
 74
0
 40
0
 40
0
 40
0
 40
0
 40
1
 40
1
 40
1
 40
1
 10
694.609251
 20
845.612823
 30
0.0
 10
691.795451
 20
848.426623
 30
0.0
 10
687.979119
 20
850.007400
 30
0.0
 10
683.999805
 20
850.007400
 30
0.0
  0
LWPOLYLINE
  5
1cc
100
AcDbEntity
  8
Layer_1
 62
7
100
AcDbPolyline
 90
1
 70
1
 10
985.000009
 20
770.005438
 30
0.0
  0
SPLINE
  5
1cd
100
AcDbEntity
  8
Layer_1
 62
7
100
AcDbSpline
 70
8
 71
3
 72
8
 73
4
 74
0
 40
0
 40
0
 40
0
 40
0
 40
1
 40
1
 40
1
 40
1
 10
805.289414
 20
850.007400
 30
0.0
 10
797.002921
 20
850.007400
 30
0.0
 10
790.285392
 20
843.289870
 30
0.0
 10
790.285392
 20
835.003377
 30
0.0
  0
SPLINE
  5
1ce
100
AcDbEntity
  8
Layer_1
 62
7
100
AcDbSpline
 70
8
 71
3
 72
8
 73
4
 74
0
 40
0
 40
0
 40
0
 40
0
 40
1
 40
1
 40
1
 40
1
 10
790.285392
 20
835.003377
 30
0.0
 10
790.285392
 20
826.716884
 30
0.0
 10
797.002921
 20
819.999354
 30
0.0
 10
805.289414
 20
819.999354
 30
0.0
  0
SPLINE
  5
1cf
100
AcDbEntity
  8
Layer_1
 62
7
100
AcDbSpline
 70
8
 71
3
 72
8
 73
4
 74
0
 40
0
 40
0
 40
0
 40
0
 40
1
 40
1
 40
1
 40
1
 10
805.289414
 20
819.999354
 30
0.0
 10
813.575907
 20
819.999354
 30
0.0
 10
820.293437
 20
826.716884
 30
0.0
 10
820.293437
 20
835.003377
 30
0.0
  0
SPLINE
  5
1d0
100
AcDbEntity
  8
Layer_1
 62
7
100
AcDbSpline
 70
8
 71
3
 72
8
 73
4
 74
0
 40
0
 40
0
 40
0
 40
0
 40
1
 40
1
 40
1
 40
1
 10
820.293437
 20
835.003377
 30
0.0
 10
820.293437
 20
838.982691
 30
0.0
 10
818.712661
 20
842.799023
 30
0.0
 10
815.898861
 20
845.612823
 30
0.0
  0
SPLINE
  5
1d1
100
AcDbEntity
  8
Layer_1
 62
7
100
AcDbSpline
 70
8
 71
3
 72
8
 73
4
 74
0
 40
0
 40
0
 40
0
 40
0
 40
1
 40
1
 40
1
 40
1
 10
815.898861
 20
845.612823
 30
0.0
 10
813.085061
 20
848.426623
 30
0.0
 10
809.268729
 20
850.007400
 30
0.0
 10
805.289414
 20
850.007400
 30
0.0
  0
LWPOLYLINE
  5
1d2
100
AcDbEntity
  8
Layer_1
 62
7
100
AcDbPolyline
 90
1
 70
1
 10
683.999805
 20
850.007400
 30
0.0
  0
SPLINE
  5
1d3
100
AcDbEntity
  8
Layer_1
 62
7
100
AcDbSpline
 70
8
 71
3
 72
8
 73
4
 74
0
 40
0
 40
0
 40
0
 40
0
 40
1
 40
1
 40
1
 40
1
 10
926.579024
 20
850.007400
 30
0.0
 10
918.292531
 20
850.007400
 30
0.0
 10
911.575001
 20
843.289870
 30
0.0
 10
911.575001
 20
835.003377
 30
0.0
  0
SPLINE
  5
1d4
100
AcDbEntity
  8
Layer_1
 62
7
100
AcDbSpline
 70
8
 71
3
 72
8
 73
4
 74
0
 40
0
 40
0
 40
0
 40
0
 40
1
 40
1
 40
1
 40
1
 10
911.575001
 20
835.003377
 30
0.0
 10
911.575001
 20
826.716884
 30
0.0
 10
918.292531
 20
819.999354
 30
0.0
 10
926.579024
 20
819.999354
 30
0.0
  0
SPLINE
  5
1d5
100
AcDbEntity
  8
Layer_1
 62
7
100
AcDbSpline
 70
8
 71
3
 72
8
 73
4
 74
0
 40
0
 40
0
 40
0
 40
0
 40
1
 40
1
 40
1
 40
1
 10
926.579024
 20
819.999354
 30
0.0
 10
934.865517
 20
819.999354
 30
0.0
 10
941.583047
 20
826.716884
 30
0.0
 10
941.583047
 20
835.003377
 30
0.0
  0
SPLINE
  5
1d6
100
AcDbEntity
  8
Layer_1
 62
7
100
AcDbSpline
 70
8
 71
3
 72
8
 73
4
 74
0
 40
0
 40
0
 40
0
 40
0
 40
1
 40
1
 40
1
 40
1
 10
941.583047
 20
835.003377
 30
0.0
 10
941.583047
 20
838.982691
 30
0.0
 10
940.002270
 20
842.799023
 30
0.0
 10
937.188470
 20
845.612823
 30
0.0
  0
SPLINE
  5
1d7
100
AcDbEntity
  8
Layer_1
 62
7
100
AcDbSpline
 70
8
 71
3
 72
8
 73
4
 74
0
 40
0
 40
0
 40
0
 40
0
 40
1
 40
1
 40
1
 40
1
 10
937.188470
 20
845.612823
 30
0.0
 10
934.374670
 20
848.426623
 30
0.0
 10
930.558338
 20
850.007400
 30
0.0
 10
926.579024
 20
850.007400
 30
0.0
  0
LWPOLYLINE
  5
1d8
100
AcDbEntity
  8
Layer_1
 62
7
100
AcDbPolyline
 90
1
 70
1
 10
805.289414
 20
850.007400
 30
0.0
  0
SPLINE
  5
1d9
100
AcDbEntity
  8
Layer_1
 62
7
100
AcDbSpline
 70
8
 71
3
 72
8
 73
4
 74
0
 40
0
 40
0
 40
0
 40
0
 40
1
 40
1
 40
1
 40
1
 10
278.569705
 20
99.936162
 30
0.0
 10
270.323093
 20
99.145901
 30
0.0
 10
264.278527
 20
91.820067
 30
0.0
 10
265.068788
 20
83.573455
 30
0.0
  0
SPLINE
  5
1da
100
AcDbEntity
  8
Layer_1
 62
7
100
AcDbSpline
 70
8
 71
3
 72
8
 73
4
 74
0
 40
0
 40
0
 40
0
 40
0
 40
1
 40
1
 40
1
 40
1
 10
265.068788
 20
83.573455
 30
0.0
 10
265.859049
 20
75.326843
 30
0.0
 10
273.184883
 20
69.282277
 30
0.0
 10
281.431495
 20
70.072538
 30
0.0
  0
SPLINE
  5
1db
100
AcDbEntity
  8
Layer_1
 62
7
100
AcDbSpline
 70
8
 71
3
 72
8
 73
4
 74
0
 40
0
 40
0
 40
0
 40
0
 40
1
 40
1
 40
1
 40
1
 10
281.431495
 20
70.072538
 30
0.0
 10
289.678107
 20
70.862799
 30
0.0
 10
295.722673
 20
78.188633
 30
0.0
 10
294.932412
 20
86.435245
 30
0.0
  0
SPLINE
  5
1dc
100
AcDbEntity
  8
Layer_1
 62
7
100
AcDbSpline
 70
8
 71
3
 72
8
 73
4
 74
0
 40
0
 40
0
 40
0
 40
0
 40
1
 40
1
 40
1
 40
1
 10
294.932412
 20
86.435245
 30
0.0
 10
294.552915
 20
90.395408
 30
0.0
 10
292.615793
 20
94.042618
 30
0.0
 10
289.547190
 20
96.574531
 30
0.0
  0
SPLINE
  5
1dd
100
AcDbEntity
  8
Layer_1
 62
7
100
AcDbSpline
 70
8
 71
3
 72
8
 73
4
 74
0
 40
0
 40
0
 40
0
 40
0
 40
1
 40
1
 40
1
 40
1
 10
289.547190
 20
96.574531
 30
0.0
 10
286.478587
 20
99.106444
 30
0.0
 10
282.529868
 20
100.315659
 30
0.0
 10
278.569705
 20
99.936162
 30
0.0
  0
LWPOLYLINE
  5
1de
100
AcDbEntity
  8
Layer_1
 62
7
100
AcDbPolyline
 90
1
 70
1
 10
926.579024
 20
850.007400
 30
0.0
  0
SPLINE
  5
1df
100
AcDbEntity
  8
Layer_1
 62
7
100
AcDbSpline
 70
8
 71
3
 72
8
 73
4
 74
0
 40
0
 40
0
 40
0
 40
0
 40
1
 40
1
 40
1
 40
1
 10
404.626901
 20
100.416613
 30
0.0
 10
396.340408
 20
100.418883
 30
0.0
 10
389.621037
 20
93.703194
 30
0.0
 10
389.618767
 20
85.416702
 30
0.0
  0
SPLINE
  5
1e0
100
AcDbEntity
  8
Layer_1
 62
7
100
AcDbSpline
 70
8
 71
3
 72
8
 73
4
 74
0
 40
0
 40
0
 40
0
 40
0
 40
1
 40
1
 40
1
 40
1
 10
389.618767
 20
85.416702
 30
0.0
 10
389.616496
 20
77.130209
 30
0.0
 10
396.332185
 20
70.410838
 30
0.0
 10
404.618678
 20
70.408567
 30
0.0
  0
SPLINE
  5
1e1
100
AcDbEntity
  8
Layer_1
 62
7
100
AcDbSpline
 70
8
 71
3
 72
8
 73
4
 74
0
 40
0
 40
0
 40
0
 40
0
 40
1
 40
1
 40
1
 40
1
 10
404.618678
 20
70.408567
 30
0.0
 10
412.905171
 20
70.406296
 30
0.0
 10
419.624541
 20
77.121985
 30
0.0
 10
419.626812
 20
85.408478
 30
0.0
  0
SPLINE
  5
1e2
100
AcDbEntity
  8
Layer_1
 62
7
100
AcDbSpline
 70
8
 71
3
 72
8
 73
4
 74
0
 40
0
 40
0
 40
0
 40
0
 40
1
 40
1
 40
1
 40
1
 10
419.626812
 20
85.408478
 30
0.0
 10
419.627903
 20
89.387792
 30
0.0
 10
418.048172
 20
93.204557
 30
0.0
 10
415.235143
 20
96.019129
 30
0.0
  0
SPLINE
  5
1e3
100
AcDbEntity
  8
Layer_1
 62
7
100
AcDbSpline
 70
8
 71
3
 72
8
 73
4
 74
0
 40
0
 40
0
 40
0
 40
0
 40
1
 40
1
 40
1
 40
1
 10
415.235143
 20
96.019129
 30
0.0
 10
412.422114
 20
98.833700
 30
0.0
 10
408.606215
 20
100.415522
 30
0.0
 10
404.626901
 20
100.416613
 30
0.0
  0
LWPOLYLINE
  5
1e4
100
AcDbEntity
  8
Layer_1
 62
7
100
AcDbPolyline
 90
1
 70
1
 10
278.569705
 20
99.936162
 30
0.0
  0
SPLINE
  5
1e5
100
AcDbEntity
  8
Layer_1
 62
7
100
AcDbSpline
 70
8
 71
3
 72
8
 73
4
 74
0
 40
0
 40
0
 40
0
 40
0
 40
1
 40
1
 40
1
 40
1
 10
529.250786
 20
100.382455
 30
0.0
 10
520.964293
 20
100.384726
 30
0.0
 10
514.244922
 20
93.669037
 30
0.0
 10
514.242651
 20
85.382544
 30
0.0
  0
SPLINE
  5
1e6
100
AcDbEntity
  8
Layer_1
 62
7
100
AcDbSpline
 70
8
 71
3
 72
8
 73
4
 74
0
 40
0
 40
0
 40
0
 40
0
 40
1
 40
1
 40
1
 40
1
 10
514.242651
 20
85.382544
 30
0.0
 10
514.240380
 20
77.096051
 30
0.0
 10
520.956069
 20
70.376680
 30
0.0
 10
529.242562
 20
70.374409
 30
0.0
  0
SPLINE
  5
1e7
100
AcDbEntity
  8
Layer_1
 62
7
100
AcDbSpline
 70
8
 71
3
 72
8
 73
4
 74
0
 40
0
 40
0
 40
0
 40
0
 40
1
 40
1
 40
1
 40
1
 10
529.242562
 20
70.374409
 30
0.0
 10
537.529055
 20
70.372138
 30
0.0
 10
544.248426
 20
77.087827
 30
0.0
 10
544.250697
 20
85.374320
 30
0.0
  0
SPLINE
  5
1e8
100
AcDbEntity
  8
Layer_1
 62
7
100
AcDbSpline
 70
8
 71
3
 72
8
 73
4
 74
0
 40
0
 40
0
 40
0
 40
0
 40
1
 40
1
 40
1
 40
1
 10
544.250697
 20
85.374320
 30
0.0
 10
544.251787
 20
89.353635
 30
0.0
 10
542.672057
 20
93.170400
 30
0.0
 10
539.859028
 20
95.984971
 30
0.0
  0
SPLINE
  5
1e9
100
AcDbEntity
  8
Layer_1
 62
7
100
AcDbSpline
 70
8
 71
3
 72
8
 73
4
 74
0
 40
0
 40
0
 40
0
 40
0
 40
1
 40
1
 40
1
 40
1
 10
539.859028
 20
95.984971
 30
0.0
 10
537.045999
 20
98.799542
 30
0.0
 10
533.230100
 20
100.381364
 30
0.0
 10
529.250786
 20
100.382455
 30
0.0
  0
LWPOLYLINE
  5
1ea
100
AcDbEntity
  8
Layer_1
 62
7
100
AcDbPolyline
 90
1
 70
1
 10
404.626901
 20
100.416613
 30
0.0
  0
SPLINE
  5
1eb
100
AcDbEntity
  8
Layer_1
 62
7
100
AcDbSpline
 70
8
 71
3
 72
8
 73
4
 74
0
 40
0
 40
0
 40
0
 40
0
 40
1
 40
1
 40
1
 40
1
 10
653.896770
 20
100.194132
 30
0.0
 10
645.610277
 20
100.206723
 30
0.0
 10
638.882541
 20
93.499400
 30
0.0
 10
638.869950
 20
85.212907
 30
0.0
  0
SPLINE
  5
1ec
100
AcDbEntity
  8
Layer_1
 62
7
100
AcDbSpline
 70
8
 71
3
 72
8
 73
4
 74
0
 40
0
 40
0
 40
0
 40
0
 40
1
 40
1
 40
1
 40
1
 10
638.869950
 20
85.212907
 30
0.0
 10
638.857360
 20
76.926414
 30
0.0
 10
645.564683
 20
70.198677
 30
0.0
 10
653.851176
 20
70.186087
 30
0.0
  0
SPLINE
  5
1ed
100
AcDbEntity
  8
Layer_1
 62
7
100
AcDbSpline
 70
8
 71
3
 72
8
 73
4
 74
0
 40
0
 40
0
 40
0
 40
0
 40
1
 40
1
 40
1
 40
1
 10
653.851176
 20
70.186087
 30
0.0
 10
662.137669
 20
70.173496
 30
0.0
 10
668.865405
 20
76.880819
 30
0.0
 10
668.877996
 20
85.167312
 30
0.0
  0
SPLINE
  5
1ee
100
AcDbEntity
  8
Layer_1
 62
7
100
AcDbSpline
 70
8
 71
3
 72
8
 73
4
 74
0
 40
0
 40
0
 40
0
 40
0
 40
1
 40
1
 40
1
 40
1
 10
668.877996
 20
85.167312
 30
0.0
 10
668.884042
 20
89.146627
 30
0.0
 10
667.309064
 20
92.965360
 30
0.0
 10
664.499539
 20
95.783436
 30
0.0
  0
SPLINE
  5
1ef
100
AcDbEntity
  8
Layer_1
 62
7
100
AcDbSpline
 70
8
 71
3
 72
8
 73
4
 74
0
 40
0
 40
0
 40
0
 40
0
 40
1
 40
1
 40
1
 40
1
 10
664.499539
 20
95.783436
 30
0.0
 10
661.690014
 20
98.601511
 30
0.0
 10
657.876084
 20
100.188086
 30
0.0
 10
653.896770
 20
100.194132
 30
0.0
  0
LWPOLYLINE
  5
1f0
100
AcDbEntity
  8
Layer_1
 62
7
100
AcDbPolyline
 90
1
 70
1
 10
529.250786
 20
100.382455
 30
0.0
  0
SPLINE
  5
1f1
100
AcDbEntity
  8
Layer_1
 62
7
100
AcDbSpline
 70
8
 71
3
 72
8
 73
4
 74
0
 40
0
 40
0
 40
0
 40
0
 40
1
 40
1
 40
1
 40
1
 10
778.522242
 20
100.004691
 30
0.0
 10
770.235749
 20
100.017281
 30
0.0
 10
763.508013
 20
93.309958
 30
0.0
 10
763.495422
 20
85.023465
 30
0.0
  0
SPLINE
  5
1f2
100
AcDbEntity
  8
Layer_1
 62
7
100
AcDbSpline
 70
8
 71
3
 72
8
 73
4
 74
0
 40
0
 40
0
 40
0
 40
0
 40
1
 40
1
 40
1
 40
1
 10
763.495422
 20
85.023465
 30
0.0
 10
763.482832
 20
76.736972
 30
0.0
 10
770.190155
 20
70.009236
 30
0.0
 10
778.476648
 20
69.996645
 30
0.0
  0
SPLINE
  5
1f3
100
AcDbEntity
  8
Layer_1
 62
7
100
AcDbSpline
 70
8
 71
3
 72
8
 73
4
 74
0
 40
0
 40
0
 40
0
 40
0
 40
1
 40
1
 40
1
 40
1
 10
778.476648
 20
69.996645
 30
0.0
 10
786.763141
 20
69.984055
 30
0.0
 10
793.490877
 20
76.691378
 30
0.0
 10
793.503468
 20
84.977871
 30
0.0
  0
SPLINE
  5
1f4
100
AcDbEntity
  8
Layer_1
 62
7
100
AcDbSpline
 70
8
 71
3
 72
8
 73
4
 74
0
 40
0
 40
0
 40
0
 40
0
 40
1
 40
1
 40
1
 40
1
 10
793.503468
 20
84.977871
 30
0.0
 10
793.509514
 20
88.957185
 30
0.0
 10
791.934536
 20
92.775919
 30
0.0
 10
789.125011
 20
95.593994
 30
0.0
  0
SPLINE
  5
1f5
100
AcDbEntity
  8
Layer_1
 62
7
100
AcDbSpline
 70
8
 71
3
 72
8
 73
4
 74
0
 40
0
 40
0
 40
0
 40
0
 40
1
 40
1
 40
1
 40
1
 10
789.125011
 20
95.593994
 30
0.0
 10
786.315487
 20
98.412070
 30
0.0
 10
782.501556
 20
99.998645
 30
0.0
 10
778.522242
 20
100.004691
 30
0.0
  0
LWPOLYLINE
  5
1f6
100
AcDbEntity
  8
Layer_1
 62
7
100
AcDbPolyline
 90
1
 70
1
 10
653.896770
 20
100.194132
 30
0.0
  0
SPLINE
  5
1f7
100
AcDbEntity
  8
Layer_1
 62
7
100
AcDbSpline
 70
8
 71
3
 72
8
 73
4
 74
0
 40
0
 40
0
 40
0
 40
0
 40
1
 40
1
 40
1
 40
1
 10
284.060947
 20
237.035757
 30
0.0
 10
276.087626
 20
239.292353
 30
0.0
 10
267.794640
 20
234.658032
 30
0.0
 10
265.538044
 20
226.684711
 30
0.0
  0
SPLINE
  5
1f8
100
AcDbEntity
  8
Layer_1
 62
7
100
AcDbSpline
 70
8
 71
3
 72
8
 73
4
 74
0
 40
0
 40
0
 40
0
 40
0
 40
1
 40
1
 40
1
 40
1
 10
265.538044
 20
226.684711
 30
0.0
 10
263.281448
 20
218.711390
 30
0.0
 10
267.915769
 20
210.418403
 30
0.0
 10
275.889090
 20
208.161807
 30
0.0
  0
SPLINE
  5
1f9
100
AcDbEntity
  8
Layer_1
 62
7
100
AcDbSpline
 70
8
 71
3
 72
8
 73
4
 74
0
 40
0
 40
0
 40
0
 40
0
 40
1
 40
1
 40
1
 40
1
 10
275.889090
 20
208.161807
 30
0.0
 10
283.862411
 20
205.905211
 30
0.0
 10
292.155397
 20
210.539532
 30
0.0
 10
294.411994
 20
218.512853
 30
0.0
  0
SPLINE
  5
1fa
100
AcDbEntity
  8
Layer_1
 62
7
100
AcDbSpline
 70
8
 71
3
 72
8
 73
4
 74
0
 40
0
 40
0
 40
0
 40
0
 40
1
 40
1
 40
1
 40
1
 10
294.411994
 20
218.512853
 30
0.0
 10
295.495649
 20
222.341777
 30
0.0
 10
295.013887
 20
226.444359
 30
0.0
 10
293.072689
 20
229.918077
 30
0.0
  0
SPLINE
  5
1fb
100
AcDbEntity
  8
Layer_1
 62
7
100
AcDbSpline
 70
8
 71
3
 72
8
 73
4
 74
0
 40
0
 40
0
 40
0
 40
0
 40
1
 40
1
 40
1
 40
1
 10
293.072689
 20
229.918077
 30
0.0
 10
291.131492
 20
233.391795
 30
0.0
 10
287.889871
 20
235.952101
 30
0.0
 10
284.060947
 20
237.035757
 30
0.0
  0
LWPOLYLINE
  5
1fc
100
AcDbEntity
  8
Layer_1
 62
7
100
AcDbPolyline
 90
1
 70
1
 10
778.522242
 20
100.004691
 30
0.0
  0
SPLINE
  5
1fd
100
AcDbEntity
  8
Layer_1
 62
7
100
AcDbSpline
 70
8
 71
3
 72
8
 73
4
 74
0
 40
0
 40
0
 40
0
 40
0
 40
1
 40
1
 40
1
 40
1
 10
408.998892
 20
201.674239
 30
0.0
 10
401.025571
 20
203.930835
 30
0.0
 10
392.732585
 20
199.296514
 30
0.0
 10
390.475988
 20
191.323193
 30
0.0
  0
SPLINE
  5
1fe
100
AcDbEntity
  8
Layer_1
 62
7
100
AcDbSpline
 70
8
 71
3
 72
8
 73
4
 74
0
 40
0
 40
0
 40
0
 40
0
 40
1
 40
1
 40
1
 40
1
 10
390.475988
 20
191.323193
 30
0.0
 10
388.219392
 20
183.349872
 30
0.0
 10
392.853713
 20
175.056885
 30
0.0
 10
400.827035
 20
172.800289
 30
0.0
  0
SPLINE
  5
1ff
100
AcDbEntity
  8
Layer_1
 62
7
100
AcDbSpline
 70
8
 71
3
 72
8
 73
4
 74
0
 40
0
 40
0
 40
0
 40
0
 40
1
 40
1
 40
1
 40
1
 10
400.827035
 20
172.800289
 30
0.0
 10
408.800356
 20
170.543693
 30
0.0
 10
417.093342
 20
175.178014
 30
0.0
 10
419.349938
 20
183.151335
 30
0.0
  0
SPLINE
  5
200
100
AcDbEntity
  8
Layer_1
 62
7
100
AcDbSpline
 70
8
 71
3
 72
8
 73
4
 74
0
 40
0
 40
0
 40
0
 40
0
 40
1
 40
1
 40
1
 40
1
 10
419.349938
 20
183.151335
 30
0.0
 10
420.433594
 20
186.980259
 30
0.0
 10
419.951832
 20
191.082841
 30
0.0
 10
418.010634
 20
194.556559
 30
0.0
  0
SPLINE
  5
201
100
AcDbEntity
  8
Layer_1
 62
7
100
AcDbSpline
 70
8
 71
3
 72
8
 73
4
 74
0
 40
0
 40
0
 40
0
 40
0
 40
1
 40
1
 40
1
 40
1
 10
418.010634
 20
194.556559
 30
0.0
 10
416.069436
 20
198.030277
 30
0.0
 10
412.827816
 20
200.590583
 30
0.0
 10
408.998892
 20
201.674239
 30
0.0
  0
LWPOLYLINE
  5
202
100
AcDbEntity
  8
Layer_1
 62
7
100
AcDbPolyline
 90
1
 70
1
 10
284.060947
 20
237.035757
 30
0.0
  0
SPLINE
  5
203
100
AcDbEntity
  8
Layer_1
 62
7
100
AcDbSpline
 70
8
 71
3
 72
8
 73
4
 74
0
 40
0
 40
0
 40
0
 40
0
 40
1
 40
1
 40
1
 40
1
 10
533.936572
 20
166.315367
 30
0.0
 10
525.963251
 20
168.571963
 30
0.0
 10
517.670265
 20
163.937642
 30
0.0
 10
515.413669
 20
155.964321
 30
0.0
  0
SPLINE
  5
204
100
AcDbEntity
  8
Layer_1
 62
7
100
AcDbSpline
 70
8
 71
3
 72
8
 73
4
 74
0
 40
0
 40
0
 40
0
 40
0
 40
1
 40
1
 40
1
 40
1
 10
515.413669
 20
155.964321
 30
0.0
 10
513.157072
 20
147.991000
 30
0.0
 10
517.791394
 20
139.698013
 30
0.0
 10
525.764715
 20
137.441417
 30
0.0
  0
SPLINE
  5
205
100
AcDbEntity
  8
Layer_1
 62
7
100
AcDbSpline
 70
8
 71
3
 72
8
 73
4
 74
0
 40
0
 40
0
 40
0
 40
0
 40
1
 40
1
 40
1
 40
1
 10
525.764715
 20
137.441417
 30
0.0
 10
533.738036
 20
135.184821
 30
0.0
 10
542.031022
 20
139.819142
 30
0.0
 10
544.287618
 20
147.792463
 30
0.0
  0
SPLINE
  5
206
100
AcDbEntity
  8
Layer_1
 62
7
100
AcDbSpline
 70
8
 71
3
 72
8
 73
4
 74
0
 40
0
 40
0
 40
0
 40
0
 40
1
 40
1
 40
1
 40
1
 10
544.287618
 20
147.792463
 30
0.0
 10
545.371274
 20
151.621387
 30
0.0
 10
544.889512
 20
155.723969
 30
0.0
 10
542.948314
 20
159.197687
 30
0.0
  0
SPLINE
  5
207
100
AcDbEntity
  8
Layer_1
 62
7
100
AcDbSpline
 70
8
 71
3
 72
8
 73
4
 74
0
 40
0
 40
0
 40
0
 40
0
 40
1
 40
1
 40
1
 40
1
 10
542.948314
 20
159.197687
 30
0.0
 10
541.007117
 20
162.671405
 30
0.0
 10
537.765496
 20
165.231711
 30
0.0
 10
533.936572
 20
166.315367
 30
0.0
  0
LWPOLYLINE
  5
208
100
AcDbEntity
  8
Layer_1
 62
7
100
AcDbPolyline
 90
1
 70
1
 10
408.998892
 20
201.674239
 30
0.0
  0
SPLINE
  5
209
100
AcDbEntity
  8
Layer_1
 62
7
100
AcDbSpline
 70
8
 71
3
 72
8
 73
4
 74
0
 40
0
 40
0
 40
0
 40
0
 40
1
 40
1
 40
1
 40
1
 10
600.180902
 20
247.644413
 30
0.0
 10
605.655754
 20
241.424188
 30
0.0
 10
615.136487
 20
240.819944
 30
0.0
 10
621.356712
 20
246.294796
 30
0.0
  0
SPLINE
  5
20a
100
AcDbEntity
  8
Layer_1
 62
7
100
AcDbSpline
 70
8
 71
3
 72
8
 73
4
 74
0
 40
0
 40
0
 40
0
 40
0
 40
1
 40
1
 40
1
 40
1
 10
621.356712
 20
246.294796
 30
0.0
 10
627.576937
 20
251.769648
 30
0.0
 10
628.181181
 20
261.250381
 30
0.0
 10
622.706329
 20
267.470606
 30
0.0
  0
SPLINE
  5
20b
100
AcDbEntity
  8
Layer_1
 62
7
100
AcDbSpline
 70
8
 71
3
 72
8
 73
4
 74
0
 40
0
 40
0
 40
0
 40
0
 40
1
 40
1
 40
1
 40
1
 10
622.706329
 20
267.470606
 30
0.0
 10
617.231477
 20
273.690830
 30
0.0
 10
607.750744
 20
274.295075
 30
0.0
 10
601.530519
 20
268.820223
 30
0.0
  0
SPLINE
  5
20c
100
AcDbEntity
  8
Layer_1
 62
7
100
AcDbSpline
 70
8
 71
3
 72
8
 73
4
 74
0
 40
0
 40
0
 40
0
 40
0
 40
1
 40
1
 40
1
 40
1
 10
601.530519
 20
268.820223
 30
0.0
 10
598.543462
 20
266.191106
 30
0.0
 10
596.723159
 20
262.483067
 30
0.0
 10
596.470057
 20
258.511832
 30
0.0
  0
SPLINE
  5
20d
100
AcDbEntity
  8
Layer_1
 62
7
100
AcDbSpline
 70
8
 71
3
 72
8
 73
4
 74
0
 40
0
 40
0
 40
0
 40
0
 40
1
 40
1
 40
1
 40
1
 10
596.470057
 20
258.511832
 30
0.0
 10
596.216954
 20
254.540598
 30
0.0
 10
597.551785
 20
250.631470
 30
0.0
 10
600.180902
 20
247.644413
 30
0.0
  0
LWPOLYLINE
  5
20e
100
AcDbEntity
  8
Layer_1
 62
7
100
AcDbPolyline
 90
1
 70
1
 10
533.936572
 20
166.315367
 30
0.0
  0
SPLINE
  5
20f
100
AcDbEntity
  8
Layer_1
 62
7
100
AcDbSpline
 70
8
 71
3
 72
8
 73
4
 74
0
 40
0
 40
0
 40
0
 40
0
 40
1
 40
1
 40
1
 40
1
 10
520.929929
 20
360.347578
 30
0.0
 10
524.957556
 20
353.105773
 30
0.0
 10
534.093235
 20
350.500167
 30
0.0
 10
541.335040
 20
354.527794
 30
0.0
  0
SPLINE
  5
210
100
AcDbEntity
  8
Layer_1
 62
7
100
AcDbSpline
 70
8
 71
3
 72
8
 73
4
 74
0
 40
0
 40
0
 40
0
 40
0
 40
1
 40
1
 40
1
 40
1
 10
541.335040
 20
354.527794
 30
0.0
 10
548.576845
 20
358.555421
 30
0.0
 10
551.182451
 20
367.691100
 30
0.0
 10
547.154824
 20
374.932904
 30
0.0
  0
SPLINE
  5
211
100
AcDbEntity
  8
Layer_1
 62
7
100
AcDbSpline
 70
8
 71
3
 72
8
 73
4
 74
0
 40
0
 40
0
 40
0
 40
0
 40
1
 40
1
 40
1
 40
1
 10
547.154824
 20
374.932904
 30
0.0
 10
543.127197
 20
382.174709
 30
0.0
 10
533.991518
 20
384.780315
 30
0.0
 10
526.749713
 20
380.752688
 30
0.0
  0
SPLINE
  5
212
100
AcDbEntity
  8
Layer_1
 62
7
100
AcDbSpline
 70
8
 71
3
 72
8
 73
4
 74
0
 40
0
 40
0
 40
0
 40
0
 40
1
 40
1
 40
1
 40
1
 10
526.749713
 20
380.752688
 30
0.0
 10
523.272076
 20
378.818554
 30
0.0
 10
520.705206
 20
375.582150
 30
0.0
 10
519.613785
 20
371.755450
 30
0.0
  0
SPLINE
  5
213
100
AcDbEntity
  8
Layer_1
 62
7
100
AcDbSpline
 70
8
 71
3
 72
8
 73
4
 74
0
 40
0
 40
0
 40
0
 40
0
 40
1
 40
1
 40
1
 40
1
 10
519.613785
 20
371.755450
 30
0.0
 10
518.522363
 20
367.928749
 30
0.0
 10
518.995795
 20
363.825215
 30
0.0
 10
520.929929
 20
360.347578
 30
0.0
  0
LWPOLYLINE
  5
214
100
AcDbEntity
  8
Layer_1
 62
7
100
AcDbPolyline
 90
1
 70
1
 10
600.180902
 20
247.644413
 30
0.0
  0
SPLINE
  5
215
100
AcDbEntity
  8
Layer_1
 62
7
100
AcDbSpline
 70
8
 71
3
 72
8
 73
4
 74
0
 40
0
 40
0
 40
0
 40
0
 40
1
 40
1
 40
1
 40
1
 10
466.679266
 20
486.940742
 30
0.0
 10
469.098609
 20
479.015326
 30
0.0
 10
477.484693
 20
474.551772
 30
0.0
 10
485.410108
 20
476.971115
 30
0.0
  0
SPLINE
  5
216
100
AcDbEntity
  8
Layer_1
 62
7
100
AcDbSpline
 70
8
 71
3
 72
8
 73
4
 74
0
 40
0
 40
0
 40
0
 40
0
 40
1
 40
1
 40
1
 40
1
 10
485.410108
 20
476.971115
 30
0.0
 10
493.335524
 20
479.390458
 30
0.0
 10
497.799078
 20
487.776542
 30
0.0
 10
495.379735
 20
495.701958
 30
0.0
  0
SPLINE
  5
217
100
AcDbEntity
  8
Layer_1
 62
7
100
AcDbSpline
 70
8
 71
3
 72
8
 73
4
 74
0
 40
0
 40
0
 40
0
 40
0
 40
1
 40
1
 40
1
 40
1
 10
495.379735
 20
495.701958
 30
0.0
 10
492.960392
 20
503.627373
 30
0.0
 10
484.574308
 20
508.090927
 30
0.0
 10
476.648892
 20
505.671584
 30
0.0
  0
SPLINE
  5
218
100
AcDbEntity
  8
Layer_1
 62
7
100
AcDbSpline
 70
8
 71
3
 72
8
 73
4
 74
0
 40
0
 40
0
 40
0
 40
0
 40
1
 40
1
 40
1
 40
1
 10
476.648892
 20
505.671584
 30
0.0
 10
472.842974
 20
504.509775
 30
0.0
 10
469.654462
 20
501.883655
 30
0.0
 10
467.784795
 20
498.370940
 30
0.0
  0
SPLINE
  5
219
100
AcDbEntity
  8
Layer_1
 62
7
100
AcDbSpline
 70
8
 71
3
 72
8
 73
4
 74
0
 40
0
 40
0
 40
0
 40
0
 40
1
 40
1
 40
1
 40
1
 10
467.784795
 20
498.370940
 30
0.0
 10
465.915127
 20
494.858226
 30
0.0
 10
465.517456
 20
490.746661
 30
0.0
 10
466.679266
 20
486.940742
 30
0.0
  0
LWPOLYLINE
  5
21a
100
AcDbEntity
  8
Layer_1
 62
7
100
AcDbPolyline
 90
1
 70
1
 10
520.929929
 20
360.347578
 30
0.0
  0
SPLINE
  5
21b
100
AcDbEntity
  8
Layer_1
 62
7
100
AcDbSpline
 70
8
 71
3
 72
8
 73
4
 74
0
 40
0
 40
0
 40
0
 40
0
 40
1
 40
1
 40
1
 40
1
 10
439.730260
 20
621.845602
 30
0.0
 10
440.512777
 20
613.596162
 30
0.0
 10
447.834626
 20
607.543025
 30
0.0
 10
456.084066
 20
608.325543
 30
0.0
  0
SPLINE
  5
21c
100
AcDbEntity
  8
Layer_1
 62
7
100
AcDbSpline
 70
8
 71
3
 72
8
 73
4
 74
0
 40
0
 40
0
 40
0
 40
0
 40
1
 40
1
 40
1
 40
1
 10
456.084066
 20
608.325543
 30
0.0
 10
464.333506
 20
609.108060
 30
0.0
 10
470.386643
 20
616.429909
 30
0.0
 10
469.604126
 20
624.679349
 30
0.0
  0
SPLINE
  5
21d
100
AcDbEntity
  8
Layer_1
 62
7
100
AcDbSpline
 70
8
 71
3
 72
8
 73
4
 74
0
 40
0
 40
0
 40
0
 40
0
 40
1
 40
1
 40
1
 40
1
 10
469.604126
 20
624.679349
 30
0.0
 10
468.821608
 20
632.928789
 30
0.0
 10
461.499759
 20
638.981926
 30
0.0
 10
453.250319
 20
638.199409
 30
0.0
  0
SPLINE
  5
21e
100
AcDbEntity
  8
Layer_1
 62
7
100
AcDbSpline
 70
8
 71
3
 72
8
 73
4
 74
0
 40
0
 40
0
 40
0
 40
0
 40
1
 40
1
 40
1
 40
1
 10
453.250319
 20
638.199409
 30
0.0
 10
449.288798
 20
637.823630
 30
0.0
 10
445.638808
 20
635.889535
 30
0.0
 10
443.103305
 20
632.822601
 30
0.0
  0
SPLINE
  5
21f
100
AcDbEntity
  8
Layer_1
 62
7
100
AcDbSpline
 70
8
 71
3
 72
8
 73
4
 74
0
 40
0
 40
0
 40
0
 40
0
 40
1
 40
1
 40
1
 40
1
 10
443.103305
 20
632.822601
 30
0.0
 10
440.567802
 20
629.755668
 30
0.0
 10
439.354481
 20
625.807123
 30
0.0
 10
439.730260
 20
621.845602
 30
0.0
  0
LWPOLYLINE
  5
220
100
AcDbEntity
  8
Layer_1
 62
7
100
AcDbPolyline
 90
1
 70
1
 10
466.679266
 20
486.940742
 30
0.0
  0
SPLINE
  5
221
100
AcDbEntity
  8
Layer_1
 62
7
100
AcDbSpline
 70
8
 71
3
 72
8
 73
4
 74
0
 40
0
 40
0
 40
0
 40
0
 40
1
 40
1
 40
1
 40
1
 10
441.217535
 20
759.602689
 30
0.0
 10
440.228726
 20
751.375437
 30
0.0
 10
446.096644
 20
743.904343
 30
0.0
 10
454.323896
 20
742.915534
 30
0.0
  0
SPLINE
  5
222
100
AcDbEntity
  8
Layer_1
 62
7
100
AcDbSpline
 70
8
 71
3
 72
8
 73
4
 74
0
 40
0
 40
0
 40
0
 40
0
 40
1
 40
1
 40
1
 40
1
 10
454.323896
 20
742.915534
 30
0.0
 10
462.551149
 20
741.926725
 30
0.0
 10
470.022243
 20
747.794643
 30
0.0
 10
471.011052
 20
756.021895
 30
0.0
  0
SPLINE
  5
223
100
AcDbEntity
  8
Layer_1
 62
7
100
AcDbSpline
 70
8
 71
3
 72
8
 73
4
 74
0
 40
0
 40
0
 40
0
 40
0
 40
1
 40
1
 40
1
 40
1
 10
471.011052
 20
756.021895
 30
0.0
 10
471.999861
 20
764.249148
 30
0.0
 10
466.131943
 20
771.720242
 30
0.0
 10
457.904690
 20
772.709051
 30
0.0
  0
SPLINE
  5
224
100
AcDbEntity
  8
Layer_1
 62
7
100
AcDbSpline
 70
8
 71
3
 72
8
 73
4
 74
0
 40
0
 40
0
 40
0
 40
0
 40
1
 40
1
 40
1
 40
1
 10
457.904690
 20
772.709051
 30
0.0
 10
453.953824
 20
773.183894
 30
0.0
 10
449.976145
 20
772.069813
 30
0.0
 10
446.846696
 20
769.611893
 30
0.0
  0
SPLINE
  5
225
100
AcDbEntity
  8
Layer_1
 62
7
100
AcDbSpline
 70
8
 71
3
 72
8
 73
4
 74
0
 40
0
 40
0
 40
0
 40
0
 40
1
 40
1
 40
1
 40
1
 10
446.846696
 20
769.611893
 30
0.0
 10
443.717247
 20
767.153974
 30
0.0
 10
441.692377
 20
763.553555
 30
0.0
 10
441.217535
 20
759.602689
 30
0.0
  0
LWPOLYLINE
  5
226
100
AcDbEntity
  8
Layer_1
 62
7
100
AcDbPolyline
 90
1
 70
1
 10
439.730260
 20
621.845602
 30
0.0
  0
SPLINE
  5
227
100
AcDbEntity
  8
Layer_1
 62
7
100
AcDbSpline
 70
8
 71
3
 72
8
 73
4
 74
0
 40
0
 40
0
 40
0
 40
0
 40
1
 40
1
 40
1
 40
1
 10
471.167440
 20
893.981208
 30
0.0
 10
468.498923
 20
886.136190
 30
0.0
 10
472.695306
 20
877.613286
 30
0.0
 10
480.540324
 20
874.944769
 30
0.0
  0
SPLINE
  5
228
100
AcDbEntity
  8
Layer_1
 62
7
100
AcDbSpline
 70
8
 71
3
 72
8
 73
4
 74
0
 40
0
 40
0
 40
0
 40
0
 40
1
 40
1
 40
1
 40
1
 10
480.540324
 20
874.944769
 30
0.0
 10
488.385342
 20
872.276252
 30
0.0
 10
496.908246
 20
876.472636
 30
0.0
 10
499.576763
 20
884.317653
 30
0.0
  0
SPLINE
  5
229
100
AcDbEntity
  8
Layer_1
 62
7
100
AcDbSpline
 70
8
 71
3
 72
8
 73
4
 74
0
 40
0
 40
0
 40
0
 40
0
 40
1
 40
1
 40
1
 40
1
 10
499.576763
 20
884.317653
 30
0.0
 10
502.245279
 20
892.162671
 30
0.0
 10
498.048896
 20
900.685575
 30
0.0
 10
490.203878
 20
903.354092
 30
0.0
  0
SPLINE
  5
22a
100
AcDbEntity
  8
Layer_1
 62
7
100
AcDbSpline
 70
8
 71
3
 72
8
 73
4
 74
0
 40
0
 40
0
 40
0
 40
0
 40
1
 40
1
 40
1
 40
1
 10
490.203878
 20
903.354092
 30
0.0
 10
486.436568
 20
904.635559
 30
0.0
 10
482.314496
 20
904.367982
 30
0.0
 10
478.744471
 20
902.610225
 30
0.0
  0
SPLINE
  5
22b
100
AcDbEntity
  8
Layer_1
 62
7
100
AcDbSpline
 70
8
 71
3
 72
8
 73
4
 74
0
 40
0
 40
0
 40
0
 40
0
 40
1
 40
1
 40
1
 40
1
 10
478.744471
 20
902.610225
 30
0.0
 10
475.174446
 20
900.852468
 30
0.0
 10
472.448907
 20
897.748518
 30
0.0
 10
471.167440
 20
893.981208
 30
0.0
  0
LWPOLYLINE
  5
22c
100
AcDbEntity
  8
Layer_1
 62
7
100
AcDbPolyline
 90
1
 70
1
 10
441.217535
 20
759.602689
 30
0.0
  0
SPLINE
  5
22d
100
AcDbEntity
  8
Layer_1
 62
7
100
AcDbSpline
 70
8
 71
3
 72
8
 73
4
 74
0
 40
0
 40
0
 40
0
 40
0
 40
1
 40
1
 40
1
 40
1
 10
528.072719
 20
1019.191675
 30
0.0
 10
523.911154
 20
1012.026015
 30
0.0
 10
526.346455
 20
1002.843485
 30
0.0
 10
533.512115
 20
998.681920
 30
0.0
  0
SPLINE
  5
22e
100
AcDbEntity
  8
Layer_1
 62
7
100
AcDbSpline
 70
8
 71
3
 72
8
 73
4
 74
0
 40
0
 40
0
 40
0
 40
0
 40
1
 40
1
 40
1
 40
1
 10
533.512115
 20
998.681920
 30
0.0
 10
540.677776
 20
994.520356
 30
0.0
 10
549.860306
 20
996.955656
 30
0.0
 10
554.021870
 20
1004.121317
 30
0.0
  0
SPLINE
  5
22f
100
AcDbEntity
  8
Layer_1
 62
7
100
AcDbSpline
 70
8
 71
3
 72
8
 73
4
 74
0
 40
0
 40
0
 40
0
 40
0
 40
1
 40
1
 40
1
 40
1
 10
554.021870
 20
1004.121317
 30
0.0
 10
558.183435
 20
1011.286977
 30
0.0
 10
555.748134
 20
1020.469507
 30
0.0
 10
548.582474
 20
1024.631071
 30
0.0
  0
SPLINE
  5
230
100
AcDbEntity
  8
Layer_1
 62
7
100
AcDbSpline
 70
8
 71
3
 72
8
 73
4
 74
0
 40
0
 40
0
 40
0
 40
0
 40
1
 40
1
 40
1
 40
1
 10
548.582474
 20
1024.631071
 30
0.0
 10
545.141402
 20
1026.629525
 30
0.0
 10
541.047386
 20
1027.179167
 30
0.0
 10
537.201061
 20
1026.159082
 30
0.0
  0
SPLINE
  5
231
100
AcDbEntity
  8
Layer_1
 62
7
100
AcDbSpline
 70
8
 71
3
 72
8
 73
4
 74
0
 40
0
 40
0
 40
0
 40
0
 40
1
 40
1
 40
1
 40
1
 10
537.201061
 20
1026.159082
 30
0.0
 10
533.354735
 20
1025.138998
 30
0.0
 10
530.071173
 20
1022.632746
 30
0.0
 10
528.072719
 20
1019.191675
 30
0.0
  0
LWPOLYLINE
  5
232
100
AcDbEntity
  8
Layer_1
 62
7
100
AcDbPolyline
 90
1
 70
1
 10
471.167440
 20
893.981208
 30
0.0
  0
SPLINE
  5
233
100
AcDbEntity
  8
Layer_1
 62
7
100
AcDbSpline
 70
8
 71
3
 72
8
 73
4
 74
0
 40
0
 40
0
 40
0
 40
0
 40
1
 40
1
 40
1
 40
1
 10
609.792932
 20
1130.107670
 30
0.0
 10
604.203370
 20
1123.990293
 30
0.0
 10
604.631248
 20
1114.499945
 30
0.0
 10
610.748624
 20
1108.910383
 30
0.0
  0
SPLINE
  5
234
100
AcDbEntity
  8
Layer_1
 62
7
100
AcDbSpline
 70
8
 71
3
 72
8
 73
4
 74
0
 40
0
 40
0
 40
0
 40
0
 40
1
 40
1
 40
1
 40
1
 10
610.748624
 20
1108.910383
 30
0.0
 10
616.866000
 20
1103.320821
 30
0.0
 10
626.356349
 20
1103.748699
 30
0.0
 10
631.945911
 20
1109.866076
 30
0.0
  0
SPLINE
  5
235
100
AcDbEntity
  8
Layer_1
 62
7
100
AcDbSpline
 70
8
 71
3
 72
8
 73
4
 74
0
 40
0
 40
0
 40
0
 40
0
 40
1
 40
1
 40
1
 40
1
 10
631.945911
 20
1109.866076
 30
0.0
 10
637.535472
 20
1115.983452
 30
0.0
 10
637.107594
 20
1125.473800
 30
0.0
 10
630.990218
 20
1131.063362
 30
0.0
  0
SPLINE
  5
236
100
AcDbEntity
  8
Layer_1
 62
7
100
AcDbSpline
 70
8
 71
3
 72
8
 73
4
 74
0
 40
0
 40
0
 40
0
 40
0
 40
1
 40
1
 40
1
 40
1
 10
630.990218
 20
1131.063362
 30
0.0
 10
628.052550
 20
1133.747564
 30
0.0
 10
624.168907
 20
1135.154845
 30
0.0
 10
620.193644
 20
1134.975618
 30
0.0
  0
SPLINE
  5
237
100
AcDbEntity
  8
Layer_1
 62
7
100
AcDbSpline
 70
8
 71
3
 72
8
 73
4
 74
0
 40
0
 40
0
 40
0
 40
0
 40
1
 40
1
 40
1
 40
1
 10
620.193644
 20
1134.975618
 30
0.0
 10
616.218382
 20
1134.796391
 30
0.0
 10
612.477134
 20
1133.045337
 30
0.0
 10
609.792932
 20
1130.107670
 30
0.0
  0
LWPOLYLINE
  5
238
100
AcDbEntity
  8
Layer_1
 62
7
100
AcDbPolyline
 90
1
 70
1
 10
528.072719
 20
1019.191675
 30
0.0
  0
SPLINE
  5
239
100
AcDbEntity
  8
Layer_1
 62
7
100
AcDbSpline
 70
8
 71
3
 72
8
 73
4
 74
0
 40
0
 40
0
 40
0
 40
0
 40
1
 40
1
 40
1
 40
1
 10
712.627042
 20
1221.719932
 30
0.0
 10
705.878872
 20
1216.910822
 30
0.0
 10
704.306952
 20
1207.541796
 30
0.0
 10
709.116061
 20
1200.793625
 30
0.0
  0
SPLINE
  5
23a
100
AcDbEntity
  8
Layer_1
 62
7
100
AcDbSpline
 70
8
 71
3
 72
8
 73
4
 74
0
 40
0
 40
0
 40
0
 40
0
 40
1
 40
1
 40
1
 40
1
 10
709.116061
 20
1200.793625
 30
0.0
 10
713.925171
 20
1194.045454
 30
0.0
 10
723.294198
 20
1192.473534
 30
0.0
 10
730.042368
 20
1197.282644
 30
0.0
  0
SPLINE
  5
23b
100
AcDbEntity
  8
Layer_1
 62
7
100
AcDbSpline
 70
8
 71
3
 72
8
 73
4
 74
0
 40
0
 40
0
 40
0
 40
0
 40
1
 40
1
 40
1
 40
1
 10
730.042368
 20
1197.282644
 30
0.0
 10
736.790539
 20
1202.091753
 30
0.0
 10
738.362459
 20
1211.460780
 30
0.0
 10
733.553349
 20
1218.208951
 30
0.0
  0
SPLINE
  5
23c
100
AcDbEntity
  8
Layer_1
 62
7
100
AcDbSpline
 70
8
 71
3
 72
8
 73
4
 74
0
 40
0
 40
0
 40
0
 40
0
 40
1
 40
1
 40
1
 40
1
 10
733.553349
 20
1218.208951
 30
0.0
 10
731.243934
 20
1221.449537
 30
0.0
 10
727.741788
 20
1223.639985
 30
0.0
 10
723.817344
 20
1224.298422
 30
0.0
  0
SPLINE
  5
23d
100
AcDbEntity
  8
Layer_1
 62
7
100
AcDbSpline
 70
8
 71
3
 72
8
 73
4
 74
0
 40
0
 40
0
 40
0
 40
0
 40
1
 40
1
 40
1
 40
1
 10
723.817344
 20
1224.298422
 30
0.0
 10
719.892900
 20
1224.956858
 30
0.0
 10
715.867628
 20
1224.029348
 30
0.0
 10
712.627042
 20
1221.719932
 30
0.0
  0
LWPOLYLINE
  5
23e
100
AcDbEntity
  8
Layer_1
 62
7
100
AcDbPolyline
 90
1
 70
1
 10
609.792932
 20
1130.107670
 30
0.0
  0
SPLINE
  5
23f
100
AcDbEntity
  8
Layer_1
 62
7
100
AcDbSpline
 70
8
 71
3
 72
8
 73
4
 74
0
 40
0
 40
0
 40
0
 40
0
 40
1
 40
1
 40
1
 40
1
 10
832.021399
 20
1290.089554
 30
0.0
 10
824.446580
 20
1286.729862
 30
0.0
 10
821.029545
 20
1277.865690
 30
0.0
 10
824.389237
 20
1270.290872
 30
0.0
  0
SPLINE
  5
240
100
AcDbEntity
  8
Layer_1
 62
7
100
AcDbSpline
 70
8
 71
3
 72
8
 73
4
 74
0
 40
0
 40
0
 40
0
 40
0
 40
1
 40
1
 40
1
 40
1
 10
824.389237
 20
1270.290872
 30
0.0
 10
827.748929
 20
1262.716053
 30
0.0
 10
836.613101
 20
1259.299018
 30
0.0
 10
844.187919
 20
1262.658710
 30
0.0
  0
SPLINE
  5
241
100
AcDbEntity
  8
Layer_1
 62
7
100
AcDbSpline
 70
8
 71
3
 72
8
 73
4
 74
0
 40
0
 40
0
 40
0
 40
0
 40
1
 40
1
 40
1
 40
1
 10
844.187919
 20
1262.658710
 30
0.0
 10
851.762737
 20
1266.018402
 30
0.0
 10
855.179773
 20
1274.882574
 30
0.0
 10
851.820081
 20
1282.457392
 30
0.0
  0
SPLINE
  5
242
100
AcDbEntity
  8
Layer_1
 62
7
100
AcDbSpline
 70
8
 71
3
 72
8
 73
4
 74
0
 40
0
 40
0
 40
0
 40
0
 40
1
 40
1
 40
1
 40
1
 10
851.820081
 20
1282.457392
 30
0.0
 10
850.206700
 20
1286.094948
 30
0.0
 10
847.214385
 20
1288.942606
 30
0.0
 10
843.501412
 20
1290.373914
 30
0.0
  0
SPLINE
  5
243
100
AcDbEntity
  8
Layer_1
 62
7
100
AcDbSpline
 70
8
 71
3
 72
8
 73
4
 74
0
 40
0
 40
0
 40
0
 40
0
 40
1
 40
1
 40
1
 40
1
 10
843.501412
 20
1290.373914
 30
0.0
 10
839.788439
 20
1291.805222
 30
0.0
 10
835.658955
 20
1291.702935
 30
0.0
 10
832.021399
 20
1290.089554
 30
0.0
  0
LWPOLYLINE
  5
244
100
AcDbEntity
  8
Layer_1
 62
7
100
AcDbPolyline
 90
1
 70
1
 10
712.627042
 20
1221.719932
 30
0.0
  0
SPLINE
  5
245
100
AcDbEntity
  8
Layer_1
 62
7
100
AcDbSpline
 70
8
 71
3
 72
8
 73
4
 74
0
 40
0
 40
0
 40
0
 40
0
 40
1
 40
1
 40
1
 40
1
 10
963.131997
 20
1332.387234
 30
0.0
 10
955.016144
 20
1330.714382
 30
0.0
 10
949.793059
 20
1322.779068
 30
0.0
 10
951.465911
 20
1314.663215
 30
0.0
  0
SPLINE
  5
246
100
AcDbEntity
  8
Layer_1
 62
7
100
AcDbSpline
 70
8
 71
3
 72
8
 73
4
 74
0
 40
0
 40
0
 40
0
 40
0
 40
1
 40
1
 40
1
 40
1
 10
951.465911
 20
1314.663215
 30
0.0
 10
953.138763
 20
1306.547362
 30
0.0
 10
961.074077
 20
1301.324277
 30
0.0
 10
969.189930
 20
1302.997129
 30
0.0
  0
SPLINE
  5
247
100
AcDbEntity
  8
Layer_1
 62
7
100
AcDbSpline
 70
8
 71
3
 72
8
 73
4
 74
0
 40
0
 40
0
 40
0
 40
0
 40
1
 40
1
 40
1
 40
1
 10
969.189930
 20
1302.997129
 30
0.0
 10
977.305783
 20
1304.669981
 30
0.0
 10
982.528868
 20
1312.605295
 30
0.0
 10
980.856016
 20
1320.721148
 30
0.0
  0
SPLINE
  5
248
100
AcDbEntity
  8
Layer_1
 62
7
100
AcDbSpline
 70
8
 71
3
 72
8
 73
4
 74
0
 40
0
 40
0
 40
0
 40
0
 40
1
 40
1
 40
1
 40
1
 10
980.856016
 20
1320.721148
 30
0.0
 10
980.052684
 20
1324.618518
 30
0.0
 10
977.734030
 20
1328.037140
 30
0.0
 10
974.410132
 20
1330.224955
 30
0.0
  0
SPLINE
  5
249
100
AcDbEntity
  8
Layer_1
 62
7
100
AcDbSpline
 70
8
 71
3
 72
8
 73
4
 74
0
 40
0
 40
0
 40
0
 40
0
 40
1
 40
1
 40
1
 40
1
 10
974.410132
 20
1330.224955
 30
0.0
 10
971.086234
 20
1332.412771
 30
0.0
 10
967.029367
 20
1333.190566
 30
0.0
 10
963.131997
 20
1332.387234
 30
0.0
  0
LWPOLYLINE
  5
24a
100
AcDbEntity
  8
Layer_1
 62
7
100
AcDbPolyline
 90
1
 70
1
 10
832.021399
 20
1290.089554
 30
0.0
  0
SPLINE
  5
24b
100
AcDbEntity
  8
Layer_1
 62
7
100
AcDbSpline
 70
8
 71
3
 72
8
 73
4
 74
0
 40
0
 40
0
 40
0
 40
0
 40
1
 40
1
 40
1
 40
1
 10
1100.073329
 20
1346.625840
 30
0.0
 10
1091.786968
 20
1346.667228
 30
0.0
 10
1085.035993
 20
1339.983356
 30
0.0
 10
1084.994605
 20
1331.696995
 30
0.0
  0
SPLINE
  5
24c
100
AcDbEntity
  8
Layer_1
 62
7
100
AcDbSpline
 70
8
 71
3
 72
8
 73
4
 74
0
 40
0
 40
0
 40
0
 40
0
 40
1
 40
1
 40
1
 40
1
 10
1084.994605
 20
1331.696995
 30
0.0
 10
1084.953217
 20
1323.410634
 30
0.0
 10
1091.637088
 20
1316.659659
 30
0.0
 10
1099.923449
 20
1316.618271
 30
0.0
  0
SPLINE
  5
24d
100
AcDbEntity
  8
Layer_1
 62
7
100
AcDbSpline
 70
8
 71
3
 72
8
 73
4
 74
0
 40
0
 40
0
 40
0
 40
0
 40
1
 40
1
 40
1
 40
1
 10
1099.923449
 20
1316.618271
 30
0.0
 10
1108.209811
 20
1316.576883
 30
0.0
 10
1114.960786
 20
1323.260754
 30
0.0
 10
1115.002174
 20
1331.547116
 30
0.0
  0
SPLINE
  5
24e
100
AcDbEntity
  8
Layer_1
 62
7
100
AcDbSpline
 70
8
 71
3
 72
8
 73
4
 74
0
 40
0
 40
0
 40
0
 40
0
 40
1
 40
1
 40
1
 40
1
 10
1115.002174
 20
1331.547116
 30
0.0
 10
1115.022049
 20
1335.526367
 30
0.0
 10
1113.460359
 20
1339.350533
 30
0.0
 10
1110.660657
 20
1342.178343
 30
0.0
  0
SPLINE
  5
24f
100
AcDbEntity
  8
Layer_1
 62
7
100
AcDbSpline
 70
8
 71
3
 72
8
 73
4
 74
0
 40
0
 40
0
 40
0
 40
0
 40
1
 40
1
 40
1
 40
1
 10
1110.660657
 20
1342.178343
 30
0.0
 10
1107.860956
 20
1345.006152
 30
0.0
 10
1104.052580
 20
1346.605965
 30
0.0
 10
1100.073329
 20
1346.625840
 30
0.0
  0
LWPOLYLINE
  5
250
100
AcDbEntity
  8
Layer_1
 62
7
100
AcDbPolyline
 90
1
 70
1
 10
963.131997
 20
1332.387234
 30
0.0
  0
SPLINE
  5
251
100
AcDbEntity
  8
Layer_1
 62
7
100
AcDbSpline
 70
8
 71
3
 72
8
 73
4
 74
0
 40
0
 40
0
 40
0
 40
0
 40
1
 40
1
 40
1
 40
1
 10
1236.865539
 20
1332.385803
 30
0.0
 10
1228.749686
 20
1334.058655
 30
0.0
 10
1220.814372
 20
1328.835570
 30
0.0
 10
1219.141520
 20
1320.719717
 30
0.0
  0
SPLINE
  5
252
100
AcDbEntity
  8
Layer_1
 62
7
100
AcDbSpline
 70
8
 71
3
 72
8
 73
4
 74
0
 40
0
 40
0
 40
0
 40
0
 40
1
 40
1
 40
1
 40
1
 10
1219.141520
 20
1320.719717
 30
0.0
 10
1217.468668
 20
1312.603864
 30
0.0
 10
1222.691753
 20
1304.668550
 30
0.0
 10
1230.807606
 20
1302.995698
 30
0.0
  0
SPLINE
  5
253
100
AcDbEntity
  8
Layer_1
 62
7
100
AcDbSpline
 70
8
 71
3
 72
8
 73
4
 74
0
 40
0
 40
0
 40
0
 40
0
 40
1
 40
1
 40
1
 40
1
 10
1230.807606
 20
1302.995698
 30
0.0
 10
1238.923459
 20
1301.322846
 30
0.0
 10
1246.858773
 20
1306.545931
 30
0.0
 10
1248.531625
 20
1314.661784
 30
0.0
  0
SPLINE
  5
254
100
AcDbEntity
  8
Layer_1
 62
7
100
AcDbSpline
 70
8
 71
3
 72
8
 73
4
 74
0
 40
0
 40
0
 40
0
 40
0
 40
1
 40
1
 40
1
 40
1
 10
1248.531625
 20
1314.661784
 30
0.0
 10
1249.334957
 20
1318.559154
 30
0.0
 10
1248.557162
 20
1322.616021
 30
0.0
 10
1246.369346
 20
1325.939919
 30
0.0
  0
SPLINE
  5
255
100
AcDbEntity
  8
Layer_1
 62
7
100
AcDbSpline
 70
8
 71
3
 72
8
 73
4
 74
0
 40
0
 40
0
 40
0
 40
0
 40
1
 40
1
 40
1
 40
1
 10
1246.369346
 20
1325.939919
 30
0.0
 10
1244.181531
 20
1329.263817
 30
0.0
 10
1240.762909
 20
1331.582471
 30
0.0
 10
1236.865539
 20
1332.385803
 30
0.0
  0
LWPOLYLINE
  5
256
100
AcDbEntity
  8
Layer_1
 62
7
100
AcDbPolyline
 90
1
 70
1
 10
1100.073329
 20
1346.625840
 30
0.0
  0
SPLINE
  5
257
100
AcDbEntity
  8
Layer_1
 62
7
100
AcDbSpline
 70
8
 71
3
 72
8
 73
4
 74
0
 40
0
 40
0
 40
0
 40
0
 40
1
 40
1
 40
1
 40
1
 10
1367.976107
 20
1290.089700
 30
0.0
 10
1360.401288
 20
1293.449392
 30
0.0
 10
1351.537117
 20
1290.032357
 30
0.0
 10
1348.177425
 20
1282.457539
 30
0.0
  0
SPLINE
  5
258
100
AcDbEntity
  8
Layer_1
 62
7
100
AcDbSpline
 70
8
 71
3
 72
8
 73
4
 74
0
 40
0
 40
0
 40
0
 40
0
 40
1
 40
1
 40
1
 40
1
 10
1348.177425
 20
1282.457539
 30
0.0
 10
1344.817733
 20
1274.882720
 30
0.0
 10
1348.234768
 20
1266.018548
 30
0.0
 10
1355.809586
 20
1262.658856
 30
0.0
  0
SPLINE
  5
259
100
AcDbEntity
  8
Layer_1
 62
7
100
AcDbSpline
 70
8
 71
3
 72
8
 73
4
 74
0
 40
0
 40
0
 40
0
 40
0
 40
1
 40
1
 40
1
 40
1
 10
1355.809586
 20
1262.658856
 30
0.0
 10
1363.384405
 20
1259.299165
 30
0.0
 10
1372.248577
 20
1262.716200
 30
0.0
 10
1375.608269
 20
1270.291018
 30
0.0
  0
SPLINE
  5
25a
100
AcDbEntity
  8
Layer_1
 62
7
100
AcDbSpline
 70
8
 71
3
 72
8
 73
4
 74
0
 40
0
 40
0
 40
0
 40
0
 40
1
 40
1
 40
1
 40
1
 10
1375.608269
 20
1270.291018
 30
0.0
 10
1377.221649
 20
1273.928574
 30
0.0
 10
1377.323937
 20
1278.058058
 30
0.0
 10
1375.892629
 20
1281.771032
 30
0.0
  0
SPLINE
  5
25b
100
AcDbEntity
  8
Layer_1
 62
7
100
AcDbSpline
 70
8
 71
3
 72
8
 73
4
 74
0
 40
0
 40
0
 40
0
 40
0
 40
1
 40
1
 40
1
 40
1
 10
1375.892629
 20
1281.771032
 30
0.0
 10
1374.461321
 20
1285.484005
 30
0.0
 10
1371.613663
 20
1288.476319
 30
0.0
 10
1367.976107
 20
1290.089700
 30
0.0
  0
LWPOLYLINE
  5
25c
100
AcDbEntity
  8
Layer_1
 62
7
100
AcDbPolyline
 90
1
 70
1
 10
1236.865539
 20
1332.385803
 30
0.0
  0
SPLINE
  5
25d
100
AcDbEntity
  8
Layer_1
 62
7
100
AcDbSpline
 70
8
 71
3
 72
8
 73
4
 74
0
 40
0
 40
0
 40
0
 40
0
 40
1
 40
1
 40
1
 40
1
 10
1487.367819
 20
1221.720506
 30
0.0
 10
1480.619648
 20
1226.529615
 30
0.0
 10
1471.250621
 20
1224.957696
 30
0.0
 10
1466.441512
 20
1218.209525
 30
0.0
  0
SPLINE
  5
25e
100
AcDbEntity
  8
Layer_1
 62
7
100
AcDbSpline
 70
8
 71
3
 72
8
 73
4
 74
0
 40
0
 40
0
 40
0
 40
0
 40
1
 40
1
 40
1
 40
1
 10
1466.441512
 20
1218.209525
 30
0.0
 10
1461.632402
 20
1211.461354
 30
0.0
 10
1463.204322
 20
1202.092327
 30
0.0
 10
1469.952493
 20
1197.283218
 30
0.0
  0
SPLINE
  5
25f
100
AcDbEntity
  8
Layer_1
 62
7
100
AcDbSpline
 70
8
 71
3
 72
8
 73
4
 74
0
 40
0
 40
0
 40
0
 40
0
 40
1
 40
1
 40
1
 40
1
 10
1469.952493
 20
1197.283218
 30
0.0
 10
1476.700663
 20
1192.474108
 30
0.0
 10
1486.069690
 20
1194.046028
 30
0.0
 10
1490.878800
 20
1200.794199
 30
0.0
  0
SPLINE
  5
260
100
AcDbEntity
  8
Layer_1
 62
7
100
AcDbSpline
 70
8
 71
3
 72
8
 73
4
 74
0
 40
0
 40
0
 40
0
 40
0
 40
1
 40
1
 40
1
 40
1
 10
1490.878800
 20
1200.794199
 30
0.0
 10
1493.188216
 20
1204.034784
 30
0.0
 10
1494.115726
 20
1208.060056
 30
0.0
 10
1493.457289
 20
1211.984500
 30
0.0
  0
SPLINE
  5
261
100
AcDbEntity
  8
Layer_1
 62
7
100
AcDbSpline
 70
8
 71
3
 72
8
 73
4
 74
0
 40
0
 40
0
 40
0
 40
0
 40
1
 40
1
 40
1
 40
1
 10
1493.457289
 20
1211.984500
 30
0.0
 10
1492.798853
 20
1215.908944
 30
0.0
 10
1490.608405
 20
1219.411090
 30
0.0
 10
1487.367819
 20
1221.720506
 30
0.0
  0
LWPOLYLINE
  5
262
100
AcDbEntity
  8
Layer_1
 62
7
100
AcDbPolyline
 90
1
 70
1
 10
1367.976107
 20
1290.089700
 30
0.0
  0
SPLINE
  5
263
100
AcDbEntity
  8
Layer_1
 62
7
100
AcDbSpline
 70
8
 71
3
 72
8
 73
4
 74
0
 40
0
 40
0
 40
0
 40
0
 40
1
 40
1
 40
1
 40
1
 10
1590.205168
 20
1130.106454
 30
0.0
 10
1584.615606
 20
1136.223830
 30
0.0
 10
1575.125257
 20
1136.651708
 30
0.0
 10
1569.007881
 20
1131.062146
 30
0.0
  0
SPLINE
  5
264
100
AcDbEntity
  8
Layer_1
 62
7
100
AcDbSpline
 70
8
 71
3
 72
8
 73
4
 74
0
 40
0
 40
0
 40
0
 40
0
 40
1
 40
1
 40
1
 40
1
 10
1569.007881
 20
1131.062146
 30
0.0
 10
1562.890505
 20
1125.472585
 30
0.0
 10
1562.462627
 20
1115.982236
 30
0.0
 10
1568.052189
 20
1109.864860
 30
0.0
  0
SPLINE
  5
265
100
AcDbEntity
  8
Layer_1
 62
7
100
AcDbSpline
 70
8
 71
3
 72
8
 73
4
 74
0
 40
0
 40
0
 40
0
 40
0
 40
1
 40
1
 40
1
 40
1
 10
1568.052189
 20
1109.864860
 30
0.0
 10
1573.641751
 20
1103.747484
 30
0.0
 10
1583.132099
 20
1103.319606
 30
0.0
 10
1589.249475
 20
1108.909167
 30
0.0
  0
SPLINE
  5
266
100
AcDbEntity
  8
Layer_1
 62
7
100
AcDbSpline
 70
8
 71
3
 72
8
 73
4
 74
0
 40
0
 40
0
 40
0
 40
0
 40
1
 40
1
 40
1
 40
1
 10
1589.249475
 20
1108.909167
 30
0.0
 10
1592.187143
 20
1111.593370
 30
0.0
 10
1593.938196
 20
1115.334618
 30
0.0
 10
1594.117423
 20
1119.309880
 30
0.0
  0
SPLINE
  5
267
100
AcDbEntity
  8
Layer_1
 62
7
100
AcDbSpline
 70
8
 71
3
 72
8
 73
4
 74
0
 40
0
 40
0
 40
0
 40
0
 40
1
 40
1
 40
1
 40
1
 10
1594.117423
 20
1119.309880
 30
0.0
 10
1594.296650
 20
1123.285143
 30
0.0
 10
1592.889370
 20
1127.168786
 30
0.0
 10
1590.205168
 20
1130.106454
 30
0.0
  0
LWPOLYLINE
  5
268
100
AcDbEntity
  8
Layer_1
 62
7
100
AcDbPolyline
 90
1
 70
1
 10
1487.367819
 20
1221.720506
 30
0.0
  0
SPLINE
  5
269
100
AcDbEntity
  8
Layer_1
 62
7
100
AcDbSpline
 70
8
 71
3
 72
8
 73
4
 74
0
 40
0
 40
0
 40
0
 40
0
 40
1
 40
1
 40
1
 40
1
 10
1671.936561
 20
1019.190870
 30
0.0
 10
1667.774996
 20
1026.356530
 30
0.0
 10
1658.592466
 20
1028.791831
 30
0.0
 10
1651.426806
 20
1024.630266
 30
0.0
  0
SPLINE
  5
26a
100
AcDbEntity
  8
Layer_1
 62
7
100
AcDbSpline
 70
8
 71
3
 72
8
 73
4
 74
0
 40
0
 40
0
 40
0
 40
0
 40
1
 40
1
 40
1
 40
1
 10
1651.426806
 20
1024.630266
 30
0.0
 10
1644.261146
 20
1020.468702
 30
0.0
 10
1641.825845
 20
1011.286172
 30
0.0
 10
1645.987410
 20
1004.120511
 30
0.0
  0
SPLINE
  5
26b
100
AcDbEntity
  8
Layer_1
 62
7
100
AcDbSpline
 70
8
 71
3
 72
8
 73
4
 74
0
 40
0
 40
0
 40
0
 40
0
 40
1
 40
1
 40
1
 40
1
 10
1645.987410
 20
1004.120511
 30
0.0
 10
1650.148974
 20
996.954851
 30
0.0
 10
1659.331504
 20
994.519551
 30
0.0
 10
1666.497165
 20
998.681115
 30
0.0
  0
SPLINE
  5
26c
100
AcDbEntity
  8
Layer_1
 62
7
100
AcDbSpline
 70
8
 71
3
 72
8
 73
4
 74
0
 40
0
 40
0
 40
0
 40
0
 40
1
 40
1
 40
1
 40
1
 10
1666.497165
 20
998.681115
 30
0.0
 10
1669.938236
 20
1000.679569
 30
0.0
 10
1672.444487
 20
1003.963131
 30
0.0
 10
1673.464572
 20
1007.809457
 30
0.0
  0
SPLINE
  5
26d
100
AcDbEntity
  8
Layer_1
 62
7
100
AcDbSpline
 70
8
 71
3
 72
8
 73
4
 74
0
 40
0
 40
0
 40
0
 40
0
 40
1
 40
1
 40
1
 40
1
 10
1673.464572
 20
1007.809457
 30
0.0
 10
1674.484657
 20
1011.655782
 30
0.0
 10
1673.935015
 20
1015.749798
 30
0.0
 10
1671.936561
 20
1019.190870
 30
0.0
  0
LWPOLYLINE
  5
26e
100
AcDbEntity
  8
Layer_1
 62
7
100
AcDbPolyline
 90
1
 70
1
 10
1590.205168
 20
1130.106454
 30
0.0
  0
SPLINE
  5
26f
100
AcDbEntity
  8
Layer_1
 62
7
100
AcDbSpline
 70
8
 71
3
 72
8
 73
4
 74
0
 40
0
 40
0
 40
0
 40
0
 40
1
 40
1
 40
1
 40
1
 10
1728.831380
 20
893.985543
 30
0.0
 10
1726.162864
 20
901.830560
 30
0.0
 10
1717.639960
 20
906.026944
 30
0.0
 10
1709.794942
 20
903.358427
 30
0.0
  0
SPLINE
  5
270
100
AcDbEntity
  8
Layer_1
 62
7
100
AcDbSpline
 70
8
 71
3
 72
8
 73
4
 74
0
 40
0
 40
0
 40
0
 40
0
 40
1
 40
1
 40
1
 40
1
 10
1709.794942
 20
903.358427
 30
0.0
 10
1701.949924
 20
900.689910
 30
0.0
 10
1697.753541
 20
892.167006
 30
0.0
 10
1700.422057
 20
884.321988
 30
0.0
  0
SPLINE
  5
271
100
AcDbEntity
  8
Layer_1
 62
7
100
AcDbSpline
 70
8
 71
3
 72
8
 73
4
 74
0
 40
0
 40
0
 40
0
 40
0
 40
1
 40
1
 40
1
 40
1
 10
1700.422057
 20
884.321988
 30
0.0
 10
1703.090574
 20
876.476971
 30
0.0
 10
1711.613478
 20
872.280587
 30
0.0
 10
1719.458496
 20
874.949104
 30
0.0
  0
SPLINE
  5
272
100
AcDbEntity
  8
Layer_1
 62
7
100
AcDbSpline
 70
8
 71
3
 72
8
 73
4
 74
0
 40
0
 40
0
 40
0
 40
0
 40
1
 40
1
 40
1
 40
1
 10
1719.458496
 20
874.949104
 30
0.0
 10
1723.225806
 20
876.230571
 30
0.0
 10
1726.329757
 20
878.956111
 30
0.0
 10
1728.087514
 20
882.526135
 30
0.0
  0
SPLINE
  5
273
100
AcDbEntity
  8
Layer_1
 62
7
100
AcDbSpline
 70
8
 71
3
 72
8
 73
4
 74
0
 40
0
 40
0
 40
0
 40
0
 40
1
 40
1
 40
1
 40
1
 10
1728.087514
 20
882.526135
 30
0.0
 10
1729.845271
 20
886.096160
 30
0.0
 10
1730.112847
 20
890.218232
 30
0.0
 10
1728.831380
 20
893.985543
 30
0.0
  0
LWPOLYLINE
  5
274
100
AcDbEntity
  8
Layer_1
 62
7
100
AcDbPolyline
 90
1
 70
1
 10
1671.936561
 20
1019.190870
 30
0.0
  0
SPLINE
  5
275
100
AcDbEntity
  8
Layer_1
 62
7
100
AcDbSpline
 70
8
 71
3
 72
8
 73
4
 74
0
 40
0
 40
0
 40
0
 40
0
 40
1
 40
1
 40
1
 40
1
 10
1758.770504
 20
759.602244
 30
0.0
 10
1757.781695
 20
767.829496
 30
0.0
 10
1750.310601
 20
773.697414
 30
0.0
 10
1742.083349
 20
772.708605
 30
0.0
  0
SPLINE
  5
276
100
AcDbEntity
  8
Layer_1
 62
7
100
AcDbSpline
 70
8
 71
3
 72
8
 73
4
 74
0
 40
0
 40
0
 40
0
 40
0
 40
1
 40
1
 40
1
 40
1
 10
1742.083349
 20
772.708605
 30
0.0
 10
1733.856096
 20
771.719796
 30
0.0
 10
1727.988178
 20
764.248702
 30
0.0
 10
1728.976987
 20
756.021450
 30
0.0
  0
SPLINE
  5
277
100
AcDbEntity
  8
Layer_1
 62
7
100
AcDbSpline
 70
8
 71
3
 72
8
 73
4
 74
0
 40
0
 40
0
 40
0
 40
0
 40
1
 40
1
 40
1
 40
1
 10
1728.976987
 20
756.021450
 30
0.0
 10
1729.965796
 20
747.794197
 30
0.0
 10
1737.436890
 20
741.926279
 30
0.0
 10
1745.664143
 20
742.915088
 30
0.0
  0
SPLINE
  5
278
100
AcDbEntity
  8
Layer_1
 62
7
100
AcDbSpline
 70
8
 71
3
 72
8
 73
4
 74
0
 40
0
 40
0
 40
0
 40
0
 40
1
 40
1
 40
1
 40
1
 10
1745.664143
 20
742.915088
 30
0.0
 10
1749.615009
 20
743.389931
 30
0.0
 10
1753.215427
 20
745.414801
 30
0.0
 10
1755.673347
 20
748.544250
 30
0.0
  0
SPLINE
  5
279
100
AcDbEntity
  8
Layer_1
 62
7
100
AcDbSpline
 70
8
 71
3
 72
8
 73
4
 74
0
 40
0
 40
0
 40
0
 40
0
 40
1
 40
1
 40
1
 40
1
 10
1755.673347
 20
748.544250
 30
0.0
 10
1758.131266
 20
751.673698
 30
0.0
 10
1759.245347
 20
755.651378
 30
0.0
 10
1758.770504
 20
759.602244
 30
0.0
  0
LWPOLYLINE
  5
27a
100
AcDbEntity
  8
Layer_1
 62
7
100
AcDbPolyline
 90
1
 70
1
 10
1728.831380
 20
893.985543
 30
0.0
  0
SPLINE
  5
27b
100
AcDbEntity
  8
Layer_1
 62
7
100
AcDbSpline
 70
8
 71
3
 72
8
 73
4
 74
0
 40
0
 40
0
 40
0
 40
0
 40
1
 40
1
 40
1
 40
1
 10
1760.255827
 20
621.843934
 30
0.0
 10
1761.038344
 20
630.093375
 30
0.0
 10
1754.985207
 20
637.415223
 30
0.0
 10
1746.735767
 20
638.197741
 30
0.0
  0
SPLINE
  5
27c
100
AcDbEntity
  8
Layer_1
 62
7
100
AcDbSpline
 70
8
 71
3
 72
8
 73
4
 74
0
 40
0
 40
0
 40
0
 40
0
 40
1
 40
1
 40
1
 40
1
 10
1746.735767
 20
638.197741
 30
0.0
 10
1738.486327
 20
638.980258
 30
0.0
 10
1731.164478
 20
632.927122
 30
0.0
 10
1730.381961
 20
624.677681
 30
0.0
  0
SPLINE
  5
27d
100
AcDbEntity
  8
Layer_1
 62
7
100
AcDbSpline
 70
8
 71
3
 72
8
 73
4
 74
0
 40
0
 40
0
 40
0
 40
0
 40
1
 40
1
 40
1
 40
1
 10
1730.381961
 20
624.677681
 30
0.0
 10
1729.599443
 20
616.428241
 30
0.0
 10
1735.652580
 20
609.106393
 30
0.0
 10
1743.902020
 20
608.323875
 30
0.0
  0
SPLINE
  5
27e
100
AcDbEntity
  8
Layer_1
 62
7
100
AcDbSpline
 70
8
 71
3
 72
8
 73
4
 74
0
 40
0
 40
0
 40
0
 40
0
 40
1
 40
1
 40
1
 40
1
 10
1743.902020
 20
608.323875
 30
0.0
 10
1747.863541
 20
607.948097
 30
0.0
 10
1751.812086
 20
609.161417
 30
0.0
 10
1754.879019
 20
611.696920
 30
0.0
  0
SPLINE
  5
27f
100
AcDbEntity
  8
Layer_1
 62
7
100
AcDbSpline
 70
8
 71
3
 72
8
 73
4
 74
0
 40
0
 40
0
 40
0
 40
0
 40
1
 40
1
 40
1
 40
1
 10
1754.879019
 20
611.696920
 30
0.0
 10
1757.945953
 20
614.232423
 30
0.0
 10
1759.880048
 20
617.882414
 30
0.0
 10
1760.255827
 20
621.843934
 30
0.0
  0
LWPOLYLINE
  5
280
100
AcDbEntity
  8
Layer_1
 62
7
100
AcDbPolyline
 90
1
 70
1
 10
1758.770504
 20
759.602244
 30
0.0
  0
SPLINE
  5
281
100
AcDbEntity
  8
Layer_1
 62
7
100
AcDbSpline
 70
8
 71
3
 72
8
 73
4
 74
0
 40
0
 40
0
 40
0
 40
0
 40
1
 40
1
 40
1
 40
1
 10
1733.319103
 20
486.928860
 30
0.0
 10
1735.738446
 20
494.854276
 30
0.0
 10
1731.274892
 20
503.240360
 30
0.0
 10
1723.349476
 20
505.659703
 30
0.0
  0
SPLINE
  5
282
100
AcDbEntity
  8
Layer_1
 62
7
100
AcDbSpline
 70
8
 71
3
 72
8
 73
4
 74
0
 40
0
 40
0
 40
0
 40
0
 40
1
 40
1
 40
1
 40
1
 10
1723.349476
 20
505.659703
 30
0.0
 10
1715.424061
 20
508.079046
 30
0.0
 10
1707.037977
 20
503.615492
 30
0.0
 10
1704.618634
 20
495.690076
 30
0.0
  0
SPLINE
  5
283
100
AcDbEntity
  8
Layer_1
 62
7
100
AcDbSpline
 70
8
 71
3
 72
8
 73
4
 74
0
 40
0
 40
0
 40
0
 40
0
 40
1
 40
1
 40
1
 40
1
 10
1704.618634
 20
495.690076
 30
0.0
 10
1702.199291
 20
487.764661
 30
0.0
 10
1706.662845
 20
479.378577
 30
0.0
 10
1714.588260
 20
476.959234
 30
0.0
  0
SPLINE
  5
284
100
AcDbEntity
  8
Layer_1
 62
7
100
AcDbSpline
 70
8
 71
3
 72
8
 73
4
 74
0
 40
0
 40
0
 40
0
 40
0
 40
1
 40
1
 40
1
 40
1
 10
1714.588260
 20
476.959234
 30
0.0
 10
1718.394179
 20
475.797424
 30
0.0
 10
1722.505745
 20
476.195095
 30
0.0
 10
1726.018459
 20
478.064763
 30
0.0
  0
SPLINE
  5
285
100
AcDbEntity
  8
Layer_1
 62
7
100
AcDbSpline
 70
8
 71
3
 72
8
 73
4
 74
0
 40
0
 40
0
 40
0
 40
0
 40
1
 40
1
 40
1
 40
1
 10
1726.018459
 20
478.064763
 30
0.0
 10
1729.531173
 20
479.934430
 30
0.0
 10
1732.157293
 20
483.122942
 30
0.0
 10
1733.319103
 20
486.928860
 30
0.0
  0
LWPOLYLINE
  5
286
100
AcDbEntity
  8
Layer_1
 62
7
100
AcDbPolyline
 90
1
 70
1
 10
1760.255827
 20
621.843934
 30
0.0
  0
SPLINE
  5
287
100
AcDbEntity
  8
Layer_1
 62
7
100
AcDbSpline
 70
8
 71
3
 72
8
 73
4
 74
0
 40
0
 40
0
 40
0
 40
0
 40
1
 40
1
 40
1
 40
1
 10
1679.073972
 20
360.336824
 30
0.0
 10
1683.101599
 20
367.578629
 30
0.0
 10
1680.495993
 20
376.714308
 30
0.0
 10
1673.254189
 20
380.741934
 30
0.0
  0
SPLINE
  5
288
100
AcDbEntity
  8
Layer_1
 62
7
100
AcDbSpline
 70
8
 71
3
 72
8
 73
4
 74
0
 40
0
 40
0
 40
0
 40
0
 40
1
 40
1
 40
1
 40
1
 10
1673.254189
 20
380.741934
 30
0.0
 10
1666.012384
 20
384.769561
 30
0.0
 10
1656.876705
 20
382.163955
 30
0.0
 10
1652.849078
 20
374.922151
 30
0.0
  0
SPLINE
  5
289
100
AcDbEntity
  8
Layer_1
 62
7
100
AcDbSpline
 70
8
 71
3
 72
8
 73
4
 74
0
 40
0
 40
0
 40
0
 40
0
 40
1
 40
1
 40
1
 40
1
 10
1652.849078
 20
374.922151
 30
0.0
 10
1648.821451
 20
367.680346
 30
0.0
 10
1651.427057
 20
358.544667
 30
0.0
 10
1658.668862
 20
354.517040
 30
0.0
  0
SPLINE
  5
28a
100
AcDbEntity
  8
Layer_1
 62
7
100
AcDbSpline
 70
8
 71
3
 72
8
 73
4
 74
0
 40
0
 40
0
 40
0
 40
0
 40
1
 40
1
 40
1
 40
1
 10
1658.668862
 20
354.517040
 30
0.0
 10
1662.146499
 20
352.582906
 30
0.0
 10
1666.250033
 20
352.109474
 30
0.0
 10
1670.076734
 20
353.200895
 30
0.0
  0
SPLINE
  5
28b
100
AcDbEntity
  8
Layer_1
 62
7
100
AcDbSpline
 70
8
 71
3
 72
8
 73
4
 74
0
 40
0
 40
0
 40
0
 40
0
 40
1
 40
1
 40
1
 40
1
 10
1670.076734
 20
353.200895
 30
0.0
 10
1673.903434
 20
354.292316
 30
0.0
 10
1677.139838
 20
356.859187
 30
0.0
 10
1679.073972
 20
360.336824
 30
0.0
  0
LWPOLYLINE
  5
28c
100
AcDbEntity
  8
Layer_1
 62
7
100
AcDbPolyline
 90
1
 70
1
 10
1733.319103
 20
486.928860
 30
0.0
  0
SPLINE
  5
28d
100
AcDbEntity
  8
Layer_1
 62
7
100
AcDbSpline
 70
8
 71
3
 72
8
 73
4
 74
0
 40
0
 40
0
 40
0
 40
0
 40
1
 40
1
 40
1
 40
1
 10
1599.817474
 20
247.648613
 30
0.0
 10
1605.292326
 20
253.868838
 30
0.0
 10
1604.688082
 20
263.349571
 30
0.0
 10
1598.467857
 20
268.824423
 30
0.0
  0
SPLINE
  5
28e
100
AcDbEntity
  8
Layer_1
 62
7
100
AcDbSpline
 70
8
 71
3
 72
8
 73
4
 74
0
 40
0
 40
0
 40
0
 40
0
 40
1
 40
1
 40
1
 40
1
 10
1598.467857
 20
268.824423
 30
0.0
 10
1592.247632
 20
274.299275
 30
0.0
 10
1582.766899
 20
273.695031
 30
0.0
 10
1577.292047
 20
267.474806
 30
0.0
  0
SPLINE
  5
28f
100
AcDbEntity
  8
Layer_1
 62
7
100
AcDbSpline
 70
8
 71
3
 72
8
 73
4
 74
0
 40
0
 40
0
 40
0
 40
0
 40
1
 40
1
 40
1
 40
1
 10
1577.292047
 20
267.474806
 30
0.0
 10
1571.817195
 20
261.254581
 30
0.0
 10
1572.421439
 20
251.773848
 30
0.0
 10
1578.641664
 20
246.298996
 30
0.0
  0
SPLINE
  5
290
100
AcDbEntity
  8
Layer_1
 62
7
100
AcDbSpline
 70
8
 71
3
 72
8
 73
4
 74
0
 40
0
 40
0
 40
0
 40
0
 40
1
 40
1
 40
1
 40
1
 10
1578.641664
 20
246.298996
 30
0.0
 10
1581.628721
 20
243.669880
 30
0.0
 10
1585.537849
 20
242.335049
 30
0.0
 10
1589.509084
 20
242.588151
 30
0.0
  0
SPLINE
  5
291
100
AcDbEntity
  8
Layer_1
 62
7
100
AcDbSpline
 70
8
 71
3
 72
8
 73
4
 74
0
 40
0
 40
0
 40
0
 40
0
 40
1
 40
1
 40
1
 40
1
 10
1589.509084
 20
242.588151
 30
0.0
 10
1593.480318
 20
242.841253
 30
0.0
 10
1597.188357
 20
244.661556
 30
0.0
 10
1599.817474
 20
247.648613
 30
0.0
  0
LWPOLYLINE
  5
292
100
AcDbEntity
  8
Layer_1
 62
7
100
AcDbPolyline
 90
1
 70
1
 10
1679.073972
 20
360.336824
 30
0.0
  0
SPLINE
  5
293
100
AcDbEntity
  8
Layer_1
 62
7
100
AcDbSpline
 70
8
 71
3
 72
8
 73
4
 74
0
 40
0
 40
0
 40
0
 40
0
 40
1
 40
1
 40
1
 40
1
 10
698.696240
 20
251.774932
 30
0.0
 10
704.755055
 20
246.121942
 30
0.0
 10
714.249349
 20
246.450929
 30
0.0
 10
719.902339
 20
252.509744
 30
0.0
  0
SPLINE
  5
294
100
AcDbEntity
  8
Layer_1
 62
7
100
AcDbSpline
 70
8
 71
3
 72
8
 73
4
 74
0
 40
0
 40
0
 40
0
 40
0
 40
1
 40
1
 40
1
 40
1
 10
719.902339
 20
252.509744
 30
0.0
 10
725.555329
 20
258.568560
 30
0.0
 10
725.226342
 20
268.062854
 30
0.0
 10
719.167527
 20
273.715844
 30
0.0
  0
SPLINE
  5
295
100
AcDbEntity
  8
Layer_1
 62
7
100
AcDbSpline
 70
8
 71
3
 72
8
 73
4
 74
0
 40
0
 40
0
 40
0
 40
0
 40
1
 40
1
 40
1
 40
1
 10
719.167527
 20
273.715844
 30
0.0
 10
713.108712
 20
279.368834
 30
0.0
 10
703.614417
 20
279.039847
 30
0.0
 10
697.961428
 20
272.981032
 30
0.0
  0
SPLINE
  5
296
100
AcDbEntity
  8
Layer_1
 62
7
100
AcDbSpline
 70
8
 71
3
 72
8
 73
4
 74
0
 40
0
 40
0
 40
0
 40
0
 40
1
 40
1
 40
1
 40
1
 10
697.961428
 20
272.981032
 30
0.0
 10
695.246766
 20
270.071486
 30
0.0
 10
693.799103
 20
266.202713
 30
0.0
 10
693.936907
 20
262.225797
 30
0.0
  0
SPLINE
  5
297
100
AcDbEntity
  8
Layer_1
 62
7
100
AcDbSpline
 70
8
 71
3
 72
8
 73
4
 74
0
 40
0
 40
0
 40
0
 40
0
 40
1
 40
1
 40
1
 40
1
 10
693.936907
 20
262.225797
 30
0.0
 10
694.074711
 20
258.248882
 30
0.0
 10
695.786694
 20
254.489594
 30
0.0
 10
698.696240
 20
251.774932
 30
0.0
  0
LWPOLYLINE
  5
298
100
AcDbEntity
  8
Layer_1
 62
7
100
AcDbPolyline
 90
1
 70
1
 10
1599.817474
 20
247.648613
 30
0.0
  0
SPLINE
  5
299
100
AcDbEntity
  8
Layer_1
 62
7
100
AcDbSpline
 70
8
 71
3
 72
8
 73
4
 74
0
 40
0
 40
0
 40
0
 40
0
 40
1
 40
1
 40
1
 40
1
 10
618.421963
 20
343.587693
 30
0.0
 10
623.170758
 20
336.796945
 30
0.0
 10
632.525406
 20
335.141614
 30
0.0
 10
639.316154
 20
339.890409
 30
0.0
  0
SPLINE
  5
29a
100
AcDbEntity
  8
Layer_1
 62
7
100
AcDbSpline
 70
8
 71
3
 72
8
 73
4
 74
0
 40
0
 40
0
 40
0
 40
0
 40
1
 40
1
 40
1
 40
1
 10
639.316154
 20
339.890409
 30
0.0
 10
646.106903
 20
344.639204
 30
0.0
 10
647.762233
 20
353.993852
 30
0.0
 10
643.013439
 20
360.784601
 30
0.0
  0
SPLINE
  5
29b
100
AcDbEntity
  8
Layer_1
 62
7
100
AcDbSpline
 70
8
 71
3
 72
8
 73
4
 74
0
 40
0
 40
0
 40
0
 40
0
 40
1
 40
1
 40
1
 40
1
 10
643.013439
 20
360.784601
 30
0.0
 10
638.264644
 20
367.575349
 30
0.0
 10
628.909996
 20
369.230680
 30
0.0
 10
622.119247
 20
364.481885
 30
0.0
  0
SPLINE
  5
29c
100
AcDbEntity
  8
Layer_1
 62
7
100
AcDbSpline
 70
8
 71
3
 72
8
 73
4
 74
0
 40
0
 40
0
 40
0
 40
0
 40
1
 40
1
 40
1
 40
1
 10
622.119247
 20
364.481885
 30
0.0
 10
618.858215
 20
362.201433
 30
0.0
 10
616.636652
 20
358.718943
 30
0.0
 10
615.943276
 20
354.800522
 30
0.0
  0
SPLINE
  5
29d
100
AcDbEntity
  8
Layer_1
 62
7
100
AcDbSpline
 70
8
 71
3
 72
8
 73
4
 74
0
 40
0
 40
0
 40
0
 40
0
 40
1
 40
1
 40
1
 40
1
 10
615.943276
 20
354.800522
 30
0.0
 10
615.249901
 20
350.882101
 30
0.0
 10
616.141511
 20
346.848726
 30
0.0
 10
618.421963
 20
343.587693
 30
0.0
  0
LWPOLYLINE
  5
29e
100
AcDbEntity
  8
Layer_1
 62
7
100
AcDbPolyline
 90
1
 70
1
 10
698.696240
 20
251.774932
 30
0.0
  0
SPLINE
  5
29f
100
AcDbEntity
  8
Layer_1
 62
7
100
AcDbSpline
 70
8
 71
3
 72
8
 73
4
 74
0
 40
0
 40
0
 40
0
 40
0
 40
1
 40
1
 40
1
 40
1
 10
558.825318
 20
449.969942
 30
0.0
 10
562.081833
 20
442.350200
 30
0.0
 10
570.898781
 20
438.813105
 30
0.0
 10
578.518523
 20
442.069619
 30
0.0
  0
SPLINE
  5
2a0
100
AcDbEntity
  8
Layer_1
 62
7
100
AcDbSpline
 70
8
 71
3
 72
8
 73
4
 74
0
 40
0
 40
0
 40
0
 40
0
 40
1
 40
1
 40
1
 40
1
 10
578.518523
 20
442.069619
 30
0.0
 10
586.138265
 20
445.326134
 30
0.0
 10
589.675359
 20
454.143082
 30
0.0
 10
586.418845
 20
461.762824
 30
0.0
  0
SPLINE
  5
2a1
100
AcDbEntity
  8
Layer_1
 62
7
100
AcDbSpline
 70
8
 71
3
 72
8
 73
4
 74
0
 40
0
 40
0
 40
0
 40
0
 40
1
 40
1
 40
1
 40
1
 10
586.418845
 20
461.762824
 30
0.0
 10
583.162331
 20
469.382566
 30
0.0
 10
574.345383
 20
472.919660
 30
0.0
 10
566.725641
 20
469.663146
 30
0.0
  0
SPLINE
  5
2a2
100
AcDbEntity
  8
Layer_1
 62
7
100
AcDbSpline
 70
8
 71
3
 72
8
 73
4
 74
0
 40
0
 40
0
 40
0
 40
0
 40
1
 40
1
 40
1
 40
1
 10
566.725641
 20
469.663146
 30
0.0
 10
563.066512
 20
468.099313
 30
0.0
 10
560.178481
 20
465.145947
 30
0.0
 10
558.696883
 20
461.452754
 30
0.0
  0
SPLINE
  5
2a3
100
AcDbEntity
  8
Layer_1
 62
7
100
AcDbSpline
 70
8
 71
3
 72
8
 73
4
 74
0
 40
0
 40
0
 40
0
 40
0
 40
1
 40
1
 40
1
 40
1
 10
558.696883
 20
461.452754
 30
0.0
 10
557.215286
 20
457.759562
 30
0.0
 10
557.261485
 20
453.629071
 30
0.0
 10
558.825318
 20
449.969942
 30
0.0
  0
LWPOLYLINE
  5
2a4
100
AcDbEntity
  8
Layer_1
 62
7
100
AcDbPolyline
 90
1
 70
1
 10
618.421963
 20
343.587693
 30
0.0
  0
SPLINE
  5
2a5
100
AcDbEntity
  8
Layer_1
 62
7
100
AcDbSpline
 70
8
 71
3
 72
8
 73
4
 74
0
 40
0
 40
0
 40
0
 40
0
 40
1
 40
1
 40
1
 40
1
 10
522.354517
 20
566.288100
 30
0.0
 10
523.988198
 20
558.164267
 30
0.0
 10
531.898227
 20
552.902958
 30
0.0
 10
540.022061
 20
554.536640
 30
0.0
  0
SPLINE
  5
2a6
100
AcDbEntity
  8
Layer_1
 62
7
100
AcDbSpline
 70
8
 71
3
 72
8
 73
4
 74
0
 40
0
 40
0
 40
0
 40
0
 40
1
 40
1
 40
1
 40
1
 10
540.022061
 20
554.536640
 30
0.0
 10
548.145895
 20
556.170321
 30
0.0
 10
553.407203
 20
564.080350
 30
0.0
 10
551.773522
 20
572.204184
 30
0.0
  0
SPLINE
  5
2a7
100
AcDbEntity
  8
Layer_1
 62
7
100
AcDbSpline
 70
8
 71
3
 72
8
 73
4
 74
0
 40
0
 40
0
 40
0
 40
0
 40
1
 40
1
 40
1
 40
1
 10
551.773522
 20
572.204184
 30
0.0
 10
550.139840
 20
580.328018
 30
0.0
 10
542.229811
 20
585.589326
 30
0.0
 10
534.105978
 20
583.955645
 30
0.0
  0
SPLINE
  5
2a8
100
AcDbEntity
  8
Layer_1
 62
7
100
AcDbSpline
 70
8
 71
3
 72
8
 73
4
 74
0
 40
0
 40
0
 40
0
 40
0
 40
1
 40
1
 40
1
 40
1
 10
534.105978
 20
583.955645
 30
0.0
 10
530.204775
 20
583.171123
 30
0.0
 10
526.775005
 20
580.868987
 30
0.0
 10
524.571179
 20
577.555680
 30
0.0
  0
SPLINE
  5
2a9
100
AcDbEntity
  8
Layer_1
 62
7
100
AcDbSpline
 70
8
 71
3
 72
8
 73
4
 74
0
 40
0
 40
0
 40
0
 40
0
 40
1
 40
1
 40
1
 40
1
 10
524.571179
 20
577.555680
 30
0.0
 10
522.367353
 20
574.242372
 30
0.0
 10
521.569995
 20
570.189303
 30
0.0
 10
522.354517
 20
566.288100
 30
0.0
  0
LWPOLYLINE
  5
2aa
100
AcDbEntity
  8
Layer_1
 62
7
100
AcDbPolyline
 90
1
 70
1
 10
558.825318
 20
449.969942
 30
0.0
  0
SPLINE
  5
2ab
100
AcDbEntity
  8
Layer_1
 62
7
100
AcDbSpline
 70
8
 71
3
 72
8
 73
4
 74
0
 40
0
 40
0
 40
0
 40
0
 40
1
 40
1
 40
1
 40
1
 10
510.561058
 20
687.641648
 30
0.0
 10
510.486377
 20
679.355528
 30
0.0
 10
517.143064
 20
672.577760
 30
0.0
 10
525.429185
 20
672.503079
 30
0.0
  0
SPLINE
  5
2ac
100
AcDbEntity
  8
Layer_1
 62
7
100
AcDbSpline
 70
8
 71
3
 72
8
 73
4
 74
0
 40
0
 40
0
 40
0
 40
0
 40
1
 40
1
 40
1
 40
1
 10
525.429185
 20
672.503079
 30
0.0
 10
533.715305
 20
672.428399
 30
0.0
 10
540.493073
 20
679.085086
 30
0.0
 10
540.567754
 20
687.371206
 30
0.0
  0
SPLINE
  5
2ad
100
AcDbEntity
  8
Layer_1
 62
7
100
AcDbSpline
 70
8
 71
3
 72
8
 73
4
 74
0
 40
0
 40
0
 40
0
 40
0
 40
1
 40
1
 40
1
 40
1
 10
540.567754
 20
687.371206
 30
0.0
 10
540.642434
 20
695.657327
 30
0.0
 10
533.985747
 20
702.435095
 30
0.0
 10
525.699627
 20
702.509775
 30
0.0
  0
SPLINE
  5
2ae
100
AcDbEntity
  8
Layer_1
 62
7
100
AcDbSpline
 70
8
 71
3
 72
8
 73
4
 74
0
 40
0
 40
0
 40
0
 40
0
 40
1
 40
1
 40
1
 40
1
 10
525.699627
 20
702.509775
 30
0.0
 10
521.720491
 20
702.545638
 30
0.0
 10
517.890085
 20
700.999327
 30
0.0
 10
515.051052
 20
698.211012
 30
0.0
  0
SPLINE
  5
2af
100
AcDbEntity
  8
Layer_1
 62
7
100
AcDbSpline
 70
8
 71
3
 72
8
 73
4
 74
0
 40
0
 40
0
 40
0
 40
0
 40
1
 40
1
 40
1
 40
1
 10
515.051052
 20
698.211012
 30
0.0
 10
512.212020
 20
695.422697
 30
0.0
 10
510.596921
 20
691.620783
 30
0.0
 10
510.561058
 20
687.641648
 30
0.0
  0
LWPOLYLINE
  5
2b0
100
AcDbEntity
  8
Layer_1
 62
7
100
AcDbPolyline
 90
1
 70
1
 10
522.354517
 20
566.288100
 30
0.0
  0
SPLINE
  5
2b1
100
AcDbEntity
  8
Layer_1
 62
7
100
AcDbSpline
 70
8
 71
3
 72
8
 73
4
 74
0
 40
0
 40
0
 40
0
 40
0
 40
1
 40
1
 40
1
 40
1
 10
524.031249
 20
808.732086
 30
0.0
 10
522.302331
 20
800.628007
 30
0.0
 10
527.470421
 20
792.656787
 30
0.0
 10
535.574501
 20
790.927870
 30
0.0
  0
SPLINE
  5
2b2
100
AcDbEntity
  8
Layer_1
 62
7
100
AcDbSpline
 70
8
 71
3
 72
8
 73
4
 74
0
 40
0
 40
0
 40
0
 40
0
 40
1
 40
1
 40
1
 40
1
 10
535.574501
 20
790.927870
 30
0.0
 10
543.678581
 20
789.198952
 30
0.0
 10
551.649800
 20
794.367042
 30
0.0
 10
553.378718
 20
802.471122
 30
0.0
  0
SPLINE
  5
2b3
100
AcDbEntity
  8
Layer_1
 62
7
100
AcDbSpline
 70
8
 71
3
 72
8
 73
4
 74
0
 40
0
 40
0
 40
0
 40
0
 40
1
 40
1
 40
1
 40
1
 10
553.378718
 20
802.471122
 30
0.0
 10
555.107635
 20
810.575201
 30
0.0
 10
549.939545
 20
818.546421
 30
0.0
 10
541.835466
 20
820.275338
 30
0.0
  0
SPLINE
  5
2b4
100
AcDbEntity
  8
Layer_1
 62
7
100
AcDbSpline
 70
8
 71
3
 72
8
 73
4
 74
0
 40
0
 40
0
 40
0
 40
0
 40
1
 40
1
 40
1
 40
1
 10
541.835466
 20
820.275338
 30
0.0
 10
537.943749
 20
821.105594
 30
0.0
 10
533.881610
 20
820.355866
 30
0.0
 10
530.542671
 20
818.191087
 30
0.0
  0
SPLINE
  5
2b5
100
AcDbEntity
  8
Layer_1
 62
7
100
AcDbSpline
 70
8
 71
3
 72
8
 73
4
 74
0
 40
0
 40
0
 40
0
 40
0
 40
1
 40
1
 40
1
 40
1
 10
530.542671
 20
818.191087
 30
0.0
 10
527.203733
 20
816.026307
 30
0.0
 10
524.861504
 20
812.623803
 30
0.0
 10
524.031249
 20
808.732086
 30
0.0
  0
LWPOLYLINE
  5
2b6
100
AcDbEntity
  8
Layer_1
 62
7
100
AcDbPolyline
 90
1
 70
1
 10
510.561058
 20
687.641648
 30
0.0
  0
SPLINE
  5
2b7
100
AcDbEntity
  8
Layer_1
 62
7
100
AcDbSpline
 70
8
 71
3
 72
8
 73
4
 74
0
 40
0
 40
0
 40
0
 40
0
 40
1
 40
1
 40
1
 40
1
 10
562.155779
 20
924.653792
 30
0.0
 10
558.748533
 20
917.100240
 30
0.0
 10
562.109777
 20
908.214758
 30
0.0
 10
569.663328
 20
904.807512
 30
0.0
  0
SPLINE
  5
2b8
100
AcDbEntity
  8
Layer_1
 62
7
100
AcDbSpline
 70
8
 71
3
 72
8
 73
4
 74
0
 40
0
 40
0
 40
0
 40
0
 40
1
 40
1
 40
1
 40
1
 10
569.663328
 20
904.807512
 30
0.0
 10
577.216880
 20
901.400265
 30
0.0
 10
586.102362
 20
904.761510
 30
0.0
 10
589.509609
 20
912.315061
 30
0.0
  0
SPLINE
  5
2b9
100
AcDbEntity
  8
Layer_1
 62
7
100
AcDbSpline
 70
8
 71
3
 72
8
 73
4
 74
0
 40
0
 40
0
 40
0
 40
0
 40
1
 40
1
 40
1
 40
1
 10
589.509609
 20
912.315061
 30
0.0
 10
592.916855
 20
919.868612
 30
0.0
 10
589.555611
 20
928.754095
 30
0.0
 10
582.002059
 20
932.161341
 30
0.0
  0
SPLINE
  5
2ba
100
AcDbEntity
  8
Layer_1
 62
7
100
AcDbSpline
 70
8
 71
3
 72
8
 73
4
 74
0
 40
0
 40
0
 40
0
 40
0
 40
1
 40
1
 40
1
 40
1
 10
582.002059
 20
932.161341
 30
0.0
 10
578.374716
 20
933.797559
 30
0.0
 10
574.245954
 20
933.925804
 30
0.0
 10
570.524055
 20
932.517866
 30
0.0
  0
SPLINE
  5
2bb
100
AcDbEntity
  8
Layer_1
 62
7
100
AcDbSpline
 70
8
 71
3
 72
8
 73
4
 74
0
 40
0
 40
0
 40
0
 40
0
 40
1
 40
1
 40
1
 40
1
 10
570.524055
 20
932.517866
 30
0.0
 10
566.802155
 20
931.109927
 30
0.0
 10
563.791997
 20
928.281135
 30
0.0
 10
562.155779
 20
924.653792
 30
0.0
  0
LWPOLYLINE
  5
2bc
100
AcDbEntity
  8
Layer_1
 62
7
100
AcDbPolyline
 90
1
 70
1
 10
524.031249
 20
808.732086
 30
0.0
  0
SPLINE
  5
2bd
100
AcDbEntity
  8
Layer_1
 62
7
100
AcDbSpline
 70
8
 71
3
 72
8
 73
4
 74
0
 40
0
 40
0
 40
0
 40
0
 40
1
 40
1
 40
1
 40
1
 10
623.203950
 20
1030.083357
 30
0.0
 10
618.361033
 20
1023.359391
 30
0.0
 10
619.885924
 20
1013.982580
 30
0.0
 10
626.609890
 20
1009.139662
 30
0.0
  0
SPLINE
  5
2be
100
AcDbEntity
  8
Layer_1
 62
7
100
AcDbSpline
 70
8
 71
3
 72
8
 73
4
 74
0
 40
0
 40
0
 40
0
 40
0
 40
1
 40
1
 40
1
 40
1
 10
626.609890
 20
1009.139662
 30
0.0
 10
633.333856
 20
1004.296745
 30
0.0
 10
642.710667
 20
1005.821636
 30
0.0
 10
647.553585
 20
1012.545602
 30
0.0
  0
SPLINE
  5
2bf
100
AcDbEntity
  8
Layer_1
 62
7
100
AcDbSpline
 70
8
 71
3
 72
8
 73
4
 74
0
 40
0
 40
0
 40
0
 40
0
 40
1
 40
1
 40
1
 40
1
 10
647.553585
 20
1012.545602
 30
0.0
 10
652.396502
 20
1019.269568
 30
0.0
 10
650.871611
 20
1028.646379
 30
0.0
 10
644.147645
 20
1033.489297
 30
0.0
  0
SPLINE
  5
2c0
100
AcDbEntity
  8
Layer_1
 62
7
100
AcDbSpline
 70
8
 71
3
 72
8
 73
4
 74
0
 40
0
 40
0
 40
0
 40
0
 40
1
 40
1
 40
1
 40
1
 10
644.147645
 20
1033.489297
 30
0.0
 10
640.918683
 20
1035.814948
 30
0.0
 10
636.898109
 20
1036.762646
 30
0.0
 10
632.970404
 20
1036.123908
 30
0.0
  0
SPLINE
  5
2c1
100
AcDbEntity
  8
Layer_1
 62
7
100
AcDbSpline
 70
8
 71
3
 72
8
 73
4
 74
0
 40
0
 40
0
 40
0
 40
0
 40
1
 40
1
 40
1
 40
1
 10
632.970404
 20
1036.123908
 30
0.0
 10
629.042700
 20
1035.485171
 30
0.0
 10
625.529601
 20
1033.312319
 30
0.0
 10
623.203950
 20
1030.083357
 30
0.0
  0
LWPOLYLINE
  5
2c2
100
AcDbEntity
  8
Layer_1
 62
7
100
AcDbPolyline
 90
1
 70
1
 10
562.155779
 20
924.653792
 30
0.0
  0
SPLINE
  5
2c3
100
AcDbEntity
  8
Layer_1
 62
7
100
AcDbSpline
 70
8
 71
3
 72
8
 73
4
 74
0
 40
0
 40
0
 40
0
 40
0
 40
1
 40
1
 40
1
 40
1
 10
704.838012
 20
1120.840331
 30
0.0
 10
698.662843
 20
1115.314701
 30
0.0
 10
698.136286
 20
1105.829329
 30
0.0
 10
703.661916
 20
1099.654160
 30
0.0
  0
SPLINE
  5
2c4
100
AcDbEntity
  8
Layer_1
 62
7
100
AcDbSpline
 70
8
 71
3
 72
8
 73
4
 74
0
 40
0
 40
0
 40
0
 40
0
 40
1
 40
1
 40
1
 40
1
 10
703.661916
 20
1099.654160
 30
0.0
 10
709.187545
 20
1093.478990
 30
0.0
 10
718.672917
 20
1092.952434
 30
0.0
 10
724.848087
 20
1098.478063
 30
0.0
  0
SPLINE
  5
2c5
100
AcDbEntity
  8
Layer_1
 62
7
100
AcDbSpline
 70
8
 71
3
 72
8
 73
4
 74
0
 40
0
 40
0
 40
0
 40
0
 40
1
 40
1
 40
1
 40
1
 10
724.848087
 20
1098.478063
 30
0.0
 10
731.023257
 20
1104.003693
 30
0.0
 10
731.549813
 20
1113.489065
 30
0.0
 10
726.024183
 20
1119.664234
 30
0.0
  0
SPLINE
  5
2c6
100
AcDbEntity
  8
Layer_1
 62
7
100
AcDbSpline
 70
8
 71
3
 72
8
 73
4
 74
0
 40
0
 40
0
 40
0
 40
0
 40
1
 40
1
 40
1
 40
1
 10
726.024183
 20
1119.664234
 30
0.0
 10
723.370683
 20
1122.629655
 30
0.0
 10
719.647853
 20
1124.419521
 30
0.0
 10
715.674675
 20
1124.640082
 30
0.0
  0
SPLINE
  5
2c7
100
AcDbEntity
  8
Layer_1
 62
7
100
AcDbSpline
 70
8
 71
3
 72
8
 73
4
 74
0
 40
0
 40
0
 40
0
 40
0
 40
1
 40
1
 40
1
 40
1
 10
715.674675
 20
1124.640082
 30
0.0
 10
711.701498
 20
1124.860643
 30
0.0
 10
707.803433
 20
1123.493832
 30
0.0
 10
704.838012
 20
1120.840331
 30
0.0
  0
LWPOLYLINE
  5
2c8
100
AcDbEntity
  8
Layer_1
 62
7
100
AcDbPolyline
 90
1
 70
1
 10
623.203950
 20
1030.083357
 30
0.0
  0
SPLINE
  5
2c9
100
AcDbEntity
  8
Layer_1
 62
7
100
AcDbSpline
 70
8
 71
3
 72
8
 73
4
 74
0
 40
0
 40
0
 40
0
 40
0
 40
1
 40
1
 40
1
 40
1
 10
803.255443
 20
1192.771941
 30
0.0
 10
796.083161
 20
1188.621778
 30
0.0
 10
793.633251
 20
1179.443122
 30
0.0
 10
797.783414
 20
1172.270841
 30
0.0
  0
SPLINE
  5
2ca
100
AcDbEntity
  8
Layer_1
 62
7
100
AcDbSpline
 70
8
 71
3
 72
8
 73
4
 74
0
 40
0
 40
0
 40
0
 40
0
 40
1
 40
1
 40
1
 40
1
 10
797.783414
 20
1172.270841
 30
0.0
 10
801.933578
 20
1165.098559
 30
0.0
 10
811.112233
 20
1162.648649
 30
0.0
 10
818.284515
 20
1166.798813
 30
0.0
  0
SPLINE
  5
2cb
100
AcDbEntity
  8
Layer_1
 62
7
100
AcDbSpline
 70
8
 71
3
 72
8
 73
4
 74
0
 40
0
 40
0
 40
0
 40
0
 40
1
 40
1
 40
1
 40
1
 10
818.284515
 20
1166.798813
 30
0.0
 10
825.456796
 20
1170.948976
 30
0.0
 10
827.906707
 20
1180.127632
 30
0.0
 10
823.756543
 20
1187.299913
 30
0.0
  0
SPLINE
  5
2cc
100
AcDbEntity
  8
Layer_1
 62
7
100
AcDbSpline
 70
8
 71
3
 72
8
 73
4
 74
0
 40
0
 40
0
 40
0
 40
0
 40
1
 40
1
 40
1
 40
1
 10
823.756543
 20
1187.299913
 30
0.0
 10
821.763564
 20
1190.744164
 30
0.0
 10
818.483989
 20
1193.255640
 30
0.0
 10
814.639287
 20
1194.281844
 30
0.0
  0
SPLINE
  5
2cd
100
AcDbEntity
  8
Layer_1
 62
7
100
AcDbSpline
 70
8
 71
3
 72
8
 73
4
 74
0
 40
0
 40
0
 40
0
 40
0
 40
1
 40
1
 40
1
 40
1
 10
814.639287
 20
1194.281844
 30
0.0
 10
810.794585
 20
1195.308049
 30
0.0
 10
806.699694
 20
1194.764920
 30
0.0
 10
803.255443
 20
1192.771941
 30
0.0
  0
LWPOLYLINE
  5
2ce
100
AcDbEntity
  8
Layer_1
 62
7
100
AcDbPolyline
 90
1
 70
1
 10
704.838012
 20
1120.840331
 30
0.0
  0
SPLINE
  5
2cf
100
AcDbEntity
  8
Layer_1
 62
7
100
AcDbSpline
 70
8
 71
3
 72
8
 73
4
 74
0
 40
0
 40
0
 40
0
 40
0
 40
1
 40
1
 40
1
 40
1
 10
914.371795
 20
1242.964060
 30
0.0
 10
906.499634
 20
1240.376708
 30
0.0
 10
902.215450
 20
1231.897598
 30
0.0
 10
904.802802
 20
1224.025437
 30
0.0
  0
SPLINE
  5
2d0
100
AcDbEntity
  8
Layer_1
 62
7
100
AcDbSpline
 70
8
 71
3
 72
8
 73
4
 74
0
 40
0
 40
0
 40
0
 40
0
 40
1
 40
1
 40
1
 40
1
 10
904.802802
 20
1224.025437
 30
0.0
 10
907.390153
 20
1216.153277
 30
0.0
 10
915.869263
 20
1211.869093
 30
0.0
 10
923.741424
 20
1214.456444
 30
0.0
  0
SPLINE
  5
2d1
100
AcDbEntity
  8
Layer_1
 62
7
100
AcDbSpline
 70
8
 71
3
 72
8
 73
4
 74
0
 40
0
 40
0
 40
0
 40
0
 40
1
 40
1
 40
1
 40
1
 10
923.741424
 20
1214.456444
 30
0.0
 10
931.613585
 20
1217.043796
 30
0.0
 10
935.897769
 20
1225.522906
 30
0.0
 10
933.310417
 20
1233.395067
 30
0.0
  0
SPLINE
  5
2d2
100
AcDbEntity
  8
Layer_1
 62
7
100
AcDbSpline
 70
8
 71
3
 72
8
 73
4
 74
0
 40
0
 40
0
 40
0
 40
0
 40
1
 40
1
 40
1
 40
1
 10
933.310417
 20
1233.395067
 30
0.0
 10
932.067927
 20
1237.175411
 30
0.0
 10
929.374590
 20
1240.307346
 30
0.0
 10
925.822909
 20
1242.101880
 30
0.0
  0
SPLINE
  5
2d3
100
AcDbEntity
  8
Layer_1
 62
7
100
AcDbSpline
 70
8
 71
3
 72
8
 73
4
 74
0
 40
0
 40
0
 40
0
 40
0
 40
1
 40
1
 40
1
 40
1
 10
925.822909
 20
1242.101880
 30
0.0
 10
922.271229
 20
1243.896415
 30
0.0
 10
918.152140
 20
1244.206550
 30
0.0
 10
914.371795
 20
1242.964060
 30
0.0
  0
LWPOLYLINE
  5
2d4
100
AcDbEntity
  8
Layer_1
 62
7
100
AcDbPolyline
 90
1
 70
1
 10
803.255443
 20
1192.771941
 30
0.0
  0
SPLINE
  5
2d5
100
AcDbEntity
  8
Layer_1
 62
7
100
AcDbSpline
 70
8
 71
3
 72
8
 73
4
 74
0
 40
0
 40
0
 40
0
 40
0
 40
1
 40
1
 40
1
 40
1
 10
1033.358186
 20
1269.152412
 30
0.0
 10
1025.128303
 20
1268.185690
 30
0.0
 10
1019.240347
 20
1260.730368
 30
0.0
 10
1020.207069
 20
1252.500485
 30
0.0
  0
SPLINE
  5
2d6
100
AcDbEntity
  8
Layer_1
 62
7
100
AcDbSpline
 70
8
 71
3
 72
8
 73
4
 74
0
 40
0
 40
0
 40
0
 40
0
 40
1
 40
1
 40
1
 40
1
 10
1020.207069
 20
1252.500485
 30
0.0
 10
1021.173791
 20
1244.270601
 30
0.0
 10
1028.629113
 20
1238.382646
 30
0.0
 10
1036.858997
 20
1239.349368
 30
0.0
  0
SPLINE
  5
2d7
100
AcDbEntity
  8
Layer_1
 62
7
100
AcDbSpline
 70
8
 71
3
 72
8
 73
4
 74
0
 40
0
 40
0
 40
0
 40
0
 40
1
 40
1
 40
1
 40
1
 10
1036.858997
 20
1239.349368
 30
0.0
 10
1045.088880
 20
1240.316090
 30
0.0
 10
1050.976836
 20
1247.771412
 30
0.0
 10
1050.010114
 20
1256.001295
 30
0.0
  0
SPLINE
  5
2d8
100
AcDbEntity
  8
Layer_1
 62
7
100
AcDbSpline
 70
8
 71
3
 72
8
 73
4
 74
0
 40
0
 40
0
 40
0
 40
0
 40
1
 40
1
 40
1
 40
1
 10
1050.010114
 20
1256.001295
 30
0.0
 10
1049.545877
 20
1259.953424
 30
0.0
 10
1047.530678
 20
1263.559268
 30
0.0
 10
1044.407836
 20
1266.025581
 30
0.0
  0
SPLINE
  5
2d9
100
AcDbEntity
  8
Layer_1
 62
7
100
AcDbSpline
 70
8
 71
3
 72
8
 73
4
 74
0
 40
0
 40
0
 40
0
 40
0
 40
1
 40
1
 40
1
 40
1
 10
1044.407836
 20
1266.025581
 30
0.0
 10
1041.284993
 20
1268.491894
 30
0.0
 10
1037.310316
 20
1269.616648
 30
0.0
 10
1033.358186
 20
1269.152412
 30
0.0
  0
LWPOLYLINE
  5
2da
100
AcDbEntity
  8
Layer_1
 62
7
100
AcDbPolyline
 90
1
 70
1
 10
914.371795
 20
1242.964060
 30
0.0
  0
SPLINE
  5
2db
100
AcDbEntity
  8
Layer_1
 62
7
100
AcDbSpline
 70
8
 71
3
 72
8
 73
4
 74
0
 40
0
 40
0
 40
0
 40
0
 40
1
 40
1
 40
1
 40
1
 10
1155.379254
 20
1270.320807
 30
0.0
 10
1147.131480
 20
1271.120540
 30
0.0
 10
1139.797026
 20
1265.082709
 30
0.0
 10
1138.997293
 20
1256.834935
 30
0.0
  0
SPLINE
  5
2dc
100
AcDbEntity
  8
Layer_1
 62
7
100
AcDbSpline
 70
8
 71
3
 72
8
 73
4
 74
0
 40
0
 40
0
 40
0
 40
0
 40
1
 40
1
 40
1
 40
1
 10
1138.997293
 20
1256.834935
 30
0.0
 10
1138.197561
 20
1248.587161
 30
0.0
 10
1144.235391
 20
1241.252708
 30
0.0
 10
1152.483165
 20
1240.452975
 30
0.0
  0
SPLINE
  5
2dd
100
AcDbEntity
  8
Layer_1
 62
7
100
AcDbSpline
 70
8
 71
3
 72
8
 73
4
 74
0
 40
0
 40
0
 40
0
 40
0
 40
1
 40
1
 40
1
 40
1
 10
1152.483165
 20
1240.452975
 30
0.0
 10
1160.730939
 20
1239.653242
 30
0.0
 10
1168.065392
 20
1245.691073
 30
0.0
 10
1168.865125
 20
1253.938847
 30
0.0
  0
SPLINE
  5
2de
100
AcDbEntity
  8
Layer_1
 62
7
100
AcDbSpline
 70
8
 71
3
 72
8
 73
4
 74
0
 40
0
 40
0
 40
0
 40
0
 40
1
 40
1
 40
1
 40
1
 10
1168.865125
 20
1253.938847
 30
0.0
 10
1169.249170
 20
1257.899567
 30
0.0
 10
1168.044096
 20
1261.850629
 30
0.0
 10
1165.515005
 20
1264.922842
 30
0.0
  0
SPLINE
  5
2df
100
AcDbEntity
  8
Layer_1
 62
7
100
AcDbSpline
 70
8
 71
3
 72
8
 73
4
 74
0
 40
0
 40
0
 40
0
 40
0
 40
1
 40
1
 40
1
 40
1
 10
1165.515005
 20
1264.922842
 30
0.0
 10
1162.985913
 20
1267.995056
 30
0.0
 10
1159.339974
 20
1269.936762
 30
0.0
 10
1155.379254
 20
1270.320807
 30
0.0
  0
LWPOLYLINE
  5
2e0
100
AcDbEntity
  8
Layer_1
 62
7
100
AcDbPolyline
 90
1
 70
1
 10
1033.358186
 20
1269.152412
 30
0.0
  0
SPLINE
  5
2e1
100
AcDbEntity
  8
Layer_1
 62
7
100
AcDbSpline
 70
8
 71
3
 72
8
 73
4
 74
0
 40
0
 40
0
 40
0
 40
0
 40
1
 40
1
 40
1
 40
1
 10
1274.847182
 20
1246.425933
 30
0.0
 10
1266.925099
 20
1248.856173
 30
0.0
 10
1258.532883
 20
1244.404154
 30
0.0
 10
1256.102644
 20
1236.482071
 30
0.0
  0
SPLINE
  5
2e2
100
AcDbEntity
  8
Layer_1
 62
7
100
AcDbSpline
 70
8
 71
3
 72
8
 73
4
 74
0
 40
0
 40
0
 40
0
 40
0
 40
1
 40
1
 40
1
 40
1
 10
1256.102644
 20
1236.482071
 30
0.0
 10
1253.672404
 20
1228.559988
 30
0.0
 10
1258.124423
 20
1220.167772
 30
0.0
 10
1266.046506
 20
1217.737533
 30
0.0
  0
SPLINE
  5
2e3
100
AcDbEntity
  8
Layer_1
 62
7
100
AcDbSpline
 70
8
 71
3
 72
8
 73
4
 74
0
 40
0
 40
0
 40
0
 40
0
 40
1
 40
1
 40
1
 40
1
 10
1266.046506
 20
1217.737533
 30
0.0
 10
1273.968589
 20
1215.307293
 30
0.0
 10
1282.360805
 20
1219.759312
 30
0.0
 10
1284.791044
 20
1227.681395
 30
0.0
  0
SPLINE
  5
2e4
100
AcDbEntity
  8
Layer_1
 62
7
100
AcDbSpline
 70
8
 71
3
 72
8
 73
4
 74
0
 40
0
 40
0
 40
0
 40
0
 40
1
 40
1
 40
1
 40
1
 10
1284.791044
 20
1227.681395
 30
0.0
 10
1285.958086
 20
1231.485714
 30
0.0
 10
1285.566070
 20
1235.597823
 30
0.0
 10
1283.701234
 20
1239.113106
 30
0.0
  0
SPLINE
  5
2e5
100
AcDbEntity
  8
Layer_1
 62
7
100
AcDbSpline
 70
8
 71
3
 72
8
 73
4
 74
0
 40
0
 40
0
 40
0
 40
0
 40
1
 40
1
 40
1
 40
1
 10
1283.701234
 20
1239.113106
 30
0.0
 10
1281.836398
 20
1242.628388
 30
0.0
 10
1278.651500
 20
1245.258891
 30
0.0
 10
1274.847182
 20
1246.425933
 30
0.0
  0
LWPOLYLINE
  5
2e6
100
AcDbEntity
  8
Layer_1
 62
7
100
AcDbPolyline
 90
1
 70
1
 10
1155.379254
 20
1270.320807
 30
0.0
  0
SPLINE
  5
2e7
100
AcDbEntity
  8
Layer_1
 62
7
100
AcDbSpline
 70
8
 71
3
 72
8
 73
4
 74
0
 40
0
 40
0
 40
0
 40
0
 40
1
 40
1
 40
1
 40
1
 10
1386.918133
 20
1198.382229
 30
0.0
 10
1379.665892
 20
1202.391001
 30
0.0
 10
1370.537038
 20
1199.761649
 30
0.0
 10
1366.528266
 20
1192.509409
 30
0.0
  0
SPLINE
  5
2e8
100
AcDbEntity
  8
Layer_1
 62
7
100
AcDbSpline
 70
8
 71
3
 72
8
 73
4
 74
0
 40
0
 40
0
 40
0
 40
0
 40
1
 40
1
 40
1
 40
1
 10
1366.528266
 20
1192.509409
 30
0.0
 10
1362.519495
 20
1185.257168
 30
0.0
 10
1365.148846
 20
1176.128314
 30
0.0
 10
1372.401087
 20
1172.119542
 30
0.0
  0
SPLINE
  5
2e9
100
AcDbEntity
  8
Layer_1
 62
7
100
AcDbSpline
 70
8
 71
3
 72
8
 73
4
 74
0
 40
0
 40
0
 40
0
 40
0
 40
1
 40
1
 40
1
 40
1
 10
1372.401087
 20
1172.119542
 30
0.0
 10
1379.653327
 20
1168.110771
 30
0.0
 10
1388.782181
 20
1170.740122
 30
0.0
 10
1392.790953
 20
1177.992363
 30
0.0
  0
SPLINE
  5
2ea
100
AcDbEntity
  8
Layer_1
 62
7
100
AcDbSpline
 70
8
 71
3
 72
8
 73
4
 74
0
 40
0
 40
0
 40
0
 40
0
 40
1
 40
1
 40
1
 40
1
 10
1392.790953
 20
1177.992363
 30
0.0
 10
1394.716033
 20
1181.475011
 30
0.0
 10
1395.178790
 20
1185.579755
 30
0.0
 10
1394.077422
 20
1189.403597
 30
0.0
  0
SPLINE
  5
2eb
100
AcDbEntity
  8
Layer_1
 62
7
100
AcDbSpline
 70
8
 71
3
 72
8
 73
4
 74
0
 40
0
 40
0
 40
0
 40
0
 40
1
 40
1
 40
1
 40
1
 10
1394.077422
 20
1189.403597
 30
0.0
 10
1392.976055
 20
1193.227438
 30
0.0
 10
1390.400781
 20
1196.457149
 30
0.0
 10
1386.918133
 20
1198.382229
 30
0.0
  0
LWPOLYLINE
  5
2ec
100
AcDbEntity
  8
Layer_1
 62
7
100
AcDbPolyline
 90
1
 70
1
 10
1274.847182
 20
1246.425933
 30
0.0
  0
SPLINE
  5
2ed
100
AcDbEntity
  8
Layer_1
 62
7
100
AcDbSpline
 70
8
 71
3
 72
8
 73
4
 74
0
 40
0
 40
0
 40
0
 40
0
 40
1
 40
1
 40
1
 40
1
 10
1486.804171
 20
1128.243900
 30
0.0
 10
1480.575198
 20
1133.708821
 30
0.0
 10
1471.095425
 20
1133.089434
 30
0.0
 10
1465.630505
 20
1126.860461
 30
0.0
  0
SPLINE
  5
2ee
100
AcDbEntity
  8
Layer_1
 62
7
100
AcDbSpline
 70
8
 71
3
 72
8
 73
4
 74
0
 40
0
 40
0
 40
0
 40
0
 40
1
 40
1
 40
1
 40
1
 10
1465.630505
 20
1126.860461
 30
0.0
 10
1460.165585
 20
1120.631488
 30
0.0
 10
1460.784972
 20
1111.151715
 30
0.0
 10
1467.013945
 20
1105.686795
 30
0.0
  0
SPLINE
  5
2ef
100
AcDbEntity
  8
Layer_1
 62
7
100
AcDbSpline
 70
8
 71
3
 72
8
 73
4
 74
0
 40
0
 40
0
 40
0
 40
0
 40
1
 40
1
 40
1
 40
1
 10
1467.013945
 20
1105.686795
 30
0.0
 10
1473.242917
 20
1100.221875
 30
0.0
 10
1482.722691
 20
1100.841262
 30
0.0
 10
1488.187611
 20
1107.070234
 30
0.0
  0
SPLINE
  5
2f0
100
AcDbEntity
  8
Layer_1
 62
7
100
AcDbSpline
 70
8
 71
3
 72
8
 73
4
 74
0
 40
0
 40
0
 40
0
 40
0
 40
1
 40
1
 40
1
 40
1
 10
1488.187611
 20
1107.070234
 30
0.0
 10
1490.811958
 20
1110.061493
 30
0.0
 10
1492.140546
 20
1113.972755
 30
0.0
 10
1491.881101
 20
1117.943587
 30
0.0
  0
SPLINE
  5
2f1
100
AcDbEntity
  8
Layer_1
 62
7
100
AcDbSpline
 70
8
 71
3
 72
8
 73
4
 74
0
 40
0
 40
0
 40
0
 40
0
 40
1
 40
1
 40
1
 40
1
 10
1491.881101
 20
1117.943587
 30
0.0
 10
1491.621655
 20
1121.914420
 30
0.0
 10
1489.795429
 20
1125.619553
 30
0.0
 10
1486.804171
 20
1128.243900
 30
0.0
  0
LWPOLYLINE
  5
2f2
100
AcDbEntity
  8
Layer_1
 62
7
100
AcDbPolyline
 90
1
 70
1
 10
1386.918133
 20
1198.382229
 30
0.0
  0
SPLINE
  5
2f3
100
AcDbEntity
  8
Layer_1
 62
7
100
AcDbSpline
 70
8
 71
3
 72
8
 73
4
 74
0
 40
0
 40
0
 40
0
 40
0
 40
1
 40
1
 40
1
 40
1
 10
1570.053035
 20
1039.170320
 30
0.0
 10
1565.077671
 20
1045.796875
 30
0.0
 10
1555.672457
 20
1047.135429
 30
0.0
 10
1549.045903
 20
1042.160065
 30
0.0
  0
SPLINE
  5
2f4
100
AcDbEntity
  8
Layer_1
 62
7
100
AcDbSpline
 70
8
 71
3
 72
8
 73
4
 74
0
 40
0
 40
0
 40
0
 40
0
 40
1
 40
1
 40
1
 40
1
 10
1549.045903
 20
1042.160065
 30
0.0
 10
1542.419348
 20
1037.184701
 30
0.0
 10
1541.080794
 20
1027.779487
 30
0.0
 10
1546.056158
 20
1021.152932
 30
0.0
  0
SPLINE
  5
2f5
100
AcDbEntity
  8
Layer_1
 62
7
100
AcDbSpline
 70
8
 71
3
 72
8
 73
4
 74
0
 40
0
 40
0
 40
0
 40
0
 40
1
 40
1
 40
1
 40
1
 10
1546.056158
 20
1021.152932
 30
0.0
 10
1551.031522
 20
1014.526378
 30
0.0
 10
1560.436736
 20
1013.187823
 30
0.0
 10
1567.063290
 20
1018.163188
 30
0.0
  0
SPLINE
  5
2f6
100
AcDbEntity
  8
Layer_1
 62
7
100
AcDbSpline
 70
8
 71
3
 72
8
 73
4
 74
0
 40
0
 40
0
 40
0
 40
0
 40
1
 40
1
 40
1
 40
1
 10
1567.063290
 20
1018.163188
 30
0.0
 10
1570.245474
 20
1020.552442
 30
0.0
 10
1572.348197
 20
1024.107956
 30
0.0
 10
1572.908882
 20
1028.047558
 30
0.0
  0
SPLINE
  5
2f7
100
AcDbEntity
  8
Layer_1
 62
7
100
AcDbSpline
 70
8
 71
3
 72
8
 73
4
 74
0
 40
0
 40
0
 40
0
 40
0
 40
1
 40
1
 40
1
 40
1
 10
1572.908882
 20
1028.047558
 30
0.0
 10
1573.469568
 20
1031.987159
 30
0.0
 10
1572.442289
 20
1035.988136
 30
0.0
 10
1570.053035
 20
1039.170320
 30
0.0
  0
LWPOLYLINE
  5
2f8
100
AcDbEntity
  8
Layer_1
 62
7
100
AcDbPolyline
 90
1
 70
1
 10
1486.804171
 20
1128.243900
 30
0.0
  0
SPLINE
  5
2f9
100
AcDbEntity
  8
Layer_1
 62
7
100
AcDbSpline
 70
8
 71
3
 72
8
 73
4
 74
0
 40
0
 40
0
 40
0
 40
0
 40
1
 40
1
 40
1
 40
1
 10
1633.108757
 20
934.939813
 30
0.0
 10
1629.549529
 20
942.422943
 30
0.0
 10
1620.597929
 20
945.603893
 30
0.0
 10
1613.114800
 20
942.044665
 30
0.0
  0
SPLINE
  5
2fa
100
AcDbEntity
  8
Layer_1
 62
7
100
AcDbSpline
 70
8
 71
3
 72
8
 73
4
 74
0
 40
0
 40
0
 40
0
 40
0
 40
1
 40
1
 40
1
 40
1
 10
1613.114800
 20
942.044665
 30
0.0
 10
1605.631670
 20
938.485437
 30
0.0
 10
1602.450720
 20
929.533837
 30
0.0
 10
1606.009948
 20
922.050708
 30
0.0
  0
SPLINE
  5
2fb
100
AcDbEntity
  8
Layer_1
 62
7
100
AcDbSpline
 70
8
 71
3
 72
8
 73
4
 74
0
 40
0
 40
0
 40
0
 40
0
 40
1
 40
1
 40
1
 40
1
 10
1606.009948
 20
922.050708
 30
0.0
 10
1609.569176
 20
914.567578
 30
0.0
 10
1618.520776
 20
911.386628
 30
0.0
 10
1626.003905
 20
914.945856
 30
0.0
  0
SPLINE
  5
2fc
100
AcDbEntity
  8
Layer_1
 62
7
100
AcDbSpline
 70
8
 71
3
 72
8
 73
4
 74
0
 40
0
 40
0
 40
0
 40
0
 40
1
 40
1
 40
1
 40
1
 10
1626.003905
 20
914.945856
 30
0.0
 10
1629.597431
 20
916.655058
 30
0.0
 10
1632.364797
 20
919.721777
 30
0.0
 10
1633.697215
 20
923.471372
 30
0.0
  0
SPLINE
  5
2fd
100
AcDbEntity
  8
Layer_1
 62
7
100
AcDbSpline
 70
8
 71
3
 72
8
 73
4
 74
0
 40
0
 40
0
 40
0
 40
0
 40
1
 40
1
 40
1
 40
1
 10
1633.697215
 20
923.471372
 30
0.0
 10
1635.029633
 20
927.220966
 30
0.0
 10
1634.817959
 20
931.346288
 30
0.0
 10
1633.108757
 20
934.939813
 30
0.0
  0
LWPOLYLINE
  5
2fe
100
AcDbEntity
  8
Layer_1
 62
7
100
AcDbPolyline
 90
1
 70
1
 10
1570.053035
 20
1039.170320
 30
0.0
  0
SPLINE
  5
2ff
100
AcDbEntity
  8
Layer_1
 62
7
100
AcDbSpline
 70
8
 71
3
 72
8
 73
4
 74
0
 40
0
 40
0
 40
0
 40
0
 40
1
 40
1
 40
1
 40
1
 10
1673.449828
 20
819.773713
 30
0.0
 10
1671.556669
 20
827.841003
 30
0.0
 10
1663.482129
 20
832.846124
 30
0.0
 10
1655.414839
 20
830.952965
 30
0.0
  0
SPLINE
  5
300
100
AcDbEntity
  8
Layer_1
 62
7
100
AcDbSpline
 70
8
 71
3
 72
8
 73
4
 74
0
 40
0
 40
0
 40
0
 40
0
 40
1
 40
1
 40
1
 40
1
 10
1655.414839
 20
830.952965
 30
0.0
 10
1647.347548
 20
829.059805
 30
0.0
 10
1642.342427
 20
820.985265
 30
0.0
 10
1644.235586
 20
812.917975
 30
0.0
  0
SPLINE
  5
301
100
AcDbEntity
  8
Layer_1
 62
7
100
AcDbSpline
 70
8
 71
3
 72
8
 73
4
 74
0
 40
0
 40
0
 40
0
 40
0
 40
1
 40
1
 40
1
 40
1
 10
1644.235586
 20
812.917975
 30
0.0
 10
1646.128746
 20
804.850684
 30
0.0
 10
1654.203286
 20
799.845563
 30
0.0
 10
1662.270576
 20
801.738723
 30
0.0
  0
SPLINE
  5
302
100
AcDbEntity
  8
Layer_1
 62
7
100
AcDbSpline
 70
8
 71
3
 72
8
 73
4
 74
0
 40
0
 40
0
 40
0
 40
0
 40
1
 40
1
 40
1
 40
1
 10
1662.270576
 20
801.738723
 30
0.0
 10
1666.144626
 20
802.647850
 30
0.0
 10
1669.498855
 20
805.058702
 30
0.0
 10
1671.595371
 20
808.440919
 30
0.0
  0
SPLINE
  5
303
100
AcDbEntity
  8
Layer_1
 62
7
100
AcDbSpline
 70
8
 71
3
 72
8
 73
4
 74
0
 40
0
 40
0
 40
0
 40
0
 40
1
 40
1
 40
1
 40
1
 10
1671.595371
 20
808.440919
 30
0.0
 10
1673.691888
 20
811.823135
 30
0.0
 10
1674.358956
 20
815.899663
 30
0.0
 10
1673.449828
 20
819.773713
 30
0.0
  0
LWPOLYLINE
  5
304
100
AcDbEntity
  8
Layer_1
 62
7
100
AcDbPolyline
 90
1
 70
1
 10
1633.108757
 20
934.939813
 30
0.0
  0
SPLINE
  5
305
100
AcDbEntity
  8
Layer_1
 62
7
100
AcDbSpline
 70
8
 71
3
 72
8
 73
4
 74
0
 40
0
 40
0
 40
0
 40
0
 40
1
 40
1
 40
1
 40
1
 10
1689.254194
 20
698.956815
 30
0.0
 10
1689.014242
 20
707.239800
 30
0.0
 10
1682.105036
 20
713.759966
 30
0.0
 10
1673.822051
 20
713.520014
 30
0.0
  0
SPLINE
  5
306
100
AcDbEntity
  8
Layer_1
 62
7
100
AcDbSpline
 70
8
 71
3
 72
8
 73
4
 74
0
 40
0
 40
0
 40
0
 40
0
 40
1
 40
1
 40
1
 40
1
 10
1673.822051
 20
713.520014
 30
0.0
 10
1665.539066
 20
713.280061
 30
0.0
 10
1659.018900
 20
706.370855
 30
0.0
 10
1659.258852
 20
698.087870
 30
0.0
  0
SPLINE
  5
307
100
AcDbEntity
  8
Layer_1
 62
7
100
AcDbSpline
 70
8
 71
3
 72
8
 73
4
 74
0
 40
0
 40
0
 40
0
 40
0
 40
1
 40
1
 40
1
 40
1
 10
1659.258852
 20
698.087870
 30
0.0
 10
1659.498805
 20
689.804885
 30
0.0
 10
1666.408010
 20
683.284719
 30
0.0
 10
1674.690995
 20
683.524671
 30
0.0
  0
SPLINE
  5
308
100
AcDbEntity
  8
Layer_1
 62
7
100
AcDbSpline
 70
8
 71
3
 72
8
 73
4
 74
0
 40
0
 40
0
 40
0
 40
0
 40
1
 40
1
 40
1
 40
1
 10
1674.690995
 20
683.524671
 30
0.0
 10
1678.668625
 20
683.639901
 30
0.0
 10
1682.437567
 20
685.330517
 30
0.0
 10
1685.168696
 20
688.224606
 30
0.0
  0
SPLINE
  5
309
100
AcDbEntity
  8
Layer_1
 62
7
100
AcDbSpline
 70
8
 71
3
 72
8
 73
4
 74
0
 40
0
 40
0
 40
0
 40
0
 40
1
 40
1
 40
1
 40
1
 10
1685.168696
 20
688.224606
 30
0.0
 10
1687.899826
 20
691.118694
 30
0.0
 10
1689.369424
 20
694.979185
 30
0.0
 10
1689.254194
 20
698.956815
 30
0.0
  0
LWPOLYLINE
  5
30a
100
AcDbEntity
  8
Layer_1
 62
7
100
AcDbPolyline
 90
1
 70
1
 10
1673.449828
 20
819.773713
 30
0.0
  0
SPLINE
  5
30b
100
AcDbEntity
  8
Layer_1
 62
7
100
AcDbSpline
 70
8
 71
3
 72
8
 73
4
 74
0
 40
0
 40
0
 40
0
 40
0
 40
1
 40
1
 40
1
 40
1
 10
1679.795533
 20
577.385613
 30
0.0
 10
1681.269454
 20
585.539944
 30
0.0
 10
1675.853911
 20
593.345185
 30
0.0
 10
1667.699580
 20
594.819105
 30
0.0
  0
SPLINE
  5
30c
100
AcDbEntity
  8
Layer_1
 62
7
100
AcDbSpline
 70
8
 71
3
 72
8
 73
4
 74
0
 40
0
 40
0
 40
0
 40
0
 40
1
 40
1
 40
1
 40
1
 10
1667.699580
 20
594.819105
 30
0.0
 10
1659.545249
 20
596.293026
 30
0.0
 10
1651.740009
 20
590.877483
 30
0.0
 10
1650.266088
 20
582.723152
 30
0.0
  0
SPLINE
  5
30d
100
AcDbEntity
  8
Layer_1
 62
7
100
AcDbSpline
 70
8
 71
3
 72
8
 73
4
 74
0
 40
0
 40
0
 40
0
 40
0
 40
1
 40
1
 40
1
 40
1
 10
1650.266088
 20
582.723152
 30
0.0
 10
1648.792168
 20
574.568821
 30
0.0
 10
1654.207710
 20
566.763581
 30
0.0
 10
1662.362041
 20
565.289660
 30
0.0
  0
SPLINE
  5
30e
100
AcDbEntity
  8
Layer_1
 62
7
100
AcDbSpline
 70
8
 71
3
 72
8
 73
4
 74
0
 40
0
 40
0
 40
0
 40
0
 40
1
 40
1
 40
1
 40
1
 10
1662.362041
 20
565.289660
 30
0.0
 10
1666.277889
 20
564.581859
 30
0.0
 10
1670.314527
 20
565.458611
 30
0.0
 10
1673.583941
 20
567.727042
 30
0.0
  0
SPLINE
  5
30f
100
AcDbEntity
  8
Layer_1
 62
7
100
AcDbSpline
 70
8
 71
3
 72
8
 73
4
 74
0
 40
0
 40
0
 40
0
 40
0
 40
1
 40
1
 40
1
 40
1
 10
1673.583941
 20
567.727042
 30
0.0
 10
1676.853355
 20
569.995474
 30
0.0
 10
1679.087732
 20
573.469765
 30
0.0
 10
1679.795533
 20
577.385613
 30
0.0
  0
LWPOLYLINE
  5
310
100
AcDbEntity
  8
Layer_1
 62
7
100
AcDbPolyline
 90
1
 70
1
 10
1689.254194
 20
698.956815
 30
0.0
  0
SPLINE
  5
311
100
AcDbEntity
  8
Layer_1
 62
7
100
AcDbSpline
 70
8
 71
3
 72
8
 73
4
 74
0
 40
0
 40
0
 40
0
 40
0
 40
1
 40
1
 40
1
 40
1
 10
1645.543145
 20
460.390183
 30
0.0
 10
1648.650024
 20
468.072169
 30
0.0
 10
1644.941167
 20
476.818272
 30
0.0
 10
1637.259180
 20
479.925151
 30
0.0
  0
SPLINE
  5
312
100
AcDbEntity
  8
Layer_1
 62
7
100
AcDbSpline
 70
8
 71
3
 72
8
 73
4
 74
0
 40
0
 40
0
 40
0
 40
0
 40
1
 40
1
 40
1
 40
1
 10
1637.259180
 20
479.925151
 30
0.0
 10
1629.577194
 20
483.032029
 30
0.0
 10
1620.831091
 20
479.323172
 30
0.0
 10
1617.724213
 20
471.641186
 30
0.0
  0
SPLINE
  5
313
100
AcDbEntity
  8
Layer_1
 62
7
100
AcDbSpline
 70
8
 71
3
 72
8
 73
4
 74
0
 40
0
 40
0
 40
0
 40
0
 40
1
 40
1
 40
1
 40
1
 10
1617.724213
 20
471.641186
 30
0.0
 10
1614.617334
 20
463.959200
 30
0.0
 10
1618.326192
 20
455.213097
 30
0.0
 10
1626.008178
 20
452.106218
 30
0.0
  0
SPLINE
  5
314
100
AcDbEntity
  8
Layer_1
 62
7
100
AcDbSpline
 70
8
 71
3
 72
8
 73
4
 74
0
 40
0
 40
0
 40
0
 40
0
 40
1
 40
1
 40
1
 40
1
 10
1626.008178
 20
452.106218
 30
0.0
 10
1629.697198
 20
450.614243
 30
0.0
 10
1633.827810
 20
450.648832
 30
0.0
 10
1637.491327
 20
452.202377
 30
0.0
  0
SPLINE
  5
315
100
AcDbEntity
  8
Layer_1
 62
7
100
AcDbSpline
 70
8
 71
3
 72
8
 73
4
 74
0
 40
0
 40
0
 40
0
 40
0
 40
1
 40
1
 40
1
 40
1
 10
1637.491327
 20
452.202377
 30
0.0
 10
1641.154844
 20
453.755921
 30
0.0
 10
1644.051170
 20
456.701163
 30
0.0
 10
1645.543145
 20
460.390183
 30
0.0
  0
LWPOLYLINE
  5
316
100
AcDbEntity
  8
Layer_1
 62
7
100
AcDbPolyline
 90
1
 70
1
 10
1679.795533
 20
577.385613
 30
0.0
  0
SPLINE
  5
317
100
AcDbEntity
  8
Layer_1
 62
7
100
AcDbSpline
 70
8
 71
3
 72
8
 73
4
 74
0
 40
0
 40
0
 40
0
 40
0
 40
1
 40
1
 40
1
 40
1
 10
1588.007376
 20
352.904465
 30
0.0
 10
1592.620962
 20
359.787801
 30
0.0
 10
1590.780965
 20
369.107898
 30
0.0
 10
1583.897629
 20
373.721483
 30
0.0
  0
SPLINE
  5
318
100
AcDbEntity
  8
Layer_1
 62
7
100
AcDbSpline
 70
8
 71
3
 72
8
 73
4
 74
0
 40
0
 40
0
 40
0
 40
0
 40
1
 40
1
 40
1
 40
1
 10
1583.897629
 20
373.721483
 30
0.0
 10
1577.014292
 20
378.335069
 30
0.0
 10
1567.694196
 20
376.495072
 30
0.0
 10
1563.080611
 20
369.611736
 30
0.0
  0
SPLINE
  5
319
100
AcDbEntity
  8
Layer_1
 62
7
100
AcDbSpline
 70
8
 71
3
 72
8
 73
4
 74
0
 40
0
 40
0
 40
0
 40
0
 40
1
 40
1
 40
1
 40
1
 10
1563.080611
 20
369.611736
 30
0.0
 10
1558.467025
 20
362.728399
 30
0.0
 10
1560.307022
 20
353.408303
 30
0.0
 10
1567.190358
 20
348.794718
 30
0.0
  0
SPLINE
  5
31a
100
AcDbEntity
  8
Layer_1
 62
7
100
AcDbSpline
 70
8
 71
3
 72
8
 73
4
 74
0
 40
0
 40
0
 40
0
 40
0
 40
1
 40
1
 40
1
 40
1
 10
1567.190358
 20
348.794718
 30
0.0
 10
1570.495853
 20
346.579196
 30
0.0
 10
1574.546076
 20
345.767519
 30
0.0
 10
1578.450024
 20
346.538246
 30
0.0
  0
SPLINE
  5
31b
100
AcDbEntity
  8
Layer_1
 62
7
100
AcDbSpline
 70
8
 71
3
 72
8
 73
4
 74
0
 40
0
 40
0
 40
0
 40
0
 40
1
 40
1
 40
1
 40
1
 10
1578.450024
 20
346.538246
 30
0.0
 10
1582.353972
 20
347.308973
 30
0.0
 10
1585.791855
 20
349.598970
 30
0.0
 10
1588.007376
 20
352.904465
 30
0.0
  0
LWPOLYLINE
  5
31c
100
AcDbEntity
  8
Layer_1
 62
7
100
AcDbPolyline
 90
1
 70
1
 10
1645.543145
 20
460.390183
 30
0.0
  0
SPLINE
  5
31d
100
AcDbEntity
  8
Layer_1
 62
7
100
AcDbSpline
 70
8
 71
3
 72
8
 73
4
 74
0
 40
0
 40
0
 40
0
 40
0
 40
1
 40
1
 40
1
 40
1
 10
1509.530758
 20
259.555800
 30
0.0
 10
1515.474403
 20
265.329748
 30
0.0
 10
1515.611970
 20
274.828734
 30
0.0
 10
1509.838021
 20
280.772380
 30
0.0
  0
SPLINE
  5
31e
100
AcDbEntity
  8
Layer_1
 62
7
100
AcDbSpline
 70
8
 71
3
 72
8
 73
4
 74
0
 40
0
 40
0
 40
0
 40
0
 40
1
 40
1
 40
1
 40
1
 10
1509.838021
 20
280.772380
 30
0.0
 10
1504.064073
 20
286.716025
 30
0.0
 10
1494.565087
 20
286.853591
 30
0.0
 10
1488.621442
 20
281.079643
 30
0.0
  0
SPLINE
  5
31f
100
AcDbEntity
  8
Layer_1
 62
7
100
AcDbSpline
 70
8
 71
3
 72
8
 73
4
 74
0
 40
0
 40
0
 40
0
 40
0
 40
1
 40
1
 40
1
 40
1
 10
1488.621442
 20
281.079643
 30
0.0
 10
1482.677796
 20
275.305695
 30
0.0
 10
1482.540230
 20
265.806708
 30
0.0
 10
1488.314178
 20
259.863063
 30
0.0
  0
SPLINE
  5
320
100
AcDbEntity
  8
Layer_1
 62
7
100
AcDbSpline
 70
8
 71
3
 72
8
 73
4
 74
0
 40
0
 40
0
 40
0
 40
0
 40
1
 40
1
 40
1
 40
1
 10
1488.314178
 20
259.863063
 30
0.0
 10
1491.086926
 20
257.008824
 30
0.0
 10
1494.879951
 20
255.372957
 30
0.0
 10
1498.858832
 20
255.315334
 30
0.0
  0
SPLINE
  5
321
100
AcDbEntity
  8
Layer_1
 62
7
100
AcDbSpline
 70
8
 71
3
 72
8
 73
4
 74
0
 40
0
 40
0
 40
0
 40
0
 40
1
 40
1
 40
1
 40
1
 10
1498.858832
 20
255.315334
 30
0.0
 10
1502.837712
 20
255.257711
 30
0.0
 10
1506.676519
 20
256.783052
 30
0.0
 10
1509.530758
 20
259.555800
 30
0.0
  0
LWPOLYLINE
  5
322
100
AcDbEntity
  8
Layer_1
 62
7
100
AcDbPolyline
 90
1
 70
1
 10
1588.007376
 20
352.904465
 30
0.0
  0
SPLINE
  5
323
100
AcDbEntity
  8
Layer_1
 62
7
100
AcDbSpline
 70
8
 71
3
 72
8
 73
4
 74
0
 40
0
 40
0
 40
0
 40
0
 40
1
 40
1
 40
1
 40
1
 10
982.999761
 20
180.006515
 30
0.0
 10
974.713268
 20
180.006515
 30
0.0
 10
967.995739
 20
173.288985
 30
0.0
 10
967.995739
 20
165.002492
 30
0.0
  0
SPLINE
  5
324
100
AcDbEntity
  8
Layer_1
 62
7
100
AcDbSpline
 70
8
 71
3
 72
8
 73
4
 74
0
 40
0
 40
0
 40
0
 40
0
 40
1
 40
1
 40
1
 40
1
 10
967.995739
 20
165.002492
 30
0.0
 10
967.995739
 20
156.715999
 30
0.0
 10
974.713268
 20
149.998469
 30
0.0
 10
982.999761
 20
149.998469
 30
0.0
  0
SPLINE
  5
325
100
AcDbEntity
  8
Layer_1
 62
7
100
AcDbSpline
 70
8
 71
3
 72
8
 73
4
 74
0
 40
0
 40
0
 40
0
 40
0
 40
1
 40
1
 40
1
 40
1
 10
982.999761
 20
149.998469
 30
0.0
 10
991.286254
 20
149.998469
 30
0.0
 10
998.003784
 20
156.715999
 30
0.0
 10
998.003784
 20
165.002492
 30
0.0
  0
SPLINE
  5
326
100
AcDbEntity
  8
Layer_1
 62
7
100
AcDbSpline
 70
8
 71
3
 72
8
 73
4
 74
0
 40
0
 40
0
 40
0
 40
0
 40
1
 40
1
 40
1
 40
1
 10
998.003784
 20
165.002492
 30
0.0
 10
998.003784
 20
168.981806
 30
0.0
 10
996.423008
 20
172.798138
 30
0.0
 10
993.609208
 20
175.611938
 30
0.0
  0
SPLINE
  5
327
100
AcDbEntity
  8
Layer_1
 62
7
100
AcDbSpline
 70
8
 71
3
 72
8
 73
4
 74
0
 40
0
 40
0
 40
0
 40
0
 40
1
 40
1
 40
1
 40
1
 10
993.609208
 20
175.611938
 30
0.0
 10
990.795408
 20
178.425738
 30
0.0
 10
986.979076
 20
180.006515
 30
0.0
 10
982.999761
 20
180.006515
 30
0.0
  0
LWPOLYLINE
  5
328
100
AcDbEntity
  8
Layer_1
 62
7
100
AcDbPolyline
 90
1
 70
1
 10
1509.530758
 20
259.555800
 30
0.0
  0
SPLINE
  5
329
100
AcDbEntity
  8
Layer_1
 62
7
100
AcDbSpline
 70
8
 71
3
 72
8
 73
4
 74
0
 40
0
 40
0
 40
0
 40
0
 40
1
 40
1
 40
1
 40
1
 10
1100.498426
 20
180.006515
 30
0.0
 10
1092.211933
 20
180.006515
 30
0.0
 10
1085.494403
 20
173.288985
 30
0.0
 10
1085.494403
 20
165.002492
 30
0.0
  0
SPLINE
  5
32a
100
AcDbEntity
  8
Layer_1
 62
7
100
AcDbSpline
 70
8
 71
3
 72
8
 73
4
 74
0
 40
0
 40
0
 40
0
 40
0
 40
1
 40
1
 40
1
 40
1
 10
1085.494403
 20
165.002492
 30
0.0
 10
1085.494403
 20
156.715999
 30
0.0
 10
1092.211933
 20
149.998469
 30
0.0
 10
1100.498426
 20
149.998469
 30
0.0
  0
SPLINE
  5
32b
100
AcDbEntity
  8
Layer_1
 62
7
100
AcDbSpline
 70
8
 71
3
 72
8
 73
4
 74
0
 40
0
 40
0
 40
0
 40
0
 40
1
 40
1
 40
1
 40
1
 10
1100.498426
 20
149.998469
 30
0.0
 10
1108.784919
 20
149.998469
 30
0.0
 10
1115.502449
 20
156.715999
 30
0.0
 10
1115.502449
 20
165.002492
 30
0.0
  0
SPLINE
  5
32c
100
AcDbEntity
  8
Layer_1
 62
7
100
AcDbSpline
 70
8
 71
3
 72
8
 73
4
 74
0
 40
0
 40
0
 40
0
 40
0
 40
1
 40
1
 40
1
 40
1
 10
1115.502449
 20
165.002492
 30
0.0
 10
1115.502449
 20
168.981806
 30
0.0
 10
1113.921672
 20
172.798138
 30
0.0
 10
1111.107872
 20
175.611938
 30
0.0
  0
SPLINE
  5
32d
100
AcDbEntity
  8
Layer_1
 62
7
100
AcDbSpline
 70
8
 71
3
 72
8
 73
4
 74
0
 40
0
 40
0
 40
0
 40
0
 40
1
 40
1
 40
1
 40
1
 10
1111.107872
 20
175.611938
 30
0.0
 10
1108.294072
 20
178.425738
 30
0.0
 10
1104.477740
 20
180.006515
 30
0.0
 10
1100.498426
 20
180.006515
 30
0.0
  0
LWPOLYLINE
  5
32e
100
AcDbEntity
  8
Layer_1
 62
7
100
AcDbPolyline
 90
1
 70
1
 10
982.999761
 20
180.006515
 30
0.0
  0
SPLINE
  5
32f
100
AcDbEntity
  8
Layer_1
 62
7
100
AcDbSpline
 70
8
 71
3
 72
8
 73
4
 74
0
 40
0
 40
0
 40
0
 40
0
 40
1
 40
1
 40
1
 40
1
 10
1217.999736
 20
180.006515
 30
0.0
 10
1209.713243
 20
180.006515
 30
0.0
 10
1202.995713
 20
173.288985
 30
0.0
 10
1202.995713
 20
165.002492
 30
0.0
  0
SPLINE
  5
330
100
AcDbEntity
  8
Layer_1
 62
7
100
AcDbSpline
 70
8
 71
3
 72
8
 73
4
 74
0
 40
0
 40
0
 40
0
 40
0
 40
1
 40
1
 40
1
 40
1
 10
1202.995713
 20
165.002492
 30
0.0
 10
1202.995713
 20
156.715999
 30
0.0
 10
1209.713243
 20
149.998469
 30
0.0
 10
1217.999736
 20
149.998469
 30
0.0
  0
SPLINE
  5
331
100
AcDbEntity
  8
Layer_1
 62
7
100
AcDbSpline
 70
8
 71
3
 72
8
 73
4
 74
0
 40
0
 40
0
 40
0
 40
0
 40
1
 40
1
 40
1
 40
1
 10
1217.999736
 20
149.998469
 30
0.0
 10
1226.286229
 20
149.998469
 30
0.0
 10
1233.003759
 20
156.715999
 30
0.0
 10
1233.003759
 20
165.002492
 30
0.0
  0
SPLINE
  5
332
100
AcDbEntity
  8
Layer_1
 62
7
100
AcDbSpline
 70
8
 71
3
 72
8
 73
4
 74
0
 40
0
 40
0
 40
0
 40
0
 40
1
 40
1
 40
1
 40
1
 10
1233.003759
 20
165.002492
 30
0.0
 10
1233.003759
 20
168.981806
 30
0.0
 10
1231.422983
 20
172.798138
 30
0.0
 10
1228.609182
 20
175.611938
 30
0.0
  0
SPLINE
  5
333
100
AcDbEntity
  8
Layer_1
 62
7
100
AcDbSpline
 70
8
 71
3
 72
8
 73
4
 74
0
 40
0
 40
0
 40
0
 40
0
 40
1
 40
1
 40
1
 40
1
 10
1228.609182
 20
175.611938
 30
0.0
 10
1225.795382
 20
178.425738
 30
0.0
 10
1221.979050
 20
180.006515
 30
0.0
 10
1217.999736
 20
180.006515
 30
0.0
  0
LWPOLYLINE
  5
334
100
AcDbEntity
  8
Layer_1
 62
7
100
AcDbPolyline
 90
1
 70
1
 10
1100.498426
 20
180.006515
 30
0.0
  0
SPLINE
  5
335
100
AcDbEntity
  8
Layer_1
 62
7
100
AcDbSpline
 70
8
 71
3
 72
8
 73
4
 74
0
 40
0
 40
0
 40
0
 40
0
 40
1
 40
1
 40
1
 40
1
 10
982.999761
 20
100.007199
 30
0.0
 10
974.713268
 20
100.007199
 30
0.0
 10
967.995739
 20
93.289669
 30
0.0
 10
967.995739
 20
85.003176
 30
0.0
  0
SPLINE
  5
336
100
AcDbEntity
  8
Layer_1
 62
7
100
AcDbSpline
 70
8
 71
3
 72
8
 73
4
 74
0
 40
0
 40
0
 40
0
 40
0
 40
1
 40
1
 40
1
 40
1
 10
967.995739
 20
85.003176
 30
0.0
 10
967.995739
 20
76.716683
 30
0.0
 10
974.713268
 20
69.999153
 30
0.0
 10
982.999761
 20
69.999153
 30
0.0
  0
SPLINE
  5
337
100
AcDbEntity
  8
Layer_1
 62
7
100
AcDbSpline
 70
8
 71
3
 72
8
 73
4
 74
0
 40
0
 40
0
 40
0
 40
0
 40
1
 40
1
 40
1
 40
1
 10
982.999761
 20
69.999153
 30
0.0
 10
991.286254
 20
69.999153
 30
0.0
 10
998.003784
 20
76.716683
 30
0.0
 10
998.003784
 20
85.003176
 30
0.0
  0
SPLINE
  5
338
100
AcDbEntity
  8
Layer_1
 62
7
100
AcDbSpline
 70
8
 71
3
 72
8
 73
4
 74
0
 40
0
 40
0
 40
0
 40
0
 40
1
 40
1
 40
1
 40
1
 10
998.003784
 20
85.003176
 30
0.0
 10
998.003784
 20
88.982490
 30
0.0
 10
996.423008
 20
92.798822
 30
0.0
 10
993.609208
 20
95.612622
 30
0.0
  0
SPLINE
  5
339
100
AcDbEntity
  8
Layer_1
 62
7
100
AcDbSpline
 70
8
 71
3
 72
8
 73
4
 74
0
 40
0
 40
0
 40
0
 40
0
 40
1
 40
1
 40
1
 40
1
 10
993.609208
 20
95.612622
 30
0.0
 10
990.795408
 20
98.426422
 30
0.0
 10
986.979076
 20
100.007199
 30
0.0
 10
982.999761
 20
100.007199
 30
0.0
  0
LWPOLYLINE
  5
33a
100
AcDbEntity
  8
Layer_1
 62
7
100
AcDbPolyline
 90
1
 70
1
 10
1217.999736
 20
180.006515
 30
0.0
  0
SPLINE
  5
33b
100
AcDbEntity
  8
Layer_1
 62
7
100
AcDbSpline
 70
8
 71
3
 72
8
 73
4
 74
0
 40
0
 40
0
 40
0
 40
0
 40
1
 40
1
 40
1
 40
1
 10
1100.498426
 20
100.007199
 30
0.0
 10
1092.211933
 20
100.007199
 30
0.0
 10
1085.494403
 20
93.289669
 30
0.0
 10
1085.494403
 20
85.003176
 30
0.0
  0
SPLINE
  5
33c
100
AcDbEntity
  8
Layer_1
 62
7
100
AcDbSpline
 70
8
 71
3
 72
8
 73
4
 74
0
 40
0
 40
0
 40
0
 40
0
 40
1
 40
1
 40
1
 40
1
 10
1085.494403
 20
85.003176
 30
0.0
 10
1085.494403
 20
76.716683
 30
0.0
 10
1092.211933
 20
69.999153
 30
0.0
 10
1100.498426
 20
69.999153
 30
0.0
  0
SPLINE
  5
33d
100
AcDbEntity
  8
Layer_1
 62
7
100
AcDbSpline
 70
8
 71
3
 72
8
 73
4
 74
0
 40
0
 40
0
 40
0
 40
0
 40
1
 40
1
 40
1
 40
1
 10
1100.498426
 20
69.999153
 30
0.0
 10
1108.784919
 20
69.999153
 30
0.0
 10
1115.502449
 20
76.716683
 30
0.0
 10
1115.502449
 20
85.003176
 30
0.0
  0
SPLINE
  5
33e
100
AcDbEntity
  8
Layer_1
 62
7
100
AcDbSpline
 70
8
 71
3
 72
8
 73
4
 74
0
 40
0
 40
0
 40
0
 40
0
 40
1
 40
1
 40
1
 40
1
 10
1115.502449
 20
85.003176
 30
0.0
 10
1115.502449
 20
88.982490
 30
0.0
 10
1113.921672
 20
92.798822
 30
0.0
 10
1111.107872
 20
95.612622
 30
0.0
  0
SPLINE
  5
33f
100
AcDbEntity
  8
Layer_1
 62
7
100
AcDbSpline
 70
8
 71
3
 72
8
 73
4
 74
0
 40
0
 40
0
 40
0
 40
0
 40
1
 40
1
 40
1
 40
1
 10
1111.107872
 20
95.612622
 30
0.0
 10
1108.294072
 20
98.426422
 30
0.0
 10
1104.477740
 20
100.007199
 30
0.0
 10
1100.498426
 20
100.007199
 30
0.0
  0
LWPOLYLINE
  5
340
100
AcDbEntity
  8
Layer_1
 62
7
100
AcDbPolyline
 90
1
 70
1
 10
982.999761
 20
100.007199
 30
0.0
  0
SPLINE
  5
341
100
AcDbEntity
  8
Layer_1
 62
7
100
AcDbSpline
 70
8
 71
3
 72
8
 73
4
 74
0
 40
0
 40
0
 40
0
 40
0
 40
1
 40
1
 40
1
 40
1
 10
1217.999736
 20
100.007199
 30
0.0
 10
1209.713243
 20
100.007199
 30
0.0
 10
1202.995713
 20
93.289669
 30
0.0
 10
1202.995713
 20
85.003176
 30
0.0
  0
SPLINE
  5
342
100
AcDbEntity
  8
Layer_1
 62
7
100
AcDbSpline
 70
8
 71
3
 72
8
 73
4
 74
0
 40
0
 40
0
 40
0
 40
0
 40
1
 40
1
 40
1
 40
1
 10
1202.995713
 20
85.003176
 30
0.0
 10
1202.995713
 20
76.716683
 30
0.0
 10
1209.713243
 20
69.999153
 30
0.0
 10
1217.999736
 20
69.999153
 30
0.0
  0
SPLINE
  5
343
100
AcDbEntity
  8
Layer_1
 62
7
100
AcDbSpline
 70
8
 71
3
 72
8
 73
4
 74
0
 40
0
 40
0
 40
0
 40
0
 40
1
 40
1
 40
1
 40
1
 10
1217.999736
 20
69.999153
 30
0.0
 10
1226.286229
 20
69.999153
 30
0.0
 10
1233.003759
 20
76.716683
 30
0.0
 10
1233.003759
 20
85.003176
 30
0.0
  0
SPLINE
  5
344
100
AcDbEntity
  8
Layer_1
 62
7
100
AcDbSpline
 70
8
 71
3
 72
8
 73
4
 74
0
 40
0
 40
0
 40
0
 40
0
 40
1
 40
1
 40
1
 40
1
 10
1233.003759
 20
85.003176
 30
0.0
 10
1233.003759
 20
88.982490
 30
0.0
 10
1231.422983
 20
92.798822
 30
0.0
 10
1228.609182
 20
95.612622
 30
0.0
  0
SPLINE
  5
345
100
AcDbEntity
  8
Layer_1
 62
7
100
AcDbSpline
 70
8
 71
3
 72
8
 73
4
 74
0
 40
0
 40
0
 40
0
 40
0
 40
1
 40
1
 40
1
 40
1
 10
1228.609182
 20
95.612622
 30
0.0
 10
1225.795382
 20
98.426422
 30
0.0
 10
1221.979050
 20
100.007199
 30
0.0
 10
1217.999736
 20
100.007199
 30
0.0
  0
LWPOLYLINE
  5
346
100
AcDbEntity
  8
Layer_1
 62
7
100
AcDbPolyline
 90
1
 70
1
 10
1100.498426
 20
100.007199
 30
0.0
  0
LWPOLYLINE
  5
347
100
AcDbEntity
  8
Layer_1
 62
7
100
AcDbPolyline
 90
1
 70
1
 10
1217.999736
 20
100.007199
 30
0.0
  0
ENDSEC
  0
SECTION
  2
OBJECTS
  0
DICTIONARY
  5
C
330
0
100
AcDbDictionary
  3
ACAD_GROUP
350
D
  3
ACAD_MLINESTYLE
350
17
  0
DICTIONARY
  5
D
330
C
100
AcDbDictionary
  0
DICTIONARY
  5
1A
330
C
100
AcDbDictionary
  0
DICTIONARY
  5
17
330
C
100
AcDbDictionary
  3
STANDARD
350
18
  0
DICTIONARY
  5
19
330
C
100
AcDbDictionary
  0
ENDSEC
  0
EOF
