<?xml version="1.0" encoding="UTF-8" standalone="no"?>
<!-- Created with Inkscape (http://www.inkscape.org/) -->

<svg
   width="2200"
   height="2200"
   viewBox="0 0 2200 2200"
   version="1.1"
   id="svg1"
   inkscape:version="1.3 (0e150ed6c4, 2023-07-21)"
   sodipodi:docname="OVLysreklame.svg"
   xml:space="preserve"
   xmlns:inkscape="http://www.inkscape.org/namespaces/inkscape"
   xmlns:sodipodi="http://sodipodi.sourceforge.net/DTD/sodipodi-0.dtd"
   xmlns="http://www.w3.org/2000/svg"
   xmlns:svg="http://www.w3.org/2000/svg"><sodipodi:namedview
     id="namedview1"
     pagecolor="#505050"
     bordercolor="#eeeeee"
     borderopacity="1"
     inkscape:showpageshadow="0"
     inkscape:pageopacity="0"
     inkscape:pagecheckerboard="0"
     inkscape:deskcolor="#505050"
     inkscape:document-units="px"
     inkscape:zoom="2.8284271"
     inkscape:cx="447.24504"
     inkscape:cy="201.70221"
     inkscape:window-width="3840"
     inkscape:window-height="2081"
     inkscape:window-x="-9"
     inkscape:window-y="-9"
     inkscape:window-maximized="1"
     showguides="false"
     inkscape:current-layer="g1012"><sodipodi:guide
       position="1100,0"
       orientation="1,0"
       id="guide8"
       inkscape:locked="false"
       inkscape:label=""
       inkscape:color="rgb(0,134,229)" /><sodipodi:guide
       position="1064.1992,683.01144"
       orientation="0,1"
       id="guide1"
       inkscape:locked="false" /><sodipodi:guide
       position="1100.0372,1207.3848"
       orientation="0,1"
       id="guide2"
       inkscape:locked="false"
       inkscape:label=""
       inkscape:color="rgb(0,134,229)" /><sodipodi:guide
       position="1100.125,1381.375"
       orientation="0,1"
       id="guide3"
       inkscape:locked="false"
       inkscape:label=""
       inkscape:color="rgb(0,134,229)" /></sodipodi:namedview><defs
     id="defs1"><inkscape:path-effect
       effect="mirror_symmetry"
       start_point="4334.2308,-1661.2613"
       end_point="6546.6424,6353.9622"
       center_point="5440.4366,2346.3505"
       id="path-effect1"
       is_visible="true"
       lpeversion="1.2"
       lpesatellites=""
       mode="vertical"
       discard_orig_path="false"
       fuse_paths="false"
       oposite_fuse="false"
       split_items="false"
       split_open="false"
       link_styles="false" /><inkscape:path-effect
       effect="mirror_symmetry"
       start_point="4620.0124,-448.14131"
       end_point="4620.0124,7866.8194"
       center_point="4620.0124,3709.3391"
       id="path-effect1034"
       is_visible="true"
       lpeversion="1.2"
       lpesatellites=""
       mode="vertical"
       discard_orig_path="false"
       fuse_paths="false"
       oposite_fuse="false"
       split_items="false"
       split_open="false"
       link_styles="false" /></defs><g
     inkscape:label="Layer 1"
     inkscape:groupmode="layer"
     id="layer1"
     transform="translate(0,285.0833)"><path
       style="fill:#ffffff;fill-opacity:1;stroke-width:3.0382"
       d="m 1312.9258,7255.836 c 0,-284.0721 0.7904,-516.4948 1.7565,-516.4948 0.9661,0 135.2927,36.8111 298.5038,81.8027 163.2108,44.9915 352.1184,97.0615 419.7944,115.7115 67.6761,18.6497 144.2388,39.7619 170.1396,46.9157 25.9006,7.1538 103.147,28.3927 171.6586,47.1973 68.5115,18.8048 145.7578,40.225 171.6585,47.6008 105.4151,30.0193 165.4239,46.2761 166.5741,45.1258 0.6688,-0.669 -12.9977,-16.6701 -30.3699,-35.5579 -331.6938,-360.6337 -561.7075,-813.0696 -658.7202,-1295.6998 -67.8259,-337.4285 -69.2078,-645.5289 -4.406,-982.3568 94.6339,-491.889 324.7021,-949.0144 663.5982,-1318.5114 118.0949,-128.7584 272.1554,-261.2387 429.9491,-369.7235 236.8473,-162.8348 503.2479,-289.1068 777.7806,-368.6624 426.6294,-123.6308 835.6876,-139.3034 1265.4126,-48.4824 502.425,106.1858 979.6606,363.2894 1336.6463,720.0987 140.8564,140.7866 298.0048,344.2217 395.1959,511.5973 39.8007,68.5423 54.0211,94.2689 80.7205,146.0335 193.6814,375.5088 299.6834,804.3615 299.2623,1210.725 -0.4776,460.9792 -138.2031,947.718 -383.8457,1356.5588 -96.8616,161.2135 -210.1054,312.7464 -330.928,442.8183 -16.686,17.9634 -29.205,32.6432 -27.8199,32.6216 2.6649,-0.043 69.8444,-18.6692 168.1006,-46.6112 54.036,-15.3667 732.6463,-202.4254 960.073,-264.6435 14.2035,-3.8859 80.7596,-22.2512 147.9022,-40.8117 67.1428,-18.5607 122.8559,-33.7464 123.8068,-33.7464 0.9513,0 1.7294,232.4227 1.7294,516.4948 v 516.4949 H 6757.39 5587.6809 V 7401.74 7031.1489 l 6.8359,-4.1718 c 3.7598,-2.2941 25.9767,-15.5613 49.3709,-29.4821 297.7617,-177.1851 545.0732,-431.4875 716.42,-736.6712 117.6816,-209.6009 199.3209,-452.2129 232.8329,-691.9207 12.3954,-88.6634 15.8662,-137.1064 17.526,-244.6062 l 1.6533,-107.0967 h -341.5058 -341.5062 l -34.3378,69.1191 c -49.1484,98.9317 -325.1408,645.2797 -375.6367,743.6008 -15.4474,30.0783 -63.9876,125.7817 -107.8671,212.6744 -43.8794,86.8928 -90.3715,178.4946 -103.3155,203.5597 -12.9436,25.0652 -50.5447,98.8937 -83.5577,164.0631 -33.0128,65.1696 -71.2863,140.3651 -85.0517,167.1013 -13.7658,26.7362 -49.2032,96.1213 -78.7494,154.189 l -53.7203,105.5777 h 133.8496 133.8496 l -0.7723,354.7103 -0.772,354.7106 -653.9737,0.7665 -653.9737,0.7666 v -355.4771 -355.4769 h 133.884 133.8838 l -49.2042,-96.4631 c -27.0624,-53.0547 -63.8933,-125.174 -81.8465,-160.2654 -17.9533,-35.0911 -55.551,-108.9195 -83.5506,-164.0631 -27.9994,-55.1433 -70.3868,-138.5421 -94.194,-185.3305 -192.711,-378.7348 -366.0069,-721.0342 -508.8878,-1005.1695 l -104.818,-208.4432 -341.4205,-0.075 -341.4204,-0.075 1.6534,107.0967 c 1.6649,107.8403 5.3726,159.7526 17.5221,245.3351 73.8091,519.9153 349.2939,988.2897 768.4834,1306.5617 61.3557,46.5845 134.1188,94.3807 222.8519,146.3854 l 14.1282,8.2803 v 370.7356 370.7359 H 2482.6349 1312.9258 Z M 4879.334,6314.7519 c 140.9326,-281.9835 322.4176,-643.6244 403.3005,-803.6466 80.8828,-160.0222 147.0597,-291.6144 147.0597,-292.4272 0,-0.8129 -130.5669,-1.4779 -290.1486,-1.4779 h -290.1487 v -360.0275 -360.0273 h 799.0481 c 439.4764,0 799.048,-0.5466 799.048,-1.2149 0,-4.704 -47.3355,-102.9178 -68.8515,-142.8556 -171.1455,-317.6798 -420.6321,-581.078 -722.601,-762.8931 -257.9685,-155.3225 -526.092,-245.1615 -830.9492,-278.4227 -71.8787,-7.8422 -259.4785,-11.1102 -335.9636,-5.8526 -184.3486,12.6725 -345.5043,44.6628 -515.0378,102.238 -245.4969,83.373 -461.4303,207.5041 -665.0631,382.3174 -36.619,31.4365 -150.6815,143.9932 -177.735,175.3886 -10.0261,11.6352 -21.6473,24.9338 -25.8247,29.5524 -63.952,70.7039 -172.8725,226.9603 -226.9125,325.5266 -31.7418,57.8953 -86.0227,168.3185 -86.0227,174.995 0,0.6715 359.5716,1.2209 799.048,1.2209 h 799.0481 v 360.0273 360.0275 h -290.1487 c -159.5817,0 -290.1486,0.665 -290.1486,1.4779 0,0.8128 66.1821,132.405 147.0713,292.4272 80.8893,160.0222 262.352,521.6631 403.2504,803.6466 140.8984,281.9835 257.5875,512.6971 259.3096,512.6971 1.722,0 118.4393,-230.7136 259.372,-512.6971 z"
       id="path3375"
       inkscape:connector-curvature="0"
       inkscape:label="Logo"
       sodipodi:insensitive="true"
       transform="matrix(0.26458333,0,0,0.26458333,-122.37827,-166.51258)" /><g
       id="g1013"
       inkscape:label="Plates"
       style="display:none"
       transform="matrix(0.26458333,0,0,0.26458333,-122.37827,-166.51258)"><rect
         style="fill:none;fill-opacity:0.980392;stroke:#000000;stroke-width:15.0595;stroke-dasharray:none"
         id="rect8-6"
         width="3386.5154"
         height="4520.3735"
         x="-62.658779"
         y="-6880.1987"
         transform="rotate(90)"
         inkscape:label="Plate 3"
         sodipodi:insensitive="true" /><rect
         style="fill:none;fill-opacity:0.980392;stroke:#000000;stroke-width:15.0596;stroke-dasharray:none"
         id="rect8"
         width="3386.5154"
         height="4520.374"
         x="4627.542"
         y="3338.9158"
         inkscape:label="Plate 2"
         sodipodi:insensitive="true" /><rect
         style="fill:none;fill-opacity:0.980392;stroke:#000000;stroke-width:15.0595;stroke-dasharray:none"
         id="rect8-3"
         width="3386.5154"
         height="4520.3735"
         x="1225.9673"
         y="3338.916"
         inkscape:label="Plate 1"
         sodipodi:insensitive="true" /></g><g
       id="g1012"
       inkscape:label="Guides"
       style="display:inline"
       transform="matrix(0.26458333,0,0,0.26458333,-122.37827,-166.51258)"><path
         d="M 3047.73 4710.91 H 4185.37"
         style="fill:none;fill-rule:evenodd;stroke:#000000;stroke-width:3.77953px;stroke-linecap:butt;stroke-linejoin:miter;stroke-opacity:1"
         id="path4"
         inkscape:label="top serif guide 1" /><path
         d="M 2824.74 5013.28 H 4185.37"
         style="fill:none;fill-rule:evenodd;stroke:#000000;stroke-width:3.77953px;stroke-linecap:butt;stroke-linejoin:miter;stroke-opacity:1"
         id="path5"
         inkscape:label="top serif guide 2" /><path
         d="m 3602.13,5325.99 809.92,1595.9"
         style="fill:none;fill-rule:evenodd;stroke:#000000;stroke-width:3.98975px;stroke-linecap:butt;stroke-linejoin:miter;stroke-opacity:1"
         id="path6"
         inkscape:label="v guide" /><path
         d="m 1520.7 7025.51 l 944.414 267.287"
         style="fill:none;fill-rule:evenodd;stroke:#000000;stroke-width:3.01673px;stroke-linecap:butt;stroke-linejoin:miter;stroke-opacity:1"
         id="path7"
         inkscape:label="Outer sefif guide 1" /><path
         d="m 1520.8 7545.56 c 24.567 -3.7796 1884.09 0 1884.09 0"
         style="fill:none;fill-rule:evenodd;stroke:#000000;stroke-width:3.77953px;stroke-linecap:butt;stroke-linejoin:miter;stroke-opacity:1"
         id="path8"
         inkscape:label="Outer serif guide 2" /><path
         d="m 4177.81,7243.2 h 888.189"
         style="fill:none;fill-rule:evenodd;stroke:#000000;stroke-width:3.77953px;stroke-linecap:butt;stroke-linejoin:miter;stroke-opacity:1"
         id="path10"
         inkscape:label="bottom serif guide 1" /><path
         d="m 4177.81,7545.56 h 888.189"
         style="fill:none;fill-rule:evenodd;stroke:#000000;stroke-width:3.77953px;stroke-linecap:butt;stroke-linejoin:miter;stroke-opacity:1"
         id="path11"
         inkscape:label="bottom serif guide 2" /><path
         d="M 3406.01,7083.35 A 2171,2171 0 0 1 2543.88,4648.77 2171,2171 0 0 1 4620.01,3112.51 2171,2171 0 0 1 6696.15,4648.77 2171,2171 0 0 1 5834.02,7083.35"
         style="fill:none;fill-opacity:0.980392;stroke:#000000;stroke-width:3.77953;stroke-dasharray:none"
         id="circle11"
         inkscape:label="Inner circle guide" /><path
         d="m 3145.81,7239.84 a 2449.59,2449.59 0 0 1 -848.8,-2733.59 2449.59,2449.59 0 0 1 2323,-1672.33 2449.59,2449.59 0 0 1 2323,1672.33 2449.59,2449.59 0 0 1 -848.8,2733.59"
         style="fill:none;fill-opacity:0.980392;stroke:#000000;stroke-width:3.77953;stroke-dasharray:none"
         id="circle12"
         inkscape:label="Outer circle guide" /><ellipse
         style="fill:none;fill-opacity:0.980392;stroke:#000000;stroke-width:3.77953;stroke-dasharray:none"
         id="path1"
         cx="4620.0127"
         cy="5283.5122"
         rx="2637.6362"
         ry="2637.636"
         inkscape:label="O-circle" /><path
         d="M 4620.01,2833.92 A 2449.59,2449.59 0 1 0 7069.6,5283.51 2449.59,2449.59 0 0 0 4620.01,2833.92 Z"
         style="display:none;fill:none;fill-opacity:0.980392;stroke:#000000;stroke-width:3.77953;stroke-dasharray:none"
         id="path3"
         inkscape:label="Outer circle" /><circle
         style="display:none;fill:none;fill-opacity:0.980392;stroke:#000000;stroke-width:3.77953;stroke-dasharray:none"
         id="path3-8"
         cx="4620.0127"
         cy="5283.5122"
         r="2170.9976"
         inkscape:label="Inner circle"
         sodipodi:insensitive="true" /><circle
         style="fill:none;fill-opacity:0.980392;stroke:#000000;stroke-width:0.491934;stroke-dasharray:none"
         cx="944.24994"
         cy="2022.1667"
         r="15.004032"
         inkscape:label="Bulb"
         id="circle990-8"
         transform="matrix(3.7795276,0,0,3.7795276,462.53205,629.33889)" /><g
         id="g77"><circle
           style="fill:none;fill-opacity:0.980392;stroke:#000000;stroke-width:0.491934;stroke-dasharray:none"
           cx="944.24994"
           cy="2022.1667"
           r="15.004032"
           inkscape:label="Bulb"
           transform="matrix(3.77953 0 0 3.77953 -744.08 -2629.56)"
           id="circle74" /><circle
           style="fill:none;fill-opacity:0.980392;stroke:#000000;stroke-width:0.491934;stroke-dasharray:none"
           cx="944.24994"
           cy="2022.1667"
           r="15.004032"
           inkscape:label="Bulb"
           transform="matrix(3.77953 0 0 3.77953 -290.537 -2629.56)"
           id="circle75" /><circle
           style="fill:none;fill-opacity:0.980392;stroke:#000000;stroke-width:0.491934;stroke-dasharray:none"
           cx="944.24994"
           cy="2022.1667"
           r="15.004032"
           inkscape:label="Bulb"
           transform="matrix(3.77953 0 0 3.77953 163.007 -2629.56)"
           id="circle76" /><circle
           style="fill:none;fill-opacity:0.980392;stroke:#000000;stroke-width:0.491934;stroke-dasharray:none"
           cx="944.24994"
           cy="2022.1667"
           r="15.004032"
           inkscape:label="Bulb"
           transform="matrix(3.77953 0 0 3.77953 616.55 -2629.56)"
           id="circle77" /></g><g
         id="g3"><circle
           style="fill:none;fill-opacity:0.980392;stroke:#000000;stroke-width:0.491934;stroke-dasharray:none"
           cx="944.24994"
           cy="2022.1667"
           r="15.004032"
           inkscape:label="Bulb"
           transform="matrix(3.77953 0 0 3.77953 -521.09 -2931.93)"
           id="circle1" /><circle
           style="fill:none;fill-opacity:0.980392;stroke:#000000;stroke-width:0.491934;stroke-dasharray:none"
           cx="944.24994"
           cy="2022.1667"
           r="15.004032"
           inkscape:label="Bulb"
           transform="matrix(3.77953 0 0 3.77953 -62.672 -2931.93)"
           id="circle2" /><circle
           style="fill:none;fill-opacity:0.980392;stroke:#000000;stroke-width:0.491934;stroke-dasharray:none"
           cx="944.24994"
           cy="2022.1667"
           r="15.004032"
           inkscape:label="Bulb"
           transform="matrix(3.77953 0 0 3.77953 395.746 -2931.93)"
           id="circle3" /></g><g
         id="g67"><circle
           style="fill:none;fill-opacity:0.980392;stroke:#000000;stroke-width:0.491934;stroke-dasharray:none"
           cx="944.24994"
           cy="2022.1667"
           r="15.004032"
           inkscape:label="Bulb"
           transform="matrix(3.76134 -0.360444 0.360444 3.76134 -2759.72 279.848)"
           id="circle63" /><circle
           style="fill:none;fill-opacity:0.980392;stroke:#000000;stroke-width:0.491934;stroke-dasharray:none"
           cx="944.24994"
           cy="2022.1667"
           r="15.004032"
           inkscape:label="Bulb"
           transform="matrix(3.77953 0.00103575 -0.00103575 3.77953 -1574.91 -99.8054)"
           id="circle64" /><circle
           style="fill:none;fill-opacity:0.980392;stroke:#000000;stroke-width:0.491934;stroke-dasharray:none"
           cx="944.24994"
           cy="2022.1667"
           r="15.004032"
           inkscape:label="Bulb"
           transform="matrix(3.77953 0.00103575 -0.00103575 3.77953 -1103.89 -99.6763)"
           id="circle65" /><circle
           style="fill:none;fill-opacity:0.980392;stroke:#000000;stroke-width:0.491934;stroke-dasharray:none"
           cx="944.24994"
           cy="2022.1667"
           r="15.004032"
           inkscape:label="Bulb"
           transform="matrix(3.77953 0.00574263 -0.00574263 3.77953 -623.339 -103.409)"
           id="circle66" /><circle
           style="fill:none;fill-opacity:0.980392;stroke:#000000;stroke-width:0.491934;stroke-dasharray:none"
           cx="944.24994"
           cy="2022.1667"
           r="15.004032"
           inkscape:label="Bulb"
           transform="matrix(3.77953 0.00574263 -0.00574263 3.77953 -152.313 -102.693)"
           id="circle67" /></g><g
         id="g78"><circle
           style="fill:none;fill-opacity:0.980392;stroke:#000000;stroke-width:0.491934;stroke-dasharray:none"
           cx="944.24994"
           cy="2022.1667"
           r="15.004032"
           inkscape:label="Bulb"
           transform="matrix(3.63669 1.02925 -1.02925 3.63669 168.077 -1300.35)"
           id="circle72" /><circle
           style="fill:none;fill-opacity:0.980392;stroke:#000000;stroke-width:0.491934;stroke-dasharray:none"
           cx="944.24994"
           cy="2022.1667"
           r="15.004032"
           inkscape:label="Bulb"
           transform="matrix(3.63669 1.02925 -1.02925 3.63669 640.284 -1166.7)"
           id="circle73" /><circle
           style="fill:none;fill-opacity:0.980392;stroke:#000000;stroke-width:0.491934;stroke-dasharray:none"
           cx="944.24994"
           cy="2022.1667"
           r="15.004032"
           inkscape:label="Bulb"
           transform="matrix(3.63669 1.02925 -1.02925 3.63669 1112.49 -1033.06)"
           id="circle78" /></g></g><g
       id="g1033"
       inkscape:label="Bottom serif bulbs"
       transform="matrix(0.26458333,0,0,0.26458333,-122.37827,-166.51258)" /><g
       id="g1032"
       inkscape:label="Left bulbs"
       inkscape:path-effect="#path-effect1034"
       transform="matrix(0.26458333,0,0,0.26458333,-122.37827,-166.51258)"><path
         style="fill:none;fill-opacity:0.980392;stroke:#000000;stroke-width:1.85927;stroke-dasharray:none"
         inkscape:label="Bulb"
         transform="rotate(-142.71381)"
         id="circle318"
         d="m -6697.5733,-3965.7837 c 0,31.3189 -25.389,56.7079 -56.7079,56.7079 -31.319,0 -56.708,-25.389 -56.708,-56.7079 0,-31.3189 25.389,-56.7079 56.7079,-56.7079 31.319,0 56.708,25.389 56.708,56.7079 z m -2695.1625,2052.1371 c 30.1905,8.3315 61.4186,-9.3886 69.7501,-39.579 8.3315,-30.1904 -9.3887,-61.4186 -39.5791,-69.7501 -30.1904,-8.3315 -61.4185,9.3887 -69.75,39.5791 -8.3315,30.1904 9.3886,61.4186 39.579,69.75 z"
         sodipodi:type="arc"
         sodipodi:cx="-6754.2812"
         sodipodi:cy="-3965.7837"
         sodipodi:rx="56.707905"
         sodipodi:ry="56.707905" /><circle
         style="fill:none;fill-opacity:0.980392;stroke:#000000;stroke-width:1.85928;stroke-dasharray:none"
         id="path9"
         cx="3404.8943"
         cy="7243.1934"
         r="56.708153"
         inkscape:label="Bulb"
         d="m 3461.6024,7243.1934 c 0,31.319 -25.3891,56.7081 -56.7081,56.7081 -31.3191,0 -56.7082,-25.3891 -56.7082,-56.7081 0,-31.3191 25.3891,-56.7082 56.7082,-56.7082 31.319,0 56.7081,25.3891 56.7081,56.7082 z m 2316.82,0 c 0,31.319 25.3891,56.7081 56.7081,56.7081 31.3191,0 56.7082,-25.3891 56.7082,-56.7081 0,-31.3191 -25.3891,-56.7082 -56.7082,-56.7082 -31.319,0 -56.7081,25.3891 -56.7081,56.7082 z" /></g><g
       id="g26"
       style="display:inline"
       transform="matrix(0.26458333,0,0,0.26458333,-122.37827,-166.51258)"><circle
         style="fill:none;fill-opacity:0.980392;stroke:#000000;stroke-width:0.491934;stroke-dasharray:none"
         cx="944.24994"
         cy="2022.1667"
         r="15.004032"
         inkscape:label="Bulb"
         transform="matrix(-2.49712 -2.83709 2.83709 -2.49712 -605.661 14621.9)"
         id="circle4" /><circle
         style="fill:none;fill-opacity:0.980392;stroke:#000000;stroke-width:0.491934;stroke-dasharray:none"
         cx="944.24994"
         cy="2022.1667"
         r="15.004032"
         inkscape:label="Bulb"
         transform="matrix(-1.83703 -3.30304 3.30304 -1.83703 -2463.72 13311)"
         id="circle5" /><circle
         style="fill:none;fill-opacity:0.980392;stroke:#000000;stroke-width:0.491934;stroke-dasharray:none"
         cx="944.24994"
         cy="2022.1667"
         r="15.004032"
         inkscape:label="Bulb"
         transform="matrix(-1.10348 -3.61484 3.61484 -1.10348 -3987.25 11654.6)"
         id="circle6" /><circle
         style="fill:none;fill-opacity:0.980392;stroke:#000000;stroke-width:0.491934;stroke-dasharray:none"
         cx="944.24994"
         cy="2022.1667"
         r="15.004032"
         inkscape:label="Bulb"
         transform="matrix(-0.356912 -3.76263 3.76263 -0.356912 -5090.69 9785.79)"
         id="circle7" /><circle
         style="fill:none;fill-opacity:0.980392;stroke:#000000;stroke-width:0.491934;stroke-dasharray:none"
         cx="944.24994"
         cy="2022.1667"
         r="15.004032"
         inkscape:label="Bulb"
         transform="matrix(0.451003 -3.75251 3.75251 0.451003 -5827.63 7633.96)"
         id="circle8" /><circle
         style="fill:none;fill-opacity:0.980392;stroke:#000000;stroke-width:0.491934;stroke-dasharray:none"
         cx="944.24994"
         cy="2022.1667"
         r="15.004032"
         inkscape:label="Bulb"
         transform="matrix(1.21713 -3.57817 3.57817 1.21713 -6087.92 5423.71)"
         id="circle9" /><circle
         style="fill:none;fill-opacity:0.980392;stroke:#000000;stroke-width:0.491934;stroke-dasharray:none"
         cx="944.24994"
         cy="2022.1667"
         r="15.004032"
         inkscape:label="Bulb"
         transform="matrix(1.89812 -3.26831 3.26831 1.89812 -5893.93 3291.03)"
         id="circle10" /><circle
         style="fill:none;fill-opacity:0.980392;stroke:#000000;stroke-width:0.491934;stroke-dasharray:none"
         cx="944.24994"
         cy="2022.1667"
         r="15.004032"
         inkscape:label="Bulb"
         transform="matrix(2.54944 -2.79018 2.79018 2.54944 -5240.39 1113.04)"
         id="circle13" /><circle
         style="fill:none;fill-opacity:0.980392;stroke:#000000;stroke-width:0.491934;stroke-dasharray:none"
         cx="944.24994"
         cy="2022.1667"
         r="15.004032"
         inkscape:label="Bulb"
         transform="matrix(3.07789 -2.19347 2.19347 3.07789 -4153.02 -857.34)"
         id="circle14" /><circle
         style="fill:none;fill-opacity:0.980392;stroke:#000000;stroke-width:0.491934;stroke-dasharray:none"
         cx="944.24994"
         cy="2022.1667"
         r="15.004032"
         inkscape:label="Bulb"
         transform="matrix(3.45493 -1.53238 1.53238 3.45493 -2730.87 -2496.76)"
         id="circle15" /><circle
         style="fill:none;fill-opacity:0.980392;stroke:#000000;stroke-width:0.491934;stroke-dasharray:none"
         cx="944.24994"
         cy="2022.1667"
         r="15.004032"
         inkscape:label="Bulb"
         transform="matrix(3.7017 -0.763 0.763 3.7017 -924.075 -3878.42)"
         id="circle16" /><circle
         style="fill:none;fill-opacity:0.980392;stroke:#000000;stroke-width:0.491934;stroke-dasharray:none"
         cx="944.24994"
         cy="2022.1667"
         r="15.004032"
         inkscape:label="Bulb"
         transform="matrix(3.77947 0.0188774 -0.0188774 3.77947 1089.42 -4826.62)"
         id="circle17" /><circle
         style="fill:none;fill-opacity:0.980392;stroke:#000000;stroke-width:0.491934;stroke-dasharray:none"
         cx="944.24994"
         cy="2022.1667"
         r="15.004032"
         inkscape:label="Bulb"
         transform="matrix(3.7017 0.763 -0.763 3.7017 3173.44 -5319.34)"
         id="circle18" /><circle
         style="fill:none;fill-opacity:0.980392;stroke:#000000;stroke-width:0.491934;stroke-dasharray:none"
         cx="944.24994"
         cy="2022.1667"
         r="15.004032"
         inkscape:label="Bulb"
         transform="matrix(3.45493 1.53238 -1.53238 3.45493 5446.26 -5390.66)"
         id="circle19" /><circle
         style="fill:none;fill-opacity:0.980392;stroke:#000000;stroke-width:0.491934;stroke-dasharray:none"
         cx="944.24994"
         cy="2022.1667"
         r="15.004032"
         inkscape:label="Bulb"
         transform="matrix(3.07789 2.19347 -2.19347 3.07789 7580.44 -4999.71)"
         id="circle20" /><circle
         style="fill:none;fill-opacity:0.980392;stroke:#000000;stroke-width:0.491934;stroke-dasharray:none"
         cx="944.24994"
         cy="2022.1667"
         r="15.004032"
         inkscape:label="Bulb"
         transform="matrix(2.54944 2.79018 -2.79018 2.54944 9665.8 -4156.21)"
         id="circle21" /><circle
         style="fill:none;fill-opacity:0.980392;stroke:#000000;stroke-width:0.491934;stroke-dasharray:none"
         cx="944.24994"
         cy="2022.1667"
         r="15.004032"
         inkscape:label="Bulb"
         transform="matrix(1.89812 3.26831 -3.26831 1.89812 11549.4 -2881.17)"
         id="circle22" /><circle
         style="fill:none;fill-opacity:0.980392;stroke:#000000;stroke-width:0.491934;stroke-dasharray:none"
         cx="944.24994"
         cy="2022.1667"
         r="15.004032"
         inkscape:label="Bulb"
         transform="matrix(1.21713 3.57817 -3.57817 1.21713 13029.4 -1333.68)"
         id="circle23" /><circle
         style="fill:none;fill-opacity:0.980392;stroke:#000000;stroke-width:0.491934;stroke-dasharray:none"
         cx="944.24994"
         cy="2022.1667"
         r="15.004032"
         inkscape:label="Bulb"
         transform="matrix(0.451003 3.75251 -3.75251 0.451003 14215.9 547.347)"
         id="circle24" /><circle
         style="fill:none;fill-opacity:0.980392;stroke:#000000;stroke-width:0.491934;stroke-dasharray:none"
         cx="944.24994"
         cy="2022.1667"
         r="15.004032"
         inkscape:label="Bulb"
         transform="matrix(-0.356912 3.76263 -3.76263 -0.356912 15004.7 2680.07)"
         id="circle25" /><circle
         style="fill:none;fill-opacity:0.980392;stroke:#000000;stroke-width:0.491934;stroke-dasharray:none"
         cx="944.24994"
         cy="2022.1667"
         r="15.004032"
         inkscape:label="Bulb"
         transform="matrix(-1.10348 3.61484 -3.61484 -1.10348 15311.2 4828.02)"
         id="circle26" /><circle
         style="fill:none;fill-opacity:0.980392;stroke:#000000;stroke-width:0.491934;stroke-dasharray:none"
         cx="944.24994"
         cy="2022.1667"
         r="15.004032"
         inkscape:label="Bulb"
         transform="matrix(-1.83703 3.30304 -3.30304 -1.83703 15173 7073.25)"
         id="circle27" /><circle
         style="fill:none;fill-opacity:0.980392;stroke:#000000;stroke-width:0.491934;stroke-dasharray:none"
         cx="944.24994"
         cy="2022.1667"
         r="15.004032"
         inkscape:label="Bulb"
         transform="matrix(-2.49712 2.83709 -2.83709 -2.49712 14561.5 9264.04)"
         id="circle28" /></g><g
       id="g50"
       style="display:inline"
       transform="matrix(0.26458333,0,0,0.26458333,-122.37827,-166.51258)"><circle
         style="fill:none;fill-opacity:0.980392;stroke:#000000;stroke-width:0.491934;stroke-dasharray:none"
         cx="944.24994"
         cy="2022.1667"
         r="15.004032"
         inkscape:label="Bulb"
         transform="matrix(-2.76347 -2.57837 2.57837 -2.76347 537.475 14896.6)"
         id="circle29" /><circle
         style="fill:none;fill-opacity:0.980392;stroke:#000000;stroke-width:0.491934;stroke-dasharray:none"
         cx="944.24994"
         cy="2022.1667"
         r="15.004032"
         inkscape:label="Bulb"
         transform="matrix(-2.16596 -3.09731 3.09731 -2.16596 -1371.72 13840.3)"
         id="circle30" /><circle
         style="fill:none;fill-opacity:0.980392;stroke:#000000;stroke-width:0.491934;stroke-dasharray:none"
         cx="944.24994"
         cy="2022.1667"
         r="15.004032"
         inkscape:label="Bulb"
         transform="matrix(-1.48532 -3.47542 3.47542 -1.48532 -2998.59 12429.1)"
         id="circle31" /><circle
         style="fill:none;fill-opacity:0.980392;stroke:#000000;stroke-width:0.491934;stroke-dasharray:none"
         cx="944.24994"
         cy="2022.1667"
         r="15.004032"
         inkscape:label="Bulb"
         transform="matrix(-0.745134 -3.70534 3.70534 -0.745134 -4296.84 10720.9)"
         id="circle32" /><circle
         style="fill:none;fill-opacity:0.980392;stroke:#000000;stroke-width:0.491934;stroke-dasharray:none"
         cx="944.24994"
         cy="2022.1667"
         r="15.004032"
         inkscape:label="Bulb"
         transform="matrix(0.0340623 -3.77936 3.77936 0.0340623 -5225.74 8768.16)"
         id="circle33" /><circle
         style="fill:none;fill-opacity:0.980392;stroke:#000000;stroke-width:0.491934;stroke-dasharray:none"
         cx="944.24994"
         cy="2022.1667"
         r="15.004032"
         inkscape:label="Bulb"
         transform="matrix(0.788572 -3.69633 3.69633 0.788572 -5720.62 6717.67)"
         id="circle34" /><circle
         style="fill:none;fill-opacity:0.980392;stroke:#000000;stroke-width:0.491934;stroke-dasharray:none"
         cx="944.24994"
         cy="2022.1667"
         r="15.004032"
         inkscape:label="Bulb"
         transform="matrix(1.55407 -3.44523 3.44523 1.55407 -5795.35 4505.96)"
         id="circle35" /><circle
         style="fill:none;fill-opacity:0.980392;stroke:#000000;stroke-width:0.491934;stroke-dasharray:none"
         cx="944.24994"
         cy="2022.1667"
         r="15.004032"
         inkscape:label="Bulb"
         transform="matrix(2.20889 -3.06685 3.06685 2.20889 -5423.46 2435.87)"
         id="circle36" /><circle
         style="fill:none;fill-opacity:0.980392;stroke:#000000;stroke-width:0.491934;stroke-dasharray:none"
         cx="944.24994"
         cy="2022.1667"
         r="15.004032"
         inkscape:label="Bulb"
         transform="matrix(2.81654 -2.52028 2.52028 2.81654 -4591.64 357.1)"
         id="circle37" /><circle
         style="fill:none;fill-opacity:0.980392;stroke:#000000;stroke-width:0.491934;stroke-dasharray:none"
         cx="944.24994"
         cy="2022.1667"
         r="15.004032"
         inkscape:label="Bulb"
         transform="matrix(3.27133 -1.89292 1.89292 3.27133 -3389.89 -1419.99)"
         id="circle38" /><circle
         style="fill:none;fill-opacity:0.980392;stroke:#000000;stroke-width:0.491934;stroke-dasharray:none"
         cx="944.24994"
         cy="2022.1667"
         r="15.004032"
         inkscape:label="Bulb"
         transform="matrix(3.59055 -1.18011 1.18011 3.59055 -1840.62 -2923.49)"
         id="circle39" /><circle
         style="fill:none;fill-opacity:0.980392;stroke:#000000;stroke-width:0.491934;stroke-dasharray:none"
         cx="944.24994"
         cy="2022.1667"
         r="15.004032"
         inkscape:label="Bulb"
         transform="matrix(3.75371 -0.440929 0.440929 3.75371 -61.3144 -4047.93)"
         id="circle40" /><circle
         style="fill:none;fill-opacity:0.980392;stroke:#000000;stroke-width:0.491934;stroke-dasharray:none"
         cx="944.24994"
         cy="2022.1667"
         r="15.004032"
         inkscape:label="Bulb"
         transform="matrix(3.76187 0.364764 -0.364764 3.76187 2009.32 -4829.5)"
         id="circle41" /><circle
         style="fill:none;fill-opacity:0.980392;stroke:#000000;stroke-width:0.491934;stroke-dasharray:none"
         cx="944.24994"
         cy="2022.1667"
         r="15.004032"
         inkscape:label="Bulb"
         transform="matrix(3.61332 1.10845 -1.10845 3.61332 4093.82 -5143.25)"
         id="circle42" /><circle
         style="fill:none;fill-opacity:0.980392;stroke:#000000;stroke-width:0.491934;stroke-dasharray:none"
         cx="944.24994"
         cy="2022.1667"
         r="15.004032"
         inkscape:label="Bulb"
         transform="matrix(3.3078 1.82843 -1.82843 3.3078 6251 -5028.28)"
         id="circle43" /><circle
         style="fill:none;fill-opacity:0.980392;stroke:#000000;stroke-width:0.491934;stroke-dasharray:none"
         cx="944.24994"
         cy="2022.1667"
         r="15.004032"
         inkscape:label="Bulb"
         transform="matrix(2.84108 2.49259 -2.49259 2.84108 8402.3 -4453.54)"
         id="circle44" /><circle
         style="fill:none;fill-opacity:0.980392;stroke:#000000;stroke-width:0.491934;stroke-dasharray:none"
         cx="944.24994"
         cy="2022.1667"
         r="15.004032"
         inkscape:label="Bulb"
         transform="matrix(2.2693 3.02242 -3.02242 2.2693 10320.3 -3469.52)"
         id="circle45" /><circle
         style="fill:none;fill-opacity:0.980392;stroke:#000000;stroke-width:0.491934;stroke-dasharray:none"
         cx="944.24994"
         cy="2022.1667"
         r="15.004032"
         inkscape:label="Bulb"
         transform="matrix(1.62339 3.41311 -3.41311 1.62339 11952.7 -2148.04)"
         id="circle46" /><circle
         style="fill:none;fill-opacity:0.980392;stroke:#000000;stroke-width:0.491934;stroke-dasharray:none"
         cx="944.24994"
         cy="2022.1667"
         r="15.004032"
         inkscape:label="Bulb"
         transform="matrix(0.863484 3.67955 -3.67955 0.863484 13357.5 -439.097)"
         id="circle47" /><circle
         style="fill:none;fill-opacity:0.980392;stroke:#000000;stroke-width:0.491934;stroke-dasharray:none"
         cx="944.24994"
         cy="2022.1667"
         r="15.004032"
         inkscape:label="Bulb"
         transform="matrix(0.109444 3.77793 -3.77793 0.109444 14326.7 1438.12)"
         id="circle48" /><circle
         style="fill:none;fill-opacity:0.980392;stroke:#000000;stroke-width:0.491934;stroke-dasharray:none"
         cx="944.24994"
         cy="2022.1667"
         r="15.004032"
         inkscape:label="Bulb"
         transform="matrix(-0.672266 3.71925 -3.71925 -0.672266 14911.3 3522.03)"
         id="circle49" /><circle
         style="fill:none;fill-opacity:0.980392;stroke:#000000;stroke-width:0.491934;stroke-dasharray:none"
         cx="944.24994"
         cy="2022.1667"
         r="15.004032"
         inkscape:label="Bulb"
         transform="matrix(-1.41707 3.50381 -3.50381 -1.41707 15052.7 5662.59)"
         id="circle50" /><circle
         style="fill:none;fill-opacity:0.980392;stroke:#000000;stroke-width:0.491934;stroke-dasharray:none"
         cx="944.24994"
         cy="2022.1667"
         r="15.004032"
         inkscape:label="Bulb"
         transform="matrix(-2.10429 3.13954 -3.13954 -2.10429 14753 7792.16)"
         id="circle51" /><circle
         style="fill:none;fill-opacity:0.980392;stroke:#000000;stroke-width:0.491934;stroke-dasharray:none"
         cx="944.24994"
         cy="2022.1667"
         r="15.004032"
         inkscape:label="Bulb"
         transform="matrix(-2.71094 2.63354 -2.63354 -2.71094 14013.6 9840.41)"
         id="circle52" /></g><g
       id="g55"
       style="display:inline"
       transform="matrix(0.26458333,0,0,0.26458333,-122.37827,-166.51258)"><circle
         style="fill:none;fill-opacity:0.980392;stroke:#000000;stroke-width:0.491934;stroke-dasharray:none"
         cx="944.24994"
         cy="2022.1667"
         r="15.004032"
         inkscape:label="Bulb"
         transform="matrix(3.77953 0 0 3.77953 608.99 -399.64)"
         id="circle53" /><circle
         style="fill:none;fill-opacity:0.980392;stroke:#000000;stroke-width:0.491934;stroke-dasharray:none"
         cx="944.24994"
         cy="2022.1667"
         r="15.004032"
         inkscape:label="Bulb"
         transform="matrix(3.77953 0 0 3.77953 1053.08 -399.64)"
         id="circle54" /><circle
         style="fill:none;fill-opacity:0.980392;stroke:#000000;stroke-width:0.491934;stroke-dasharray:none"
         cx="944.24994"
         cy="2022.1667"
         r="15.004032"
         inkscape:label="Bulb"
         transform="matrix(3.77953 0 0 3.77953 1497.18 -399.64)"
         id="circle55" /></g><g
       id="g58"
       style="display:inline"
       transform="matrix(0.26458333,0,0,0.26458333,-122.37827,-166.51258)"><circle
         style="fill:none;fill-opacity:0.980392;stroke:#000000;stroke-width:0.491934;stroke-dasharray:none"
         cx="944.24994"
         cy="2022.1667"
         r="15.004032"
         inkscape:label="Bulb"
         transform="matrix(3.77953 0 0 3.77953 608.99 -97.28)"
         id="circle56" /><circle
         style="fill:none;fill-opacity:0.980392;stroke:#000000;stroke-width:0.491934;stroke-dasharray:none"
         cx="944.24994"
         cy="2022.1667"
         r="15.004032"
         inkscape:label="Bulb"
         transform="matrix(3.77953 0 0 3.77953 1053.08 -97.28)"
         id="circle57" /><circle
         style="fill:none;fill-opacity:0.980392;stroke:#000000;stroke-width:0.491934;stroke-dasharray:none"
         cx="944.24994"
         cy="2022.1667"
         r="15.004032"
         inkscape:label="Bulb"
         transform="matrix(3.77953 0 0 3.77953 1497.18 -97.28)"
         id="circle58" /></g><g
       id="g68"
       style="display:inline"
       transform="matrix(0.26458333,0,0,0.26458333,-122.37827,-166.51258)"><circle
         style="fill:none;fill-opacity:0.980392;stroke:#000000;stroke-width:0.491934;stroke-dasharray:none"
         cx="944.24994"
         cy="2022.1667"
         r="15.004032"
         inkscape:label="Bulb"
         transform="matrix(1.71045 3.37034 -3.37034 1.71045 8802.43 -1315.27)"
         id="circle68" /><circle
         style="fill:none;fill-opacity:0.980392;stroke:#000000;stroke-width:0.491934;stroke-dasharray:none"
         cx="944.24994"
         cy="2022.1667"
         r="15.004032"
         inkscape:label="Bulb"
         transform="matrix(1.71045 3.37034 -3.37034 1.71045 9004.91 -916.295)"
         id="circle69" /><circle
         style="fill:none;fill-opacity:0.980392;stroke:#000000;stroke-width:0.491934;stroke-dasharray:none"
         cx="944.24994"
         cy="2022.1667"
         r="15.004032"
         inkscape:label="Bulb"
         transform="matrix(1.71045 3.37034 -3.37034 1.71045 9207.39 -517.32)"
         id="circle70" /><circle
         style="fill:none;fill-opacity:0.980392;stroke:#000000;stroke-width:0.491934;stroke-dasharray:none"
         cx="944.24994"
         cy="2022.1667"
         r="15.004032"
         inkscape:label="Bulb"
         transform="matrix(1.71045 3.37034 -3.37034 1.71045 9409.87 -118.345)"
         id="circle71" /><circle
         style="fill:none;fill-opacity:0.980392;stroke:#000000;stroke-width:0.491934;stroke-dasharray:none"
         cx="944.24994"
         cy="2022.1667"
         r="15.004032"
         inkscape:label="Bulb"
         transform="matrix(1.71045 3.37034 -3.37034 1.71045 9612.35 280.63)"
         id="circle79" /></g></g></svg>
