<?xml version="1.0" encoding="UTF-8" standalone="no"?>
<!-- Created with Inkscape (http://www.inkscape.org/) -->

<svg
   width="2200"
   height="2200"
   viewBox="0 0 2200 2200"
   version="1.1"
   id="svg1"
   inkscape:version="1.3 (0e150ed6c4, 2023-07-21)"
   sodipodi:docname="OVLysreklame.svg"
   xml:space="preserve"
   xmlns:inkscape="http://www.inkscape.org/namespaces/inkscape"
   xmlns:sodipodi="http://sodipodi.sourceforge.net/DTD/sodipodi-0.dtd"
   xmlns="http://www.w3.org/2000/svg"
   xmlns:svg="http://www.w3.org/2000/svg"><sodipodi:namedview
     id="namedview1"
     pagecolor="#505050"
     bordercolor="#eeeeee"
     borderopacity="1"
     inkscape:showpageshadow="0"
     inkscape:pageopacity="0"
     inkscape:pagecheckerboard="0"
     inkscape:deskcolor="#505050"
     inkscape:document-units="px"
     inkscape:zoom="0.70710678"
     inkscape:cx="637.81032"
     inkscape:cy="668.21591"
     inkscape:window-width="3840"
     inkscape:window-height="2081"
     inkscape:window-x="-9"
     inkscape:window-y="-9"
     inkscape:window-maximized="1"
     showguides="false"
     inkscape:current-layer="layer1"><sodipodi:guide
       position="1100,0"
       orientation="1,0"
       id="guide8"
       inkscape:locked="false"
       inkscape:label=""
       inkscape:color="rgb(0,134,229)" /><sodipodi:guide
       position="1064.1992,683.01144"
       orientation="0,1"
       id="guide1"
       inkscape:locked="false" /><sodipodi:guide
       position="1100.0372,1207.3848"
       orientation="0,1"
       id="guide2"
       inkscape:locked="false"
       inkscape:label=""
       inkscape:color="rgb(0,134,229)" /><sodipodi:guide
       position="1100.125,1381.375"
       orientation="0,1"
       id="guide3"
       inkscape:locked="false"
       inkscape:label=""
       inkscape:color="rgb(0,134,229)" /></sodipodi:namedview><defs
     id="defs1"><inkscape:path-effect
       effect="mirror_symmetry"
       start_point="4334.2308,-1661.2613"
       end_point="6546.6424,6353.9622"
       center_point="5440.4366,2346.3505"
       id="path-effect1"
       is_visible="true"
       lpeversion="1.2"
       lpesatellites=""
       mode="vertical"
       discard_orig_path="false"
       fuse_paths="false"
       oposite_fuse="false"
       split_items="false"
       split_open="false"
       link_styles="false" /><inkscape:path-effect
       effect="mirror_symmetry"
       start_point="4620.0124,-448.14131"
       end_point="4620.0124,7866.8194"
       center_point="4620.0124,3709.3391"
       id="path-effect1034"
       is_visible="true"
       lpeversion="1.2"
       lpesatellites=""
       mode="vertical"
       discard_orig_path="false"
       fuse_paths="false"
       oposite_fuse="false"
       split_items="false"
       split_open="false"
       link_styles="false" /></defs><g
     inkscape:label="Layer 1"
     inkscape:groupmode="layer"
     id="layer1"
     transform="translate(0,285.0833)"><path
       id="path3375"
       style="fill:#ffffff;fill-opacity:1;stroke-width:3.0382"
       inkscape:label="Logo"
       d="M 6419.5991 3356.9055 L 5759.0085 3657.09 C 6014.7841 3834.2065 6227.3932 4072.3248 6378.6443 4353.0768 C 6400.1603 4393.0145 6447.4952 4491.2271 6447.4952 4495.9311 C 6447.4952 4496.5994 6087.9185 4497.1417 5648.4425 4497.1417 L 4849.3973 4497.1417 L 4849.3973 4857.1713 L 4849.3973 5217.2008 L 5139.5424 5217.2008 C 5299.124 5217.2008 5429.695 5217.8643 5429.695 5218.6772 C 5429.695 5219.49 5363.5157 5351.0813 5282.633 5511.1034 C 5201.7502 5671.1254 5020.2633 6032.7717 4879.3308 6314.7549 C 4738.4266 6596.6814 4621.7803 6827.2532 4620.0124 6827.346 L 4620.0124 7747.2697 L 5273.2285 7746.5094 L 5273.9962 7391.7948 L 5274.7713 7037.0876 L 5140.9229 7037.0876 L 5007.0744 7037.0876 L 5060.7924 6931.5045 C 5090.3386 6873.4368 5125.7767 6804.0551 5139.5424 6777.3189 C 5153.3078 6750.5827 5191.5838 6675.3846 5224.5966 6610.2151 C 5257.6095 6545.0457 5295.2086 6471.2178 5308.1522 6446.1526 C 5321.0962 6421.0875 5367.5898 6329.4897 5411.4691 6242.597 C 5455.3486 6155.7044 5503.8859 6059.9956 5519.3333 6029.9173 C 5569.8291 5931.5963 5845.8198 5385.249 5894.9681 5286.3174 L 5929.3087 5217.2008 L 6270.8171 5217.2008 L 6612.3181 5217.2008 L 6610.6645 5324.2972 C 6609.0047 5431.7969 6605.5353 5480.2402 6593.1399 5568.9035 C 6559.6279 5808.6111 6477.9892 6051.2222 6360.3077 6260.8228 C 6188.9611 6566.0062 5941.6493 6820.3136 5643.8879 6997.4985 C 5620.4937 7011.4193 5598.2776 7024.6803 5594.5178 7026.9744 L 5587.6822 7031.1526 L 5587.6822 7401.7382 L 5587.6822 7772.3312 L 6757.387 7772.3312 L 7927.0991 7772.3312 L 7927.0991 7255.8352 C 7927.0991 6971.7633 7926.323 6739.3391 7925.3717 6739.3391 C 7924.4208 6739.3391 7868.7054 6754.5284 7801.5627 6773.0891 C 7734.4201 6791.6496 7667.8626 6810.0103 7653.6591 6813.8962 C 7426.2326 6876.1142 6747.6212 7063.1776 6693.5853 7078.5443 C 6595.3292 7106.4863 6528.1498 7125.1106 6525.4849 7125.1536 C 6524.0998 7125.1752 6536.6212 7110.4964 6553.3072 7092.533 C 6674.1297 6962.4612 6787.3758 6810.9289 6884.2373 6649.7156 C 7129.8797 6240.8752 7267.6033 5754.1318 7268.0809 5293.1531 C 7268.502 4886.79 7162.5002 4457.9356 6968.819 4082.4272 C 6942.1197 4030.6626 6927.8987 4004.9408 6888.0981 3936.3986 C 6790.9071 3769.0232 6633.7575 3565.5832 6492.9012 3424.7967 C 6469.4223 3401.3294 6444.0913 3379.4957 6419.5991 3356.9055 z "
       transform="matrix(0.26458333,0,0,0.26458333,-122.37827,-166.51258)" /><path
       id="path82"
       style="fill:#ffffff;fill-opacity:1;stroke-width:3.0382"
       inkscape:label="Logo"
       d="M 3481.2895 3657.2155 L 2819.8574 3356.6471 C 2771.1619 3401.3823 2724.3974 3446.5562 2683.1152 3491.5659 C 2344.2199 3861.0623 2114.1466 4318.1942 2019.5129 4810.0822 C 1954.7111 5146.9093 1956.094 5455.0067 2023.9199 5792.4346 C 2120.9324 6275.0638 2350.9496 6727.5077 2682.6428 7088.1408 C 2700.015 7107.0286 2713.6807 7123.023 2713.0119 7123.692 C 2711.8617 7124.8423 2651.8545 7108.5856 2546.4396 7078.5665 C 2520.5389 7071.1907 2443.2924 7049.7728 2374.7811 7030.968 C 2306.2697 7012.1636 2229.0232 6990.922 2203.1226 6983.7682 C 2177.2218 6976.6144 2100.6535 6955.506 2032.9774 6936.8563 C 1965.3016 6918.2063 1776.3947 6866.1367 1613.1841 6821.1452 C 1449.9734 6776.1536 1315.6488 6739.3391 1314.6827 6739.3391 C 1313.7166 6739.3391 1312.9258 6971.7635 1312.9258 7255.8352 L 1312.9258 7772.3312 L 2482.6379 7772.3312 L 3652.3426 7772.3312 L 3652.3426 7401.598 L 3652.3426 7030.8573 L 3638.2137 7022.5822 C 3549.4808 6970.5777 3476.7175 6922.7763 3415.3618 6876.192 C 2996.1731 6557.9206 2720.6866 6089.5485 2646.8775 5569.6344 C 2634.7282 5484.0519 2631.0252 5432.1373 2629.3603 5324.2972 L 2627.7068 5217.2008 L 2969.1266 5217.2746 L 3310.5464 5217.3484 L 3415.3618 5425.7909 C 3558.2425 5709.9256 3731.5439 6052.2266 3924.2545 6430.9606 C 3948.0617 6477.749 3990.4482 6561.1471 4018.4474 6616.2904 C 4046.447 6671.4338 4084.0424 6745.2692 4101.9957 6780.3603 C 4119.9489 6815.4515 4156.7837 6887.5664 4183.8461 6940.6211 L 4233.0464 7037.0876 L 4099.161 7037.0876 L 3965.2757 7037.0876 L 3965.2757 7392.5625 L 3965.2757 7748.0374 L 4619.2521 7747.2697 L 4620.0124 7747.2697 L 4620.0124 6827.346 C 4620.0121 6827.346 4619.9611 6827.4493 4619.9607 6827.4493 C 4618.2386 6827.4493 4501.5479 6596.738 4360.6497 6314.7549 C 4219.7517 6032.772 4038.2883 5671.1252 3957.3992 5511.1034 C 3876.5102 5351.0814 3810.3298 5219.49 3810.3298 5218.6772 C 3810.3298 5217.8643 3940.9011 5217.2008 4100.4824 5217.2008 L 4390.6276 5217.2008 L 4390.6276 4857.1713 L 4390.6276 4497.1417 L 3591.5823 4497.1417 C 3152.1067 4497.1417 2792.5296 4496.5952 2792.5296 4495.9237 C 2792.5296 4489.2472 2846.8164 4378.8239 2878.5582 4320.9286 C 2932.598 4222.3625 3041.5181 4066.1058 3105.4701 3995.4021 C 3109.6475 3990.7835 3121.2658 3977.4875 3131.2919 3965.8523 C 3158.3454 3934.4571 3272.4067 3821.8951 3309.0257 3790.4586 C 3365.3393 3742.1149 3422.7292 3698.0169 3481.2895 3657.2155 z "
       transform="matrix(0.26458333,0,0,0.26458333,-122.37827,-166.51258)" /><path
       id="path83"
       style="fill:#ffffff;fill-opacity:1;stroke-width:3.0382"
       inkscape:label="Logo"
       d="M 4581.2723 2646.967 C 4352.2159 2650.2435 4124.1566 2685.5745 3890.8441 2753.185 C 3616.312 2832.7404 3349.9129 2959.0094 3113.066 3121.844 C 3010.4323 3192.4058 2910.4636 3273.4097 2819.8574 3356.6471 L 3481.2895 3657.2155 C 3634.4857 3550.4774 3796.4841 3468.4596 3974.0897 3408.1432 C 4143.6228 3350.568 4304.7759 3318.5765 4489.1241 3305.904 C 4565.6092 3300.6464 4753.2102 3303.9157 4825.0887 3311.7579 C 5129.9453 3345.0189 5398.0706 3434.8583 5656.0385 3590.1806 C 5691.1398 3611.315 5725.3661 3633.7939 5759.0085 3657.09 L 6419.5991 3356.9055 C 6071.6998 3036.0238 5625.6347 2803.9025 5156.255 2704.7008 C 4995.1085 2670.6429 4836.8684 2651.5573 4679.5178 2647.528 C 4646.7365 2646.6886 4613.9946 2646.4989 4581.2723 2646.967 z "
       transform="matrix(0.26458333,0,0,0.26458333,-122.37827,-166.51258)" /><g
       id="g1013"
       inkscape:label="Plates"
       style="display:none"
       transform="matrix(0.26458333,0,0,0.26458333,-122.37827,-166.51258)"><rect
         style="fill:none;fill-opacity:0.980392;stroke:#000000;stroke-width:15.0595;stroke-dasharray:none"
         id="rect8-6"
         width="3386.5154"
         height="4520.3735"
         x="-62.658779"
         y="-6880.1987"
         transform="rotate(90)"
         inkscape:label="Plate 3"
         sodipodi:insensitive="true" /><rect
         style="fill:none;fill-opacity:0.980392;stroke:#000000;stroke-width:15.0596;stroke-dasharray:none"
         id="rect8"
         width="3386.5154"
         height="4520.374"
         x="4627.542"
         y="3338.9158"
         inkscape:label="Plate 2"
         sodipodi:insensitive="true" /><rect
         style="fill:none;fill-opacity:0.980392;stroke:#000000;stroke-width:15.0595;stroke-dasharray:none"
         id="rect8-3"
         width="3386.5154"
         height="4520.3735"
         x="1225.9673"
         y="3338.916"
         inkscape:label="Plate 1"
         sodipodi:insensitive="true" /></g><g
       id="g1012"
       inkscape:label="Guides"
       style="display:none"
       transform="matrix(0.26458333,0,0,0.26458333,-122.37827,-166.51258)"><path
         d="M 3047.73,4710.91 H 4185.37"
         style="fill:none;fill-rule:evenodd;stroke:#000000;stroke-width:3.77953px;stroke-linecap:butt;stroke-linejoin:miter;stroke-opacity:1"
         id="path4"
         inkscape:label="top serif guide 1" /><path
         d="M 2824.74,5013.28 H 4185.37"
         style="fill:none;fill-rule:evenodd;stroke:#000000;stroke-width:3.77953px;stroke-linecap:butt;stroke-linejoin:miter;stroke-opacity:1"
         id="path5"
         inkscape:label="top serif guide 2" /><path
         d="m 3602.13,5325.99 809.92,1595.9"
         style="fill:none;fill-rule:evenodd;stroke:#000000;stroke-width:3.98975px;stroke-linecap:butt;stroke-linejoin:miter;stroke-opacity:1"
         id="path6"
         inkscape:label="v guide" /><path
         d="m 1520.7,7025.51 944.414,267.287"
         style="fill:none;fill-rule:evenodd;stroke:#000000;stroke-width:3.01673px;stroke-linecap:butt;stroke-linejoin:miter;stroke-opacity:1"
         id="path7"
         inkscape:label="Outer sefif guide 1" /><path
         d="m 1520.8,7545.56 c 24.567,-3.7796 1884.09,0 1884.09,0"
         style="fill:none;fill-rule:evenodd;stroke:#000000;stroke-width:3.77953px;stroke-linecap:butt;stroke-linejoin:miter;stroke-opacity:1"
         id="path8"
         inkscape:label="Outer serif guide 2" /><path
         d="m 4177.81,7243.2 h 888.189"
         style="fill:none;fill-rule:evenodd;stroke:#000000;stroke-width:3.77953px;stroke-linecap:butt;stroke-linejoin:miter;stroke-opacity:1"
         id="path10"
         inkscape:label="bottom serif guide 1" /><path
         d="m 4177.81,7545.56 h 888.189"
         style="fill:none;fill-rule:evenodd;stroke:#000000;stroke-width:3.77953px;stroke-linecap:butt;stroke-linejoin:miter;stroke-opacity:1"
         id="path11"
         inkscape:label="bottom serif guide 2" /><path
         d="M 3406.01,7083.35 A 2171,2171 0 0 1 2543.88,4648.77 2171,2171 0 0 1 4620.01,3112.51 2171,2171 0 0 1 6696.15,4648.77 2171,2171 0 0 1 5834.02,7083.35"
         style="fill:none;fill-opacity:0.980392;stroke:#000000;stroke-width:3.77953;stroke-dasharray:none"
         id="circle11"
         inkscape:label="Inner circle guide" /><path
         d="m 3145.81,7239.84 a 2449.59,2449.59 0 0 1 -848.8,-2733.59 2449.59,2449.59 0 0 1 2323,-1672.33 2449.59,2449.59 0 0 1 2323,1672.33 2449.59,2449.59 0 0 1 -848.8,2733.59"
         style="fill:none;fill-opacity:0.980392;stroke:#000000;stroke-width:3.77953;stroke-dasharray:none"
         id="circle12"
         inkscape:label="Outer circle guide" /><ellipse
         style="fill:none;fill-opacity:0.980392;stroke:#000000;stroke-width:3.77953;stroke-dasharray:none"
         id="path1"
         cx="4620.0127"
         cy="5283.5122"
         rx="2637.6362"
         ry="2637.636"
         inkscape:label="O-circle" /><path
         d="M 4620.01,2833.92 A 2449.59,2449.59 0 1 0 7069.6,5283.51 2449.59,2449.59 0 0 0 4620.01,2833.92 Z"
         style="display:none;fill:none;fill-opacity:0.980392;stroke:#000000;stroke-width:3.77953;stroke-dasharray:none"
         id="path3"
         inkscape:label="Outer circle" /><circle
         style="display:none;fill:none;fill-opacity:0.980392;stroke:#000000;stroke-width:3.77953;stroke-dasharray:none"
         id="path3-8"
         cx="4620.0127"
         cy="5283.5122"
         r="2170.9976"
         inkscape:label="Inner circle"
         sodipodi:insensitive="true" /><circle
         style="fill:none;fill-opacity:0.980392;stroke:#000000;stroke-width:0.491934;stroke-dasharray:none"
         cx="944.24994"
         cy="2022.1667"
         r="15.004032"
         inkscape:label="Bulb"
         id="circle990-8"
         transform="matrix(3.7795276,0,0,3.7795276,462.53205,629.33889)" /></g><g
       id="g1033"
       inkscape:label="Bottom serif bulbs"
       transform="matrix(0.26458333,0,0,0.26458333,-122.37827,-166.51258)" /><g
       id="g1032"
       inkscape:label="Left bulbs"
       inkscape:path-effect="#path-effect1034"
       transform="matrix(0.26458333,0,0,0.26458333,-122.37827,-166.51258)"><path
         style="fill:none;fill-opacity:0.980392;stroke:#000000;stroke-width:1.85927;stroke-dasharray:none"
         inkscape:label="Bulb"
         transform="rotate(-142.71381)"
         id="circle318"
         d="m -6697.5733,-3965.7837 c 0,31.3189 -25.389,56.7079 -56.7079,56.7079 -31.319,0 -56.708,-25.389 -56.708,-56.7079 0,-31.3189 25.389,-56.7079 56.7079,-56.7079 31.319,0 56.708,25.389 56.708,56.7079 z m -2695.1625,2052.1371 c 30.1905,8.3315 61.4186,-9.3886 69.7501,-39.579 8.3315,-30.1904 -9.3887,-61.4186 -39.5791,-69.7501 -30.1904,-8.3315 -61.4185,9.3887 -69.75,39.5791 -8.3315,30.1904 9.3886,61.4186 39.579,69.75 z"
         sodipodi:type="arc"
         sodipodi:cx="-6754.2812"
         sodipodi:cy="-3965.7837"
         sodipodi:rx="56.707905"
         sodipodi:ry="56.707905" /><circle
         style="fill:none;fill-opacity:0.980392;stroke:#000000;stroke-width:1.85928;stroke-dasharray:none"
         id="path9"
         cx="3404.8943"
         cy="7243.1934"
         r="56.708153"
         inkscape:label="Bulb"
         d="m 3461.6024,7243.1934 c 0,31.319 -25.3891,56.7081 -56.7081,56.7081 -31.3191,0 -56.7082,-25.3891 -56.7082,-56.7081 0,-31.3191 25.3891,-56.7082 56.7082,-56.7082 31.319,0 56.7081,25.3891 56.7081,56.7082 z m 2316.82,0 c 0,31.319 25.3891,56.7081 56.7081,56.7081 31.3191,0 56.7082,-25.3891 56.7082,-56.7081 0,-31.3191 -25.3891,-56.7082 -56.7082,-56.7082 -31.319,0 -56.7081,25.3891 -56.7081,56.7082 z" /><g
         id="g68"
         style="display:inline"><circle
           style="fill:none;fill-opacity:0.980392;stroke:#000000;stroke-width:0.491934;stroke-dasharray:none"
           cx="944.24994"
           cy="2022.1667"
           r="15.004032"
           inkscape:label="Bulb"
           transform="matrix(1.71045 3.37034 -3.37034 1.71045 8802.43 -1315.27)"
           id="circle68"
           d="m 959.25397,2022.1667 c 0,8.2865 -6.71753,15.0041 -15.00403,15.0041 -8.2865,0 -15.00403,-6.7176 -15.00403,-15.0041 0,-8.2865 6.71753,-15.004 15.00403,-15.004 8.2865,0 15.00403,6.7175 15.00403,15.004 z m 237.61373,-468.2036 c 6.6882,-4.8922 8.1441,-14.28 3.2519,-20.9683 -4.8922,-6.6882 -14.28,-8.1441 -20.9682,-3.2519 -6.6883,4.8923 -8.1442,14.2801 -3.252,20.9683 4.8923,6.6882 14.2801,8.1441 20.9683,3.2519 z" /><circle
           style="fill:none;fill-opacity:0.980392;stroke:#000000;stroke-width:0.491934;stroke-dasharray:none"
           cx="944.24994"
           cy="2022.1667"
           r="15.004032"
           inkscape:label="Bulb"
           transform="matrix(1.71045 3.37034 -3.37034 1.71045 9004.91 -916.295)"
           id="circle69"
           d="m 959.25397,2022.1667 c 0,8.2865 -6.71753,15.0041 -15.00403,15.0041 -8.2865,0 -15.00403,-6.7176 -15.00403,-15.0041 0,-8.2865 6.71753,-15.004 15.00403,-15.004 8.2865,0 15.00403,6.7175 15.00403,15.004 z m 189.12423,-372.658 c 6.6882,-4.8922 8.1441,-14.28 3.2519,-20.9682 -4.8922,-6.6883 -14.28,-8.1442 -20.9682,-3.252 -6.6882,4.8923 -8.1442,14.2801 -3.2519,20.9683 4.8922,6.6882 14.28,8.1441 20.9682,3.2519 z" /><circle
           style="fill:none;fill-opacity:0.980392;stroke:#000000;stroke-width:0.491934;stroke-dasharray:none"
           cx="944.24994"
           cy="2022.1667"
           r="15.004032"
           inkscape:label="Bulb"
           transform="matrix(1.71045 3.37034 -3.37034 1.71045 9207.39 -517.32)"
           id="circle70"
           d="m 959.25397,2022.1667 c 0,8.2865 -6.71753,15.0041 -15.00403,15.0041 -8.2865,0 -15.00403,-6.7176 -15.00403,-15.0041 0,-8.2865 6.71753,-15.004 15.00403,-15.004 8.2865,0 15.00403,6.7175 15.00403,15.004 z m 140.63473,-277.1124 c 6.6882,-4.8922 8.1442,-14.28 3.252,-20.9682 -4.8923,-6.6882 -14.2801,-8.1442 -20.9683,-3.252 -6.6882,4.8923 -8.1441,14.2801 -3.2519,20.9683 4.8922,6.6882 14.28,8.1441 20.9682,3.2519 z" /><circle
           style="fill:none;fill-opacity:0.980392;stroke:#000000;stroke-width:0.491934;stroke-dasharray:none"
           cx="944.24994"
           cy="2022.1667"
           r="15.004032"
           inkscape:label="Bulb"
           transform="matrix(1.71045 3.37034 -3.37034 1.71045 9409.87 -118.345)"
           id="circle71"
           d="m 959.25397,2022.1667 c 0,8.2865 -6.71753,15.0041 -15.00403,15.0041 -8.2865,0 -15.00403,-6.7176 -15.00403,-15.0041 0,-8.2865 6.71753,-15.004 15.00403,-15.004 8.2865,0 15.00403,6.7175 15.00403,15.004 z m 92.14533,-181.5668 c 6.6882,-4.8922 8.1441,-14.28 3.2519,-20.9682 -4.8922,-6.6882 -14.28,-8.1442 -20.9682,-3.2519 -6.6883,4.8922 -8.1442,14.28 -3.252,20.9682 4.8923,6.6882 14.2801,8.1441 20.9683,3.2519 z" /><circle
           style="fill:none;fill-opacity:0.980392;stroke:#000000;stroke-width:0.491934;stroke-dasharray:none"
           cx="944.24994"
           cy="2022.1667"
           r="15.004032"
           inkscape:label="Bulb"
           transform="matrix(1.71045 3.37034 -3.37034 1.71045 9612.35 280.63)"
           id="circle79"
           d="m 959.25397,2022.1667 c 0,8.2865 -6.71753,15.0041 -15.00403,15.0041 -8.2865,0 -15.00403,-6.7176 -15.00403,-15.0041 0,-8.2865 6.71753,-15.004 15.00403,-15.004 8.2865,0 15.00403,6.7175 15.00403,15.004 z m 43.65583,-86.0212 c 6.6882,-4.8922 8.1441,-14.28 3.2519,-20.9682 -4.8922,-6.6882 -14.28,-8.1442 -20.96821,-3.2519 -6.68822,4.8922 -8.14415,14.28 -3.25192,20.9682 4.89222,6.6882 14.28002,8.1442 20.96823,3.2519 z" /></g><g
         id="g77"
         style="display:inline"><circle
           style="fill:none;fill-opacity:0.980392;stroke:#000000;stroke-width:0.491934;stroke-dasharray:none"
           cx="944.24994"
           cy="2022.1667"
           r="15.004032"
           inkscape:label="Bulb"
           transform="matrix(3.77953 0 0 3.77953 -744.08 -2629.56)"
           id="circle74"
           d="m 959.25397,2022.1667 c 0,8.2865 -6.71753,15.0041 -15.00403,15.0041 -8.2865,0 -15.00403,-6.7176 -15.00403,-15.0041 0,-8.2865 6.71753,-15.004 15.00403,-15.004 8.2865,0 15.00403,6.7175 15.00403,15.004 z m 919.98913,0 c 0,8.2865 6.7175,15.0041 15.004,15.0041 8.2865,0 15.0041,-6.7176 15.0041,-15.0041 0,-8.2865 -6.7176,-15.004 -15.0041,-15.004 -8.2865,0 -15.004,6.7175 -15.004,15.004 z" /><circle
           style="fill:none;fill-opacity:0.980392;stroke:#000000;stroke-width:0.491934;stroke-dasharray:none"
           cx="944.24994"
           cy="2022.1667"
           r="15.004032"
           inkscape:label="Bulb"
           transform="matrix(3.77953 0 0 3.77953 -290.537 -2629.56)"
           id="circle75"
           d="m 959.25397,2022.1667 c 0,8.2865 -6.71753,15.0041 -15.00403,15.0041 -8.2865,0 -15.00403,-6.7176 -15.00403,-15.0041 0,-8.2865 6.71753,-15.004 15.00403,-15.004 8.2865,0 15.00403,6.7175 15.00403,15.004 z m 679.98943,0 c 0,8.2865 6.7176,15.0041 15.004,15.0041 8.2865,0 15.0041,-6.7176 15.0041,-15.0041 0,-8.2865 -6.7176,-15.004 -15.0041,-15.004 -8.2864,0 -15.004,6.7175 -15.004,15.004 z" /><circle
           style="fill:none;fill-opacity:0.980392;stroke:#000000;stroke-width:0.491934;stroke-dasharray:none"
           cx="944.24994"
           cy="2022.1667"
           r="15.004032"
           inkscape:label="Bulb"
           transform="matrix(3.77953 0 0 3.77953 163.007 -2629.56)"
           id="circle76"
           d="m 959.25397,2022.1667 c 0,8.2865 -6.71753,15.0041 -15.00403,15.0041 -8.2865,0 -15.00403,-6.7176 -15.00403,-15.0041 0,-8.2865 6.71753,-15.004 15.00403,-15.004 8.2865,0 15.00403,6.7175 15.00403,15.004 z m 439.98923,0 c 0,8.2865 6.7175,15.0041 15.004,15.0041 8.2865,0 15.0041,-6.7176 15.0041,-15.0041 0,-8.2865 -6.7176,-15.004 -15.0041,-15.004 -8.2865,0 -15.004,6.7175 -15.004,15.004 z" /><circle
           style="fill:none;fill-opacity:0.980392;stroke:#000000;stroke-width:0.491934;stroke-dasharray:none"
           cx="944.24994"
           cy="2022.1667"
           r="15.004032"
           inkscape:label="Bulb"
           transform="matrix(3.77953 0 0 3.77953 616.55 -2629.56)"
           id="circle77"
           d="m 959.25397,2022.1667 c 0,8.2865 -6.71753,15.0041 -15.00403,15.0041 -8.2865,0 -15.00403,-6.7176 -15.00403,-15.0041 0,-8.2865 6.71753,-15.004 15.00403,-15.004 8.2865,0 15.00403,6.7175 15.00403,15.004 z m 199.98953,0 c 0,8.2865 6.7176,15.0041 15.0041,15.0041 8.2865,0 15.004,-6.7176 15.004,-15.0041 0,-8.2865 -6.7175,-15.004 -15.004,-15.004 -8.2865,0 -15.0041,6.7175 -15.0041,15.004 z" /></g><g
         id="g3"
         style="display:inline"><circle
           style="fill:none;fill-opacity:0.980392;stroke:#000000;stroke-width:0.491934;stroke-dasharray:none"
           cx="944.24994"
           cy="2022.1667"
           r="15.004032"
           inkscape:label="Bulb"
           transform="matrix(3.77953 0 0 3.77953 -521.09 -2931.93)"
           id="circle1"
           d="m 959.25397,2022.1667 c 0,8.2865 -6.71753,15.0041 -15.00403,15.0041 -8.2865,0 -15.00403,-6.7176 -15.00403,-15.0041 0,-8.2865 6.71753,-15.004 15.00403,-15.004 8.2865,0 15.00403,6.7175 15.00403,15.004 z m 801.99033,0 c 0,8.2865 6.7175,15.0041 15.004,15.0041 8.2865,0 15.0041,-6.7176 15.0041,-15.0041 0,-8.2865 -6.7176,-15.004 -15.0041,-15.004 -8.2865,0 -15.004,6.7175 -15.004,15.004 z" /><circle
           style="fill:none;fill-opacity:0.980392;stroke:#000000;stroke-width:0.491934;stroke-dasharray:none"
           cx="944.24994"
           cy="2022.1667"
           r="15.004032"
           inkscape:label="Bulb"
           transform="matrix(3.77953 0 0 3.77953 -62.672 -2931.93)"
           id="circle2"
           d="m 959.25397,2022.1667 c 0,8.2865 -6.71753,15.0041 -15.00403,15.0041 -8.2865,0 -15.00403,-6.7176 -15.00403,-15.0041 0,-8.2865 6.71753,-15.004 15.00403,-15.004 8.2865,0 15.00403,6.7175 15.00403,15.004 z m 559.41093,0 c 0,8.2865 6.7176,15.0041 15.0041,15.0041 8.2865,0 15.004,-6.7176 15.004,-15.0041 0,-8.2865 -6.7175,-15.004 -15.004,-15.004 -8.2865,0 -15.0041,6.7175 -15.0041,15.004 z" /><circle
           style="fill:none;fill-opacity:0.980392;stroke:#000000;stroke-width:0.491934;stroke-dasharray:none"
           cx="944.24994"
           cy="2022.1667"
           r="15.004032"
           inkscape:label="Bulb"
           transform="matrix(3.77953 0 0 3.77953 395.746 -2931.93)"
           id="circle3"
           d="m 959.25397,2022.1667 c 0,8.2865 -6.71753,15.0041 -15.00403,15.0041 -8.2865,0 -15.00403,-6.7176 -15.00403,-15.0041 0,-8.2865 6.71753,-15.004 15.00403,-15.004 8.2865,0 15.00403,6.7175 15.00403,15.004 z m 316.83163,0 c 0,8.2865 6.7175,15.0041 15.004,15.0041 8.2865,0 15.004,-6.7176 15.004,-15.0041 0,-8.2865 -6.7175,-15.004 -15.004,-15.004 -8.2865,0 -15.004,6.7175 -15.004,15.004 z" /></g><g
         id="g67"
         style="display:inline"><circle
           style="fill:none;fill-opacity:0.980392;stroke:#000000;stroke-width:0.491934;stroke-dasharray:none"
           cx="944.24994"
           cy="2022.1667"
           r="15.004032"
           inkscape:label="Bulb"
           transform="matrix(3.76134 -0.360444 0.360444 3.76134 -2759.72 279.848)"
           id="circle63"
           d="m 959.25397,2022.1667 c 0,8.2865 -6.71753,15.0041 -15.00403,15.0041 -8.2865,0 -15.00403,-6.7176 -15.00403,-15.0041 0,-8.2865 6.71753,-15.004 15.00403,-15.004 8.2865,0 15.00403,6.7175 15.00403,15.004 z M 2562.4519,2175.799 c -1.5737,8.1357 3.7458,16.0067 11.8815,17.5804 8.1357,1.5737 16.0068,-3.7458 17.5805,-11.8815 1.5737,-8.1357 -3.7458,-16.0067 -11.8815,-17.5804 -8.1357,-1.5737 -16.0068,3.7458 -17.5805,11.8815 z" /><circle
           style="fill:none;fill-opacity:0.980392;stroke:#000000;stroke-width:0.491934;stroke-dasharray:none"
           cx="944.24994"
           cy="2022.1667"
           r="15.004032"
           inkscape:label="Bulb"
           transform="matrix(3.77953 0.00103575 -0.00103575 3.77953 -1574.91 -99.8054)"
           id="circle64"
           d="m 959.25397,2022.1667 c 0,8.2865 -6.71753,15.0041 -15.00403,15.0041 -8.2865,0 -15.00403,-6.7176 -15.00403,-15.0041 0,-8.2865 6.71753,-15.004 15.00403,-15.004 8.2865,0 15.00403,6.7175 15.00403,15.004 z m 1360.74463,-0.3729 c 0,8.2865 6.7257,15.0004 15.0122,14.9959 8.2865,-0 15.0004,-6.7258 14.9958,-15.0123 -0,-8.2865 -6.7257,-15.0003 -15.0122,-14.9958 -8.2865,0 -15.0004,6.7257 -14.9958,15.0122 z" /><circle
           style="fill:none;fill-opacity:0.980392;stroke:#000000;stroke-width:0.491934;stroke-dasharray:none"
           cx="944.24994"
           cy="2022.1667"
           r="15.004032"
           inkscape:label="Bulb"
           transform="matrix(3.77953 0.00103575 -0.00103575 3.77953 -1103.89 -99.6763)"
           id="circle65"
           d="m 959.25397,2022.1667 c 0,8.2865 -6.71753,15.0041 -15.00403,15.0041 -8.2865,0 -15.00403,-6.7176 -15.00403,-15.0041 0,-8.2865 6.71753,-15.004 15.00403,-15.004 8.2865,0 15.00403,6.7175 15.00403,15.004 z m 1111.49673,-0.3045 c 0,8.2864 6.7257,15.0003 15.0122,14.9958 8.2865,-0 15.0004,-6.7258 14.9958,-15.0123 -0,-8.2865 -6.7257,-15.0003 -15.0122,-14.9958 -8.2865,0 -15.0004,6.7258 -14.9958,15.0123 z" /><circle
           style="fill:none;fill-opacity:0.980392;stroke:#000000;stroke-width:0.491934;stroke-dasharray:none"
           cx="944.24994"
           cy="2022.1667"
           r="15.004032"
           inkscape:label="Bulb"
           transform="matrix(3.77953 0.00574263 -0.00574263 3.77953 -623.339 -103.409)"
           id="circle66"
           d="m 959.25397,2022.1667 c 0,8.2865 -6.71753,15.0041 -15.00403,15.0041 -8.2865,0 -15.00403,-6.7176 -15.00403,-15.0041 0,-8.2865 6.71753,-15.004 15.00403,-15.004 8.2865,0 15.00403,6.7175 15.00403,15.004 z m 862.24003,-1.31 c 0.025,8.2864 6.7631,14.9835 15.0496,14.9583 8.2864,-0.025 14.9835,-6.7631 14.9583,-15.0495 -0.025,-8.2865 -6.7631,-14.9836 -15.0495,-14.9584 -8.2865,0.025 -14.9836,6.7631 -14.9584,15.0496 z" /><circle
           style="fill:none;fill-opacity:0.980392;stroke:#000000;stroke-width:0.491934;stroke-dasharray:none"
           cx="944.24994"
           cy="2022.1667"
           r="15.004032"
           inkscape:label="Bulb"
           transform="matrix(3.77953 0.00574263 -0.00574263 3.77953 -152.313 -102.693)"
           id="circle67"
           d="m 959.25397,2022.1667 c 0,8.2865 -6.71753,15.0041 -15.00403,15.0041 -8.2865,0 -15.00403,-6.7176 -15.00403,-15.0041 0,-8.2865 6.71753,-15.004 15.00403,-15.004 8.2865,0 15.00403,6.7175 15.00403,15.004 z m 612.98953,-0.9313 c 0.025,8.2864 6.7631,14.9835 15.0495,14.9583 8.2865,-0.025 14.9836,-6.7631 14.9584,-15.0495 -0.025,-8.2865 -6.7631,-14.9836 -15.0495,-14.9584 -8.2865,0.025 -14.9836,6.7631 -14.9584,15.0496 z" /></g><g
         id="g78"
         style="display:inline"><circle
           style="fill:none;fill-opacity:0.980392;stroke:#000000;stroke-width:0.491934;stroke-dasharray:none"
           cx="944.24994"
           cy="2022.1667"
           r="15.004032"
           inkscape:label="Bulb"
           transform="matrix(3.63669 1.02925 -1.02925 3.63669 168.077 -1300.35)"
           id="circle72"
           d="m 959.25397,2022.1667 c 0,8.2865 -6.71753,15.0041 -15.00403,15.0041 -8.2865,0 -15.00403,-6.7176 -15.00403,-15.0041 0,-8.2865 6.71753,-15.004 15.00403,-15.004 8.2865,0 15.00403,6.7175 15.00403,15.004 z M 2509.5348,1583.4088 c 4.3426,7.0575 13.5842,9.2583 20.6417,4.9157 7.0574,-4.3427 9.2582,-13.5842 4.9156,-20.6417 -4.3426,-7.0575 -13.5842,-9.2583 -20.6416,-4.9156 -7.0575,4.3426 -9.2583,13.5842 -4.9157,20.6416 z" /><circle
           style="fill:none;fill-opacity:0.980392;stroke:#000000;stroke-width:0.491934;stroke-dasharray:none"
           cx="944.24994"
           cy="2022.1667"
           r="15.004032"
           inkscape:label="Bulb"
           transform="matrix(3.63669 1.02925 -1.02925 3.63669 640.284 -1166.7)"
           id="circle73"
           d="m 959.25397,2022.1667 c 0,8.2865 -6.71753,15.0041 -15.00403,15.0041 -8.2865,0 -15.00403,-6.7176 -15.00403,-15.0041 0,-8.2865 6.71753,-15.004 15.00403,-15.004 8.2865,0 15.00403,6.7175 15.00403,15.004 z M 2269.1027,1651.4555 c 4.3427,7.0575 13.5842,9.2583 20.6417,4.9157 7.0575,-4.3427 9.2583,-13.5843 4.9156,-20.6417 -4.3426,-7.0575 -13.5842,-9.2583 -20.6416,-4.9157 -7.0575,4.3427 -9.2583,13.5843 -4.9157,20.6417 z" /><circle
           style="fill:none;fill-opacity:0.980392;stroke:#000000;stroke-width:0.491934;stroke-dasharray:none"
           cx="944.24994"
           cy="2022.1667"
           r="15.004032"
           inkscape:label="Bulb"
           transform="matrix(3.63669 1.02925 -1.02925 3.63669 1112.49 -1033.06)"
           id="circle78"
           d="m 959.25397,2022.1667 c 0,8.2865 -6.71753,15.0041 -15.00403,15.0041 -8.2865,0 -15.00403,-6.7176 -15.00403,-15.0041 0,-8.2865 6.71753,-15.004 15.00403,-15.004 8.2865,0 15.00403,6.7175 15.00403,15.004 z M 2028.6712,1719.5021 c 4.3426,7.0574 13.5842,9.2582 20.6416,4.9156 7.0575,-4.3426 9.2583,-13.5842 4.9157,-20.6417 -4.3426,-7.0574 -13.5842,-9.2582 -20.6417,-4.9156 -7.0574,4.3426 -9.2583,13.5842 -4.9156,20.6417 z" /></g></g><g
       id="g26"
       style="display:inline"
       transform="matrix(0.26458333,0,0,0.26458333,-122.37827,-166.51258)"><circle
         style="fill:none;fill-opacity:0.980392;stroke:#000000;stroke-width:0.491934;stroke-dasharray:none"
         cx="944.24994"
         cy="2022.1667"
         r="15.004032"
         inkscape:label="Bulb"
         transform="matrix(-2.49712 -2.83709 2.83709 -2.49712 -605.661 14621.9)"
         id="circle4" /><circle
         style="fill:none;fill-opacity:0.980392;stroke:#000000;stroke-width:0.491934;stroke-dasharray:none"
         cx="944.24994"
         cy="2022.1667"
         r="15.004032"
         inkscape:label="Bulb"
         transform="matrix(-1.83703 -3.30304 3.30304 -1.83703 -2463.72 13311)"
         id="circle5" /><circle
         style="fill:none;fill-opacity:0.980392;stroke:#000000;stroke-width:0.491934;stroke-dasharray:none"
         cx="944.24994"
         cy="2022.1667"
         r="15.004032"
         inkscape:label="Bulb"
         transform="matrix(-1.10348 -3.61484 3.61484 -1.10348 -3987.25 11654.6)"
         id="circle6" /><circle
         style="fill:none;fill-opacity:0.980392;stroke:#000000;stroke-width:0.491934;stroke-dasharray:none"
         cx="944.24994"
         cy="2022.1667"
         r="15.004032"
         inkscape:label="Bulb"
         transform="matrix(-0.356912 -3.76263 3.76263 -0.356912 -5090.69 9785.79)"
         id="circle7" /><circle
         style="fill:none;fill-opacity:0.980392;stroke:#000000;stroke-width:0.491934;stroke-dasharray:none"
         cx="944.24994"
         cy="2022.1667"
         r="15.004032"
         inkscape:label="Bulb"
         transform="matrix(0.451003 -3.75251 3.75251 0.451003 -5827.63 7633.96)"
         id="circle8" /><circle
         style="fill:none;fill-opacity:0.980392;stroke:#000000;stroke-width:0.491934;stroke-dasharray:none"
         cx="944.24994"
         cy="2022.1667"
         r="15.004032"
         inkscape:label="Bulb"
         transform="matrix(1.21713 -3.57817 3.57817 1.21713 -6087.92 5423.71)"
         id="circle9" /><circle
         style="fill:none;fill-opacity:0.980392;stroke:#000000;stroke-width:0.491934;stroke-dasharray:none"
         cx="944.24994"
         cy="2022.1667"
         r="15.004032"
         inkscape:label="Bulb"
         transform="matrix(1.89812 -3.26831 3.26831 1.89812 -5893.93 3291.03)"
         id="circle10" /><circle
         style="fill:none;fill-opacity:0.980392;stroke:#000000;stroke-width:0.491934;stroke-dasharray:none"
         cx="944.24994"
         cy="2022.1667"
         r="15.004032"
         inkscape:label="Bulb"
         transform="matrix(2.54944 -2.79018 2.79018 2.54944 -5240.39 1113.04)"
         id="circle13" /><circle
         style="fill:none;fill-opacity:0.980392;stroke:#000000;stroke-width:0.491934;stroke-dasharray:none"
         cx="944.24994"
         cy="2022.1667"
         r="15.004032"
         inkscape:label="Bulb"
         transform="matrix(3.07789 -2.19347 2.19347 3.07789 -4153.02 -857.34)"
         id="circle14" /><circle
         style="fill:none;fill-opacity:0.980392;stroke:#000000;stroke-width:0.491934;stroke-dasharray:none"
         cx="944.24994"
         cy="2022.1667"
         r="15.004032"
         inkscape:label="Bulb"
         transform="matrix(3.45493 -1.53238 1.53238 3.45493 -2730.87 -2496.76)"
         id="circle15" /><circle
         style="fill:none;fill-opacity:0.980392;stroke:#000000;stroke-width:0.491934;stroke-dasharray:none"
         cx="944.24994"
         cy="2022.1667"
         r="15.004032"
         inkscape:label="Bulb"
         transform="matrix(3.7017 -0.763 0.763 3.7017 -924.075 -3878.42)"
         id="circle16" /><circle
         style="fill:none;fill-opacity:0.980392;stroke:#000000;stroke-width:0.491934;stroke-dasharray:none"
         cx="944.24994"
         cy="2022.1667"
         r="15.004032"
         inkscape:label="Bulb"
         transform="matrix(3.77947 0.0188774 -0.0188774 3.77947 1089.42 -4826.62)"
         id="circle17" /><circle
         style="fill:none;fill-opacity:0.980392;stroke:#000000;stroke-width:0.491934;stroke-dasharray:none"
         cx="944.24994"
         cy="2022.1667"
         r="15.004032"
         inkscape:label="Bulb"
         transform="matrix(3.7017 0.763 -0.763 3.7017 3173.44 -5319.34)"
         id="circle18" /><circle
         style="fill:none;fill-opacity:0.980392;stroke:#000000;stroke-width:0.491934;stroke-dasharray:none"
         cx="944.24994"
         cy="2022.1667"
         r="15.004032"
         inkscape:label="Bulb"
         transform="matrix(3.45493 1.53238 -1.53238 3.45493 5446.26 -5390.66)"
         id="circle19" /><circle
         style="fill:none;fill-opacity:0.980392;stroke:#000000;stroke-width:0.491934;stroke-dasharray:none"
         cx="944.24994"
         cy="2022.1667"
         r="15.004032"
         inkscape:label="Bulb"
         transform="matrix(3.07789 2.19347 -2.19347 3.07789 7580.44 -4999.71)"
         id="circle20" /><circle
         style="fill:none;fill-opacity:0.980392;stroke:#000000;stroke-width:0.491934;stroke-dasharray:none"
         cx="944.24994"
         cy="2022.1667"
         r="15.004032"
         inkscape:label="Bulb"
         transform="matrix(2.54944 2.79018 -2.79018 2.54944 9665.8 -4156.21)"
         id="circle21" /><circle
         style="fill:none;fill-opacity:0.980392;stroke:#000000;stroke-width:0.491934;stroke-dasharray:none"
         cx="944.24994"
         cy="2022.1667"
         r="15.004032"
         inkscape:label="Bulb"
         transform="matrix(1.89812 3.26831 -3.26831 1.89812 11549.4 -2881.17)"
         id="circle22" /><circle
         style="fill:none;fill-opacity:0.980392;stroke:#000000;stroke-width:0.491934;stroke-dasharray:none"
         cx="944.24994"
         cy="2022.1667"
         r="15.004032"
         inkscape:label="Bulb"
         transform="matrix(1.21713 3.57817 -3.57817 1.21713 13029.4 -1333.68)"
         id="circle23" /><circle
         style="fill:none;fill-opacity:0.980392;stroke:#000000;stroke-width:0.491934;stroke-dasharray:none"
         cx="944.24994"
         cy="2022.1667"
         r="15.004032"
         inkscape:label="Bulb"
         transform="matrix(0.451003 3.75251 -3.75251 0.451003 14215.9 547.347)"
         id="circle24" /><circle
         style="fill:none;fill-opacity:0.980392;stroke:#000000;stroke-width:0.491934;stroke-dasharray:none"
         cx="944.24994"
         cy="2022.1667"
         r="15.004032"
         inkscape:label="Bulb"
         transform="matrix(-0.356912 3.76263 -3.76263 -0.356912 15004.7 2680.07)"
         id="circle25" /><circle
         style="fill:none;fill-opacity:0.980392;stroke:#000000;stroke-width:0.491934;stroke-dasharray:none"
         cx="944.24994"
         cy="2022.1667"
         r="15.004032"
         inkscape:label="Bulb"
         transform="matrix(-1.10348 3.61484 -3.61484 -1.10348 15311.2 4828.02)"
         id="circle26" /><circle
         style="fill:none;fill-opacity:0.980392;stroke:#000000;stroke-width:0.491934;stroke-dasharray:none"
         cx="944.24994"
         cy="2022.1667"
         r="15.004032"
         inkscape:label="Bulb"
         transform="matrix(-1.83703 3.30304 -3.30304 -1.83703 15173 7073.25)"
         id="circle27" /><circle
         style="fill:none;fill-opacity:0.980392;stroke:#000000;stroke-width:0.491934;stroke-dasharray:none"
         cx="944.24994"
         cy="2022.1667"
         r="15.004032"
         inkscape:label="Bulb"
         transform="matrix(-2.49712 2.83709 -2.83709 -2.49712 14561.5 9264.04)"
         id="circle28" /></g><g
       id="g50"
       style="display:inline"
       transform="matrix(0.26458333,0,0,0.26458333,-122.37827,-166.51258)"><circle
         style="fill:none;fill-opacity:0.980392;stroke:#000000;stroke-width:0.491934;stroke-dasharray:none"
         cx="944.24994"
         cy="2022.1667"
         r="15.004032"
         inkscape:label="Bulb"
         transform="matrix(-2.76347 -2.57837 2.57837 -2.76347 537.475 14896.6)"
         id="circle29" /><circle
         style="fill:none;fill-opacity:0.980392;stroke:#000000;stroke-width:0.491934;stroke-dasharray:none"
         cx="944.24994"
         cy="2022.1667"
         r="15.004032"
         inkscape:label="Bulb"
         transform="matrix(-2.16596 -3.09731 3.09731 -2.16596 -1371.72 13840.3)"
         id="circle30" /><circle
         style="fill:none;fill-opacity:0.980392;stroke:#000000;stroke-width:0.491934;stroke-dasharray:none"
         cx="944.24994"
         cy="2022.1667"
         r="15.004032"
         inkscape:label="Bulb"
         transform="matrix(-1.48532 -3.47542 3.47542 -1.48532 -2998.59 12429.1)"
         id="circle31" /><circle
         style="fill:none;fill-opacity:0.980392;stroke:#000000;stroke-width:0.491934;stroke-dasharray:none"
         cx="944.24994"
         cy="2022.1667"
         r="15.004032"
         inkscape:label="Bulb"
         transform="matrix(-0.745134 -3.70534 3.70534 -0.745134 -4296.84 10720.9)"
         id="circle32" /><circle
         style="fill:none;fill-opacity:0.980392;stroke:#000000;stroke-width:0.491934;stroke-dasharray:none"
         cx="944.24994"
         cy="2022.1667"
         r="15.004032"
         inkscape:label="Bulb"
         transform="matrix(0.0340623 -3.77936 3.77936 0.0340623 -5225.74 8768.16)"
         id="circle33" /><circle
         style="fill:none;fill-opacity:0.980392;stroke:#000000;stroke-width:0.491934;stroke-dasharray:none"
         cx="944.24994"
         cy="2022.1667"
         r="15.004032"
         inkscape:label="Bulb"
         transform="matrix(0.788572 -3.69633 3.69633 0.788572 -5720.62 6717.67)"
         id="circle34" /><circle
         style="fill:none;fill-opacity:0.980392;stroke:#000000;stroke-width:0.491934;stroke-dasharray:none"
         cx="944.24994"
         cy="2022.1667"
         r="15.004032"
         inkscape:label="Bulb"
         transform="matrix(1.55407 -3.44523 3.44523 1.55407 -5795.35 4505.96)"
         id="circle35" /><circle
         style="fill:none;fill-opacity:0.980392;stroke:#000000;stroke-width:0.491934;stroke-dasharray:none"
         cx="944.24994"
         cy="2022.1667"
         r="15.004032"
         inkscape:label="Bulb"
         transform="matrix(2.20889 -3.06685 3.06685 2.20889 -5423.46 2435.87)"
         id="circle36" /><circle
         style="fill:none;fill-opacity:0.980392;stroke:#000000;stroke-width:0.491934;stroke-dasharray:none"
         cx="944.24994"
         cy="2022.1667"
         r="15.004032"
         inkscape:label="Bulb"
         transform="matrix(2.81654 -2.52028 2.52028 2.81654 -4591.64 357.1)"
         id="circle37" /><circle
         style="fill:none;fill-opacity:0.980392;stroke:#000000;stroke-width:0.491934;stroke-dasharray:none"
         cx="944.24994"
         cy="2022.1667"
         r="15.004032"
         inkscape:label="Bulb"
         transform="matrix(3.27133 -1.89292 1.89292 3.27133 -3389.89 -1419.99)"
         id="circle38" /><circle
         style="fill:none;fill-opacity:0.980392;stroke:#000000;stroke-width:0.491934;stroke-dasharray:none"
         cx="944.24994"
         cy="2022.1667"
         r="15.004032"
         inkscape:label="Bulb"
         transform="matrix(3.59055 -1.18011 1.18011 3.59055 -1840.62 -2923.49)"
         id="circle39" /><circle
         style="fill:none;fill-opacity:0.980392;stroke:#000000;stroke-width:0.491934;stroke-dasharray:none"
         cx="944.24994"
         cy="2022.1667"
         r="15.004032"
         inkscape:label="Bulb"
         transform="matrix(3.75371 -0.440929 0.440929 3.75371 -61.3144 -4047.93)"
         id="circle40" /><circle
         style="fill:none;fill-opacity:0.980392;stroke:#000000;stroke-width:0.491934;stroke-dasharray:none"
         cx="944.24994"
         cy="2022.1667"
         r="15.004032"
         inkscape:label="Bulb"
         transform="matrix(3.76187 0.364764 -0.364764 3.76187 2009.32 -4829.5)"
         id="circle41" /><circle
         style="fill:none;fill-opacity:0.980392;stroke:#000000;stroke-width:0.491934;stroke-dasharray:none"
         cx="944.24994"
         cy="2022.1667"
         r="15.004032"
         inkscape:label="Bulb"
         transform="matrix(3.61332 1.10845 -1.10845 3.61332 4093.82 -5143.25)"
         id="circle42" /><circle
         style="fill:none;fill-opacity:0.980392;stroke:#000000;stroke-width:0.491934;stroke-dasharray:none"
         cx="944.24994"
         cy="2022.1667"
         r="15.004032"
         inkscape:label="Bulb"
         transform="matrix(3.3078 1.82843 -1.82843 3.3078 6251 -5028.28)"
         id="circle43" /><circle
         style="fill:none;fill-opacity:0.980392;stroke:#000000;stroke-width:0.491934;stroke-dasharray:none"
         cx="944.24994"
         cy="2022.1667"
         r="15.004032"
         inkscape:label="Bulb"
         transform="matrix(2.84108 2.49259 -2.49259 2.84108 8402.3 -4453.54)"
         id="circle44" /><circle
         style="fill:none;fill-opacity:0.980392;stroke:#000000;stroke-width:0.491934;stroke-dasharray:none"
         cx="944.24994"
         cy="2022.1667"
         r="15.004032"
         inkscape:label="Bulb"
         transform="matrix(2.2693 3.02242 -3.02242 2.2693 10320.3 -3469.52)"
         id="circle45" /><circle
         style="fill:none;fill-opacity:0.980392;stroke:#000000;stroke-width:0.491934;stroke-dasharray:none"
         cx="944.24994"
         cy="2022.1667"
         r="15.004032"
         inkscape:label="Bulb"
         transform="matrix(1.62339 3.41311 -3.41311 1.62339 11952.7 -2148.04)"
         id="circle46" /><circle
         style="fill:none;fill-opacity:0.980392;stroke:#000000;stroke-width:0.491934;stroke-dasharray:none"
         cx="944.24994"
         cy="2022.1667"
         r="15.004032"
         inkscape:label="Bulb"
         transform="matrix(0.863484 3.67955 -3.67955 0.863484 13357.5 -439.097)"
         id="circle47" /><circle
         style="fill:none;fill-opacity:0.980392;stroke:#000000;stroke-width:0.491934;stroke-dasharray:none"
         cx="944.24994"
         cy="2022.1667"
         r="15.004032"
         inkscape:label="Bulb"
         transform="matrix(0.109444 3.77793 -3.77793 0.109444 14326.7 1438.12)"
         id="circle48" /><circle
         style="fill:none;fill-opacity:0.980392;stroke:#000000;stroke-width:0.491934;stroke-dasharray:none"
         cx="944.24994"
         cy="2022.1667"
         r="15.004032"
         inkscape:label="Bulb"
         transform="matrix(-0.672266 3.71925 -3.71925 -0.672266 14911.3 3522.03)"
         id="circle49" /><circle
         style="fill:none;fill-opacity:0.980392;stroke:#000000;stroke-width:0.491934;stroke-dasharray:none"
         cx="944.24994"
         cy="2022.1667"
         r="15.004032"
         inkscape:label="Bulb"
         transform="matrix(-1.41707 3.50381 -3.50381 -1.41707 15052.7 5662.59)"
         id="circle50" /><circle
         style="fill:none;fill-opacity:0.980392;stroke:#000000;stroke-width:0.491934;stroke-dasharray:none"
         cx="944.24994"
         cy="2022.1667"
         r="15.004032"
         inkscape:label="Bulb"
         transform="matrix(-2.10429 3.13954 -3.13954 -2.10429 14753 7792.16)"
         id="circle51" /><circle
         style="fill:none;fill-opacity:0.980392;stroke:#000000;stroke-width:0.491934;stroke-dasharray:none"
         cx="944.24994"
         cy="2022.1667"
         r="15.004032"
         inkscape:label="Bulb"
         transform="matrix(-2.71094 2.63354 -2.63354 -2.71094 14013.6 9840.41)"
         id="circle52" /></g><g
       id="g55"
       style="display:inline"
       transform="matrix(0.26458333,0,0,0.26458333,-122.37827,-166.51258)"><circle
         style="fill:none;fill-opacity:0.980392;stroke:#000000;stroke-width:0.491934;stroke-dasharray:none"
         cx="944.24994"
         cy="2022.1667"
         r="15.004032"
         inkscape:label="Bulb"
         transform="matrix(3.77953 0 0 3.77953 608.99 -399.64)"
         id="circle53" /><circle
         style="fill:none;fill-opacity:0.980392;stroke:#000000;stroke-width:0.491934;stroke-dasharray:none"
         cx="944.24994"
         cy="2022.1667"
         r="15.004032"
         inkscape:label="Bulb"
         transform="matrix(3.77953 0 0 3.77953 1053.08 -399.64)"
         id="circle54" /><circle
         style="fill:none;fill-opacity:0.980392;stroke:#000000;stroke-width:0.491934;stroke-dasharray:none"
         cx="944.24994"
         cy="2022.1667"
         r="15.004032"
         inkscape:label="Bulb"
         transform="matrix(3.77953 0 0 3.77953 1497.18 -399.64)"
         id="circle55" /></g><g
       id="g58"
       style="display:inline"
       transform="matrix(0.26458333,0,0,0.26458333,-122.37827,-166.51258)"><circle
         style="fill:none;fill-opacity:0.980392;stroke:#000000;stroke-width:0.491934;stroke-dasharray:none"
         cx="944.24994"
         cy="2022.1667"
         r="15.004032"
         inkscape:label="Bulb"
         transform="matrix(3.77953 0 0 3.77953 608.99 -97.28)"
         id="circle56" /><circle
         style="fill:none;fill-opacity:0.980392;stroke:#000000;stroke-width:0.491934;stroke-dasharray:none"
         cx="944.24994"
         cy="2022.1667"
         r="15.004032"
         inkscape:label="Bulb"
         transform="matrix(3.77953 0 0 3.77953 1053.08 -97.28)"
         id="circle57" /><circle
         style="fill:none;fill-opacity:0.980392;stroke:#000000;stroke-width:0.491934;stroke-dasharray:none"
         cx="944.24994"
         cy="2022.1667"
         r="15.004032"
         inkscape:label="Bulb"
         transform="matrix(3.77953 0 0 3.77953 1497.18 -97.28)"
         id="circle58" /></g></g></svg>
