<?xml version="1.0" encoding="UTF-8" standalone="no"?>
<!-- Created with Inkscape (http://www.inkscape.org/) -->

<svg
   width="2200"
   height="2200"
   viewBox="0 0 2200 2200"
   version="1.1"
   id="svg1"
   inkscape:version="1.3 (0e150ed6c4, 2023-07-21)"
   sodipodi:docname="OVLysreklame.svg"
   xml:space="preserve"
   xmlns:inkscape="http://www.inkscape.org/namespaces/inkscape"
   xmlns:sodipodi="http://sodipodi.sourceforge.net/DTD/sodipodi-0.dtd"
   xmlns="http://www.w3.org/2000/svg"
   xmlns:svg="http://www.w3.org/2000/svg"><sodipodi:namedview
     id="namedview1"
     pagecolor="#505050"
     bordercolor="#eeeeee"
     borderopacity="1"
     inkscape:showpageshadow="0"
     inkscape:pageopacity="0"
     inkscape:pagecheckerboard="0"
     inkscape:deskcolor="#505050"
     inkscape:document-units="px"
     inkscape:zoom="2"
     inkscape:cx="862.5"
     inkscape:cy="362.75"
     inkscape:window-width="3840"
     inkscape:window-height="2081"
     inkscape:window-x="-9"
     inkscape:window-y="-9"
     inkscape:window-maximized="1"
     inkscape:current-layer="g3371"
     showguides="true"><sodipodi:guide
       position="1100,0"
       orientation="1,0"
       id="guide8"
       inkscape:locked="false"
       inkscape:label=""
       inkscape:color="rgb(0,134,229)" /><sodipodi:guide
       position="1064.1992,683.01144"
       orientation="0,1"
       id="guide1"
       inkscape:locked="false" /><sodipodi:guide
       position="1100.0372,1207.3848"
       orientation="0,1"
       id="guide2"
       inkscape:locked="false"
       inkscape:label=""
       inkscape:color="rgb(0,134,229)" /><sodipodi:guide
       position="1100.125,1381.375"
       orientation="0,1"
       id="guide3"
       inkscape:locked="false"
       inkscape:label=""
       inkscape:color="rgb(0,134,229)" /></sodipodi:namedview><defs
     id="defs1" /><g
     inkscape:label="Layer 1"
     inkscape:groupmode="layer"
     id="layer1"
     transform="translate(0,285.0833)"><g
       id="g3371"
       transform="matrix(0.26458333,0,0,0.26458333,-122.37827,-166.51258)"><path
         style="fill:#ffffff;fill-opacity:1;stroke-width:3.0382"
         d="m 1312.9258,7255.836 c 0,-284.0721 0.7904,-516.4948 1.7565,-516.4948 0.9661,0 135.2927,36.8111 298.5038,81.8027 163.2108,44.9915 352.1184,97.0615 419.7944,115.7115 67.6761,18.6497 144.2388,39.7619 170.1396,46.9157 25.9006,7.1538 103.147,28.3927 171.6586,47.1973 68.5115,18.8048 145.7578,40.225 171.6585,47.6008 105.4151,30.0193 165.4239,46.2761 166.5741,45.1258 0.6688,-0.669 -12.9977,-16.6701 -30.3699,-35.5579 -331.6938,-360.6337 -561.7075,-813.0696 -658.7202,-1295.6998 -67.8259,-337.4285 -69.2078,-645.5289 -4.406,-982.3568 94.6339,-491.889 324.7021,-949.0144 663.5982,-1318.5114 118.0949,-128.7584 272.1554,-261.2387 429.9491,-369.7235 236.8473,-162.8348 503.2479,-289.1068 777.7806,-368.6624 426.6294,-123.6308 835.6876,-139.3034 1265.4126,-48.4824 502.425,106.1858 979.6606,363.2894 1336.6463,720.0987 140.8564,140.7866 298.0048,344.2217 395.1959,511.5973 39.8007,68.5423 54.0211,94.2689 80.7205,146.0335 193.6814,375.5088 299.6834,804.3615 299.2623,1210.725 -0.4776,460.9792 -138.2031,947.718 -383.8457,1356.5588 -96.8616,161.2135 -210.1054,312.7464 -330.928,442.8183 -16.686,17.9634 -29.205,32.6432 -27.8199,32.6216 2.6649,-0.043 69.8444,-18.6692 168.1006,-46.6112 54.036,-15.3667 732.6463,-202.4254 960.073,-264.6435 14.2035,-3.8859 80.7596,-22.2512 147.9022,-40.8117 67.1428,-18.5607 122.8559,-33.7464 123.8068,-33.7464 0.9513,0 1.7294,232.4227 1.7294,516.4948 v 516.4949 H 6757.39 5587.6809 V 7401.74 7031.1489 l 6.8359,-4.1718 c 3.7598,-2.2941 25.9767,-15.5613 49.3709,-29.4821 297.7617,-177.1851 545.0732,-431.4875 716.42,-736.6712 117.6816,-209.6009 199.3209,-452.2129 232.8329,-691.9207 12.3954,-88.6634 15.8662,-137.1064 17.526,-244.6062 l 1.6533,-107.0967 h -341.5058 -341.5062 l -34.3378,69.1191 c -49.1484,98.9317 -325.1408,645.2797 -375.6367,743.6008 -15.4474,30.0783 -63.9876,125.7817 -107.8671,212.6744 -43.8794,86.8928 -90.3715,178.4946 -103.3155,203.5597 -12.9436,25.0652 -50.5447,98.8937 -83.5577,164.0631 -33.0128,65.1696 -71.2863,140.3651 -85.0517,167.1013 -13.7658,26.7362 -49.2032,96.1213 -78.7494,154.189 l -53.7203,105.5777 h 133.8496 133.8496 l -0.7723,354.7103 -0.772,354.7106 -653.9737,0.7665 -653.9737,0.7666 v -355.4771 -355.4769 h 133.884 133.8838 l -49.2042,-96.4631 c -27.0624,-53.0547 -63.8933,-125.174 -81.8465,-160.2654 -17.9533,-35.0911 -55.551,-108.9195 -83.5506,-164.0631 -27.9994,-55.1433 -70.3868,-138.5421 -94.194,-185.3305 -192.711,-378.7348 -366.0069,-721.0342 -508.8878,-1005.1695 l -104.818,-208.4432 -341.4205,-0.075 -341.4204,-0.075 1.6534,107.0967 c 1.6649,107.8403 5.3726,159.7526 17.5221,245.3351 73.8091,519.9153 349.2939,988.2897 768.4834,1306.5617 61.3557,46.5845 134.1188,94.3807 222.8519,146.3854 l 14.1282,8.2803 v 370.7356 370.7359 H 2482.6349 1312.9258 Z M 4879.334,6314.7519 c 140.9326,-281.9835 322.4176,-643.6244 403.3005,-803.6466 80.8828,-160.0222 147.0597,-291.6144 147.0597,-292.4272 0,-0.8129 -130.5669,-1.4779 -290.1486,-1.4779 h -290.1487 v -360.0275 -360.0273 h 799.0481 c 439.4764,0 799.048,-0.5466 799.048,-1.2149 0,-4.704 -47.3355,-102.9178 -68.8515,-142.8556 -171.1455,-317.6798 -420.6321,-581.078 -722.601,-762.8931 -257.9685,-155.3225 -526.092,-245.1615 -830.9492,-278.4227 -71.8787,-7.8422 -259.4785,-11.1102 -335.9636,-5.8526 -184.3486,12.6725 -345.5043,44.6628 -515.0378,102.238 -245.4969,83.373 -461.4303,207.5041 -665.0631,382.3174 -36.619,31.4365 -150.6815,143.9932 -177.735,175.3886 -10.0261,11.6352 -21.6473,24.9338 -25.8247,29.5524 -63.952,70.7039 -172.8725,226.9603 -226.9125,325.5266 -31.7418,57.8953 -86.0227,168.3185 -86.0227,174.995 0,0.6715 359.5716,1.2209 799.048,1.2209 h 799.0481 v 360.0273 360.0275 h -290.1487 c -159.5817,0 -290.1486,0.665 -290.1486,1.4779 0,0.8128 66.1821,132.405 147.0713,292.4272 80.8893,160.0222 262.352,521.6631 403.2504,803.6466 140.8984,281.9835 257.5875,512.6971 259.3096,512.6971 1.722,0 118.4393,-230.7136 259.372,-512.6971 z"
         id="path3375"
         inkscape:connector-curvature="0"
         inkscape:label="Logo"
         sodipodi:insensitive="true" /><ellipse
         style="fill:none;fill-opacity:0.980392;stroke:#000000;stroke-width:3.77952761;stroke-dasharray:none"
         id="path1"
         cx="4620.0127"
         cy="5283.5122"
         rx="2637.6362"
         ry="2637.636"
         inkscape:label="O-circle" /><rect
         style="fill:none;fill-opacity:0.980392;stroke:#000000;stroke-width:15.0595;stroke-dasharray:none"
         id="rect8-6"
         width="3386.5154"
         height="4520.3735"
         x="-62.658779"
         y="-6880.1987"
         transform="rotate(90)"
         inkscape:label="Plate 3"
         sodipodi:insensitive="true" /><rect
         style="fill:none;fill-opacity:0.980392;stroke:#000000;stroke-width:15.0596;stroke-dasharray:none"
         id="rect8"
         width="3386.5154"
         height="4520.374"
         x="4627.542"
         y="3338.9158"
         inkscape:label="Plate 2"
         sodipodi:insensitive="true" /><rect
         style="fill:none;fill-opacity:0.980392;stroke:#000000;stroke-width:15.0595;stroke-dasharray:none"
         id="rect8-3"
         width="3386.5154"
         height="4520.3735"
         x="1225.9673"
         y="3338.916"
         inkscape:label="Plate 1"
         sodipodi:insensitive="true" /><circle
         style="fill:none;fill-opacity:0.980392;stroke:#000000;stroke-width:1.85928;stroke-dasharray:none"
         id="path9"
         cx="1496.0349"
         cy="7199.1753"
         r="56.708153"
         inkscape:label="Bulb" /><circle
         style="fill:none;fill-opacity:0.980392;stroke:#000000;stroke-width:3.77952761;stroke-dasharray:none"
         id="path3"
         cx="4620.0127"
         cy="5283.5122"
         r="2449.5879" /><circle
         style="fill:none;fill-opacity:0.980392;stroke:#000000;stroke-width:3.77952761;stroke-dasharray:none"
         id="path3-8"
         cx="4620.0127"
         cy="5283.5122"
         r="2170.9976" /><path
         style="fill:none;fill-rule:evenodd;stroke:#000000;stroke-width:3.77953px;stroke-linecap:butt;stroke-linejoin:miter;stroke-opacity:1"
         d="M 2919.225,4710.9139 H 4185.3667"
         id="path4"
         sodipodi:nodetypes="cc" /><path
         style="fill:none;fill-rule:evenodd;stroke:#000000;stroke-width:3.77953px;stroke-linecap:butt;stroke-linejoin:miter;stroke-opacity:1"
         d="M 2824.7368,5013.2761 H 4185.3667"
         id="path5"
         sodipodi:nodetypes="cc" /><path
         style="fill:none;fill-rule:evenodd;stroke:#000000;stroke-width:3.77953px;stroke-linecap:butt;stroke-linejoin:miter;stroke-opacity:1"
         d="m 3644.8943,5410.1265 767.2441,1511.811"
         id="path6"
         sodipodi:nodetypes="cc" /><path
         style="fill:none;fill-rule:evenodd;stroke:#000000;stroke-width:3.77953px;stroke-linecap:butt;stroke-linejoin:miter;stroke-opacity:1"
         d="m 1460.3273,7014.5359 1986.1418,411.9685"
         id="path7" /><path
         style="fill:none;fill-rule:evenodd;stroke:#000000;stroke-width:3.77953px;stroke-linecap:butt;stroke-linejoin:miter;stroke-opacity:1"
         d="m 1492.4533,7592.8037 c 24.567,-3.7796 1912.441,28.3464 1912.441,28.3464"
         id="path8" /><path
         style="fill:none;fill-rule:evenodd;stroke:#000000;stroke-width:3.77953px;stroke-linecap:butt;stroke-linejoin:miter;stroke-opacity:1"
         d="m 4177.8077,7243.1974 h 888.189"
         id="path10"
         sodipodi:nodetypes="cc" /><path
         style="fill:none;fill-rule:evenodd;stroke:#000000;stroke-width:3.77953px;stroke-linecap:butt;stroke-linejoin:miter;stroke-opacity:1"
         d="m 4177.8077,7545.5596 h 888.189"
         id="path11"
         sodipodi:nodetypes="cc" /></g></g></svg>
